<mxfile host="app.diagrams.net" modified="2021-10-14T20:13:10.090Z" agent="5.0 (Windows NT 10.0; Win64; x64) AppleWebKit/537.36 (KHTML, like Gecko) Chrome/94.0.4606.81 Safari/537.36" etag="-TLAFVQePnlaSnZiDXRz" version="15.5.2" type="github">
  <diagram id="JbSsGTA_g-RRzxBoYl0l" name="Page-1">
    <mxGraphModel dx="981" dy="526" grid="1" gridSize="10" guides="1" tooltips="1" connect="1" arrows="1" fold="1" page="1" pageScale="1" pageWidth="850" pageHeight="1100" math="0" shadow="0">
      <root>
        <mxCell id="0" />
        <mxCell id="1" parent="0" />
        <mxCell id="4tqr_Nl9Fvb0LUBX_hIL-21" style="edgeStyle=orthogonalEdgeStyle;rounded=0;orthogonalLoop=1;jettySize=auto;html=1;exitX=1;exitY=0.5;exitDx=0;exitDy=0;entryX=0;entryY=0.5;entryDx=0;entryDy=0;" edge="1" parent="1" source="4tqr_Nl9Fvb0LUBX_hIL-1" target="4tqr_Nl9Fvb0LUBX_hIL-4">
          <mxGeometry relative="1" as="geometry" />
        </mxCell>
        <mxCell id="4tqr_Nl9Fvb0LUBX_hIL-1" value="" style="rounded=1;whiteSpace=wrap;html=1;arcSize=8;strokeColor=#0000FF;strokeWidth=2;" vertex="1" parent="1">
          <mxGeometry x="40" y="160" width="220" height="180" as="geometry" />
        </mxCell>
        <mxCell id="4tqr_Nl9Fvb0LUBX_hIL-2" value="&lt;b&gt;Eye tracking&lt;/b&gt;" style="text;html=1;align=center;verticalAlign=middle;resizable=0;points=[];autosize=1;strokeColor=none;fillColor=none;" vertex="1" parent="1">
          <mxGeometry x="95" y="160" width="90" height="20" as="geometry" />
        </mxCell>
        <mxCell id="4tqr_Nl9Fvb0LUBX_hIL-4" value="" style="rounded=1;whiteSpace=wrap;html=1;arcSize=8;" vertex="1" parent="1">
          <mxGeometry x="310" y="160" width="220" height="180" as="geometry" />
        </mxCell>
        <mxCell id="4tqr_Nl9Fvb0LUBX_hIL-6" value="&lt;b&gt;Reinforcement Learning&lt;/b&gt;" style="text;html=1;align=center;verticalAlign=middle;resizable=0;points=[];autosize=1;strokeColor=none;fillColor=none;" vertex="1" parent="1">
          <mxGeometry x="345" y="160" width="150" height="20" as="geometry" />
        </mxCell>
        <mxCell id="4tqr_Nl9Fvb0LUBX_hIL-7" value="" style="rounded=1;whiteSpace=wrap;html=1;arcSize=8;" vertex="1" parent="1">
          <mxGeometry x="580" y="160" width="230" height="180" as="geometry" />
        </mxCell>
        <mxCell id="4tqr_Nl9Fvb0LUBX_hIL-5" value="&lt;b&gt;Task planning&lt;/b&gt;" style="text;html=1;align=center;verticalAlign=middle;resizable=0;points=[];autosize=1;strokeColor=none;fillColor=none;" vertex="1" parent="1">
          <mxGeometry x="645" y="160" width="100" height="20" as="geometry" />
        </mxCell>
        <mxCell id="4tqr_Nl9Fvb0LUBX_hIL-10" value="" style="shape=image;imageAspect=0;aspect=fixed;verticalLabelPosition=bottom;verticalAlign=top;strokeColor=#000000;fillColor=#29FF54;image=data:image/png;base64,iVBORw0KGgoAAAANSUhEUgAAAgAAAAIACAYAAAD0eNT6AAAABHNCSVQICAgIfAhkiAAAAAlwSFlzAAAN1wAADdcBQiibeAAAABl0RVh0U29mdHdhcmUAd3d3Lmlua3NjYXBlLm9yZ5vuPBoAABxBSURBVHic7d1/sOx3Xd/x1xtDEtJIEgFBM8RQpcQoBEggihJAR8QfUBhHGqktAUaLFccfVMTa6VjrGJpSp1YUnEHRVk2k0xChyi+x+FtMQoqENPKrAURQGnMDISSG3E//2GUaU8O9d3fP+eye9+Mxc4eZcHf3tXu/+93nOWfv3RpjZJtU1ZOTPC3JeUnOSXLixDl3JrkuyVVJfifJfxljHJ64Z21VdW6SC7N4fB+d5L5zFx3R+7J4/N+W5OfGGLdO3gP3qKpOSvLPkpyfxXPsi+cuOqKPJ3l7Fs+xy8YYV0/es5aquleSf5LkCVk8/mcn+ZyJk25L8o4sHt/XjjHeNHHL/6e2JQCq6vOS/FSSb5+95bP4gyTPGWO8Z/aQY1VVxyf50SQvytwnxDrel8Xj/3uzh8DdVdXjk7wq2/+if0/uTHJJkh8dY/zN7DHHqqoemsXj/1Wzt3wWv5zke8cYfz17SLIlAVBVp2ZRSWfM3nIUbk3y2DHGu2YPOVpVVUl+O8kTJ0/ZhMNJnjnG+G+zh8BnVNW3JHl1knvN3rIBb03yNWMbXhyOUlV9WZI/SXLS7C1H4YNJzhljHJo9ZFsO1p/Mbrz4J4sD7FVVtUtfRX9PDsaLf7I4Zl9eVfefPQSSZHksvjzbcz5d1xOzOGfshOW5+FXZjRf/ZPFa95OzRyRbcMBW1QVJnjN7xzF6TJLvnj3iaFTVFyS5ePaODXtAFt+qhG1wSRbH5EFy8fLcsQu+O4tz8i55zvK1b6rpAZDkG2YPWNGu7L4gu1PGx2JXHn8OvoN4LJ6UxbljF+zq4z999zYEwHmzB6xoV3bvys5j9aCqOn32CHpbHoMPmr1jj+zKuWNXdt7d9N3bEACPmD1gRfffkW+R7erjezQO8n1jNxzkY3Dr79vyHLyr7wea/vhuQwCcMHvAGnZh+y5sXNVBvm/shoN8DO7CfduFjfdk+vZtCAAAYJ8JAABoSAAAQEMCAAAaEgAA0JAAAICGdj0AThtj1Dq/knxg9p3YYk9a9/E9isf/12ffSZjk1/fh+fWk2Xdyi31gA4/vabPvxDqOmz1gx/1ZVW37J2YdP3vAHnp1VR2ePYLWdv2LqM/mgqq6bfaII6jZA3aZAFjPQX5x3QX3nj0ADrDKFvxjNeydg1yvAMA9EAAA0JAAAICGBAAANCQAAKAhAQAADQkAAGhIAABAQwIAABoSAADQkAAAgIYEAAA0JAAAoCGfBries5J8YPaII3hTksfPHrFHnpnkdbNH0NpTk7x69og98ntJnjx7xBF8UZLrZ4/YVQJgPbePMbb687Kr6vDsDXvojm1//DnYquqO2Rv20OFtf35V1e2zN+wyPwIAgIYEAAA0JAAAoCEBAAANCQAAaEgAAEBDAgAAGhIAANCQAACAhgQAADQkAACgIQEAAA0JAABoSAAAQEMCAAAaEgAA0JAAAICGBAAANCQAAKAhAQAADQkAAGhIAABAQwIAABoSAADQkAAAgIYEAAA0JAAAoCEBAAANCQAAaEgAAEBDAgAAGjpu9gC22mVVddse38bn7/H1w7Z6clXdsMe3ceIeXz87TADw2Txw9gA4wO6T5Itmj6AvPwIAgIYEAAA0JAAAoCEBAAANCQAAaEgAHHyfnj1gDx3k+8ZuOMjH4C7ct3U27sL921MC4OC7bvaAPXSQ7xu74SAfg7tw3z6c5OMrXnYX7t+eEgAH31WzB+yRm8YY7589gt6Wx+BNs3fska0/d4wxRpKrV7z41t+/vSYADr4/SHLn7BF74HdmD4Clg3gs3pnFuWMXrPr4H8Q/t2MiAA64Mcb7klwye8eGfTLJC2ePgKUXZnFMHiSXLM8du+DfJznWrZeOMQTA7AHsi3+T5NrZIzboRb79z7ZYHosvmr1jg67N4pyxE8YYtyZ5TpLDR3mRjyb5nr1btDsEQANjjNuTPCHJpbO3rOmvk3z7GONnZw+Bu1oek9+exTG6yy5N8oTlOWNnjDF+L8kTc+TvBLwxyWPHGDfu+agdUIv3UEwcUHUoySkrXvy0McahNW//hqz+gRwPGWPcsM7t77eqenqSf5zkvCRnzl1zVG5L8o4kb0vykjHGRybvgXtUVV+Q5MVJzk9yTnbj0/huyOINcb8yxrhi8pa1VNVJSX4wiy94zk1y3yR/keTKJJePMf7zhm/v1Kz+JtCbxxinbnLPsRIAzQLgrqrqtKz+2O+HkeTDY4z2f1+X3VNVxyU5PUnN3vJZ3DzGOJB/i6GqKovXiD37rsyuB4CPA25s+cQ/kE9+mG0Zrh+YvaOr5V8R3PUfyewp7wEAgIYEAAA0JAAAoCEBAAANCQAAaEgAAEBDAgAAGhIAANCQAACAhgQAADQkAACgIQEAAA0JAABoSAAAQEMCAAAaOm72AADYlKp6ZJILkpyX5Mwk70xyZZI3jzE+PHHa1hEAAOy8qjo5ySVJnp+k7vJ/PX75v7dU1YuSvGKMMfZ73zbyIwAAdlpVPTDJnyb5rvztF/+7OjnJzyZ5bVXd0+9pRQAAsOtenuQhR/l7vznJ9+zhlp0hAADYWVX1rUmecYwXu7iqztz8mt0iAADYZReucJmTkjx100N2jQAAYJedt8+XOzAEAAA7qarul+SMFS/+6E1u2UUCAIBd9bmTLnsgCAAAaEgAAEBDAgAAGhIAANCQAACAhgQAADQkAACgIR8HvJ7XVNXts0cANHXC7AG7TACs55GzBwDAKvwIAAAaEgAA0JAAAICGBAAANCQAAKAhAZDcOXsAAPuu/blfACTvnj0AgH3X/twvAJKrZg8AYN+1P/cLgOQPZg8AYN+1P/e3D4AxxhuSvH72DgD2zeuX5/7W2gfA0nckOTR7BAB77lAW5/z2BECSMcaHk1yQ5O2ztwCwZ96e5ILlOb89AbA0xnhnkvOT/FCStyW5be4iADbgtizO6T+U5PzluZ4kNcaYO6DqUJJTVrz4aWOMPfnWfVXdO8lZSf7eXlw/AHvuk0muH2PcsRdXXlWnJrlpxYvfPMY4dZN7jpWPA74HywNGKQJwIPkRAAA0JAAAoCEBAAANCQAAaEgAAEBDAgAAGhIAANCQAACAhgQAADQkAACgIQEAAA0JAABoSAAAQEMCAAAaEgAA0JAAAICGBAAANCQAAKAhAQAADQkAAGhIAABAQwIAABoSAADQkAAAgIYEAAA0JAAAoCEBAAANCQAAaEgAAEBDAgAAGhIAANDQcbMHHDRVdZ8kj01yXpJHJTl57qK1HE7yniRXJXnbGOODk/ccUVV9TpJHZ/H4n5fkfnMXrWUk+VCSq5NcOca4bvKeo1JVZyd5TJJzkzw4Sc1dtJYbszj+r0ry9jHGnZP3HFFVnZHk/CyO/4dmt7/QuyXJNVk8/n8yxvjU5D0HSo0x5g6oOpTklBUvftoY49Am96yjqp6U5BeSnDl5yl44nOSlSf71GOP22WP+LlX1D5L8UpKvmL1lj/zXJN81xrhx9pC/S1XdL8nLk3zr7C175I+TPHuM8e7ZQ/4uVXVCkh9L8i+y2y/69+SGJM8dY/yP2UM+o6pOTXLTihe/eYxx6ib3HKuDeJBMUVU/keQtOZgv/sniWHlRkquq6gtnj7m7qrowi68UDuqLf7J4Yb22qh47e8jdLTddm4P74p8sjq1rlsfaVlk+J6/K4jl6UM/rZyZ5y/Jcywb4DsAGVNXTkvz67B376DfHGN80e8RnVNWXJHlHkpNmb9kn709yzhjjltlDkqSqTs7i8f/7s7fsk1uzePzfO3vIZ1TVbyT5xtk79tE/HGO8dvYI3wForqo+L8nPzd6xz76xqp4ze0SSVNW9svi2f5cX/2TxQvvS2SPu4qXp8+KfLI61X1oee9Mtn4udXvyT5OeW517WsBUH8I57apIHzR4xwXfOHrD08CSPmz1igouqavqbeJcbLpq9Y4LHZXHsbYNteS7upwdlce5lDQJgfefNHjDJOdvwApS+j/8JSc6ePSKLDSfMHjHJ9GNv+Rw8Z/aOSaY//rtOAKzv3NkDJrlPtuMFqOvjnyz+muls27Bhlm049s7O4rnY0TY8/jtNAKyv88+htuG+b8OGWU6bPSDbsWGWbTj2tmHDLJ3v+0YIAABoSAAAQEMCAAAaEgAA0JAAAICGBAAANLQN/5BLZy9I8uHJG348yZdN3jDLf0jy+5M3PC/JN0/eMMt/T/Lzkzd8dZIXTt4wy7uS/KvJG05P8rLJG9oSAHO9ZYxx/cwBVfV9M29/sqvGGFfMHFBVT5x5+5O9bwse/xNn3v5k/2cLHv+zZt5+d34EAAANCQAAaEgAAEBDAgAAGhIAANCQAACAhgQAADQkAACgIQEAAA0JAABoSAAAQEMCAAAaEgAA0JAAAICGBAAANHTc7AHNXVxVN0/e0PnzuL+rqp4yecNjJ9/+TE+uql+cvOEhk29/prO24PE/ZfLttyYA5nr67AHNXbD8xRxfuvzFHA9M8uzZI5jHjwAAoCEBAAANCQAAaEgAAEBDAgAAGhIAANCQAACAhgQAADQkAACgIQEAAA0JAABoSAAAQEMCAAAa8mmAc/3LJB+ZvOHFSR42ecMsr0jytskbnpXk6yZvmOXNSX518obzkzx/8oZZ/izJSyZv+IIkPzF5Q1sCYK7XjDGunzmgqi5K3wD4nTHGZTMHVNUj0zcArhtj/OLMAVV1W/oGwEe34PE/KwJgGj8CAICGBAAANCQAAKAhAQAADQkAAGhIAABAQwIAABoSAADQkAAAgIYEAAA0JAAAoCEBAAANCQAAaEgAAEBDAgAAGhIAANCQAACAhgQAADQkAACgIQEAAA0JAABoSAAAQEMCAAAaEgAA0JAAAICGBAAANCQAAKAhAQAADQkAAGhIAABAQwIAABoSAADQkAAAgIYEAAA0JAAAoCEBAAANCQAAaEgAAEBDAgAAGhIAANCQAACAhgQAADQkAACgIQEAAA0JAABoSAAAQEMCAAAaOm72gOa+o6o+NnnDGZNvf6anVdWZkzecN/n2Zzqvql48ecMjJt/+TGdsweP/gMm335oAmOsHZg9o7tuWv5jjq5a/mOMhSS6ePYJ5/AgAABoSAADQkAAAgIYEAAA0JAAAoCEBAAANCYD1fWT2gIm24b5vw4ZZPjp7QLZjwyzbcOxtw4ZZOt/3jRAA67tq9oBJPp7k3bNHpO/jnyTXzB6Q7dgwyzYce+/O4rnY0TY8/jtNAKzvytkDJrl6jDFmj0jfx/+WJO+ZPSKLDbfMHjHJ9GNv+Ry8evaOSaY//rtOAKzvtUmunz1ign83e0CSjDHeneTy2TsmuGSMcXj2iOWGS2bvmODy5bG3DbbiubjPrs/i3MsaBMCaxhi3JbkoyZ2Tp+ynV44x3jh7xF08P8lfzR6xj67Mdv0Trhen11djf5XFMbcVls/FV87esY/uTHLR8tzLGgTABowx3pbkO5N8cvaWffC6bNlnGIwxPpbkW5L8+ewt++CaJBeOMT49e8hnLLdcmB7vB/jzJN+yPOa2yQ9k8dw86D6Z5DuX51zWJAA2ZIzxC0nOSfK7s7fskUNJnjvGeNoY4xOzx9zdGOP3kzw8yS8n2Yb3JmzaHUn+bZLzxxjvnz3m7pabzs9i4x2T5+yFkcWx9fDlsbZVxhifGGM8Lclzs3iuHkS/m+Sc5bmWDajZ7+OqqkNJTlnx4qeNMbbuYK+qB2bxMa+PSnLy5DnrOJzFm7yuSnLdGGMnfsxRVfdNcm4Wfwb3mzxnHSPJh7J4k9c7duVbnlV1YhYxfG6SByepuYvWcmMWx//VY4ydeLd9VX1OkrOzOP4fmt3+Qu+WLL6zdNUY4y9nj7m7qjo1yU0rXvzmMcapm9xzrAQAAKxg1wNgl8sQAFiRAACAhgQAADQkAACgIQEAAA0JAABoSAAAQEMCAAAaEgAA0JAAAICGBAAANCQAAKAhAQAADQkAAGhIAABAQ8fNHgB3V1X3SvIlSR6V5LTJc2AdNyW5Jsl7xxiHZ4+BuxIAbI2quk+Si5M8L8nJk+fAJt1SVT+f5IfHGJ+aPQYSPwJgS1TVo7L4Sul748Wfg+fkLI7ta5bHOkwnAJiuqk5L8rokD5u9BfbYw5K8bnnMw1QCgG3wsiSnzx4B++T0LI55mEoAMFVVnZXkWbN3wD571vLYh2kEALM9ZvYAmMSxz1QCgNnOmz0AJnHsM5UAYLYzZg+ASRz7TCUAmK1mD4BJHPtMJQAAoCEBAAANCQAAaEgAAEBDAgAAGvJpgOyyNya5YfYIWjszydfPHgGr2PUAeFZV3Tp7BGtZ5+9Cv2KMccXGlsAxqqqnZ/UAOKOqLtrgHPbfSbMHrGPXA+BnZg8AWNGjkrxq9gj68h4AAGhIAABAQwIAABoSAADQkAAAgIYEAAA0JAAAoCEBAAANCQAAaEgAAEBDAgAAGhIAANCQAACAhnb90wAvTfI3kzc8I8l9V7zsFUlu3uCWVTwlyQNXvOwbk3x0zdv/miQPXvM6YBd9KMlvr3kdD8rqH0f8l0nesObtr+uUJE9f8bIfT/KaDW5ZxfFJvm3yhpXtegD88zHGoZkDquorsnoA/PAY4/pN7jlWVfXWrB4ALxljvHXN278iqwfAV1fVievcPqzpvDUu+/YxxkXr3HhVPTGrB8D1697+uqrqrKweAB/Zgv2nRgDAFC+cPQBgV3kPAAA0JAAAoCEBAAANCQAAaEgAAEBDAgAAGtqGALhxxcvdnuSWTQ5hilX//GHXOfaZahsC4KoVL/eOMcanN7qEGVb984dd59hnql0OAE+eg8GfI1059plqGwLg0hz7v4f/6SSv3IMt7L+3J/nj2SNgn/1xFsc+TDM9AMYYf57k+4/xYj8xxrhmL/awv8YYdyZ5dpJbZ2+BfXJrkmcvj32YZnoAJMkY41VJfuYof/sVSX58D+ewz8YY707yvIgADr5bkzxveczDVFsRAEkyxnhBkm9I8uF7+C2HkvzTMcYzxhh37N8y9sMY47Ik5yT5w9lbYI/8YZJzlsc6TLdVnwY4xnhDVT00yblZfMzm2Unem8WbZa4cY3xi5j721hjjvVX1+CQPz+LP/9wkn3eEi31lkjNWvMk/SvLBFS/LwXBGFsfQKj6YxTH02fx1kquzOIe9c4xxeMXbgo3bqgBIkjHGp5L8/vLXQfe1y8/Dnun+k2//b1meIN+x/PXzR/r9VXVZVg+A/+Srsd6q6sKsHgB/NMa4cJN79tn9q+rpkzecPvn2W9u6AGjmZbMHAG19WZLXzB7BPFvzHgAAYP8IAABoSAAAQEMCAAAaEgAA0JAAAICGBAAANCQAAKAhAQAADQkAAGhIAABAQwIAABoSAADQkE8DnOstSW6ZvOGrk9xv8gZg/92Y+R+7fnKSr528oa2tDYCqOi3JlyZ53xjjL2fv2SMvGGNcP3NAVb01yRNmbjiIqureSR6e5PNnb9lxf5XknWOMO2YPOYCuHWM8feaAqjoryf+auaGzrQqAqjo5yY8leVqSL77Lf/9QkjcnefEY42OT5sERVdWzknxfkkckOWHynIPi9qr60yT/cYzxq7PHwEGxNe8BqKqvSfLOJN+fu7z4Lz04yXOTXFdVz9zvbXAkVfWAqro8ya8keUy8+G/SCVk8pr9SVZdX1QNmD4KDYCu+A1BVX57k9UmOP8JvvX+SX6uqQ2OMN+39MjiyqrpXkiuSPG72lgaekeSBVfX4Mcbh2WNgl03/DkBVHZfkl3LkF/+7emVV3XePJsGx+sF48d9Pj8viMQfWMD0AkjwryaOP8TIPzuLnrDBVVX1uFu9bYX/92PKxB1a0DQHwlft8OdikR+fYvnvFZhyfY//CAbiLbQiAc/f5crBJjsN5PPawhm0IgC9Z8XIP8D4AtsCqxy/r89jDGrYhANbZsA376c0xOI/HHtbgCQQADQkAAGhIAABAQwIAABoSAADQ0FZ8FgA0dV2SD80eMdmDk5w9ewR0JABgnp8eY7xi9oiZqur5SV4+ewd05EcAANCQAACAhgQAADQkAACgIQEAAA0JAABoSAAAQEMCAAAaEgAA0JAAAICGBAAANCQAAKAhAQAADQkAAGhIAABAQwIAABoSAADQkAAAgIYEAAA0JAAAoCEBAAANCQAAaEgAAEBDAgAAGhIAANCQAACAhgQAADQkAACgIQEAAA0JAABoSAAAQEMCAAAaEgAA0JAAAICGBAAANCQAAKAhAQAADQkAAGhIAABAQwIAABoSAADQkAAAgIYEAAA0JAAAoCEBAAANCQAAaEgAAEBDAgAAGhIAANCQAACAhgQAADQkAACgIQEAAA0JAABoSAAAQEMCAAAaEgAA0JAAAICGBAAANCQAAKAhAQAADQkAAGhIAABAQ8fNHtDc6VV12+QNJ06+fWCOE6vqzMkbTp98+60JgLl+a/YAoK3zk/zv2SOYx48AAKAhAQAADQkAAGhIAABAQwIAABoSAADQkABY3ydnD5io832HbdD5Odj5vm+EAFjf/5w9YJJPJ7l29gho7tosnosddT33bowAWN+VswdM8q4xxqdmj4DOls/Bd83eMUnXc+/GCID1vSFJxxfCy2cPAJL0fC5+KotzL2sQAGsaY9yQ5Edm79hn1yZ5yewRQJLFc7Hbj+N+ZHnuZQ0CYDN+KsmbZ4/YJ59IctEY429mDwGS5XPxoiyemx28OYtzLmsSABswxjic5ClJfjDJ7E/320u/leTLxxhXzx4C/D/L5+SX52B/wNhtWZxjn7I857Imnwa4IcsD8qVVdXmSpyY5L8mjkpw8ddh6Did5T5KrkvzhGOM3Ju8B7sEY44NJvq6qvinJ47I4Bz00u/2F3i1JrsniHPS6Mcb7J+85UATAhi0PUN+eAqZYhrpY54h2uQwBgBUJAABoSAAAQEMCAAAaEgAA0JAAAICGBAAANCQAAKAhAQAADQkAAGhIAABAQwIAABoSAADQkAAAgIYEAAA0dNzsATDRSVV16prXcfwal73PBm5/191njcsev4HH76Q1Lw87q8YYcwdUHUpyyooXP22McWiTe9gtVXVZkn80ewct/doY48LZI5hnGaA3rXjxm8cYU78A8CMAAGhIAABAQwIAABoSAADQkAAAgIYEAAA0JAAAoCEBAAANCQAAaEgAAEBDAgAAGhIAANCQAACAhnwcMJ3dmuSO2SOY6t7xkcA0JQDo7HljjMtmj2CeqrowyaWzd8AMfgQAAA0JAABoSAAAQEMCAAAaEgAA0JAAAICGBAAANCQAAKAhAQAADQkAAGhIAABAQwIAABoSAADQkAAAgIYEAAA0JAAAoKEaY2z2Cqu+Mck3JXlMkkckOWGjNwAAPdye5E+TXJnkN8YYv7nJK99YAFTVA5K8LMkzN3KFAMBdvTrJC8YYH9vElW0kAKrqfllUyheufWUAwD35iySPGGPcuO4Vbeo9AD8dL/4AsNe+MIvX3LWt/R2AqnpykjduYgwAcFS+fozxpnWuYBPfAfiGDVwHAHD01n7t3UQAnLeB6wAAjt7ar72bCICHbeA6AICjt/Zr7yYC4M82cB0AwNFb+7V3EwFw1QauAwA4emu/9m4iAF6/gesAAI7e2q+9awfA8q8hXLru9QAAR+XSdf8KYOJfAgSAXbJd/xLgcsgjs/h3igGAzXt1kkdu4sU/8WmAALCt9vTTAP8vdmkeNAbjOwoAAAAASUVORK5CYII=;base64,iVBORw0KGgoAAAANSUhEUgAAAgAAAAIACAYAAAD0eNT6AAAABHNCSVQICAgIfAhkiAAAAAlwSFlzAAAOxAAADsQBlSsOGwAAABl0RVh0U29mdHdhcmUAd3d3Lmlua3NjYXBlLm9yZ5vuPBoAABa3SURBVHic7d1rrGZXWQfw/1zaGejQgm0pLYJFIxfbGUQg3GpspTVBg5qYRiIJIbZeuKjAB0Hlgx+MMYoKWCgYGhMjX7wkgiihFFKCmhgQUFruQqEUKB21t7HQzvT4YZ+TOTNzzsyZ8679rr3X+v2SFaChe629z/6v87zPu8/7JgAAAAAAAAAAAAAAAAAAAAAAAAAAAAAAAAAAAAAAAAAAAAAAAAAAAAAAAAAAAAAAAAAAAAAAAAAAAAAAAAAAAAAAAAAAAAAAAAAAAAAAAAAAAAAAAAAAAAAAAAAAAAAAAAAAAAAAAAAAAAAAAAAAAAAAAAAAAAAAAAAAAAAAAAAAAAAAAAAAAAAAAAAAAAAAAAAAAAAAAAAAAAAAAAAAAAAAAAAAAAAAAAAAAAAAAAAAAAAAAAAAAAAAAAAAAAAAAAAAAAAAAAAAAAAAAAAAAAAAAAAAAAAAAAAAAAAAAAAAAAAAAAAAAAAAAAAAAADQp/1J3pLkliT3J1mpPO5fXcubk1w64nnDFMgfsHR7krw9yZHU33Q2G4eTXJfkzJGuAdQif0AVe5J8OPU3mK2OD8UmRDvkD6jm+tTfVE53/NkoVwKWT/6AKvZn2m3HzcbhJJeMcD1gmeSPydpZewGM7trM8+e8K8k1tRcBC5I/oJpbU//VxHbHp0e4HrBM8sdk7ai9AEZ3X5J9tRexTfclObv2ImAB8sdkKQDativDe3lztjvDe6gwN/LHpM3xvSm2bk/tBRTgz5GYK/lj0hQAbbMBQT3yx6QpANrWQnhbOAf61MK928I5sAkFQNv21l5AAS2cA31q4d5t4RzYhAKgbefWXkAB31N7AbBN8sekKQDa1sIG1MI50KcW7t0WzoFNKADadl7tBRTQwjnQpxbu3RbOgU3srr0ARlWiel/0syJWFvz3vQJhruSPSdMBaNtFtRdQQAvnQJ9auHdbOAc2oQBo25NqL6CAi2svALZJ/pg0BUDbLq69gAJa2ETp08W1F1CA/DVMAdC2FsJ7ce0FwDbJH5Pmy4DatS/JvVn8Z1z7IaSHkzwqyf8teBxYJvlj8nQA2rU/bRR4O5NcWnsRcJrkj8lTALTrQO0FFNTSudCHlu7Zls6FdRQA7dpfewEFtXQu9KGle7alc2EdBUC7WgqtVyDMjfwxeS28R8WJzkhyd5JHFjhW7YeQkuRQkkcnOVzgWDA2+WMWdADa9IyU2Xym4qx4FcJ8yB+zoABo02W1FzCCF9ReAGyR/DELCoA2Pb/2AkZgA2Iu5A+oYleSgxne+ysxFlVqHd+OgpXpkz9mww+0Pc9Om1/heX6G91ZhyuSP2VAAtOdFtRcwopbPjTa0fI+2fG5dUgC0p+WQtnxutKHle7Tlc4PZuyjJkZR7329K70GuZPg75AsKrAnGIH/Mig5AW65O2z/TXUl+rvYiYBPyB1Tzrylb8U/tFchKko8UWBOMQf6AKp6Q4bu7W9+AjiR5fIF1QUnyx+y03K7qzUvTx3c77EzyktqLgOPIH1DFjiRfSPlqf4qvQFaSfC59bLbMg/wB1VyRcYI+1Q1oJcmPFlgblCB/zJK3ANpwbe0FVPBLtRcAq+QPqOKCJA+kv1cgD2T4eFKoSf6YLR2A+Xt1kr21F1HB3iSvqr0Iuid/QBWPTHJXxqvyp/wKZCXDN5Q9osAaYTvkT/5mTQdg3q5Jcl7tRVR0fpKX1V4E3ZI/+YMqzkxyW8at8Kf+CmQlyZeSnFFgnXA65E/+oJpXZvxwz2EDWkmfT2FTl/zJH1SxN8ntsQGtja8m2VNgrbAV8id/TfAMwDz9apLvrb2ICXlivApheeTvWPIHS/KYjP/k8dxegawkuTPJOQXWCycjf/IH1bw1ywv1nDaglSR/VGC9cDLyJ39QxdOSPBgb0Gbju0meXGDNsBH5kz+o5gNZbqDntgGtJPmHAmuGjcif/EEVL83ywzzHDWglydUF1g3ryZ/8QRXnZnjIxga0tfHNDA9rQQnyJ39QzV+mTpDnugGtJLmhwNohkT/5g0penHohnvMG9HCSFxVYP32TP/mDKh6b5FuxAW133JnkcQXOgT7Jn/xBFTuSvC91Azz3DWglyfszXEs4HfInf1DNa1M/vC1sQCtJXlXgPOiL/MkfVPG8DB+qUTu4rWxADya5rMC50Af5kz+o4nFJ7kj90La0Aa0k+UaSiwqcD22TP/mDKs5I8tGUC92XChxjUVM4h7Vxc5LdBc6JNsmf/EE116dc2I4k+bECx1nUovM/P8nhgtflXQXOiTbJn/xBFW9MuZCtJHnT6nHnvgElyZ8UvjavL3BetEX+5A+q+PkMH5xRKmCfTfKI1WO3sAHtSXJrwevzcIbPdodE/uQPKvmJJN9JuXAdTvKcdcdvYQNKkuembCvygSQvLHB+zJv8yR9UcVmSQykXqpUkv3fcHK1sQEny+wWOt37cn+QFBc6ReZI/+YMqfjjJ/6RsoG7OiU/ZtrQB7U7ykQLHXD/uSfKsAufJvMif/EEVz0xyMGWD9M0kF24wV0sbUDL8LXHpz2c/mOFnQh/kT/6gisuS3J2yATqc5MpN5mttA0qSy5M8VODY68fd0Y7sgfzJH1RxRZL7UjY4K0necJI5W9yAkuS3Cxz7+HEow0NhtEn+5A+q+IWUfdp4bbwnJ/+2rVY3oB1J3lvg+MeP7yR5SYHzZlrkT/6git/I8MlgpcPyiST7TjF3qxtQMpz7JwrMcfx4OMnvLnbaTIj8yR8s3RlJbkj5gKwk+Wq29uUaLW9AyXANvlZgno3Gn2f4GTJP8id/UMX5ST6ccYJxT5IDW1xH6xtQklyS5H8LzLXR+Gg2frqbaZO/5c0vf7DOCzJ8/eUYgXgwyVWnsZYeNqBkeMBrrO9wvyPDl6IwD/K3/Pnlj+7tSPLaDJvEGEE4kuRlp7mmXjagJHl5yn6m+/rx3SS/npM/8EVd8ld3/pdH/ujUY5O8L+Pc/CsZgvWKbayrpw0oSa7JeJvQSpIbs7X3flku+ZvG/PJHd16c5NsZd/N51TbX1tsGlCS/lnE3oTuT/NQ210Z58jet+eWPLjwmyTsz7s2+kuQ3F1hjjxtQMvzp15g/k5Ukf53kvAXWyGLkb7rzyx9NuzpDJTr2Tf5bC66z1w0oSV5XYP5Tjf9O8ssLrpPTJ3/Tn1/+aM7Tknwg49/YLWwALcy/1fH+JE8tsF5OTv76ml/+mITHJPmDjPenLlMNYO/zn854KENLWluyPPnrc375o6q9SV6T8l8fOpcA9j7/dsZdGd4D3Vtg/b2Tv77nlz+qOCPDe0tfT52beCoB7H3+RcbtGTaiPQXOozfyZ375Y+nOSvLqJLel7s07lQD2Pn+J8eUkr0zyyALn0zr5M7/8sXTnZ/gGqlqtxqkGsPf5S467k7wlPshkI/JnfvljqXZk+Azrdyd5IPVv0CkGsPf5xxgPJPmrJJen7482lT/zyx9L98Qkb0jyxdS/GacewN7nH3t8IcnrkzyhwLnOhfyZfyqjx/x16bwMDxX9c8b/5DAbUDvzL3N8PMNDSy22KOXP/FMfLedvQy23P3YmeUaSK1fH5Ul211zQNi36M1o0xL3PX8PDST6Z5KbVcXOSwzUXtA3yN5j7/V97/hpayN+WtFQA7E7yIxm+N/qyDBvOuTUXVEjtAPY+/xQczLAJ/cvq+GSmtyHJ38bmfv/Xnn8K5pC/bZlrAbAvyaVJDqyO/UmemeFPiFpTO4C9zz9Fh5L8e5L/XDduTXL/kuaXv62b+/1fe/4pqp2/YqZSAOzL8MEfu5KcvTrOz/C+4blJLkzypNVxcZLHVVnl6ftKhjUvonYAe5+/xM9wWb6Z4e/nv7L6n9/I8GUpB1fHvUnuydDifChHNyz521zt+6/3+XvIX9NqP9hRYzyY4e9N9xU41qLMv9h4RIa/T/9OgWMZyxny1878vedv9mpfwGWPDyZ5csHzX5T5y8z/lAwPBNW+v4yTD/lrc/5e8zd7tS/gssbnM3xHeenzX5T5y85/ZZJPFziuUXbIXx/z95a/2at9AcceBzN8kMSZI53/osxffv7dGf6m/VsFjm8sNuSvv/l7yt/s1b6AY42DSX4nyaNGPv9FmX+8+c9O8sYMD/rUvh97G/Jn/h7yN3u1L2DpcTDDQymPXtL5L8r848+/L8MniPXwiqT2kD/zH6/l/M1e7QtYanw5yWsy3GzLPP9FmX958z8qwz3y5QLzGscO+TP/qbSYv9mrfQEXHR9P8rJs/2NMa98A5l/+/DuTvDjDE+m179+5D/kz/+lqKX+jWsYHAY1+EiOr/UEY5u97/t7Vvv7m73v+2kb9Hb1zzIMDANOkAACADikAAKBDCgAA6NB2n6ydsoNJPpbh6eGPJXlv3eXAQn4myXNWx7MzfPjJlN2bIXf/tjreU3c5sJCfzpC7Zyd5VoZvyGzGnP8K4J4kX1wdX8jwfcwfy/A1jCXnr/0UqvnNv2Znkh9IciDJ/iSXJnnq6j/bu+A8p+uBDH9v/bkkt2T4fPb/WP1nD6/7/7V0/c1v/idlKAYuSfKDq+PJGa8wH/V39FQKgLXvSD6U4as8v7v6z+5K8u0M37N81+q4PcMv/TsLzn8yU7sBzW/+jTw+yfcneWKSC1b/9wVJXrrg/O/OkLWvZ8ji15L8V4bvOt+KXq6/+fue/4IMxcATkpy/Oi5a99/PSbInw3dWnJWhmD+n4PzbsowCoLZebkDzm9/85jf/tOafNA8BAkCHFAAA0CEFAAB0SAEAAB1SAABAhxQAANAhBQAAdEgBAAAdUgAAQIcUAADQIQUAAHRIAQAAHVIAAECHFAAA0CEFAAB0aIzvOt6f5NokL0xycZKzRpiD5an9fdzQM/nr26EktyW5Kcm7ktxS8uAlC4A9Sf40ya9EZ6ElNiCoR/5YcyTJO5K8LsmDJQ5YqgDYk+T9Sa4odDymwwYE9cgfx/twkhelQBFQ6pX6m+OXPwCM7ceT/HGJA5XoAOxP8qlo+7fKKxCoR/7YyJEkT09y6yIHKfFL+9pCxwEATm1XkmsWPUiJX9xXFjgGALB1Vy16gBJvAdyXZF+B4zBNWpBQj/yxmfuSnL3IAUoUAG6wttmAoB7542QWuj+8dw8AHVIAAECHFAAA0CEFAAB0SAEAAB1SAABAhxQAANCh3bUXkLJfScyJ5v53wO4P5kz+OJmq94cOAAB0SAEAAB1SAABAhxQAANAhBQAAdEgBAAAdUgAAQIcUAADQIQUAAHRIAQAAHVIAAECHFAAA0CEFAAB0SAEAAB1SAABAh3bXXkDm/33ZjMv9AfXIX8N0AACgQwoAAOiQAgAAOqQAAIAOKQAAoEMKAADokAIAADpUogC4r8AxAICtu3fRA5QoAG4vcAwAYOu+tugBShQAHyxwDABg625c9AA7Cizi0iSfSrKrwLGYnkXvER8lCtsnf2zkSJIDST6zyEFKdABuSfKOAscBAE7tbVnwl39SpgOQJGcm+ackLyx0PKbDKxCoR/443k1JfjLJQ4seqNSfAT6YYUHXZWhNAADlHEny1hT65Z+U6wCsd0mSa5JcleTiJPtGmIPl8QoE6pG/vt2f5LYMD/zdkAJt//XGKACYlkU3gNobkHuUOat9/9eenwnzSYAA0CEFAAB0SAEAAB1SAABAhxQAANAhBQAAdEgBAAAdUgAAQIcUAADQIQUAAHRIAQAAHVIAAECHFAAA0CEFAAB0SAEAAB1SAABAhxQAANAhBQAAdEgBAAAdUgAAQIcUAADQIQUAAHRIAQAAHVIAAECHFAAA0CEFAAB0SAEAAB1SAABAhxQAANAhBQAAdEgBAAAdUgC05+lJ3pbks0kOFTjeyoJjUYcynMt1SQ4UOB6MSf6Apdub5PokR7L4pjHVcSTJ25PsKXTNoBT5A6rYm+Tm1N8gljU+FJsQ0yF/QDXXp/6msOxxXZErB4uTP6CKA2m77bjZOJLk0gLXDxYhf8yWhwDn7xXp8+e4M8kray+C7skfs7Wj9gJYyO4kdyR5bO2FVHIwyYVJDtdeCF2SP/mbtR4r15ZckX43nyQ5L8nltRdBt+RP/mZNATBvV9dewAS4BtTi3nMNZs1bAPPVe/txjTYkNcjfQP5mTAdgvnpvP67RhqQG+RvI34wpAOZL6+0o14Jlc88d5VrMlLcA5kn78VjakCyT/B1L/mZKB2CetB+PpQ3JMsnfseRvphQA86TldiLXhGVxr53INZkhbwHMj/bjxrQhWQb525j8wRJclcU/x/sdS1/1qb0zi5/XlUtfNb2RP/lrhrcA5qdEq+1vChyjtBJr0oZkbPK3OfmDEe1OcmcWq9LvWj3O1OxKu+dGG+RvnufGJnQA5qXE08d/l2m+T3ckyd8veAxPIzMm+Ts5+ZsZBcC8tNp+XKMNyZTJ36nJH4yg5fbjGm1Ipkr+2jhH1tEBmI+W249rtCGZKvnbGvmbEQXAfLTeflyjDckUyd/WyR8U1EP7cY02JFMjf22ea/d0AOahh/bjGm1Ipkb+To/8zYQCYB56aT+u0YZkSuTv9MkfFNBT+3GNNiRTIX99nHOXdACmr6f24xptSKZC/rZH/mZAATB9vbUf12hDMgXyt33yBwvosf24RhuS2uSvz3Pvhg7AtPXYflyjDUlt8rcY+Zs4BcC09dp+XKMNSU3ytzj5g23ouf24RhuSWuRP/pqnAzBdJdqPf5t5th/XaENSi/zJX/MUANPVe/txjTYkNcjfQP5gybQfj9KGZNnk7yj5a5gOwDRpPx6lDcmyyd9R8tcwBcA0aT8eSxuSZZK/Y8kfLIn244m0IVkW+TuR/DVKB2B6tB9PpA3JssjfieSvUQqA6dF+3Jg2JMsgfxuTPxiZ9uPmtCEZm/xtTv4apAMwLdqPm9OGZGzytzn5a5ACYFq0H09OG5Ixyd/JyR+MRPvx1LQhGYv8nZr8NUYHYDq0H09NG5KxyN+pyV9jFADTof24NdqQjEH+tkb+GrKj9gJIMrTE7sjir0DYmoNJLkzbr9bYOvlbLvmbCB2AaSjRfmTrtCFZT/6WS/4mQgEwDVpiy+eas8a9sHyu+QR4C6A+7cc6tCFJ5K8W+ZsAHYD6tB/r0IYkkb9a5G8CFAD1/WztBXTMtcc9UI9rX5kCoL7n1V5Ax55bewFUJ3/1yF9lngGo7/4kZ9VeRKfuS3J27UVQlfzVI3+V6QDU91DtBXTswdoLoDr5q0f+KlMA1Hd77QV07Ou1F0B18leP/FWmAKjvptoL6NiNtRdAdfJXj/xV5hmA+p6S5NNJzqi9kM4cTnIgyWdrL4Sq5K8O+ZsAHYD6Pp/k+tqL6NDbY/NB/mqRP1h1RpJ/zGLfs21sfdyY5Mwt/WTogfzJH1S1N8mbMrTGage01XE4yR+uXmtYT/7krzueAZieH0ryi0muSvJ9Sc6pu5zZuyfJVzO86viLJJ+puxwmTv7Kkj8AAAAAAAAAAAAAAAAAAAAAAAAAAAAAAAAAAAAAAAAAAAAAAAAAAAAAAAAAAAAAAAAAAAAAAAAAAAAAAAAAAAAAAAAAAAAAAAAAAAAAAAAAAAAAAAAAAAAAAAAAAAAAAAAAAAAAAAAAAAAAAAAAAAAAAAAAAAAAAAAAAAAAAAAAAAAAAAAAAAAAAAAAAAAAAAAAAAAAAAAAAAAAAAAAAAAAAAAAAAAAAAAAAAAAAAAAAAAAAAAAAAAAAAAAAAAAAAAAAAAAAAAAAAAAAAAAAAAAAAAAAAAAAAAAAAAAAAAAAAAAAAAAAAAAAAAAAAAAJu//AXid/DqmDgVKAAAAAElFTkSuQmCC;" vertex="1" parent="1">
          <mxGeometry x="330" y="300" as="geometry" />
        </mxCell>
        <mxCell id="4tqr_Nl9Fvb0LUBX_hIL-11" value="" style="shape=image;imageAspect=0;aspect=fixed;verticalLabelPosition=bottom;verticalAlign=top;strokeColor=#000000;fillColor=#29FF54;image=data:image/png,iVBORw0KGgoAAAANSUhEUgAAAgAAAAIACAYAAAD0eNT6AAAABHNCSVQICAgIfAhkiAAAAAlwSFlzAAAOxAAADsQBlSsOGwAAABl0RVh0U29mdHdhcmUAd3d3Lmlua3NjYXBlLm9yZ5vuPBoAACAASURBVHic7d13vF1llf/xz00PqUBCh0CoCb33JEDooCBVkaKOqGNBR0dkZhR1RgZsY1d0VAYVHBRwRHpVivRO6L0TQgoBUu/9/bHu+d2byy17nfOUfc7+vl+v58Vv/O2cve4+Za/9lPWAiIiIiIiIiIiIiIiIiIiIiIiIiIiIiIiIiIiIiIiIiIiIiIiIiIiIiIiIiIiIiIiIiIiIiIiIiIiIiIiIiIiIiIiIiIiIiIiIiIiIiIiIiIiIiIiIiIiIiIiIiIiIiIiIiIiIiIiIiIiIiIiIiIiIiIiIiIiIiIiIiIiIiIiIiIiIiIiIiIiIiIiIiIiIiIiIiIiIiIiIiIiIiIiIiIiIiIiIiIiIiIiIiIiIiIiIiIiIiIiIiIiIiIiIiIiIiIiIiIgU0pY7AKnbIcC3Ep/zeODOxOcUEZ8zgMMTnm8JsHXC80kgQ3IHIHUbB2yW+JyjEp9PRPzWIu1vw5KE55KABuUOQERERNJTAiAiIlJBSgBEREQqSAmAiIhIBSkBEBERqSAlACIiIhWkBEBERKSClACIiIhUkBIAERGRClICICIiUkFKAERERCpICYCIiEgFKQEQERGpICUAIiIiFaQEQEREpIKUAIiIiFSQEgAREZEKUgIgIiJSQUoAREREKmhI7gCkZa0PjModhEiLeAGYnzsIaS1KACSW/wGm5Q5CpEWchH2nRILREICIiEgFKQEQERGpICUAIiIiFaQEQEREpIKUAIiIiFSQEgAREZEKUgIgIiJSQUoAREREKkgJgIiISAUpARAREakgJQAiIiIVpARARESkgpQAiIiIVJASABERkQpSAiAiIlJBSgBEREQqSAmAiIhIBSkBEBERqSAlACIiIhWkBEBERKSClACIiIhUkBIAERGRClICICIiUkFKAERERCpoSO4ApGW9HxiZOwiRFvFq7gCk9SgBkFheyh2AiIj0TUMAIiIiFaQEQEREpIKUAIiIiFSQEgAREZEKUgIgIiJSQUoAREREKkgJgIiISAUpARAREakgJQAiIiIVpEqAEsv5wE65g2gxPwO+VfDYjwP/HPDcOwOvFzz2VmBiwHOLvZcX5Q5CWosSAIllTWBy7iBazCqOY1cm7PX3/FZMAtYIeG6BMbkDkNajIQAREZEKUgIgIiJSQUoAREREKkgJgIiISAUpARAREakgJQAiIiIVpARARESkgpQAiIiIVJASABERkQpSAiAiIlJBSgBEREQqSAmAiIhIBSkBEBERqSAlACIiIhWkBEBERKSClACIiIhUkBIAERGRClICICIiUkFKAERERCpICYCIiEgFKQEQERGpICUAIiIiFaQEQEREpIKUAIiIiFSQEgAREZEKUgIgIiJSQUoAREREKkgJgIiISAUpARAREakgJQASy4LcAbSYp4BLcgdR0E+BJbmDaDHzcwcgrUcJgMRyDHAWsDx3IE1uKfADYCvglsyxFPV1YAvgmtyBtIBXgfcBf8odiLQeJQASyzvAl4DpwGOZY2lWtwNbA6cAb2WOxetxYD/gH1BvUL3OBaYAF+cORFqTEgCJ7WbsJqbegOKWYddrD+DhzLE0ogP4JbAlcF3mWJrJK8DhwInA3MyxSAtTAiApLKKrN+CJzLGU3SPATtj1Wpo5llCeA2YCnwMWZ46l7H4DTEVd/pKAEgBJ6WZgO+Ci3IGU1G+BHYF7cgcSQQfwPWA34MnMsZTRYuCzwAnoqV8SUQIgqb0JHAmcDrRnjqUs3sHGyo8HFmaOJba7ge1REtjdC1jv2PdzByLVogRAcujAZoofgp52XgZmYGPlVTEfSwK/hJLAG7Fen9tyByLVowRAcroc+/G7P3cgmdwL7ILN9q+aDmyi43uo7iqBnwP7YJP+RJJTAiC5PYmNC1+QO5DEfof93c/lDiSzS4FpwDOZ40jpbeA44GO0zkRPaUJKAKQM3gKOxbqEW32p4HLs7/wgNvYvcB+wA9UoHPQCNuRzXuY4RJQASGnUuoTfC8zLHEssc4ADsb9TVlS7Nj/IHUhEN2CrYO7IHIcIoARAyudSrHBQq02Kugub73B17kBKbBlW9fB9tFbt+w4ssdkPmJ05FpH/TwmAlNFz2LKoVnka/Dk23v90A68xAtg1TDjRzWjw31+MFUNqhcmhtRUPp6DxfikZJQASy/eBDRr494uxH80jgNeCRJTey8Ch2GSvRnbHWwfrPj40QEwpnAecCQxu4DUew1ZIfI/mXSp4JbYpUqM1D44Fjmo8HJEVKQGQWLbGxjr3bfB1LgI2w0qkNpM/YDXw/9Lg60wD7gR2bjiidNqAU7FJfas18DrvYOWD96S5NpR6G6vqdyA26a9eg7FE6nxgVIC4RFagBEBiWhVb638qdlOo11ysROphlP9G8DBwMHA0NrGtESdjN9HVGw0qkxlY8rJjg69zCzZ57hvYzbWsOoDfYzv4fb/z/67XqsAV2HdHRGQFx2E/MCnbdEd8N/T4t+cDK9X3p65gKHZjfKXOvyFWex0bshgS4G8cDfxvL+c4w/Eap9X5d/TV1nCc++Ue//ZtrMxxCGsDZ2MTBnO/593brdjujSFsh9VF6P76Jzn+/TkF4g3ZtMGTSGLNlgB0YOu9G5kX0N1Y4NPY7nk5f/hnAZ8ExgT6uzbEJr/1dq5mTQBq7WwsgQthCvBjrIpgrvd+GTZhcWagvwlsvP+tXs51kuM1zunl38dsSgBEEmvGBKADe1IO+YPZhs0z+APpbgbzsSf0fWhsaKOn6diEx77O2+wJQAfwVxqbF9DTWOBT2LLR5f2cN2R7HHsvJgX8O2rj/X2d8yTHa53Tz+vEaEoARBJr1gSgA1sO9TnC3jwBhgF7A9/CnqKX9BODpy3B6vZ/ExvXDvUUW9MGfJGBu7VbIQHoAJ7CurlDm4gNNZwHvDhADJ42F5vRfwqwcaS4rx4ghpMcr3fOAK8VuikBaFIhxitFvIYA38VupicRbkfAJcB1ne2fsRv1xsBUbCXB+tgT4zhsVvVorOv+TWwb3oVYL8J8bAz2EayL/wnireEeh+0EeESk1y+jDbCJfacSdgvc2dhqkdqKkfHY+755539Xp+s9H499BoZi7/cCuj4Dc4BHsQmdDwMvBYyxpz2x+TFrRzyHSK+UAEhO78GerI8mTuW/pdgNfFaE1w5he2wTpMm5A8lgOLbGfxrwYeJU/puHTc67NcJrN6oN+AzWWxW6R0mkEC0DlNzWw8aFv0R1EtKhwJexp+Aq3vy7ex+2VHDP3IEkNAkbUvgeuvlLRkoApAyGA/+J3Qi2yRxLbFtgN/6vY3MWBDbCksCzsS76VtWGLWF9gMYLZIk0TAmAlMnWWHftv2JJQSsZCXwV2xRoh7yhlFLt5ngPNpGz1WwEXIUlOaGWjIo0RAmAlM1w4D+wpVYn0/yf0TasjvtDwOnoqX8gGwHXYrPit8ocSwirYMv7HiTs8leRhjX7j6u0rnWxp6Xbgb0yx1KvvbFhjQsIVwCpKmZivQHnAmtmjqUew7Blg09iqx1arUdLWoASACm77bFlfXdiPQIj8oYzoGHYE//V2JNsjPXuVTEIW9f/NJZENcN2yGtgN/wnsUl+4/OGI9I3JQDSLLbHegSeBr4GrJU3nHdZBxu6eB67Wam7N5zhWFJ1S2d7P+UbSpmOVaN8HuvyXydvOCIDq8qyK2kdawBfwSYK3ghcCPwZeC5DLBtgtQzeh20Eo4Q6vl0721zgEuz9vxarn5/SEGyL5sOxIk7rJz6/SMOUAEizGoxVEpwB/BCbNHgN8HfgbqyK3/KA5xuCVZPbHrsBzcQ27pE8Vsa2iD4BqwB5K11DRXdhu0WGNBbYFhvSmdHZxgY+h0hSSgCkVWzc2T7R+X+/DTyGlfF9EqtPP7uzvdF5zAIsSRhM14/5hG5tLWxW+obAJthSPimfYVhFwWnd/rdX6Xr/n8be91exzajexvZdeLPz2JHY3JJhdL33q2EFezbqbJNQD4+0GCUA0qpWwooKtXphIend6p2tShUGRVyU0YqIiFSQEgAREZEK0hBA83qEsFupFvFC4vNJ/e4g7Ocj9Sx7qd9V2E6IqSxLeC4JSAlA87qrs4n05prOJtVzXmcT6ZeGAERERCpICYCIiEgFKQEQERGpICUAIiIiFaQEQGLYAtghdxAiLeTE3AFI61ECIDEcB4zKHYRIC5mBlaMWCUYJgMRwUO4ARFqQvlcSlBIACW0tYMvcQYi0oANzByCtRQmAhHYw0JY7CJEWNB0YnTsIaR2qBNhcDgDWS3zO14A/OY6P9ZTyJvBHrBt09UjnaCW7YDeMUH6EygEPpAO4B3gWODzC6w8H9gIuKXj8RODDEeIYyEXA4xnOK9Ky2oAXsR+ZlO2HjhiHYjXIY8RxYbfzbA6cCtwELM9wTXK1M4q8CZ1OC3zuNRznfjnR9ShDewu4GjgFWKfz718ZWBrpfD8p+iYQ9/vYX/uGI0YRKWB78vzAeSYe7R0xjr6eZCYARwHnAnMzXaNUTQlAOdqTwNnAodhTeW9ujHTu5/q78L24MMP1uccZo2SiOQDNI8cEoEXADY7jY8XYAVzex//f68AfgBOwLs+9gOsjxPAQ8HyE15WwlgL3AnMivPbXsKV4GwIfw7riF/dx7GURzg+wLtYDVlRf35uYtgbWznBecVIC0DxyJADXA287jo+1TOlu7KlyIMuwhKU9Qgwfx+ZfjAf2BD4L/AbbkXFJhPPJwN7Erv9vsPdjT2AcsC3wlwjne4LiY9sxzl/j+S24FEugU2rD5iuJSACrYDe31F15n3bEOCliHF93xDEGeyoLef52YGw/51wJ2BlLEs7GbkwxrkPVhwDu7bwGRwEb0f9qk89GOL93i93nIl2H65xx3Bspjv7aH50xikgfPkD6L3AH9iNb1CcixjHNEcfhEc7vmdHcRryJV1VPAP7LEcP0COd/A9/KqV9Hug5LsJ6Oos6IFEd/bT42CVFKTEMAzSFH9/9jWJdnUbFiXATc5jg+xjDEvY5jJ+P7cZbitnEcex92IwppZWBXx/F/C3z+mqHYhNuicswDGAvsnuG84qAEoPwGAftlOK9nEtNwfD9IHo/Q90SrntqIk4h4ZjVvG+H8YraheJGpecDTEWLwJJj3Rzh/jSeOW7Dei9RUubDklACU347AahnO63lqmE68zX8ecRy7AXFmHz/oONbzlCo+44H1Hcd73reiPE+1ns+u14EUT4aWA9dEjKUv2rug5JQAlF+OLPotfN2XMb/oRWb/1+wYKQbPD/l2kWIQ4+lheSzS+Yv+br6FTQiNYW18e27kGAbYApscLCWlBKD8cmTR12Fj70XFTFLmOY5dN1IMLziO3TRSDGI2cxzred+KGo3NBSgqZte757fhMuIsjx2IlgOWmBKAcpuIVQBMzfO0MJm4+5R7frRizDpeTPFaCG3YbogSz5qOY+dGisGzEiD0RMTuPIn3a1g9jdQ0D6DElACU24HkeY88CcDB0aIwnpu6p9eiKE+RnxGdTeLxPH0vjRSD5zMRc8O13bB5EUXlGAaYSd/lkiUzJQDlliN7ngU84zg+dowTHcc+GuH8ngTkHeIkIdLF81Qfo0foVUcMbfg+v15DgH0dx+dIAEZhFRqlhJQAlNdgfF/uUDzL/0YCMyLFUePpUo+x9nsEVumvqFcDn19W9IrjWE9vQVGemhATiP/065kHcBs2FJCahgFKSglAee0CrJrhvJ6nhL2wJCCmLRzHvoiteQ7Ns7Tw5gjnly6e6xtjSainxK1n0556HUDx5YDt2NbFqWk5YEkpASivHFnzQnw/sCm+2Bvge5L7XYQYPDPPr4pwfjELgb87jve8b0UsxrbXLSpFUag18C09zTEMsBm2g6KUjBKA8sqRNV9N8ap7kCZJGYT1NBR1AeF35/P8kP8R26JYwvs1vs9n6JoMl+Cbg7BP4PP3xfM9vBIrDJSalgOWkBKAclqTPBXlPE8Hm2JLAFPwrDSYQ/incE8C8hbww8DnF5vR/x3H8RsTfgjAsxvgKOLPj6nxPCy8DtwRK5B+aB5ACSkBKCdPmc+QrnQcm7KH4gh8cw1CJwC70f92wD39iHgV4KrqfOBZx/GhbzjLgGsdx7+XeOWxe9oJ33yhHMMAe+ObTCsJKAEopxzZ8v3Y/uVFpYxxHHCo4/gbAp9/GHCk4/g3gP8OHEOVdQBnOv/NBwLHcDewwHH8BwOfvz+Dgf0dx+dIAEZie4ZIiSgBKJ8hWPGM1DzL/0YD02IF0ofjHMd6dhAs6iPO45UAhHMz8LDj+M2BnQPHcJ/j2NVJv4TXk5DfRZ7lqhoGKBklAOWzB77qXqF4ngr2Jn11rwMoXthlKfBk4PPvhr03Rc0iT+nVVuRd2fHPEWLwbAh1IHErAPZmf4r/nrcDV0SMpS+xq4aKkxKA8smRJc/Ht7wqxwqFYdjErqI8uwgWdZrz+Bxdra3I0zu1HuG7/8FXgCjF+v+eJuLbDTPHZzP2viHipASgfHIkAFfhq5ueqyvPs5Y4xkYwBwJbO473TBqT3j2Bb27KF4hTAtjzecq15t3zvbwKm9iYmooClYgSgHJZB1/lu1A8TwObY09ZZRdjrXMb8EnH8fcQdze4KrjHcexK+OdqFOX5POVYwQO+m+tc4NZYgfRD8wBKRAlAuRxM+h+PDsq7/K8nz8S+YZFi2M9x7DziDEVUySzHsXsQb6mZp1ch9ATUorYHVnMcn2MYYDo2iVhKQAlAueTIju8GXnIcnzMB8EzEirWPwqTOVtSLkeKoihccx8bcdW6C41jP5zSkQfgq7nnmVoQyHF9hLYlICUB5DMNm16fmeQoYC+weK5ABzMY3FrxOrEDw7VA4J1oU1eApqxxj858az+fpzmhRDMzzEHEfeRJUDQOUhBKA8pgGjMlwXk8CMJM4E6yK+Ivj2JWA9SPFAbCK49jQ+xJUjWeimud98ZriOPYGbOOiHPbDCgMV0UGe5YCHZDin9EIJQHnkyIrfwPYILypn9/+vHcduQ9zPtqfMb9EfY+md5/p5KvV57eA4diG+XQNDWgXbSryoHPMA1gWmZjiv9KAEoDxy3Fw9O4O1kW9Hr8uBGx3Hz4gUR41nzkTMp9Iq8GwF7XlfvDbFN8RwOrYxVA6eh4mr8S0BDkXLAUtACUA5bED4vcuL8GT/WxN3jLUvc4BPOP9NzN6UBcAzjuPXiBRHVXjmW3jK9dbDkwA/C/xLrEAG4Lm5LsBKLaemeQAloASgHHJkw+34lv/lqlC4P75d4NbCyvbGcgPFx6VH4FsxIO+2qePY64hbd+EI5/E/wL+JUQjb4EuccgwD7Ilt8iUZKQEohxw31zuA1xzHp05S7gZ2xTYu8fgIcT/Xnk1+tkTfsUZ5Ki++ClwSKxBsgp03oTsNOJm0kwK9w3U5lgMOJc+qJ+lGP075jSDPulhP1r8yvolFjVgOnNF5Ps8OcGBrjD8ePKIud+JbjbBrrEAqZAt8hWO+hvVuxTAY+HQd/+4XwLb49ttolOeh4kF8vWyhaBhAKu8ArNsyddvJEePRiWJ6Fd+Oez19PmJs8/F1RwNcGjiGMxznPi3wuT1zGV4OfO7DHOcG+Erg83dvb1P/XJghwH9GjK17m4dvye7PEsXVvb1EvrLJIqXwfdJ/8V7D1/tzToKYHqGxtftrYMsaY8S2EP/TyjhgUeA4qpoAnOs4N9hn+38Cx9C9ebcn7ulD2DyS2N+p6Y6Y3psgnt6aZ4hHpOU8Tvov3f844huEbYUaM57H8E1a6s2fIsX2IlZj3evTEWKpagLwFv7llG3Al7HhgBifC2+vRE8nYMNdMb9XZzniGUX4hLVI+5IjRpGWsjHpv3AdwLGOGHeIHMsbwEaOeHoTq+v/HuorKTwYeDRCPFVNADqAUx3n7+5Y4J0I8cyh8c/tlyLE1b3d74zn6sjx9Nb+6oxRpGWcQvov3DJ8G+V8OWIs7TS+uuAw4nSn3k79y5Q+EiGeDqqdAMzBVxSou/2J83T7EL5NgnpqA/4YIa7ubV1HPP8UOZbe2jJULEsq6grSf+Fucsb494ixnO2MpadDsa1XQ8f1MPXfbFbGJjfFuF5VTgA6gB86YujpMOJ0ud8LTGwgronY5NdY37GTHbFsFjGO/trRjhhFWsJIbEZx6i/bvzpinEC8yUpzgPGOWHr6JFbCNHRc8/DP9u/u3Agx1VrVE4Dl+Ca29RSrN+sJfJsF9fThSHF1YHNjPJ6IGEtf7dfOGEWa3iGk/6J1ANs5YjwuYhxfcMTR3XhsFnasuD5UZ1wAH40YVwdKADqwSZlrOmLpbhDWAxYjrgXYjbweg7G1+DHiehPbaryoH0WKo7/2MloOKBXzY8r/RfttpDjmU9/Wx/sAz0WKqQO4po6YamYSZziie1MCYO12YKwjnu42Ie779CdgtTriitkLsI8jjoMjxtFfq2eljUjTepL0X7JfOuIbDMyOFMePHHHUnEq8JV0dWPfyNnXEBVbJ8a2IsdWaEoCudiP1JwE/jBzbK1gZaI8RxKtj8R1HHCNJ81nu2b7siFGkqU0l/ResAzjSEeMuEeOY5ogDbLw/9rW5yBlTzfGkWz+tBGDFdj/1bba0FrAkcmwvAxs64zonUiyznHFcHimO/totzhglAO0FkEeOGtjL8HVxx9r85w18249OwfcEUy9vr0Qb8O9YUaXh4cORArYEbsVX1hpslcaF4cNZwRpYj5tnyO3PkWKZgm05XlSO3QF3wrc8WQJQApBHjgTgZmyGe1GxYrwB624v6nvEv8G+CFzv/Dc/Bf4NTV7KbQ3sM7W789/9Jnwo7zIdOMZx/F+Jt5GR5/vs2fAqlMFYvQZJSAlAeqNpbMObenmy+tXxrRbw8HT1rQ/sGymO7mplhIv6CPCxSLGI30jgAuxzW9S12Az52Dzr8OdgZbFj8PToPRUxjv5od8DElACkty95uow9e34fQLzPhmc88mjSPGH/zXHsOODbsQKRuq2FbQVc1GLSbM87Hd/8Ce94fVF7YRMNi8oxDBDzd0d6oYudXo4s9wVsnXFRMWN8ynHsztGiWNFtjmM/RWMFjCSeD+Hbu+HWWIF0MwjbT6Moz/fDYyVghuP4HAnABGDHDOetLCUA6eUY57qM4l3cQ4D9IsbyuuPYepflebyJ1RYo6n2xApGGDcMKbBUV62m7J8+Wt57vh5cnsb8B2wY7NQ0DJKQEIK2tgPUynNeTze9C/XXwi3jLcWw9xYK8atsxF7EyaZISqd/ejmOfiBbFijz1CmLedD3zABbjnxgbQqzVR9ILJQBp5fhwL8EmPBUVO0bPZ25wtCi6eJ64NkDfmbLzbNE7O1oUKxriODbm52sjbAvyonIMA2yPbzKnNEA/Zmnl6N66Ed9s59gxjnIc+3K0KLrMdxy7VrQoJBTPPgELokWxIs/n2PP9qIfn+31ptCj6NggtB0xGCUA6Y4FdM5zXk8WviW+8sh6e7D7FGK3W8bcWz3LOVL9/ns9xvRsdFeVJAJ4j3TyJ7jQPIBElAOnsDwzNcF7P8r+DiH9D9JRH/Wu0KLp4lkbFnKAlYcxxHOt57+u1BN9qg8mxAuk0A1sRUFSOYYD98Q2bSJ2UAKSTI6t9DnjYcXyKOQqeTVIuAJbGCqST54mrtoGTlNfjjmNTjDVfjpW/Lsq7iZDXCHwTJXMkACuTbglwpSkBSKONPONanpKeQ7EtbWPzlGydDVwZK5BOnlUZs4H7YgUiQXgmvKZYkfM7x7FrU9/mRl6eh5G/4ZsnE4qGARJQApDGtuSZQObJ3nen/u1VPfbEVwnR8wNaj4n43pv/ixWINGw5vqQ39nyXecAljuNTJODg6+lbClwXK5B+aDlgAkoA0sjxYV6MFfMoKlWMo5zn+gs2jhqTp/rYj4G3YwUiDbkAeNZxvHcXQa/LsK2ii/Js192I9bEdAovKMQywDdYjIhEpAUgjR3fWDfiKiqSM8XjHsQvxleqth6fy4Wxsm1cplw7gLMfxw7A6/TF5tt+eQNphQs/3/XLSz33JNWxaKUoA4luFPBNaPFn7esAWsQLpxUH4qg3Grtl+KL7vwreJPzlRfC7DNz9jH2xnzpg8n9tjSLtKyNML9wLwQKxA+qF5AJEpAYhvf9JUtOvJs/wv9RdtOHCE43jPRkb1WBffzOjngIsixSL1+S/n8SdGiaLLInwrEj4QK5A+7Imv1Lbn9ySU/cizdLoylADElyOLfQrfj0+OOQq7OY59OloUXT7pPP6cGEFIXZ7FV7d+LeCwSLHUvAgsK3jsUNLvgjcM6wUpKsc8gLH4Vg2JkxKAuHKVtfTMhB6O7+k3lKmOY1+NFkWX9wCbO46/BpvlLfldDLQ7jv8cvpUo9fB8Zjcmz5Ou5+HkFvJ83jUMEJESgLh2BFbLcF5Ptr4n8cdCe7Oq49h3okXRZRDwRcfxy/CtOZd4PLUiVgE+FiuQbjyf2QnRouif5+a6DLg6ViD9UAIQkRKAuHJ8eN/BV0I313pbzyS6VDOQ34+vOMzfYwUihXXgex8+SZptpj09EkWHCkJbF1/lwRzDAFuSpjhSJSkBiCtHAnAdvqePXBm2pzxqigJFYN2wnrXY98YKRAp7Bl+luvdHiqMnz2d2brQoBuZ5AMixHBDggAznrAQlAPFMBHbIcF5Plj4Z2CxWIAPw3DxTdpF6JkY9FS0KKcrzHqyNrwBOIyY6jn0MX82OkDwPAK8A98QKpB8aBohECUA8B5Ln+l7hODbnF8vTbbtxtCjezVMe1rPPu8TxkuPYraJF8W7rYTPti1hO/GJXfdkNGOc4PsdywJnEn7RZSUoA4slxc30E27GuqFzj/wvx1dT3zM5vlKe3YRH24y35vOU41vNU3qghwKaO48+PFcgAhgL7Oo7PMQ9gFDZZWQJTAhDHYHxfqlA82flIbG/wHM7F1+WZci3wUHyFm3JN4BLjuf4jokXRuz0cx/4BKzOdg+dBeBHBVwAAIABJREFU4DZgTqxA+qFhgAiUAMSxC75lbqF4svMZwEqR4ujPq8C/OY4fB2wXKZbevE7xp/qhqGsyN88S1leiRdE7z3ySBcDnYwUygAOw2vtFLAeuihhLX7Q7YARKAOLIka2+BdzoOD5HjIuwkqeeWc+HYN2pqTzvOHaVaFFIUZ734LloUfRuf6ynrajfkmejqTWx3feKyjEMsBmwYYbztjQlAHHkyFavwbYALip1jAuwJXbevcVTLduq+Zvj2MnRopCiPDeFB0hbzW40cLDj+A6sSNGv4oTTL+9yQE+dg1C0HDAwJQDhrYEvmw7Fk5VvQtps+ibsmlzq/Hcbkr6nwhOjZ5KXxLERxXuIluOrGhiCd4+J5cBHsMQ3ZX0Az/fsdeDOWIH0Q/MAAlMCEN5BFB9PC6mMy/+WAF/C5hvUs6HPP5P2M3onvh6KnWIFIoUNx7e875ukLWYzA5sT5PV77O9KVW56F3zDKTmGAfYmz7yllqUEILwcWeqD2I5oRaXo/p+Dbed5FvUtlZuCPQmlshxLODw3By1NKgfPKpG7sbH2lM6q89+9gM0j8G51XI/B2Pe1qBz1AEYC0zKcV6SQIVi3XUfi5vmBGYVNxosZzys0VnFtEDYWn/IanuaMcXLi+DqAMxzxnRb43Gs4zv1youtRa9c4YgP7DjyQOMYPO2Ps6YsJYjzXEc8gbEVP6u/A9x0xiiQ1nfRfiA586/kPjRzLXBov3FN7Ek/R2oF/qSPG0DfYIk0JQO9tKTaT3WN1rBplqhjn0fi8m69GjvFVfL3C50aOp7fmKXQmktSZpP9CzMe3l/hPIsayjMZn6u7X+Toprt07wDF1xDgEG3JJ/V4rAei7fdURX81I4H8TxvgAje1E2JYg3h0d8bw/cix9tU0cMYokcz/pvwx/dMb4TMRYznTG0tOu2HLBFNdtDvVNzgI4IVGMPZsSgL7ba9S3a2QbXRMDU7TraGwi22hsA6RY8Z3uiGVlrPcl9Xt9iiNGkSTWwbqTU38ZPBPlpkaM42Eaq4q3N9ZNmuKazaP+nRpHEDeJ6q8pAei//Ycjxp6+lTDO67GbZ732iRjbrc5Ybo4YS1/Ns+JJJImTSf9FaMe2OC3qCxFjeY8jjp7+EVsymOKaLcNmVtfrrERx9taUAPTfFgFbOOLsLkX3evf2CJaQ1+v/IsW1HN+mSf8WKY6B3mdPCWiR6C4m/RfBuzf3tZHiuN0ZR81qxPsh66t59iHoaRrp5if01pQADNzuwld+t7tRWE9WqljfBj5DfXVDtooY1wcdcWwXMY7+2qGOGEWiGka6sevu7RuOGMdgpYJjxHGcI46a95B+GdEd1L+vwHoZ4u3ZlAAUa57lbD3tSvok72p8PXk110WK5zxHDG3Ai5Hi6K/9xBGjSFQzyfND59lu9H2RYliAf5vVI0j/I9tO/ZP+VgMeShxvb00JQPHWSPGcX2SI9wlgLWecx0eKZQ6+LbF/FSmO/pqn8JlIVN8h/RfgDXxPsz+PFMf5jhjAqralGu/v3i5wxlmzPjArQ7y9NSUAvvY9fDeymrWxJaKp470H600sahzxevV2c8RxVKQYBmqNzKEQVAo4lBzlf6/CnqKLaCNejJ4ZucOwRMRTtyCUb9fxb3bBZkU3UtVQ8jkFm5vjnTD2IlaLP7VtsIm6Rc3HihnF4Pm9uBJbDphajl1XW4oSgMZtQJ4bhGczji2xZYoxXO849hjyZO1345+oeDT2t60ePhxJ6FDgRvxj7D+NEEsRp+KrE3BDpDg8N9cFwC2R4uiPdgdskBKAxuXIQtvxPXl79iT3mAM85zj+hEhxDMTb/b8btmGMd26DlFNtK2rPjfV26tvBslFjgcMdx98XKY5t8ZVXzrE74J7YMIjUSQlA43JkoXdhM9KLarQ8b18edhw7AtsrIQfPzmXjgAvJM0wh8WyNVfzzyHFTA9/3dVakGNrw1cvIca2GYgXEpE5KABozAtgrw3k9X7Zx2NKmGF50HLsteW6qC7AZ/EV9Ft+EN2keJ2NDdkXl6NYG2N5x7EvRovA93NyPrzcwFA0DNEAJQGNm0Fhd73p5EoD9iHfjnes4dnKkGAZyLzZkUsQg4FMRY5G8hgIfdxx/V6xABuDZNfBNbFVNDPvhW2l0ZaQ4+nMI9RVSEpQANCpH9vk6VtCmqJhzFJY7jvUsbwrJM0yxLTAhViBSCvs5jn2SPLPbvQl70QTXazy+3sMcwwBrYpOcpQ5KABqTYwLglRS/8bYRb/wffD9UOX5IwdctWW+hIGkeW1O8124pVtMgtWX4nmpj/o57fuOuxuoSpKblgHVSAlC/ycBGGc7rybK3I+549qqOYx+PFkX/3nAcG2uppJRHG77Z7fNiBdKPx7FCN0WMI27vmqeXcyFwU6xA+qF5AHVSAlC/HJtRtGNZdlGxvxieH9KH8Q0ZhOJ5IlH3fzV43ud3okXRtwcdx3q+g/XYCl9inGMYYDdsuEKclADUL0fWeRvwmuP42F1jUyneVbkA240wNc8kpvnRopAy8bzPOeauXOw4dvNoURjvMGKOBGAIsG+G8zY9JQD1GYltDZua58u1KrBTrEA6jQcmOY7/baxA+uEpFDI7WhRSJp73eWy0KHq3EPiz4/itYgXSjedBYhbwVKxA+qFhgDooAajPPtS/53gjPAnA/tS3EYqXpw7CRdgPXEqeErC3RYtCyuJxrIJlUd4d+hp1IfC24/gUhXBm4usJ8VQpDeVAtBzQTQlAfXJkm69hNe2LShWj5zxvAZfECqQPmziO/TsWo7QuzzDUOqRP9H/nOHZlYOdYgXQzBt/W4zmGAdbAlvGKgxKA+sRcWteXy/AVtPGU8WzEIfi62VM/HWzjOHYxeYYpJJ1fOY5NfUN5G/ib4/ijSFdd05PoX0ueyZNaDuikBMBvCnmq2nmy6h2BibEC6WEkcKTjeM/ugSGshW+55rfIs1pB4rsWXxGt1PN8bsa3auW4WIH0wnNzfQdfIhOK5gE4KQHwy5FlLgeucRyf+ovg+SF6HqtmmJKnx+ZJ4A+xApGsznQen7qn7x7HsZOw3fBSmQqs7zg+xzDAzvhqk1SeEgC/HFnmLfgK2qROUqYDqziO95TnDeEY5/HeG4WU3+34kujNgS0ixdIXz85+h5F+0pvnt8+zA2cog/GVeq48JQA+o/FNhgnFk02vhm83sRAG4VuP7NlFMITd8U0GvA+tCGg1P3ce/6EoUfTPU3Y4R/17TwLwOPBErED6oWEAByUAPjOB4RnO613+l+N99dxgUw8BtAGfd/6b38QIRLJYhG9YZxzwD5Fi6Y9neaLn+xbK3tgW6EXl6AU4EN3XCtOF8smRXb6MPZEWlWsmrKfmQI5JdifiW9N9aaxAJLkbsUqURX0c38qWUDzfC0+Fy1BG4ZsYmWMewARsErQUoATAJ8fyv0spvjFIzjEwz25/KQoU9TQc+Jzj+GfI04Up4XnG/kcAn40VyAA8v8e5dtf0PGDcgK+oUSgaBihICUBxWwHrZTivJ4veBd9kvJCedByba6bux/AVdrkrViCSlOd9fD9xd9Dsj+d74fm+heS5uS4i/bJfUAJQmBKA4nJ8qJbiq1yW64Pfjm8JU+wdzPrirWj2QKxAJCnP7no5bx6eIao7o0XRv02ADR3H5xgG2AFYPcN5m44SgOJy/DDchG/nslzj//cCbzqOnxIrkAJmOI5NvVpBwluCbwfNGZHiKGIzx7E5Cu3UeH5nckwETFkJtakpAShmLLbndGqe7HlNfGVvQ/JMmFuLvNm5ZxhHuwM2v9kUn0MzknQVNHvjKT38IPBcrEAG4HkYehp4JFYg/dAwQAFKAIrZn3Q1t7vzZM85d8PyxDk9WhTFeMZZl0SLQlLxTJbLXUVud3y/M7lWqswAVnIcn6MXYH/yrJRoKkoAismRTT4PPOQ4PlfGOxurslbUzFiBFLTIcay2F21+nvcwxwY23Y0GdnUcn+PGCtZTMsNxfI55AKl2SmxqSgAG1kae8SRPdj+EfDdWzy6FbeRZStndS45jV44WhaQy3nHsG/gSxBg84+vXkmeZHfgeOP6Gb45QKBoGGIASgIFti292biierHl3fD90IW2ILZ0qsvxwO/Jcy+6edhy7WrQoJJWxFO+u7gCeihhLEQcXPG4q8CnyJSyeRGUJcF2sQPqh7YEHoARgYDk+REvwrZ/N+UHfAzgPm2l9J/BVbC+C3rpei/64xXS349gc5VYlrDZgY8fx98YKpKAt6H3XvRFYL9+Z2GZaDwHfJF/dj8nApo7jcwwDbEP+B45SUwIwsBzdSH/F12VWhq6uwdiN/3QsEXgW+BlwKF1PYGXIyD1llXMuV5RwPBtVeepZxFL7nqyHlSW+BNsn4GrgVHzLBWPyfJ89FU1DKcOQozSxlbFZxB2Jm6dk7boZ4vO2d4ArsFrnOeN4xnFdwTYtyn3turczHLGfFvjcnup4Lye6HkXbtxyxzyxBvI8B95cgjoHa1Y7rClZYK3WMnk2gKkc9AP07gDxLSTyze8vwVD2QEeTbpbA7z9PdJPIvC5MwPPUxytADsDF5tvv1moatXCgqx6qF/cizhLsp5P5BLrscXetPA486jlcXV3FjsXkIRcYFcxVVkvCKvJdDsf0+DiHfzPpmMwzbIrioHPMAchVxawoqlNC3XOUkPcv/hgH7xAqkBe1N1w/WPGwi1V3d2iN0bcnqqcom5TYBGyp7vvP/Ho1NYNscm7eyPbZCxbNRlJgDgT8XPPYm7HuXesXSgdi8KulBCUDfdiDPMjBPlrwntsGN+I3Hlk/u3u1/W4iNvd6Dnhpazb9jQ1HbAhuh3s9QPEOQy7DaBUdEiqUvBwFfSnzOpqAEoG85xtYXYXtoF9UM4//NZDR249fNv/WcmDuAFrUe1pNStGrp5aRPALbE5vQ8m/i8pacsuG85xv+vxzf+qARARHLz7g7YESuQfmh3wF4oAejdRGwIIDVP9/8GlGc9sIhUl+dh6WXyFFsqQ62U0lEC0LsDyHNtPAmAnv5FpAz2AMY5js+xGmBfYHiG85aaEoDe5cgWHwOecByvjFZEymAovtVIORKAUdikaelGCcC7DcaKR6TmKZIxAtgrViAiIk6eB5K/Y6WNU9NDUw9KAN5tF/JUgPNkxTMovsOZiEhsB9P7BmC9WQ5cEzGWvigB6EEJwLvl+JC8he2ZXZQ+yCJSJmtilRSLyjEMMAXbvlw6KQF4txw31+vw7eutCYAiUjbe5YDtsQLph0qnd6NCQCtagzwlYD3Z8MZYJbOyeAOYjVXRA1hM12zbUVg1xVx7lsu7LcB6nBZ2/r+XYMNJY7CZ3KPRbOmyWIztSPk6VkWv1kZg3e0TOltZhgMPAv6z4LGzsfLbO8YLp1cHAj9OfM7SUgKwooMoPo4VkicByNFD0Q48iFX7ehCY1fnfZ7HtkgcyBFgf2AKY2vnfzTv/q16oOJ4GfoltLPVIZ3sau4EMZCxWK39TrNt0EyxRkDjmYzfDh+n6fj1E8YlyY7CaIJtj368tga2xbvmUdsG2UJ9b8PjLSZ8A7I3t+fBO4vNKE/gD6ferLlpCs+aKRHEtBC4BTqbY7nn1WBU4CjgX60nIvb952dsZ9V3m5F4m/7Uqe3sS+D4wE9vUK4bNgVOBq7EELsXfdbQjvl0SxdSzaRhA3mUIlrmm/jB+yxHjSljmGiuWduAq4D2k7x0a0nneKzvjyPHDUPamBKC52xvAt8kzhLcatiHOs45462nnOGIaBLwaOZ7e2vcdMUpFTCfPj4JnP+2DI8XwNvBDrMu3DDYFfoDFleM9KWtTAtCcbRbWk1aGsfrBwOHY9rgx/tZX8A3r/SZSHP21Jx3xSUWcSfoP4pv4Jlz9OPD5lwMXYOPzZbQ2cDY2bp37R7wMTQlAc7XZwCmUd67VTKwuf+i/27OPygcinL9I29gRo1TA/aT/EF7kjPGpgOe+Ht+63Zy2xuLN+WOeu/2ZeHMxQjsEeIH81yxXWwR8FVsFU3aDgY9iKw1C/f1fcZx/FfIk+Kc4YpQWtw55xp0/6ohxSqBzvoVNDGq22fdtWDfqAvL/wKdsczv/7mYzDuu9qdp8jnuBbQJcv9RWA/5ImGtwi/PctwQ6r6dd4YxRWtihpP8AtmOJR1H/FOCcN2DbCDez9bHCSbl/6FO0i7DaFM3sAOA58l/L2G0JcBrl7e4v6lgaX5GzDKtPUNS/NXi+etrLNN9DkET0QWzpW6oP4H3O+K5p4FzLgX/HuvtawWDga9jflfuHP0ZbiH0eW8U44Pfkv66x2rPArsGuVn7rA7fR2DU5znG+7Rs8l7fdhUoCSy+mYjN2U3wIz3TENQarClbPeV4D9vddhqaxL/b35b4BhGxP0DxzMzzagM9jhaNyX+OQ7VLybB4W2zBsuVy91+W3jnO1kW7i6A+IV3dBWsBowo2F9demOWI6rM5z3Ev8Gf4rYeOHk4HtgJ06/zsZmIhV3YppbeB28t8IQrTLsEpqMY3BKsRthD157YQlHJOxCVmxfxz3pDVWCbRjSXzsbuSVsaHCzeh6vzbHvtcrE79X71hs3pD3+sx2xvbrOs7haYuAk7x/vJTXb7APzSewL0dIbdhEuVhdzPOAoY54zq7jHL8n/LrjVbAfhO9gk2ieKRBHe+dxl2NFUI4h/E1uBFaAJPdNoWw3k/WwiaY/xVZRFOktWYqVDb4Q+AY2hj8icFxrY3vC577u9baFwJGBrwlYCd9/An6FdcHPLxDLIuABrIrpl4HdCD8PYRusjLT3Ou3iOMfRdbx+0fYCljiFNAKr4XI6cDFwRODXlwHczYpv8pPYRhQhi9kcTJzqgBc44/BU71qGJS+h9jRYGftRuplwy3WWATcCnwPGB4oTbLZ8qpKnodp8rDBLKBtg9QIeDBjjW8BfsHHdUD0Ew2msizlXexy7UYeyA/Azwk6UnA+chw2RhUoqJ+Cfh/Q1x+uPI85390bCTaStVSu9gHfPF2vGlTpNrWcCUGvt2NPp9EDn2YjwNQI+5Dj/Vo7XfR370oewCfBz6uv+87SF2A9gqMIcewIvRY45VLuPcJOR9gT+RPw11a8AXyfcuPfxxP+MhWp/IUzC2oY98aZY/vYM8I+E2eFxCL6CaXc4X/9vjtcu0s7G19Pal5WAz9J/kqYEILG+EoDu7UpsvKxRo4H/LXC+Iq0dX0GXLxZ83bsIM94/EfgR6Z+kl2BPhCFuLGuTZ22xp/2WMEM0m2E3/tTxzwW+QJgby/YUG07K1ZYB/0qYXrUZwJ0Z/obnsGQrxN9wIsXKdC8HVne87mkFXrNIe4cw4/2DsIe1FwucUwlAYkUSgA7sxvKfND6O2YZVj2p0M567nOe9YYDXWw58kzA/xB/C5ifk/LF9AzghwN8yDEtkylaIZhHw6UB/3zfIP6v+caz3oVETSLfTpaeFWkWzKnB+Cf6eGwgzZ2oziiUyJzpec+uCf0N/7aHO12nUVGzYs+h5lQAkVjQBqLUHCbO8agsaq5/9H45zjaX/J/Fngb0a/YOwMbK/OP+O2O3/8D099GU/ylOI5j7CVInbmjylq/tqy4HvEibJLlO1x78QpvzyoZRr5cPb2LBAo70BQ7CSx/0NO/3e8Xpt1F9CejnWg9joqqM2rLvf+6CnBCAxbwLQgb2pId6oIVhvQJFZuj3bbo7zHNnHayzFnm5DjEfuQXnHzF/Ed736Mh7bSCnX0/J8bCgnxOzsk4i7JXQj7Q5gUoC/cTKWAOb6O57Ft699XwYDZ1G+Xqha+z9s8l2jdsV6Nns7xxv4Pve/qOPvuJcwvxOrAJfUcf4OlAAkV08CUGvnEGZ9+lrYNrpFf5Dn4Fsb+8se/74dKw+7RYDYAT5F+WfNL8aeVkKYgm2qk+oHeTHwE6xOQqOGdb5W7vdjoDYb22UuhL2wpCJV7HOxcegQvw31zJrP0R7FursbVRsvf6KXc+zheJ3DHbE/AXyEMLUQtqO+pY61pgQgsUYSgA5s/GrdQLGsiZXaHWi53nmO12yj68l8HraWO9SNfyRw7gCxlq39D+GKCk3BegRidTW/iO2IFmr5UTNMauzelgFfItxS1GnYJNxYyeoDwMcIt3vfDviW7uZuCwi3jn0I8H6s7kQt0fZsYz2W/queLu987Q8Qrt7BcRSb1NhfUwKQWKMJQAe2pMmTnQ5kEPbU8t3O+HoWEjre8VqTgf8G3kfYgj4bAPfQ+LXL0e4mbGXDUcB7seVCjc4TeADr7p1O2EIszVw570Ks8mAoE7E9Es7HetPqjWsZcBP2tB96574PUd4hmv5aOzZZOmRlwcnYePp3nP+u52ZfC7CSy18gzBBTzWBsAnWI69eUCUCoDD2Hu4FtA7zOMmw3qrMCvFZP47Gn9o0723extfq5TMMqhoXoks5lDlaN8JoIrz0RWzY6Bav/MAZ7D8dgN/XFWN2C+Z1xPI7NOn4E+5EK7WRsiKmZa5c/ipWyfiTCa6+HzUbfHLsxjMaeIMdhyfjCbu2VzhhqbXHgWIZgE3xPDfy6qV2JPcHPzRjDwVixpcc72yzsdzqkVbBEcr9Ar/cxrG6KJBKiB6B7O5swS+nKqA2r5pd7yViothR7smhVI7Den9zXOVR7Aysp3KpWB/5K/uscqj1GmPopZbUlvc9VaKQ1ZQ9AMwudAHTQmttEjiVcEaOytYsJW0q4DCYBt5L/2oZu7dgyrRCV2cpkGsUKxTRbexvbR6LVnECcbd+VACQWIwHowLq+QtZmz2l7wme6ZWuPE2YoqAyOJH8hptjtemzSbLMbBPwL8Usv526/JPymYjmMIu6GYUoAEouVANTaBTTvPt9DsLHI/mbTtlJbitUob9ax8vHUt+Njs7a5NPcP5mQskcl9HVO1pwhTcCyX3bG5KDGvUTN/nptS7ASgA+vaOyTVHxTIdljFudw/Gjna3YQpA5rSYTTvLP9G259ort6AwdhcmkaXjDVjWw58j+bqDRiNTaJNUfdDCUBiKRKAWrua8t9YJmJjrK0y0a+RH6pzKf+NZSrWy5T7euVuC7Hem5DLBWOYSWMlwFulvYDd7EIuFwxtEDbWn7LCqRKAxFImAB3YWN8vCFc8KJRx2L7bMSa2NHN7EzgdmwRZJpOAX/PuGhFVby9gVd3KNklwe+Aq8l+fsrX7gIMo11LyNqzH9kHSXw8lAImlTgBqbTlWL3omeT/8m2JP/G+S/8egzO1NbHx9y/ouczB7YE/8Ve+hGai9gvUI5Ey0hwJHYT1/ua9H2dtj2Hyjleu60mGMxW7AOW78taYEILFcCUD39gD24Q9Voncgk4BPMPAWwWrvbu1YhbGPk+7msjVWbW5WpL+pldsSLGE6ljQ3l8FY1cWzKO/mWGVuC7BE+yDClezuz0rYLov/TTkegpoyAShT941XqEqAoTwLXIZVqLsf21hieYOvuR42VjydrupYEsZ92Pv1V+wG/XyDrzcEmx2+FdY7dBDlGy5qVsuwvRAuw2okPIhVYmzEcKyK4NZYkaL9sepw0rh3sGT7MmzPlYexm3QjxmEVOnfAfgtn0Pj20yE1ZSVAJQDxLMI++A8BT2IlgF/HMuUl3Y4bjHVhTehs62FVuKYSZqtOKWY+lgg8iCUDs7GbzAJWTOSGYxPWJmLv18bYD9MUWreSZBm9ir1XD2OrdV7D3qt5PY5bia7v12rAJliP3YaE3bNB+vcM9l49gr1fr9NVVru78djs/YnYbqu179Z6qQKtkxKAxMqeAIiISDU0ZQIwKHcAIiIikp4SABERkQpSAiAiIlJBSgBEREQqSAmAiIhIBSkBEBERqSAlACIiIhWkBEBERKSClACIiIhUkBIAERGRClICICIiUkFKAERERCpICYCIiEgFKQEQERGpICUAIiIiFaQEQEREpIKUAIiIiFSQEgAREZEKUgIgIiJSQUoAREREKkgJgIiISAUNyR2AtIT5wEJgcbf/bTgwGhiXJSLpSzv2fi0Alnf730di79eYHEFJn5Zi3625Pf73sdj7NSJ5RNIy2nIH0IDNga07/7tp5/97o6wRtbaXgYd6tKeB17Efqb4MBSYCG2DvVa1tAaweMd4q68Dem57v14vA7M7//74MB1YFJgNTsfeq9t8144VcacuAx7D36EFgFvAw9n7NG+Dfjsbel01Z8fs1FSUHsSwC7sbep0c6/3sb8EbOoOrRzAlAb9YD9u1s+wEr5w2nqS0FbgQuAy7FPuihTQUOBg4C9kA9Uo14E7gauBx7z16KcI5N6Hq/9sSSBanPq3S9V1dhvTIhjQBm0PV+TQ78+lXzAHAl9h27EXgnbzgykOHAMcAVWFdnh1qhdhfwIayLMaXxwEeBexuIvWqtHbuJHAIM81/yhowGPgj8vc7Yq9gWAecCu5F+/tXmwPewHoXc16FZ2mzgv4At67jeUiKTgB9iWVvuD1UZ2zLgfOyHqQymARegxK2v9ib2Y75JvRc4sB2Ac7A5ILmvTRnbS8C/AqvVeX1DGg18AhtiyH1dytoeA04gfVItka0N/ABYQv4PWVnaJVhXfBlthfXg5L5GZWlLgZ9Q3rkTGwMXkv86laXNx278KzVyUSMZDPwDNs8g93UqS3sCOL7z2kgLmwJcS/4PXM52NzZG2AxmYmNwua9ZzvZnbKJXM9gDG0rKfc1yteXAj7HJr2U3Cvgy8Db5r1uu9nbnNdCkyYr5ADaLPfcHMGVbjH3Yhwa4fikNA75O9XpvXgfeH+D6pTYE+ArVe78eBXYPcP1S2wS4ifzXL3W7CluhJBW1FtXpZr4H61ZvZtsC95P/WqZoF1Pe7v6itsOWt+W+lrFbO/AdrJ5CsxoEfJZqzJV6G/gMrbcSTurQBvwTNsaa+4MZq/2E1lm2NRL4Bfmvaay2GPh0sKuV3yjgPPJf11htNnBgsKuV3zbYRLjc1zVWewRbFSGygunAK+T/gIZsC4BjQ16kEvkgViUt9zUIodnWAAALi0lEQVQO2Z4Gdgx5kUrkM7TekMDNwLohL1JJjAX+l/zXN3S7mPRLnKWJrA3cQv4Paoj2OOky3ZWwSU+TO/+bqit0S+BJ8l/rEO2vpFsqNgarIDcZWIV0E6D2AF4j/7UO0c4m3VKx8cA62JLmlUk3U/1kWqNntB04E+1/s4JmHv84A3v6uwsrRrIg4GsPB76JPbE0qyuxyWM9a4g3YghWK2AnbCXF5tgNZFV6/2K1A3OwG/RDWNfbbdj7tSxgXKsAv8cqQDarnwOfov+yyl6jgL2wLt3Ngc2A9bGbSW/asUmHT2LrxB8B7sCeckPGtSG2/HRKwNdMaRnweWxJcUgTgb2xeTqbYe/Z2tja/d68g1UUfBj7fs0CrgeeCRzXdOAPNMeqht68gU34vjLw624C7IzNc7kiwutLP+6gK7tbjF38jxN285kP03wTYtqx5CjUE8IwLJH4A+GqiM3FuhePIdxqhCHAt7C/P/d74GlvYWuPQxmPzR+4Cqs8FyLG+dj6/uMJN49kPFYGN/f197YXCTvLf11sVc6thCt89RD2XQhZwW5DmrNK592EneW/NXZte86RODngOaSA7glA9/Ym8DPCbQy0LfBUH+cqW1sAHBHo754IfBXbBChmzC9hy8UmBIr7PTRPudNnCTfevynwU+zzHzPm17AEM8TGQG3YZ6xZkrYbA/3dYEMhfyR+9/r1wPsI09s7Avhl5HhDtt8SpghTG3Ak/S+TVAKQWF8JQK0twX4Q1whwrlUp/1LBRwhT0W8kcBr21Jcy/nnAqYQZi96U8i89u4wwm1Wtjn3OU4/TLsQStxA/sMdgPSG535P+2tmE6a2aghV1Sh3/HVhXfggnU+6yz0ux35IQ9qNYUSslAIkNlADU2lzszWk0Ax4MfINy1qc/n77HCT0OwJ5Kc/4tTxNmLH8scFHmv6W3tgx76m10MlIb8Ems1yfn3/McsH+DfwvA9p2vlfv96dneJEwhppHAt8k/oe4Cwozl7045ywg/B+wS4O9bA98qCCUAiRVNAGrtWmxCTaN2ozxrZGvJTaPGYJPQytIV24491YZIao7CJiLm/ps6sMl10wP8TZMoVynrdqz0baO9AeOwJ+3cf0+t3YTtb9ConSnX5juvEmaocDzler8uwCYEN+pIbOKg59xKABLzJgAd2AznQwKcezS2TWSuNc3t2Kz3EOORUyjXj1P3Nosw9e/XJW9vwCJsVUmI7vIDKE9C07PdjSUnjToSeD7j3zEH610JsWTs05S39sEPCDOscRjWc5fr73iCML/rI6i/wJgSgMTqSQA6CLsedGPS31huJkwXFzTHhLkF2A0hhGnA7Qljb8eeSiYHiL0NG9dcljD+etrr2FK2Rq2EzY6PPamxe1sMfJcwczNGAL9KGHu97SasHHqIv/eLWK9kqtjnYBVcQ9RiWBtbiVFvLEoAEqs3Aai1S+l7PbTXJlhSEevDvwxbNz0zULyDaa7Z1+3A97GlfiFsD5xLvCezBVjX6BaB4h1Dc22zG3IS1ljsx3VWxHhfxr6/6wSKeT0a/31K2V4jTNIG9lk9mbi7dz4KnEKYIUKAPWl8tZMSgMRCfMEeJczM+ZqxwNHAOdg4WyOxLcB+9D9C2A1hJgBXNxhbrnY1tiIjlLWwL+7FNP6k+TL2xHck4X6YwIrBPNpgbLnazwhX52EQNn/iTOC+ALE9hg3j7RswRij3EE1/bQlh959ow3oq/x2bRd/Iw0Y79nv/NawIWUinEGZiZlMmAM1cCfAOYIcAr7MQOBHryg9pENb1OxUbZ98Mm+Q0But5WAkrMjS/M4Y3sR+lhzvbo4StvgZWxOJimnv7y+eBw7EflZCGYu/RFOw92xh7r0Zjid1IbAexedh7NQ9bejkLe79qtSJCOgRbyxyyuFVqN2Hr0GcHft0JdFU33Azrwh2LVT8chXUL175Xc7FJXbO6tZcCx9OGdYF/g3RlemP4HfBR7LcppFWw96v2e7gW9n7VvmNg79VC7OHnRex7NQtb0huyoilYQaufYMXeQvgYNpFaEgnZxdYOnE5r14k+lvKvtS7aFmI9La1qEPB1mmeIZqD2GHaTblWjaK2Nc24j3HBIGa1L+LlATdkD0MxijLFdS/Pvv97TcGz8PPePSoyWcjOWVCYAl5P/2oZuC7Alma1mM+KOd+dqrbbFcc3exNnxVQlAYrEm2TxP2FrfOW1Ac01Gqqfdhm1w0wr2BF4g/zWN1dqBswg3mTO3E2m97ai7t+XYGH4zD2nUDAb+g3iF3JQAJBbzxrYUm2wUauOT1NqwD2Tqcr652nzCVHvMZQT2eSv7Er9Q7Taae0hgNWx5Z+7rmKrdSvPu3Ag27+A24l4jJQCJpXiyfYjws05jm0TzzvJvtF2JLcFqJrsQd4lbWds72FLBZpt3cxS2bC739cv1fjVTb8AQLOZQu2L215QAJJaqa3s5lu1PSvNn1W0U9mHPXRs+d1uIPU2PbexyRrc2NoehKk/9fbU7CbdJTUxTsVocua9X7jaL5pjLMZO02xcrAUgs9dj2Qmxm9pgUf5zDEGwJSuxte5utvYQtZyrbePM4bKlYq6zICNUuIkzZ59DWBX5NOTcBy9muArZp4LrGsi15ekCVACSWa3Jbrcrb5vH/xH6tjj3x5969r+ztJcJWeatXrVqkd5ORKrXl2I/3UeTvao5dLbJV2k3Y+5Uz0R6EPfFfQr6ls0oAEss9u70dy4KPx5ZupTAKeC9wHuXej7uMbRFWVOc9ndcxhdWAk7Dlpa2ypj9VexRLcFMm2pOBzxCm0mDV2rPAV0jXK9CGPe2fTjm2kW7KBKBZZ01DuEqAIbRjs0wvxX7sH8SGDBo1DJt9Ow04GJhB865MKJNFwA3Y+/U3rKLfkgCvOxar/z8Te792oPkmuZXRM8BlwBXYuO7zgV53AnbD2h97v5p5pnuZvIC9X5dhO0SGer/WxXpmDupsIbZ3D6UpKwEqAYijlhE/1NmewmYOz8Zm0y7q/O8wusqWTuhs62NPPVsAG1K+MexWtAzbUvRBbJLTM9iudq9jicFCbGnoSGzJ3krYe7U69tS4JXbzmJQ47qqaj5WJfRBL3l6l6/3qoGuHy9FYiecx2Hs1EZtnMBX7fq2WOvCKmo99rx7E3rfa+1XbM2Fe53HjsXvSqth7tRr2vdoCe8/KXBJbCUBiZU4ARESkOpoyAVD3pIiISAUpARAREakgJQAiIiIVpARARESkgpQAiIiIVJASABERkQpSAiAiIlJBSgBEREQqSAmAiIhIBSkBEBERqSAlACIiIhWkBEBERKSClACIiIhUkBIAERGRClICICIiUkFKAERERCpICYCIiEgFKQEQERGpICUAIiIiFaQEQEREpIKUAIiIiFSQEgAREZEKUgIgIiJSQUoAREREKkgJgIiISAUpARAREakgJQAiIiIVpARARESkgpQAiIiIVJASABERkQpSAiAiIlJBSgBEREQqSAmAiIhIBSkBEBERqSAlACIiIhWkBEBERKSClACIiIhUkBIAERGRClICICIiUkFKAERERCpICYCIiEgFKQEQERGpICUAIiIiFaQEQEREpIKUAIiIiFSQEgAREZEKUgIgIiJSQUoAREREKkgJgIiISAUpARAREakgJQAiIiIVpARARESkgpQAiIiIVJASABERkQpSAiAiIlJBSgBEREQqqC13AA0YCwzOHYSIiFTe28Di3EGIiIiIiIiIiIiIiIiIiIiIiIiIiIiIiIiIiIiIiIiIiIiIiIiIiIiIiIiIiIiIiIiIiIiIiIiIiIiIiIiIiIiIiIiIiIiIiIiIiIiIiIiIiIiIiIiIiIiIiIiIiIiIiIiIiIiIiIiIiIiIiIiIiIiIiIiIiIiIiIiIiIiIiIiIiIiIiIiIiIiIiIiIiIiIiIiIiIiIiIiIiIiIiIiIiIiIiIiIiIiISLP7fylRLrDz2g/WAAAAAElFTkSuQmCC;base64,iVBORw0KGgoAAAANSUhEUgAAAgAAAAIACAYAAAD0eNT6AAAABHNCSVQICAgIfAhkiAAAAAlwSFlzAAAN1wAADdcBQiibeAAAABl0RVh0U29mdHdhcmUAd3d3Lmlua3NjYXBlLm9yZ5vuPBoAABxBSURBVHic7d1/sOx3Xd/x1xtDEtJIEgFBM8RQpcQoBEggihJAR8QfUBhHGqktAUaLFccfVMTa6VjrGJpSp1YUnEHRVk2k0xChyi+x+FtMQoqENPKrAURQGnMDISSG3E//2GUaU8O9d3fP+eye9+Mxc4eZcHf3tXu/+93nOWfv3RpjZJtU1ZOTPC3JeUnOSXLixDl3JrkuyVVJfifJfxljHJ64Z21VdW6SC7N4fB+d5L5zFx3R+7J4/N+W5OfGGLdO3gP3qKpOSvLPkpyfxXPsi+cuOqKPJ3l7Fs+xy8YYV0/es5aquleSf5LkCVk8/mcn+ZyJk25L8o4sHt/XjjHeNHHL/6e2JQCq6vOS/FSSb5+95bP4gyTPGWO8Z/aQY1VVxyf50SQvytwnxDrel8Xj/3uzh8DdVdXjk7wq2/+if0/uTHJJkh8dY/zN7DHHqqoemsXj/1Wzt3wWv5zke8cYfz17SLIlAVBVp2ZRSWfM3nIUbk3y2DHGu2YPOVpVVUl+O8kTJ0/ZhMNJnjnG+G+zh8BnVNW3JHl1knvN3rIBb03yNWMbXhyOUlV9WZI/SXLS7C1H4YNJzhljHJo9ZFsO1p/Mbrz4J4sD7FVVtUtfRX9PDsaLf7I4Zl9eVfefPQSSZHksvjzbcz5d1xOzOGfshOW5+FXZjRf/ZPFa95OzRyRbcMBW1QVJnjN7xzF6TJLvnj3iaFTVFyS5ePaODXtAFt+qhG1wSRbH5EFy8fLcsQu+O4tz8i55zvK1b6rpAZDkG2YPWNGu7L4gu1PGx2JXHn8OvoN4LJ6UxbljF+zq4z999zYEwHmzB6xoV3bvys5j9aCqOn32CHpbHoMPmr1jj+zKuWNXdt7d9N3bEACPmD1gRfffkW+R7erjezQO8n1jNxzkY3Dr79vyHLyr7wea/vhuQwCcMHvAGnZh+y5sXNVBvm/shoN8DO7CfduFjfdk+vZtCAAAYJ8JAABoSAAAQEMCAAAaEgAA0JAAAICGdj0AThtj1Dq/knxg9p3YYk9a9/E9isf/12ffSZjk1/fh+fWk2Xdyi31gA4/vabPvxDqOmz1gx/1ZVW37J2YdP3vAHnp1VR2ePYLWdv2LqM/mgqq6bfaII6jZA3aZAFjPQX5x3QX3nj0ADrDKFvxjNeydg1yvAMA9EAAA0JAAAICGBAAANCQAAKAhAQAADQkAAGhIAABAQwIAABoSAADQkAAAgIYEAAA0JAAAoCGfBries5J8YPaII3hTksfPHrFHnpnkdbNH0NpTk7x69og98ntJnjx7xBF8UZLrZ4/YVQJgPbePMbb687Kr6vDsDXvojm1//DnYquqO2Rv20OFtf35V1e2zN+wyPwIAgIYEAAA0JAAAoCEBAAANCQAAaEgAAEBDAgAAGhIAANCQAACAhgQAADQkAACgIQEAAA0JAABoSAAAQEMCAAAaEgAA0JAAAICGBAAANCQAAKAhAQAADQkAAGhIAABAQwIAABoSAADQkAAAgIYEAAA0JAAAoCEBAAANCQAAaEgAAEBDAgAAGjpu9gC22mVVddse38bn7/H1w7Z6clXdsMe3ceIeXz87TADw2Txw9gA4wO6T5Itmj6AvPwIAgIYEAAA0JAAAoCEBAAANCQAAaEgAHHyfnj1gDx3k+8ZuOMjH4C7ct3U27sL921MC4OC7bvaAPXSQ7xu74SAfg7tw3z6c5OMrXnYX7t+eEgAH31WzB+yRm8YY7589gt6Wx+BNs3fska0/d4wxRpKrV7z41t+/vSYADr4/SHLn7BF74HdmD4Clg3gs3pnFuWMXrPr4H8Q/t2MiAA64Mcb7klwye8eGfTLJC2ePgKUXZnFMHiSXLM8du+DfJznWrZeOMQTA7AHsi3+T5NrZIzboRb79z7ZYHosvmr1jg67N4pyxE8YYtyZ5TpLDR3mRjyb5nr1btDsEQANjjNuTPCHJpbO3rOmvk3z7GONnZw+Bu1oek9+exTG6yy5N8oTlOWNnjDF+L8kTc+TvBLwxyWPHGDfu+agdUIv3UEwcUHUoySkrXvy0McahNW//hqz+gRwPGWPcsM7t77eqenqSf5zkvCRnzl1zVG5L8o4kb0vykjHGRybvgXtUVV+Q5MVJzk9yTnbj0/huyOINcb8yxrhi8pa1VNVJSX4wiy94zk1y3yR/keTKJJePMf7zhm/v1Kz+JtCbxxinbnLPsRIAzQLgrqrqtKz+2O+HkeTDY4z2f1+X3VNVxyU5PUnN3vJZ3DzGOJB/i6GqKovXiD37rsyuB4CPA25s+cQ/kE9+mG0Zrh+YvaOr5V8R3PUfyewp7wEAgIYEAAA0JAAAoCEBAAANCQAAaEgAAEBDAgAAGhIAANCQAACAhgQAADQkAACgIQEAAA0JAABoSAAAQEMCAAAaOm72AADYlKp6ZJILkpyX5Mwk70xyZZI3jzE+PHHa1hEAAOy8qjo5ySVJnp+k7vJ/PX75v7dU1YuSvGKMMfZ73zbyIwAAdlpVPTDJnyb5rvztF/+7OjnJzyZ5bVXd0+9pRQAAsOtenuQhR/l7vznJ9+zhlp0hAADYWVX1rUmecYwXu7iqztz8mt0iAADYZReucJmTkjx100N2jQAAYJedt8+XOzAEAAA7qarul+SMFS/+6E1u2UUCAIBd9bmTLnsgCAAAaEgAAEBDAgAAGhIAANCQAACAhgQAADQkAACgIR8HvJ7XVNXts0cANHXC7AG7TACs55GzBwDAKvwIAAAaEgAA0JAAAICGBAAANCQAAKAhAZDcOXsAAPuu/blfACTvnj0AgH3X/twvAJKrZg8AYN+1P/cLgOQPZg8AYN+1P/e3D4AxxhuSvH72DgD2zeuX5/7W2gfA0nckOTR7BAB77lAW5/z2BECSMcaHk1yQ5O2ztwCwZ96e5ILlOb89AbA0xnhnkvOT/FCStyW5be4iADbgtizO6T+U5PzluZ4kNcaYO6DqUJJTVrz4aWOMPfnWfVXdO8lZSf7eXlw/AHvuk0muH2PcsRdXXlWnJrlpxYvfPMY4dZN7jpWPA74HywNGKQJwIPkRAAA0JAAAoCEBAAANCQAAaEgAAEBDAgAAGhIAANCQAACAhgQAADQkAACgIQEAAA0JAABoSAAAQEMCAAAaEgAA0JAAAICGBAAANCQAAKAhAQAADQkAAGhIAABAQwIAABoSAADQkAAAgIYEAAA0JAAAoCEBAAANCQAAaEgAAEBDAgAAGhIAANDQcbMHHDRVdZ8kj01yXpJHJTl57qK1HE7yniRXJXnbGOODk/ccUVV9TpJHZ/H4n5fkfnMXrWUk+VCSq5NcOca4bvKeo1JVZyd5TJJzkzw4Sc1dtJYbszj+r0ry9jHGnZP3HFFVnZHk/CyO/4dmt7/QuyXJNVk8/n8yxvjU5D0HSo0x5g6oOpTklBUvftoY49Am96yjqp6U5BeSnDl5yl44nOSlSf71GOP22WP+LlX1D5L8UpKvmL1lj/zXJN81xrhx9pC/S1XdL8nLk3zr7C175I+TPHuM8e7ZQ/4uVXVCkh9L8i+y2y/69+SGJM8dY/yP2UM+o6pOTXLTihe/eYxx6ib3HKuDeJBMUVU/keQtOZgv/sniWHlRkquq6gtnj7m7qrowi68UDuqLf7J4Yb22qh47e8jdLTddm4P74p8sjq1rlsfaVlk+J6/K4jl6UM/rZyZ5y/Jcywb4DsAGVNXTkvz67B376DfHGN80e8RnVNWXJHlHkpNmb9kn709yzhjjltlDkqSqTs7i8f/7s7fsk1uzePzfO3vIZ1TVbyT5xtk79tE/HGO8dvYI3wForqo+L8nPzd6xz76xqp4ze0SSVNW9svi2f5cX/2TxQvvS2SPu4qXp8+KfLI61X1oee9Mtn4udXvyT5OeW517WsBUH8I57apIHzR4xwXfOHrD08CSPmz1igouqavqbeJcbLpq9Y4LHZXHsbYNteS7upwdlce5lDQJgfefNHjDJOdvwApS+j/8JSc6ePSKLDSfMHjHJ9GNv+Rw8Z/aOSaY//rtOAKzv3NkDJrlPtuMFqOvjnyz+muls27Bhlm049s7O4rnY0TY8/jtNAKyv88+htuG+b8OGWU6bPSDbsWGWbTj2tmHDLJ3v+0YIAABoSAAAQEMCAAAaEgAA0JAAAICGBAAANLQN/5BLZy9I8uHJG348yZdN3jDLf0jy+5M3PC/JN0/eMMt/T/Lzkzd8dZIXTt4wy7uS/KvJG05P8rLJG9oSAHO9ZYxx/cwBVfV9M29/sqvGGFfMHFBVT5x5+5O9bwse/xNn3v5k/2cLHv+zZt5+d34EAAANCQAAaEgAAEBDAgAAGhIAANCQAACAhgQAADQkAACgIQEAAA0JAABoSAAAQEMCAAAaEgAA0JAAAICGBAAANHTc7AHNXVxVN0/e0PnzuL+rqp4yecNjJ9/+TE+uql+cvOEhk29/prO24PE/ZfLttyYA5nr67AHNXbD8xRxfuvzFHA9M8uzZI5jHjwAAoCEBAAANCQAAaEgAAEBDAgAAGhIAANCQAACAhgQAADQkAACgIQEAAA0JAABoSAAAQEMCAAAa8mmAc/3LJB+ZvOHFSR42ecMsr0jytskbnpXk6yZvmOXNSX518obzkzx/8oZZ/izJSyZv+IIkPzF5Q1sCYK7XjDGunzmgqi5K3wD4nTHGZTMHVNUj0zcArhtj/OLMAVV1W/oGwEe34PE/KwJgGj8CAICGBAAANCQAAKAhAQAADQkAAGhIAABAQwIAABoSAADQkAAAgIYEAAA0JAAAoCEBAAANCQAAaEgAAEBDAgAAGhIAANCQAACAhgQAADQkAACgIQEAAA0JAABoSAAAQEMCAAAaEgAA0JAAAICGBAAANCQAAKAhAQAADQkAAGhIAABAQwIAABoSAADQkAAAgIYEAAA0JAAAoCEBAAANCQAAaEgAAEBDAgAAGhIAANCQAACAhgQAADQkAACgIQEAAA0JAABoSAAAQEMCAAAaOm72gOa+o6o+NnnDGZNvf6anVdWZkzecN/n2Zzqvql48ecMjJt/+TGdsweP/gMm335oAmOsHZg9o7tuWv5jjq5a/mOMhSS6ePYJ5/AgAABoSAADQkAAAgIYEAAA0JAAAoCEBAAANCYD1fWT2gIm24b5vw4ZZPjp7QLZjwyzbcOxtw4ZZOt/3jRAA67tq9oBJPp7k3bNHpO/jnyTXzB6Q7dgwyzYce+/O4rnY0TY8/jtNAKzvytkDJrl6jDFmj0jfx/+WJO+ZPSKLDbfMHjHJ9GNv+Ry8evaOSaY//rtOAKzvtUmunz1ign83e0CSjDHeneTy2TsmuGSMcXj2iOWGS2bvmODy5bG3DbbiubjPrs/i3MsaBMCaxhi3JbkoyZ2Tp+ynV44x3jh7xF08P8lfzR6xj67Mdv0Trhen11djf5XFMbcVls/FV87esY/uTHLR8tzLGgTABowx3pbkO5N8cvaWffC6bNlnGIwxPpbkW5L8+ewt++CaJBeOMT49e8hnLLdcmB7vB/jzJN+yPOa2yQ9k8dw86D6Z5DuX51zWJAA2ZIzxC0nOSfK7s7fskUNJnjvGeNoY4xOzx9zdGOP3kzw8yS8n2Yb3JmzaHUn+bZLzxxjvnz3m7pabzs9i4x2T5+yFkcWx9fDlsbZVxhifGGM8Lclzs3iuHkS/m+Sc5bmWDajZ7+OqqkNJTlnx4qeNMbbuYK+qB2bxMa+PSnLy5DnrOJzFm7yuSnLdGGMnfsxRVfdNcm4Wfwb3mzxnHSPJh7J4k9c7duVbnlV1YhYxfG6SByepuYvWcmMWx//VY4ydeLd9VX1OkrOzOP4fmt3+Qu+WLL6zdNUY4y9nj7m7qjo1yU0rXvzmMcapm9xzrAQAAKxg1wNgl8sQAFiRAACAhgQAADQkAACgIQEAAA0JAABoSAAAQEMCAAAaEgAA0JAAAICGBAAANCQAAKAhAQAADQkAAGhIAABAQ8fNHgB3V1X3SvIlSR6V5LTJc2AdNyW5Jsl7xxiHZ4+BuxIAbI2quk+Si5M8L8nJk+fAJt1SVT+f5IfHGJ+aPQYSPwJgS1TVo7L4Sul748Wfg+fkLI7ta5bHOkwnAJiuqk5L8rokD5u9BfbYw5K8bnnMw1QCgG3wsiSnzx4B++T0LI55mEoAMFVVnZXkWbN3wD571vLYh2kEALM9ZvYAmMSxz1QCgNnOmz0AJnHsM5UAYLYzZg+ASRz7TCUAmK1mD4BJHPtMJQAAoCEBAAANCQAAaEgAAEBDAgAAGvJpgOyyNya5YfYIWjszydfPHgGr2PUAeFZV3Tp7BGtZ5+9Cv2KMccXGlsAxqqqnZ/UAOKOqLtrgHPbfSbMHrGPXA+BnZg8AWNGjkrxq9gj68h4AAGhIAABAQwIAABoSAADQkAAAgIYEAAA0JAAAoCEBAAANCQAAaEgAAEBDAgAAGhIAANCQAACAhnb90wAvTfI3kzc8I8l9V7zsFUlu3uCWVTwlyQNXvOwbk3x0zdv/miQPXvM6YBd9KMlvr3kdD8rqH0f8l0nesObtr+uUJE9f8bIfT/KaDW5ZxfFJvm3yhpXtegD88zHGoZkDquorsnoA/PAY4/pN7jlWVfXWrB4ALxljvHXN278iqwfAV1fVievcPqzpvDUu+/YxxkXr3HhVPTGrB8D1697+uqrqrKweAB/Zgv2nRgDAFC+cPQBgV3kPAAA0JAAAoCEBAAANCQAAaEgAAEBDAgAAGtqGALhxxcvdnuSWTQ5hilX//GHXOfaZahsC4KoVL/eOMcanN7qEGVb984dd59hnql0OAE+eg8GfI1059plqGwLg0hz7v4f/6SSv3IMt7L+3J/nj2SNgn/1xFsc+TDM9AMYYf57k+4/xYj8xxrhmL/awv8YYdyZ5dpJbZ2+BfXJrkmcvj32YZnoAJMkY41VJfuYof/sVSX58D+ewz8YY707yvIgADr5bkzxveczDVFsRAEkyxnhBkm9I8uF7+C2HkvzTMcYzxhh37N8y9sMY47Ik5yT5w9lbYI/8YZJzlsc6TLdVnwY4xnhDVT00yblZfMzm2Unem8WbZa4cY3xi5j721hjjvVX1+CQPz+LP/9wkn3eEi31lkjNWvMk/SvLBFS/LwXBGFsfQKj6YxTH02fx1kquzOIe9c4xxeMXbgo3bqgBIkjHGp5L8/vLXQfe1y8/Dnun+k2//b1meIN+x/PXzR/r9VXVZVg+A/+Srsd6q6sKsHgB/NMa4cJN79tn9q+rpkzecPvn2W9u6AGjmZbMHAG19WZLXzB7BPFvzHgAAYP8IAABoSAAAQEMCAAAaEgAA0JAAAICGBAAANCQAAKAhAQAADQkAAGhIAABAQwIAABoSAADQkE8DnOstSW6ZvOGrk9xv8gZg/92Y+R+7fnKSr528oa2tDYCqOi3JlyZ53xjjL2fv2SMvGGNcP3NAVb01yRNmbjiIqureSR6e5PNnb9lxf5XknWOMO2YPOYCuHWM8feaAqjoryf+auaGzrQqAqjo5yY8leVqSL77Lf/9QkjcnefEY42OT5sERVdWzknxfkkckOWHynIPi9qr60yT/cYzxq7PHwEGxNe8BqKqvSfLOJN+fu7z4Lz04yXOTXFdVz9zvbXAkVfWAqro8ya8keUy8+G/SCVk8pr9SVZdX1QNmD4KDYCu+A1BVX57k9UmOP8JvvX+SX6uqQ2OMN+39MjiyqrpXkiuSPG72lgaekeSBVfX4Mcbh2WNgl03/DkBVHZfkl3LkF/+7emVV3XePJsGx+sF48d9Pj8viMQfWMD0AkjwryaOP8TIPzuLnrDBVVX1uFu9bYX/92PKxB1a0DQHwlft8OdikR+fYvnvFZhyfY//CAbiLbQiAc/f5crBJjsN5PPawhm0IgC9Z8XIP8D4AtsCqxy/r89jDGrYhANbZsA376c0xOI/HHtbgCQQADQkAAGhIAABAQwIAABoSAADQ0FZ8FgA0dV2SD80eMdmDk5w9ewR0JABgnp8eY7xi9oiZqur5SV4+ewd05EcAANCQAACAhgQAADQkAACgIQEAAA0JAABoSAAAQEMCAAAaEgAA0JAAAICGBAAANCQAAKAhAQAADQkAAGhIAABAQwIAABoSAADQkAAAgIYEAAA0JAAAoCEBAAANCQAAaEgAAEBDAgAAGhIAANCQAACAhgQAADQkAACgIQEAAA0JAABoSAAAQEMCAAAaEgAA0JAAAICGBAAANCQAAKAhAQAADQkAAGhIAABAQwIAABoSAADQkAAAgIYEAAA0JAAAoCEBAAANCQAAaEgAAEBDAgAAGhIAANCQAACAhgQAADQkAACgIQEAAA0JAABoSAAAQEMCAAAaEgAA0JAAAICGBAAANCQAAKAhAQAADQkAAGhIAABAQ8fNHtDc6VV12+QNJ06+fWCOE6vqzMkbTp98+60JgLl+a/YAoK3zk/zv2SOYx48AAKAhAQAADQkAAGhIAABAQwIAABoSAADQkABY3ydnD5io832HbdD5Odj5vm+EAFjf/5w9YJJPJ7l29gho7tosnosddT33bowAWN+VswdM8q4xxqdmj4DOls/Bd83eMUnXc+/GCID1vSFJxxfCy2cPAJL0fC5+KotzL2sQAGsaY9yQ5Edm79hn1yZ5yewRQJLFc7Hbj+N+ZHnuZQ0CYDN+KsmbZ4/YJ59IctEY429mDwGS5XPxoiyemx28OYtzLmsSABswxjic5ClJfjDJ7E/320u/leTLxxhXzx4C/D/L5+SX52B/wNhtWZxjn7I857Imnwa4IcsD8qVVdXmSpyY5L8mjkpw8ddh6Did5T5KrkvzhGOM3Ju8B7sEY44NJvq6qvinJ47I4Bz00u/2F3i1JrsniHPS6Mcb7J+85UATAhi0PUN+eAqZYhrpY54h2uQwBgBUJAABoSAAAQEMCAAAaEgAA0JAAAICGBAAANCQAAKAhAQAADQkAAGhIAABAQwIAABoSAADQkAAAgIYEAAA0dNzsATDRSVV16prXcfwal73PBm5/191njcsev4HH76Q1Lw87q8YYcwdUHUpyyooXP22McWiTe9gtVXVZkn80ewct/doY48LZI5hnGaA3rXjxm8cYU78A8CMAAGhIAABAQwIAABoSAADQkAAAgIYEAAA0JAAAoCEBAAANCQAAaEgAAEBDAgAAGhIAANCQAACAhnwcMJ3dmuSO2SOY6t7xkcA0JQDo7HljjMtmj2CeqrowyaWzd8AMfgQAAA0JAABoSAAAQEMCAAAaEgAA0JAAAICGBAAANCQAAKAhAQAADQkAAGhIAABAQwIAABoSAADQkAAAgIYEAAA0JAAAoKEaY2z2Cqu+Mck3JXlMkkckOWGjNwAAPdye5E+TXJnkN8YYv7nJK99YAFTVA5K8LMkzN3KFAMBdvTrJC8YYH9vElW0kAKrqfllUyheufWUAwD35iySPGGPcuO4Vbeo9AD8dL/4AsNe+MIvX3LWt/R2AqnpykjduYgwAcFS+fozxpnWuYBPfAfiGDVwHAHD01n7t3UQAnLeB6wAAjt7ar72bCICHbeA6AICjt/Zr7yYC4M82cB0AwNFb+7V3EwFw1QauAwA4emu/9m4iAF6/gesAAI7e2q+9awfA8q8hXLru9QAAR+XSdf8KYOJfAgSAXbJd/xLgcsgjs/h3igGAzXt1kkdu4sU/8WmAALCt9vTTAP8vdmkeNAbjOwoAAAAASUVORK5CYII=;base64,iVBORw0KGgoAAAANSUhEUgAAAgAAAAIACAYAAAD0eNT6AAAABHNCSVQICAgIfAhkiAAAAAlwSFlzAAAOxAAADsQBlSsOGwAAABl0RVh0U29mdHdhcmUAd3d3Lmlua3NjYXBlLm9yZ5vuPBoAABa3SURBVHic7d1rrGZXWQfw/1zaGejQgm0pLYJFIxfbGUQg3GpspTVBg5qYRiIJIbZeuKjAB0Hlgx+MMYoKWCgYGhMjX7wkgiihFFKCmhgQUFruQqEUKB21t7HQzvT4YZ+TOTNzzsyZ8679rr3X+v2SFaChe629z/6v87zPu8/7JgAAAAAAAAAAAAAAAAAAAAAAAAAAAAAAAAAAAAAAAAAAAAAAAAAAAAAAAAAAAAAAAAAAAAAAAAAAAAAAAAAAAAAAAAAAAAAAAAAAAAAAAAAAAAAAAAAAAAAAAAAAAAAAAAAAAAAAAAAAAAAAAAAAAAAAAAAAAAAAAAAAAAAAAAAAAAAAAAAAAAAAAAAAAAAAAAAAAAAAAAAAAAAAAAAAAAAAAAAAAAAAAAAAAAAAAAAAAAAAAAAAAAAAAAAAAAAAAAAAAAAAAAAAAAAAAAAAAAAAAAAAAAAAAAAAAAAAAAAAAAAAAAAAAAAAAAAAAADQp/1J3pLkliT3J1mpPO5fXcubk1w64nnDFMgfsHR7krw9yZHU33Q2G4eTXJfkzJGuAdQif0AVe5J8OPU3mK2OD8UmRDvkD6jm+tTfVE53/NkoVwKWT/6AKvZn2m3HzcbhJJeMcD1gmeSPydpZewGM7trM8+e8K8k1tRcBC5I/oJpbU//VxHbHp0e4HrBM8sdk7ai9AEZ3X5J9tRexTfclObv2ImAB8sdkKQDativDe3lztjvDe6gwN/LHpM3xvSm2bk/tBRTgz5GYK/lj0hQAbbMBQT3yx6QpANrWQnhbOAf61MK928I5sAkFQNv21l5AAS2cA31q4d5t4RzYhAKgbefWXkAB31N7AbBN8sekKQDa1sIG1MI50KcW7t0WzoFNKADadl7tBRTQwjnQpxbu3RbOgU3srr0ARlWiel/0syJWFvz3vQJhruSPSdMBaNtFtRdQQAvnQJ9auHdbOAc2oQBo25NqL6CAi2svALZJ/pg0BUDbLq69gAJa2ETp08W1F1CA/DVMAdC2FsJ7ce0FwDbJH5Pmy4DatS/JvVn8Z1z7IaSHkzwqyf8teBxYJvlj8nQA2rU/bRR4O5NcWnsRcJrkj8lTALTrQO0FFNTSudCHlu7Zls6FdRQA7dpfewEFtXQu9KGle7alc2EdBUC7WgqtVyDMjfwxeS28R8WJzkhyd5JHFjhW7YeQkuRQkkcnOVzgWDA2+WMWdADa9IyU2Xym4qx4FcJ8yB+zoABo02W1FzCCF9ReAGyR/DELCoA2Pb/2AkZgA2Iu5A+oYleSgxne+ysxFlVqHd+OgpXpkz9mww+0Pc9Om1/heX6G91ZhyuSP2VAAtOdFtRcwopbPjTa0fI+2fG5dUgC0p+WQtnxutKHle7Tlc4PZuyjJkZR7329K70GuZPg75AsKrAnGIH/Mig5AW65O2z/TXUl+rvYiYBPyB1Tzrylb8U/tFchKko8UWBOMQf6AKp6Q4bu7W9+AjiR5fIF1QUnyx+y03K7qzUvTx3c77EzyktqLgOPIH1DFjiRfSPlqf4qvQFaSfC59bLbMg/wB1VyRcYI+1Q1oJcmPFlgblCB/zJK3ANpwbe0FVPBLtRcAq+QPqOKCJA+kv1cgD2T4eFKoSf6YLR2A+Xt1kr21F1HB3iSvqr0Iuid/QBWPTHJXxqvyp/wKZCXDN5Q9osAaYTvkT/5mTQdg3q5Jcl7tRVR0fpKX1V4E3ZI/+YMqzkxyW8at8Kf+CmQlyZeSnFFgnXA65E/+oJpXZvxwz2EDWkmfT2FTl/zJH1SxN8ntsQGtja8m2VNgrbAV8id/TfAMwDz9apLvrb2ICXlivApheeTvWPIHS/KYjP/k8dxegawkuTPJOQXWCycjf/IH1bw1ywv1nDaglSR/VGC9cDLyJ39QxdOSPBgb0Gbju0meXGDNsBH5kz+o5gNZbqDntgGtJPmHAmuGjcif/EEVL83ywzzHDWglydUF1g3ryZ/8QRXnZnjIxga0tfHNDA9rQQnyJ39QzV+mTpDnugGtJLmhwNohkT/5g0penHohnvMG9HCSFxVYP32TP/mDKh6b5FuxAW133JnkcQXOgT7Jn/xBFTuSvC91Azz3DWglyfszXEs4HfInf1DNa1M/vC1sQCtJXlXgPOiL/MkfVPG8DB+qUTu4rWxADya5rMC50Af5kz+o4nFJ7kj90La0Aa0k+UaSiwqcD22TP/mDKs5I8tGUC92XChxjUVM4h7Vxc5LdBc6JNsmf/EE116dc2I4k+bECx1nUovM/P8nhgtflXQXOiTbJn/xBFW9MuZCtJHnT6nHnvgElyZ8UvjavL3BetEX+5A+q+PkMH5xRKmCfTfKI1WO3sAHtSXJrwevzcIbPdodE/uQPKvmJJN9JuXAdTvKcdcdvYQNKkuembCvygSQvLHB+zJv8yR9UcVmSQykXqpUkv3fcHK1sQEny+wWOt37cn+QFBc6ReZI/+YMqfjjJ/6RsoG7OiU/ZtrQB7U7ykQLHXD/uSfKsAufJvMif/EEVz0xyMGWD9M0kF24wV0sbUDL8LXHpz2c/mOFnQh/kT/6gisuS3J2yATqc5MpN5mttA0qSy5M8VODY68fd0Y7sgfzJH1RxRZL7UjY4K0necJI5W9yAkuS3Cxz7+HEow0NhtEn+5A+q+IWUfdp4bbwnJ/+2rVY3oB1J3lvg+MeP7yR5SYHzZlrkT/6git/I8MlgpcPyiST7TjF3qxtQMpz7JwrMcfx4OMnvLnbaTIj8yR8s3RlJbkj5gKwk+Wq29uUaLW9AyXANvlZgno3Gn2f4GTJP8id/UMX5ST6ccYJxT5IDW1xH6xtQklyS5H8LzLXR+Gg2frqbaZO/5c0vf7DOCzJ8/eUYgXgwyVWnsZYeNqBkeMBrrO9wvyPDl6IwD/K3/Pnlj+7tSPLaDJvEGEE4kuRlp7mmXjagJHl5yn6m+/rx3SS/npM/8EVd8ld3/pdH/ujUY5O8L+Pc/CsZgvWKbayrpw0oSa7JeJvQSpIbs7X3flku+ZvG/PJHd16c5NsZd/N51TbX1tsGlCS/lnE3oTuT/NQ210Z58jet+eWPLjwmyTsz7s2+kuQ3F1hjjxtQMvzp15g/k5Ukf53kvAXWyGLkb7rzyx9NuzpDJTr2Tf5bC66z1w0oSV5XYP5Tjf9O8ssLrpPTJ3/Tn1/+aM7Tknwg49/YLWwALcy/1fH+JE8tsF5OTv76ml/+mITHJPmDjPenLlMNYO/zn854KENLWluyPPnrc375o6q9SV6T8l8fOpcA9j7/dsZdGd4D3Vtg/b2Tv77nlz+qOCPDe0tfT52beCoB7H3+RcbtGTaiPQXOozfyZ375Y+nOSvLqJLel7s07lQD2Pn+J8eUkr0zyyALn0zr5M7/8sXTnZ/gGqlqtxqkGsPf5S467k7wlPshkI/JnfvljqXZk+Azrdyd5IPVv0CkGsPf5xxgPJPmrJJen7482lT/zyx9L98Qkb0jyxdS/GacewN7nH3t8IcnrkzyhwLnOhfyZfyqjx/x16bwMDxX9c8b/5DAbUDvzL3N8PMNDSy22KOXP/FMfLedvQy23P3YmeUaSK1fH5Ul211zQNi36M1o0xL3PX8PDST6Z5KbVcXOSwzUXtA3yN5j7/V97/hpayN+WtFQA7E7yIxm+N/qyDBvOuTUXVEjtAPY+/xQczLAJ/cvq+GSmtyHJ38bmfv/Xnn8K5pC/bZlrAbAvyaVJDqyO/UmemeFPiFpTO4C9zz9Fh5L8e5L/XDduTXL/kuaXv62b+/1fe/4pqp2/YqZSAOzL8MEfu5KcvTrOz/C+4blJLkzypNVxcZLHVVnl6ftKhjUvonYAe5+/xM9wWb6Z4e/nv7L6n9/I8GUpB1fHvUnuydDifChHNyz521zt+6/3+XvIX9NqP9hRYzyY4e9N9xU41qLMv9h4RIa/T/9OgWMZyxny1878vedv9mpfwGWPDyZ5csHzX5T5y8z/lAwPBNW+v4yTD/lrc/5e8zd7tS/gssbnM3xHeenzX5T5y85/ZZJPFziuUXbIXx/z95a/2at9AcceBzN8kMSZI53/osxffv7dGf6m/VsFjm8sNuSvv/l7yt/s1b6AY42DSX4nyaNGPv9FmX+8+c9O8sYMD/rUvh97G/Jn/h7yN3u1L2DpcTDDQymPXtL5L8r848+/L8MniPXwiqT2kD/zH6/l/M1e7QtYanw5yWsy3GzLPP9FmX958z8qwz3y5QLzGscO+TP/qbSYv9mrfQEXHR9P8rJs/2NMa98A5l/+/DuTvDjDE+m179+5D/kz/+lqKX+jWsYHAY1+EiOr/UEY5u97/t7Vvv7m73v+2kb9Hb1zzIMDANOkAACADikAAKBDCgAA6NB2n6ydsoNJPpbh6eGPJXlv3eXAQn4myXNWx7MzfPjJlN2bIXf/tjreU3c5sJCfzpC7Zyd5VoZvyGzGnP8K4J4kX1wdX8jwfcwfy/A1jCXnr/0UqvnNv2Znkh9IciDJ/iSXJnnq6j/bu+A8p+uBDH9v/bkkt2T4fPb/WP1nD6/7/7V0/c1v/idlKAYuSfKDq+PJGa8wH/V39FQKgLXvSD6U4as8v7v6z+5K8u0M37N81+q4PcMv/TsLzn8yU7sBzW/+jTw+yfcneWKSC1b/9wVJXrrg/O/OkLWvZ8ji15L8V4bvOt+KXq6/+fue/4IMxcATkpy/Oi5a99/PSbInw3dWnJWhmD+n4PzbsowCoLZebkDzm9/85jf/tOafNA8BAkCHFAAA0CEFAAB0SAEAAB1SAABAhxQAANAhBQAAdEgBAAAdUgAAQIcUAADQIQUAAHRIAQAAHVIAAECHFAAA0CEFAAB0aIzvOt6f5NokL0xycZKzRpiD5an9fdzQM/nr26EktyW5Kcm7ktxS8uAlC4A9Sf40ya9EZ6ElNiCoR/5YcyTJO5K8LsmDJQ5YqgDYk+T9Sa4odDymwwYE9cgfx/twkhelQBFQ6pX6m+OXPwCM7ceT/HGJA5XoAOxP8qlo+7fKKxCoR/7YyJEkT09y6yIHKfFL+9pCxwEATm1XkmsWPUiJX9xXFjgGALB1Vy16gBJvAdyXZF+B4zBNWpBQj/yxmfuSnL3IAUoUAG6wttmAoB7542QWuj+8dw8AHVIAAECHFAAA0CEFAAB0SAEAAB1SAABAhxQAANCh3bUXkLJfScyJ5v53wO4P5kz+OJmq94cOAAB0SAEAAB1SAABAhxQAANAhBQAAdEgBAAAdUgAAQIcUAADQIQUAAHRIAQAAHVIAAECHFAAA0CEFAAB0SAEAAB1SAABAh3bXXkDm/33ZjMv9AfXIX8N0AACgQwoAAOiQAgAAOqQAAIAOKQAAoEMKAADokAIAADpUogC4r8AxAICtu3fRA5QoAG4vcAwAYOu+tugBShQAHyxwDABg625c9AA7Cizi0iSfSrKrwLGYnkXvER8lCtsnf2zkSJIDST6zyEFKdABuSfKOAscBAE7tbVnwl39SpgOQJGcm+ackLyx0PKbDKxCoR/443k1JfjLJQ4seqNSfAT6YYUHXZWhNAADlHEny1hT65Z+U6wCsd0mSa5JcleTiJPtGmIPl8QoE6pG/vt2f5LYMD/zdkAJt//XGKACYlkU3gNobkHuUOat9/9eenwnzSYAA0CEFAAB0SAEAAB1SAABAhxQAANAhBQAAdEgBAAAdUgAAQIcUAADQIQUAAHRIAQAAHVIAAECHFAAA0CEFAAB0SAEAAB1SAABAhxQAANAhBQAAdEgBAAAdUgAAQIcUAADQIQUAAHRIAQAAHVIAAECHFAAA0CEFAAB0SAEAAB1SAABAhxQAANAhBQAAdEgBAAAdUgC05+lJ3pbks0kOFTjeyoJjUYcynMt1SQ4UOB6MSf6Apdub5PokR7L4pjHVcSTJ25PsKXTNoBT5A6rYm+Tm1N8gljU+FJsQ0yF/QDXXp/6msOxxXZErB4uTP6CKA2m77bjZOJLk0gLXDxYhf8yWhwDn7xXp8+e4M8kray+C7skfs7Wj9gJYyO4kdyR5bO2FVHIwyYVJDtdeCF2SP/mbtR4r15ZckX43nyQ5L8nltRdBt+RP/mZNATBvV9dewAS4BtTi3nMNZs1bAPPVe/txjTYkNcjfQP5mTAdgvnpvP67RhqQG+RvI34wpAOZL6+0o14Jlc88d5VrMlLcA5kn78VjakCyT/B1L/mZKB2CetB+PpQ3JMsnfseRvphQA86TldiLXhGVxr53INZkhbwHMj/bjxrQhWQb525j8wRJclcU/x/sdS1/1qb0zi5/XlUtfNb2RP/lrhrcA5qdEq+1vChyjtBJr0oZkbPK3OfmDEe1OcmcWq9LvWj3O1OxKu+dGG+RvnufGJnQA5qXE08d/l2m+T3ckyd8veAxPIzMm+Ts5+ZsZBcC8tNp+XKMNyZTJ36nJH4yg5fbjGm1Ipkr+2jhH1tEBmI+W249rtCGZKvnbGvmbEQXAfLTeflyjDckUyd/WyR8U1EP7cY02JFMjf22ea/d0AOahh/bjGm1Ipkb+To/8zYQCYB56aT+u0YZkSuTv9MkfFNBT+3GNNiRTIX99nHOXdACmr6f24xptSKZC/rZH/mZAATB9vbUf12hDMgXyt33yBwvosf24RhuS2uSvz3Pvhg7AtPXYflyjDUlt8rcY+Zs4BcC09dp+XKMNSU3ytzj5g23ouf24RhuSWuRP/pqnAzBdJdqPf5t5th/XaENSi/zJX/MUANPVe/txjTYkNcjfQP5gybQfj9KGZNnk7yj5a5gOwDRpPx6lDcmyyd9R8tcwBcA0aT8eSxuSZZK/Y8kfLIn244m0IVkW+TuR/DVKB2B6tB9PpA3JssjfieSvUQqA6dF+3Jg2JMsgfxuTPxiZ9uPmtCEZm/xtTv4apAMwLdqPm9OGZGzytzn5a5ACYFq0H09OG5Ixyd/JyR+MRPvx1LQhGYv8nZr8NUYHYDq0H09NG5KxyN+pyV9jFADTof24NdqQjEH+tkb+GrKj9gJIMrTE7sjir0DYmoNJLkzbr9bYOvlbLvmbCB2AaSjRfmTrtCFZT/6WS/4mQgEwDVpiy+eas8a9sHyu+QR4C6A+7cc6tCFJ5K8W+ZsAHYD6tB/r0IYkkb9a5G8CFAD1/WztBXTMtcc9UI9rX5kCoL7n1V5Ax55bewFUJ3/1yF9lngGo7/4kZ9VeRKfuS3J27UVQlfzVI3+V6QDU91DtBXTswdoLoDr5q0f+KlMA1Hd77QV07Ou1F0B18leP/FWmAKjvptoL6NiNtRdAdfJXj/xV5hmA+p6S5NNJzqi9kM4cTnIgyWdrL4Sq5K8O+ZsAHYD6Pp/k+tqL6NDbY/NB/mqRP1h1RpJ/zGLfs21sfdyY5Mwt/WTogfzJH1S1N8mbMrTGage01XE4yR+uXmtYT/7krzueAZieH0ryi0muSvJ9Sc6pu5zZuyfJVzO86viLJJ+puxwmTv7Kkj8AAAAAAAAAAAAAAAAAAAAAAAAAAAAAAAAAAAAAAAAAAAAAAAAAAAAAAAAAAAAAAAAAAAAAAAAAAAAAAAAAAAAAAAAAAAAAAAAAAAAAAAAAAAAAAAAAAAAAAAAAAAAAAAAAAAAAAAAAAAAAAAAAAAAAAAAAAAAAAAAAAAAAAAAAAAAAAAAAAAAAAAAAAAAAAAAAAAAAAAAAAAAAAAAAAAAAAAAAAAAAAAAAAAAAAAAAAAAAAAAAAAAAAAAAAAAAAAAAAAAAAAAAAAAAAAAAAAAAAAAAAAAAAAAAAAAAAAAAAAAAAAAAAAAAAAAAAAAAJu//AXid/DqmDgVKAAAAAElFTkSuQmCC;" vertex="1" parent="1">
          <mxGeometry x="150" y="287.43" width="45" height="45" as="geometry" />
        </mxCell>
        <mxCell id="4tqr_Nl9Fvb0LUBX_hIL-12" value="" style="shape=image;imageAspect=0;aspect=fixed;verticalLabelPosition=bottom;verticalAlign=top;strokeColor=#000000;fillColor=#29FF54;image=data:image/png,iVBORw0KGgoAAAANSUhEUgAAAgAAAAIACAYAAAD0eNT6AAAABHNCSVQICAgIfAhkiAAAAAlwSFlzAAAOxAAADsQBlSsOGwAAABl0RVh0U29mdHdhcmUAd3d3Lmlua3NjYXBlLm9yZ5vuPBoAABa3SURBVHic7d1rrGZXWQfw/1zaGejQgm0pLYJFIxfbGUQg3GpspTVBg5qYRiIJIbZeuKjAB0Hlgx+MMYoKWCgYGhMjX7wkgiihFFKCmhgQUFruQqEUKB21t7HQzvT4YZ+TOTNzzsyZ8679rr3X+v2SFaChe629z/6v87zPu8/7JgAAAAAAAAAAAAAAAAAAAAAAAAAAAAAAAAAAAAAAAAAAAAAAAAAAAAAAAAAAAAAAAAAAAAAAAAAAAAAAAAAAAAAAAAAAAAAAAAAAAAAAAAAAAAAAAAAAAAAAAAAAAAAAAAAAAAAAAAAAAAAAAAAAAAAAAAAAAAAAAAAAAAAAAAAAAAAAAAAAAAAAAAAAAAAAAAAAAAAAAAAAAAAAAAAAAAAAAAAAAAAAAAAAAAAAAAAAAAAAAAAAAAAAAAAAAAAAAAAAAAAAAAAAAAAAAAAAAAAAAAAAAAAAAAAAAAAAAAAAAAAAAAAAAAAAAAAAAADQp/1J3pLkliT3J1mpPO5fXcubk1w64nnDFMgfsHR7krw9yZHU33Q2G4eTXJfkzJGuAdQif0AVe5J8OPU3mK2OD8UmRDvkD6jm+tTfVE53/NkoVwKWT/6AKvZn2m3HzcbhJJeMcD1gmeSPydpZewGM7trM8+e8K8k1tRcBC5I/oJpbU//VxHbHp0e4HrBM8sdk7ai9AEZ3X5J9tRexTfclObv2ImAB8sdkKQDativDe3lztjvDe6gwN/LHpM3xvSm2bk/tBRTgz5GYK/lj0hQAbbMBQT3yx6QpANrWQnhbOAf61MK928I5sAkFQNv21l5AAS2cA31q4d5t4RzYhAKgbefWXkAB31N7AbBN8sekKQDa1sIG1MI50KcW7t0WzoFNKADadl7tBRTQwjnQpxbu3RbOgU3srr0ARlWiel/0syJWFvz3vQJhruSPSdMBaNtFtRdQQAvnQJ9auHdbOAc2oQBo25NqL6CAi2svALZJ/pg0BUDbLq69gAJa2ETp08W1F1CA/DVMAdC2FsJ7ce0FwDbJH5Pmy4DatS/JvVn8Z1z7IaSHkzwqyf8teBxYJvlj8nQA2rU/bRR4O5NcWnsRcJrkj8lTALTrQO0FFNTSudCHlu7Zls6FdRQA7dpfewEFtXQu9KGle7alc2EdBUC7WgqtVyDMjfwxeS28R8WJzkhyd5JHFjhW7YeQkuRQkkcnOVzgWDA2+WMWdADa9IyU2Xym4qx4FcJ8yB+zoABo02W1FzCCF9ReAGyR/DELCoA2Pb/2AkZgA2Iu5A+oYleSgxne+ysxFlVqHd+OgpXpkz9mww+0Pc9Om1/heX6G91ZhyuSP2VAAtOdFtRcwopbPjTa0fI+2fG5dUgC0p+WQtnxutKHle7Tlc4PZuyjJkZR7329K70GuZPg75AsKrAnGIH/Mig5AW65O2z/TXUl+rvYiYBPyB1Tzrylb8U/tFchKko8UWBOMQf6AKp6Q4bu7W9+AjiR5fIF1QUnyx+y03K7qzUvTx3c77EzyktqLgOPIH1DFjiRfSPlqf4qvQFaSfC59bLbMg/wB1VyRcYI+1Q1oJcmPFlgblCB/zJK3ANpwbe0FVPBLtRcAq+QPqOKCJA+kv1cgD2T4eFKoSf6YLR2A+Xt1kr21F1HB3iSvqr0Iuid/QBWPTHJXxqvyp/wKZCXDN5Q9osAaYTvkT/5mTQdg3q5Jcl7tRVR0fpKX1V4E3ZI/+YMqzkxyW8at8Kf+CmQlyZeSnFFgnXA65E/+oJpXZvxwz2EDWkmfT2FTl/zJH1SxN8ntsQGtja8m2VNgrbAV8id/TfAMwDz9apLvrb2ICXlivApheeTvWPIHS/KYjP/k8dxegawkuTPJOQXWCycjf/IH1bw1ywv1nDaglSR/VGC9cDLyJ39QxdOSPBgb0Gbju0meXGDNsBH5kz+o5gNZbqDntgGtJPmHAmuGjcif/EEVL83ywzzHDWglydUF1g3ryZ/8QRXnZnjIxga0tfHNDA9rQQnyJ39QzV+mTpDnugGtJLmhwNohkT/5g0penHohnvMG9HCSFxVYP32TP/mDKh6b5FuxAW133JnkcQXOgT7Jn/xBFTuSvC91Azz3DWglyfszXEs4HfInf1DNa1M/vC1sQCtJXlXgPOiL/MkfVPG8DB+qUTu4rWxADya5rMC50Af5kz+o4nFJ7kj90La0Aa0k+UaSiwqcD22TP/mDKs5I8tGUC92XChxjUVM4h7Vxc5LdBc6JNsmf/EE116dc2I4k+bECx1nUovM/P8nhgtflXQXOiTbJn/xBFW9MuZCtJHnT6nHnvgElyZ8UvjavL3BetEX+5A+q+PkMH5xRKmCfTfKI1WO3sAHtSXJrwevzcIbPdodE/uQPKvmJJN9JuXAdTvKcdcdvYQNKkuembCvygSQvLHB+zJv8yR9UcVmSQykXqpUkv3fcHK1sQEny+wWOt37cn+QFBc6ReZI/+YMqfjjJ/6RsoG7OiU/ZtrQB7U7ykQLHXD/uSfKsAufJvMif/EEVz0xyMGWD9M0kF24wV0sbUDL8LXHpz2c/mOFnQh/kT/6gisuS3J2yATqc5MpN5mttA0qSy5M8VODY68fd0Y7sgfzJH1RxRZL7UjY4K0necJI5W9yAkuS3Cxz7+HEow0NhtEn+5A+q+IWUfdp4bbwnJ/+2rVY3oB1J3lvg+MeP7yR5SYHzZlrkT/6git/I8MlgpcPyiST7TjF3qxtQMpz7JwrMcfx4OMnvLnbaTIj8yR8s3RlJbkj5gKwk+Wq29uUaLW9AyXANvlZgno3Gn2f4GTJP8id/UMX5ST6ccYJxT5IDW1xH6xtQklyS5H8LzLXR+Gg2frqbaZO/5c0vf7DOCzJ8/eUYgXgwyVWnsZYeNqBkeMBrrO9wvyPDl6IwD/K3/Pnlj+7tSPLaDJvEGEE4kuRlp7mmXjagJHl5yn6m+/rx3SS/npM/8EVd8ld3/pdH/ujUY5O8L+Pc/CsZgvWKbayrpw0oSa7JeJvQSpIbs7X3flku+ZvG/PJHd16c5NsZd/N51TbX1tsGlCS/lnE3oTuT/NQ210Z58jet+eWPLjwmyTsz7s2+kuQ3F1hjjxtQMvzp15g/k5Ukf53kvAXWyGLkb7rzyx9NuzpDJTr2Tf5bC66z1w0oSV5XYP5Tjf9O8ssLrpPTJ3/Tn1/+aM7Tknwg49/YLWwALcy/1fH+JE8tsF5OTv76ml/+mITHJPmDjPenLlMNYO/zn854KENLWluyPPnrc375o6q9SV6T8l8fOpcA9j7/dsZdGd4D3Vtg/b2Tv77nlz+qOCPDe0tfT52beCoB7H3+RcbtGTaiPQXOozfyZ375Y+nOSvLqJLel7s07lQD2Pn+J8eUkr0zyyALn0zr5M7/8sXTnZ/gGqlqtxqkGsPf5S467k7wlPshkI/JnfvljqXZk+Azrdyd5IPVv0CkGsPf5xxgPJPmrJJen7482lT/zyx9L98Qkb0jyxdS/GacewN7nH3t8IcnrkzyhwLnOhfyZfyqjx/x16bwMDxX9c8b/5DAbUDvzL3N8PMNDSy22KOXP/FMfLedvQy23P3YmeUaSK1fH5Ul211zQNi36M1o0xL3PX8PDST6Z5KbVcXOSwzUXtA3yN5j7/V97/hpayN+WtFQA7E7yIxm+N/qyDBvOuTUXVEjtAPY+/xQczLAJ/cvq+GSmtyHJ38bmfv/Xnn8K5pC/bZlrAbAvyaVJDqyO/UmemeFPiFpTO4C9zz9Fh5L8e5L/XDduTXL/kuaXv62b+/1fe/4pqp2/YqZSAOzL8MEfu5KcvTrOz/C+4blJLkzypNVxcZLHVVnl6ftKhjUvonYAe5+/xM9wWb6Z4e/nv7L6n9/I8GUpB1fHvUnuydDifChHNyz521zt+6/3+XvIX9NqP9hRYzyY4e9N9xU41qLMv9h4RIa/T/9OgWMZyxny1878vedv9mpfwGWPDyZ5csHzX5T5y8z/lAwPBNW+v4yTD/lrc/5e8zd7tS/gssbnM3xHeenzX5T5y85/ZZJPFziuUXbIXx/z95a/2at9AcceBzN8kMSZI53/osxffv7dGf6m/VsFjm8sNuSvv/l7yt/s1b6AY42DSX4nyaNGPv9FmX+8+c9O8sYMD/rUvh97G/Jn/h7yN3u1L2DpcTDDQymPXtL5L8r848+/L8MniPXwiqT2kD/zH6/l/M1e7QtYanw5yWsy3GzLPP9FmX958z8qwz3y5QLzGscO+TP/qbSYv9mrfQEXHR9P8rJs/2NMa98A5l/+/DuTvDjDE+m179+5D/kz/+lqKX+jWsYHAY1+EiOr/UEY5u97/t7Vvv7m73v+2kb9Hb1zzIMDANOkAACADikAAKBDCgAA6NB2n6ydsoNJPpbh6eGPJXlv3eXAQn4myXNWx7MzfPjJlN2bIXf/tjreU3c5sJCfzpC7Zyd5VoZvyGzGnP8K4J4kX1wdX8jwfcwfy/A1jCXnr/0UqvnNv2Znkh9IciDJ/iSXJnnq6j/bu+A8p+uBDH9v/bkkt2T4fPb/WP1nD6/7/7V0/c1v/idlKAYuSfKDq+PJGa8wH/V39FQKgLXvSD6U4as8v7v6z+5K8u0M37N81+q4PcMv/TsLzn8yU7sBzW/+jTw+yfcneWKSC1b/9wVJXrrg/O/OkLWvZ8ji15L8V4bvOt+KXq6/+fue/4IMxcATkpy/Oi5a99/PSbInw3dWnJWhmD+n4PzbsowCoLZebkDzm9/85jf/tOafNA8BAkCHFAAA0CEFAAB0SAEAAB1SAABAhxQAANAhBQAAdEgBAAAdUgAAQIcUAADQIQUAAHRIAQAAHVIAAECHFAAA0CEFAAB0aIzvOt6f5NokL0xycZKzRpiD5an9fdzQM/nr26EktyW5Kcm7ktxS8uAlC4A9Sf40ya9EZ6ElNiCoR/5YcyTJO5K8LsmDJQ5YqgDYk+T9Sa4odDymwwYE9cgfx/twkhelQBFQ6pX6m+OXPwCM7ceT/HGJA5XoAOxP8qlo+7fKKxCoR/7YyJEkT09y6yIHKfFL+9pCxwEATm1XkmsWPUiJX9xXFjgGALB1Vy16gBJvAdyXZF+B4zBNWpBQj/yxmfuSnL3IAUoUAG6wttmAoB7542QWuj+8dw8AHVIAAECHFAAA0CEFAAB0SAEAAB1SAABAhxQAANCh3bUXkLJfScyJ5v53wO4P5kz+OJmq94cOAAB0SAEAAB1SAABAhxQAANAhBQAAdEgBAAAdUgAAQIcUAADQIQUAAHRIAQAAHVIAAECHFAAA0CEFAAB0SAEAAB1SAABAh3bXXkDm/33ZjMv9AfXIX8N0AACgQwoAAOiQAgAAOqQAAIAOKQAAoEMKAADokAIAADpUogC4r8AxAICtu3fRA5QoAG4vcAwAYOu+tugBShQAHyxwDABg625c9AA7Cizi0iSfSrKrwLGYnkXvER8lCtsnf2zkSJIDST6zyEFKdABuSfKOAscBAE7tbVnwl39SpgOQJGcm+ackLyx0PKbDKxCoR/443k1JfjLJQ4seqNSfAT6YYUHXZWhNAADlHEny1hT65Z+U6wCsd0mSa5JcleTiJPtGmIPl8QoE6pG/vt2f5LYMD/zdkAJt//XGKACYlkU3gNobkHuUOat9/9eenwnzSYAA0CEFAAB0SAEAAB1SAABAhxQAANAhBQAAdEgBAAAdUgAAQIcUAADQIQUAAHRIAQAAHVIAAECHFAAA0CEFAAB0SAEAAB1SAABAhxQAANAhBQAAdEgBAAAdUgAAQIcUAADQIQUAAHRIAQAAHVIAAECHFAAA0CEFAAB0SAEAAB1SAABAhxQAANAhBQAAdEgBAAAdUgC05+lJ3pbks0kOFTjeyoJjUYcynMt1SQ4UOB6MSf6Apdub5PokR7L4pjHVcSTJ25PsKXTNoBT5A6rYm+Tm1N8gljU+FJsQ0yF/QDXXp/6msOxxXZErB4uTP6CKA2m77bjZOJLk0gLXDxYhf8yWhwDn7xXp8+e4M8kray+C7skfs7Wj9gJYyO4kdyR5bO2FVHIwyYVJDtdeCF2SP/mbtR4r15ZckX43nyQ5L8nltRdBt+RP/mZNATBvV9dewAS4BtTi3nMNZs1bAPPVe/txjTYkNcjfQP5mTAdgvnpvP67RhqQG+RvI34wpAOZL6+0o14Jlc88d5VrMlLcA5kn78VjakCyT/B1L/mZKB2CetB+PpQ3JMsnfseRvphQA86TldiLXhGVxr53INZkhbwHMj/bjxrQhWQb525j8wRJclcU/x/sdS1/1qb0zi5/XlUtfNb2RP/lrhrcA5qdEq+1vChyjtBJr0oZkbPK3OfmDEe1OcmcWq9LvWj3O1OxKu+dGG+RvnufGJnQA5qXE08d/l2m+T3ckyd8veAxPIzMm+Ts5+ZsZBcC8tNp+XKMNyZTJ36nJH4yg5fbjGm1Ipkr+2jhH1tEBmI+W249rtCGZKvnbGvmbEQXAfLTeflyjDckUyd/WyR8U1EP7cY02JFMjf22ea/d0AOahh/bjGm1Ipkb+To/8zYQCYB56aT+u0YZkSuTv9MkfFNBT+3GNNiRTIX99nHOXdACmr6f24xptSKZC/rZH/mZAATB9vbUf12hDMgXyt33yBwvosf24RhuS2uSvz3Pvhg7AtPXYflyjDUlt8rcY+Zs4BcC09dp+XKMNSU3ytzj5g23ouf24RhuSWuRP/pqnAzBdJdqPf5t5th/XaENSi/zJX/MUANPVe/txjTYkNcjfQP5gybQfj9KGZNnk7yj5a5gOwDRpPx6lDcmyyd9R8tcwBcA0aT8eSxuSZZK/Y8kfLIn244m0IVkW+TuR/DVKB2B6tB9PpA3JssjfieSvUQqA6dF+3Jg2JMsgfxuTPxiZ9uPmtCEZm/xtTv4apAMwLdqPm9OGZGzytzn5a5ACYFq0H09OG5Ixyd/JyR+MRPvx1LQhGYv8nZr8NUYHYDq0H09NG5KxyN+pyV9jFADTof24NdqQjEH+tkb+GrKj9gJIMrTE7sjir0DYmoNJLkzbr9bYOvlbLvmbCB2AaSjRfmTrtCFZT/6WS/4mQgEwDVpiy+eas8a9sHyu+QR4C6A+7cc6tCFJ5K8W+ZsAHYD6tB/r0IYkkb9a5G8CFAD1/WztBXTMtcc9UI9rX5kCoL7n1V5Ax55bewFUJ3/1yF9lngGo7/4kZ9VeRKfuS3J27UVQlfzVI3+V6QDU91DtBXTswdoLoDr5q0f+KlMA1Hd77QV07Ou1F0B18leP/FWmAKjvptoL6NiNtRdAdfJXj/xV5hmA+p6S5NNJzqi9kM4cTnIgyWdrL4Sq5K8O+ZsAHYD6Pp/k+tqL6NDbY/NB/mqRP1h1RpJ/zGLfs21sfdyY5Mwt/WTogfzJH1S1N8mbMrTGage01XE4yR+uXmtYT/7krzueAZieH0ryi0muSvJ9Sc6pu5zZuyfJVzO86viLJJ+puxwmTv7Kkj8AAAAAAAAAAAAAAAAAAAAAAAAAAAAAAAAAAAAAAAAAAAAAAAAAAAAAAAAAAAAAAAAAAAAAAAAAAAAAAAAAAAAAAAAAAAAAAAAAAAAAAAAAAAAAAAAAAAAAAAAAAAAAAAAAAAAAAAAAAAAAAAAAAAAAAAAAAAAAAAAAAAAAAAAAAAAAAAAAAAAAAAAAAAAAAAAAAAAAAAAAAAAAAAAAAAAAAAAAAAAAAAAAAAAAAAAAAAAAAAAAAAAAAAAAAAAAAAAAAAAAAAAAAAAAAAAAAAAAAAAAAAAAAAAAAAAAAAAAAAAAAAAAAAAAAAAAAAAAJu//AXid/DqmDgVKAAAAAElFTkSuQmCC;" vertex="1" parent="1">
          <mxGeometry x="150" y="192" width="44" height="44" as="geometry" />
        </mxCell>
        <mxCell id="4tqr_Nl9Fvb0LUBX_hIL-14" style="edgeStyle=orthogonalEdgeStyle;rounded=0;orthogonalLoop=1;jettySize=auto;html=1;exitX=0.5;exitY=1;exitDx=0;exitDy=0;" edge="1" parent="1">
          <mxGeometry relative="1" as="geometry">
            <mxPoint x="140" y="342.43" as="sourcePoint" />
            <mxPoint x="140" y="342.43" as="targetPoint" />
          </mxGeometry>
        </mxCell>
        <mxCell id="4tqr_Nl9Fvb0LUBX_hIL-15" value="&lt;font style=&quot;font-size: 11px&quot;&gt;Bridges&lt;/font&gt;" style="text;html=1;align=center;verticalAlign=middle;resizable=0;points=[];autosize=1;strokeColor=none;fillColor=none;" vertex="1" parent="1">
          <mxGeometry x="195" y="201" width="50" height="20" as="geometry" />
        </mxCell>
        <mxCell id="4tqr_Nl9Fvb0LUBX_hIL-16" value="" style="shape=image;imageAspect=0;aspect=fixed;verticalLabelPosition=bottom;verticalAlign=top;strokeColor=#000000;fillColor=#29FF54;image=data:image/png,iVBORw0KGgoAAAANSUhEUgAAAgAAAAIACAYAAAD0eNT6AAAABHNCSVQICAgIfAhkiAAAAAlwSFlzAAAOxAAADsQBlSsOGwAAABl0RVh0U29mdHdhcmUAd3d3Lmlua3NjYXBlLm9yZ5vuPBoAABUiSURBVHic7d1brG1XWQfw/ymbSznFAGK4GJEU2kBrpA+gJhq5Kb6gIBpMa6SVRI2CISZGoi++mHiJDzyAiT7QYgQMxnh7MoqKkkAMAURPMYhc4wUSEpJyoFbo8WHtY09Pz1rn7D3GXGOO9f1+yczu5ew5vrXOXGv89xjfXjMBAAAAAAAAAAAAAAAAAAAA1uLM6AIA2OpC4/d7j2er60YXAADsnwAAAAUJAABQkAAAAAUJAABQkAAAAAUJAABQkAAAAAUJAABQkAAAAAUJAABQkAAAAAUJAABQkAAAAAUJAABQ0NHoAlhc6/3ER3M/c0Zqff3Mfv1Wf/wHzQoAABQkAABAQQIAABQkAABAQQIAABQkAABAQQIAABQkAABAQQIAABQkAABAQQIAABQkAABAQQIAABQkAABAQQIAABR0NLoAFud+3AA8ggAAQA9fTfKxJPcmOXf8lRUTAAA4iQeSfCIPTfIXv/5rkq8PrIsTEgAA2OZDefgkfy7Jp5I8OLIo+rA/DLDdhcbvb32PHT0+B8xvAQBAQbYAAA7L/XmoGQ+2EgAA5qQZjyYCAMC6megBYM8uNB6tnh29WixEhyjAdrrwOViSJcAyvjq6ANhFDwBAm1179LBaAgDAtdGMBwBF/HKSVyZ5TmyZAgAwOx2q69fjV4kqc40DXIElLQB6uS7JjUl+MMmbBtfCVfjpaP2sALRxjcMynpHkliS3XvL1+UluuOTPeP2tmN8CAGCXa5nomZAAAEBioi9HAACoxURPEgEA4FCZ6NlJAACYm4meUxEAAOZgoqcrAQBgXa400d+W5OzIojg8AgDAGCZ6hhIAAJZlomeVBACAPkz0TEUAADgZEz0HQQAA2O6H8vDJ/nlJrh9aEXTiRg3r52ZAbVzjtPD6a+P1t2JuBwwABQkAAFCQAAAABQkAAFCQAAAABQkAAFCQAAAABQkAAFCQAAAABQkAAFCQAAAABQkAAFCQAAAABQkAAFCQAAAABQkAAFDQ0egCuKozowsA4PBYAQCAggQAAChIAACAggQAAChIAACAggQAAChIAACAggQAAChIAACAggQAAChIAACAggQAAChIAACAggQAAChIAACAgo5GFzCBC6MLYGpnRhcAcCVWAACgIAEAAAoSAACgIAEAAAoSAACgIAEAAAoSAACgIAEAAAoSAACgIAEAAAoSAACgIAEAAAoSAACgIAEAAAoSAACgoKPRBRTQej/4C8afenzm1nr9wGpZAQCAggQAAChIAACAggQAAChIAACAggQAAChIAACAggQAAChIAACAggQAAChIAACAggQAAChIAACAggQAAChIAACAgtzr+urcD54WXmNjef3OzetnQVYAAKAgAQAAChIAAKAgAQAAChIAAKAgAQAAChIAAKAgAQAAChIAAKAgAQAAChIAAKAgAQAAChIAAKAgAQAAChIAAKCgo9EFFNB6P+vW+5kbf+z4zG309VN9fBZkBQAAChIAAKAgAQAAChIAAKAgAQAAChIAAKAgAQAAChIAAKAgAQAAChIAAKAgAQAAChIAAKAgAQAAChIAAKAgAQAACmq913MF7mdNC6+xsbx+5+b1syArAABQkAAAAAUJAABQkAAAAAUJAABQkAAAAAUJAABQkAAAAAUJAABQkAAAAAUJAABQkAAAAAUJAABQkAAAAAUJAABQ0NHoAgpovZ916/3Mq48PLUZfv9XHZ0FWAACgIAEAAAoSAACgIAEAAAoSAACgIAEAAAoSAACgIAEAAAoSAACgIAEAAAoSAACgIAEAAAoSAACgIAEAAAoSAACgoNZ7PVfgftZzc43Twut/LK/fBVkBAICCBAAAKEgAAICCBAAAKEgAAICCBAAAKEgAAICCBAAAKEgAAICCBAAAKEgAAICCBAAAKEgAAICCBAAAKEgAAICCjkYXACvnfvBzm/1+8q31t16/o8dnQVYAAKAgAQAAChIAAKAgAQAAChIAAKAgAQAAChIAAKAgAQAAChIAAKAgAQAAChIAAKAgAQAAChIAAKAgAQAAChIAAKCgo9EFTOCtST53fHw2yReS3J/kvuPja+NKOxjfkORRSW5I8tTj42lJnpPkpiTPPT4eNaC22e8nz9wuFB+fBXlzYxZnk9yW5IVJXprkRdkEh6txjdPCBDiW1++CPLnM6ijJdyZ5VZJXJ7lxy59zjdNCABjL63dBnlwOxQuS3JXkjiRPuuS/u8ZpIQCM5fULXLPHJXltkg/HmzftLjiGHixIuuKQvTTJ34wugqmZhMYyRy3IkwuwnQAwljlqQT4HAAAKEgAAoCABAAAKEgAAoCABAAAKEgAAoCABAAAKEgAAoCABAAAKOhpdwMo9Mcl3Jfm2bO42d2OSb83m1rQ3JHlCPIetvpbkviRfTnI+yWeS/HuSTyY5l+QDSb40rLrkwfg0spnN/nfXWn/rJxmOHp8Fzf7i6O2xSV6W5JVJvifJc2OVZLQHk3wsyfuS/FmS9yR5YI/jvz7JW/Y4Hn3NPoGNrn/28WGnM9ncNOYd2fykOfruV47dx5eS/EGSl1zpL3Mhv7XA43Ds52hVvf7Zx4crOpvkDUnuzfgXueN0x7lsfkJ/fJZ1JsnbBj9Wx+mOVtXrn318eJhHJ/npJP+Z8S9uR5/jC0nelORxWc6jk/zDCh6r42RHq+r1zz4+O1TbX3lVkjdn08jH4fl0kjcm+fOFzv+0JB9K8vSFzk9/o/ewW42uf/bx2aFKg9vTk/x+kj+Jyf+QPSubRsG/SPItC5z/v5Pckc1vLgBMrUIAeHU2XeQ/MboQ9uYVST6azYpPb3+X5FcXOC/AXh3y8spRkl9L8ks57MfJbr+X5OfT91cHH5Xk/Ule2PGcLGP0Enar0fXPPj47HOqT+6Qkf5rke0cXwiq8N5vVgJ4fKPS8JB/O5rMjWK/RE1ir0fXPPj47HOIWwDOS/G1M/jzkRdl8kFDPvoCPJfn1jucD2KtDS1fPzmbyX6IBjPl9NsmLk3yq0/kek+Sfk9zc6Xz0N/on2Faj6599fHY4pBWAb07yVzH5s90zk/x1NqtEPTyQ5Fc6nQtgrw4lXT0lyd9nsy8LV3Mum22BL3Y63/uSfHenc9HX6J9gW42uf/bx2eEQVgCOkvxRTP5cu1uTvDv97uT4ixk/UQCcyCEEgN/OZl8XTuKlSX6j07k+kM32E8A0Zl9e+bEkfzi6CKb2o0n+uMN5Xp7kLzucp7fZl3BnH582s89Rqzbzk/u0bPZynzy6EKb2xWy2BD7f4VwfSfL8DufpafQEWH182sw8R63ezFsAb43Jn3bfmOR3O53rzZ3OA7C4WdPVq9Nn2RYu+uFsPj2yxeOS/FeSJ7aX083on4Crj0+bWeeoKcy4AvDo9Gvegot+M5trq8X9EUyBScwYAH4uyU2ji+Dg3Jzkpzqc5x0dzgGwuNmWV65P8pkk3zS6EA7S55M8K5uf5E/ruiSfzno+kXL0Enj18Wkz2xw1ldlWAF4bkz/LeWqSH288x4OxDQBMYKYAcCbJG0cXwcH7hbT/1OFDgYDVmykAvCw+7pfl3ZrkJY3neG+S/+lQC8BiZgoArUuzcK3uaPz+89l8PDDAas0SAB6b5FWji6CMH8nmmmvxnh6FACxllgDwA1nXh6tw2J6Y5Psbz/GhHoUALGWWAPB9owugnJc1fv9HulQBsJBZAsCLRxdAOS9u/P7/SPKFDnUALGKGAPDkbDqzYZ++PclTGs/x0R6FACzBpyzBuvkkujazfxLg7PW3MkctaIYVAACgMwEAAAoSAACgIAEAAAoSAACgIAEAAAoSAACgIAEAAAoSAACgoKPRBQBQ3gNJPpnk346PTxwfLEgAAGAf/jfJ57KZ6C8e9yY5l+QzSb4+rrSaBAAAejHJT0QAAOAkTPIHQgAA4HIm+QIEAICaTPLF7SMAzH4/amgx+n7mo+8nP3r82bU+fpM8W1kBADhc18ckP4OjJM9MclOS5xwfNyV5xdKDAnCYTP7r8owktyS58bLjlmzC2l4JAADQz6om+V0EAAA4mWkm+V0EAAB4pIOY5HcRAACo6uAn+V0EAAAOWelJfhcBAIDZmeRPQQAAYAYm+c4EAIAxzh9/PTu0inUxye/RPj6mtPpHeVLb6I/CNf7Y8Xe5K8kDSd654BijP4r6Skzy127Rvz8rAAD7d3eStx//88uzCQOHxCQ/ASsAsKzRP4Eaf+z4V3IuyXck+crxv1+f5P1Jnr/AWEu+x5vkl7foHC0AwLJGT0DGHzv+5c5nM/nfe9l/vznJB5M8ofN4rY//xjx0Y5qLX29K8qwkj2k8N1cnAMDERk9Axh87/uXuykNL/5e7Pf37Adb2+DmZ6QMAcHregNusaQK8O8nrruHP3NVxzDU9fk5OAIDCvAG3WcsEePm+/za9+wHW8vg5nUXn6OuWPDkAOZ/kNbn65J8kXz3+s/ctWhFEAABY2uvzyKa/XT6e5GcWqgX+nwAAsJxLf9//JN6V5J6+pcDD6QGAdbMH22bkHvi17vtv06MfQA/A3PQAAEzmJPv+2+gHYFECAEB/J93330Y/AIsRAAD6Ou2+/zb6AViEHgBYN3uwbfa9B96677/NafsB9ADMTQ8AwAR67Ptvox+A7gQAgD567ftvox+ArgQAgHa99/230Q9AN3oAYN3swbbZxx74Uvv+25ykH0APwNz0AACs1JL7/tvoB6ALAQDg9Jbe999GPwDN9rEFYAmJykYvwRp/ufHvTvK6xvO3ujvJXTv+/+jnv9Xo+mcff9zJj42+gGCk2d9AjH9l+9733+Zq/QCjn/9Wo+ufffydbAEAnMyIff9t9ANwagIAwMmM2vffRj8ApyIAAFy7ff2+/0n5fABOTA8ALGv2PUTjP6T3vv8tx197rSZcqR9g9PPfanT9s48/7uTHRl9AMNLsbyDG3zifzeTfe7I+St9QcXOSDyZ5wvG/j37+W42uf/bxd7IFAHB1vff9fyebn9RvTfKWjufVD8CqXHA4Ch+tjD9+/Ld1OM+lbs8j67yz8xh3Zx3P/xr+/iqPv5MtAFjW7EuI1cf/lyy7RH/RUlsMtzWeZ/T79+zXz+jxx5382OgLCEaa/Q2k+vi3ZNkmvUst0WTYWvvo9+/Zr5/R4++kBwBguyX2/bfp3Q+wps8qYIUEAIDl3Z7dn9l/0U+mfz8AXJEtAFjW7EuI1cfvYdu+/za9+wFajH7/nv36GT3+TlYAAJZzfZJ359on/yQ5e/w9j1+kIjgmAAAs52r7/tv07geAR5hhC2ANS3jUNfr6Hb0EO7uR7x+3J3ln4znuyth7D7j+xir/a4ACACONvn69AbcZ9f5x0n3/bUb3A7j+xtIDADCR0+z7b6MfgMUIAAB9nXbffxv9ACxCAADo51p/3/+kfD4A3ekBgN1GX7/2YNvs8/2j177/NiP6AVx/Y+kBAFi5nvv+2+gHoCsBAKBd733/bfQD0I0AANBmqX3/bfQD0IUeANht9PVrD7bN0u8fS+/7b7OvfgDX31h6AABWaB/7/tvoB6CZAABwOvva999GPwBNBACAk9v3vv82+gE4NT0AsNvo69cebJsl3j9G7ftvs2Q/gOtvLD0AACsxct9/G/0AnIoAAHDtRu/7b6MfgFW60HiMHl/96jf+nMfdHR7/pW5fwWO62nFn58d8z+DH06r6+DtV6AFY/Em8CvWPNbr+6uOP8vEkL0hyX6fzrW3ff5ve/QBnk/xjkls6ne+kRl+/s4+/ky0A4NDcn+Q16Tf5r3Hff5ve/QDns3kuv9LpfKyIAAAcmp9N8k8dz7fWff9tevcDnEvyho7no5DReyCj9+TUX7v+6uPv+3hnh8d8qRn2/bcdd3Z+Lu4Z8BhaVR9/Jz0Ay1P/WKPrrz7+PlXd99/mEPoBRl+/s4+/ky0A4BBU3vffRj8AOwkAwCGovu+/jX4Ahhq9BzJ6H079teuvPv4+Dvv+Vz/u7PoM7a8foFX18XfSA7A89Y81uv7q4y/Nvv+1mbUfYPT1O/v4O9kCAGZl3//a6QfgEQQAYFb2/U9GPwB7N3oPZPTem/pr1199/KUO+/6nP+7s9JxddM+CtbaqPv5OegCWp/6xRtdfffwl2PdvM1M/wOjrd/bxd7IFAMzEvn87/QAkEQCAudj37+PWJG/teD79ABOyBbA89Y81uv7R4x+SdyW5Y3QR7HRP+vcYVLboHC0ALE/9Y42uf/T4h6L3vj/LGHG/gEOmBwAorfe+P8vRDzARAQBYu977/ixLP8AkBABgzd6Vzb4yc7k7ydtHF8FuegCWp/6xRtc/evzZ3ZDNsjLzOZvky6OLmJwmwMHjt1L/WKPrHz3+7PbxHsVyql+/rTQBAgB9CQAAUJAAAAAFCQAAUJAAAAAFCQAAUJAAAAAFCQAAUJAAAAAFHY0uYA9m/yQx9dOi+icRzl7/aKNfv6Ov39HjL8oKAAAUJAAAQEECAAAUJAAAQEECAAAUJAAAQEECAAAUJAAAQEECAAAUJAAAQEECAAAUJAAAQEECAAAUJAAAQEECAAAUdDS6gD0YfT/m2e8nXb3+2Y1+/mc3+vofPf5oo+sfPf6irAAAQEECAAAUJAAAQEECAAAUJAAAQEECAAAUJAAAQEECAAAUJAAAQEECAAAUJAAAQEECAAAUJAAAQEECAAAUJAAAQEFHowsAFlX9fvLMbfT1O3r8RVkBAICCBAAAKEgAAICCBAAAKEgAAICCBAAAKEgAAICCBAAAKEgAAICCBAAAKEgAAICCBAAAKEgAAICCBAAAKEgAAICCjkYXsAet93MeTf20WPX9yOEqRl+/o8dflBUAAChIAACAggQAAChIAACAggQAAChIAACAggQAAChIAACAggQAAChIAACAggQAAChIAACAggQAAChIAACAggQAACjoaHQBezD6fs5nGr9f/W1a65/d7H9/1Db6+h09/qKsAABAQQIAABQkAABAQQIAABQkAABAQQIAABQkAABAQQIAABQkAABAQQIAABQkAABAQQIAABQkAABAQQIAABQkAABAQUejCwAWter7kU9g9PM3evzRRj/+0eMvygoAABQkAABAQQIAABQkAABAQQIAABQkAABAQQIAABQkAABAQQIAABQkAABAQQIAABQkAABAQQIAABQkAABAQQIAAAAAAAAAAAAAAAAAAAAAAAAAAAAAAAAAAAAAAAAAAAAAAAAAAAAAAAAAAAAAAAAAAKvyfwc8jCwqVUs9AAAAAElFTkSuQmCC;" vertex="1" parent="1">
          <mxGeometry x="150" y="236" width="44" height="44" as="geometry" />
        </mxCell>
        <mxCell id="4tqr_Nl9Fvb0LUBX_hIL-17" value="&lt;font style=&quot;font-size: 11px&quot;&gt;Buildings&lt;/font&gt;" style="text;html=1;align=center;verticalAlign=middle;resizable=0;points=[];autosize=1;strokeColor=none;fillColor=none;" vertex="1" parent="1">
          <mxGeometry x="194" y="250" width="60" height="20" as="geometry" />
        </mxCell>
        <mxCell id="4tqr_Nl9Fvb0LUBX_hIL-18" value="&lt;font style=&quot;font-size: 11px&quot;&gt;Dams&lt;/font&gt;" style="text;html=1;align=center;verticalAlign=middle;resizable=0;points=[];autosize=1;strokeColor=none;fillColor=none;" vertex="1" parent="1">
          <mxGeometry x="195" y="299.93" width="40" height="20" as="geometry" />
        </mxCell>
        <mxCell id="4tqr_Nl9Fvb0LUBX_hIL-19" value="" style="shape=image;imageAspect=0;aspect=fixed;verticalLabelPosition=bottom;verticalAlign=top;strokeColor=#000000;fillColor=#29FF54;image=data:image/svg+xml,PHN2ZyB4bWxucz0iaHR0cDovL3d3dy53My5vcmcvMjAwMC9zdmciIHhtbG5zOnhsaW5rPSJodHRwOi8vd3d3LnczLm9yZy8xOTk5L3hsaW5rIiB3aWR0aD0iMzM5LjU3MDAwNzMyNDIxODc1IiBoZWlnaHQ9IjMzNi42MDAwMDYxMDM1MTU2IiBvdmVyZmxvdz0iaGlkZGVuIiB2aWV3Qm94PSI3OS4yMDAwMTIyMDcwMzEyNSA3OC4yMDk5OTkwODQ0NzI2NiAzMzkuNTcwMDA3MzI0MjE4NzUgMzM2LjYwMDAwNjEwMzUxNTYiPjxkZWZzPjxjbGlwUGF0aCBpZD0iY2xpcDAiPjxyZWN0IHg9Ijg4NCIgeT0iLTU1IiB3aWR0aD0iNDk1IiBoZWlnaHQ9IjQ5NSIvPjwvY2xpcFBhdGg+PC9kZWZzPjxnIGNsaXAtcGF0aD0idXJsKCNjbGlwMCkiIHRyYW5zZm9ybT0idHJhbnNsYXRlKC04ODQgNTUpIj48cGF0aCBkPSJNMTEzOS40MiAzNDkuOTFDMTEyOC41MyAzNDkuOTEgMTA2NC4xOCAzMzIuMDkgMTA1My4yOSAzMTYuMjVMMTAyOC41NCAyNzguNjMgMTAzNi40NiAyNzIuNjkgMTA2MS4yMSAzMDkuMzJDMTA2OS4xMyAzMTkuMjIgMTEyNy41NCAzMzguMDMgMTEzOS40MiAzMzguMDMgMTE0NS4zNiAzMzguMDMgMTE1MS4zIDMzNS4wNiAxMTU0LjI3IDMzMS4xIDExNTcuMjQgMzI2LjE1IDExNTguMjMgMzIwLjIxIDExNTYuMjUgMzE0LjI3TDExNTYuMjUgMzEzLjI4QzExNTQuMjcgMzA3LjM0IDExNTMuMjggMzAyLjM5IDExNTQuMjcgMjk5LjQyTDExNTUuMjYgMjk2LjQ1IDExNTguMjMgMjk1LjQ2QzExNjMuMTggMjk0LjQ3IDExNjkuMTIgMjg3LjU0IDExNjkuMTIgMjg1LjU2TDExNzkuMDIgMjg1LjU2QzExNzkuMDIgMjkyLjQ5IDExNzEuMSAyOTkuNDIgMTE2NS4xNiAzMDMuMzggMTE2NS4xNiAzMDUuMzYgMTE2Ni4xNSAzMDcuMzQgMTE2Ny4xNCAzMTAuMzFMMTE2Ny4xNCAzMTEuM0MxMTcwLjExIDMyMC4yMSAxMTY5LjEyIDMzMC4xMSAxMTYzLjE4IDMzNy4wNCAxMTU3LjI0IDM0NS45NSAxMTQ4LjMzIDM0OS45MSAxMTM5LjQyIDM0OS45MVoiIHN0cm9rZT0iIzAwMDAwMCIgc3Ryb2tlLXdpZHRoPSI5LjkiLz48cGF0aCBkPSJNMTA3NC4wOCAzNTkuODEgMTA2NC4xOCAzNTcuODMgMTA3Mi4xIDMyNC4xNyAxMDgxLjAxIDMyNy4xNFoiIHN0cm9rZT0iIzAwMDAwMCIgc3Ryb2tlLXdpZHRoPSI5LjkiLz48cGF0aCBkPSJNMTEzMy40OCAyNzkuNjIgMTEzMy40OCAyNjkuNzJDMTE0OS4zMiAyNjkuNzIgMTE3MS4xIDI2Ni43NSAxMTc4LjAzIDI2My43OEwxMTc3LjA0IDI2Mi43OUMxMTc0LjA3IDI1OC44MyAxMTcxLjEgMjUzLjg4IDExNjkuMTIgMjQ2Ljk1TDExNjguMTMgMjQyIDExNzYuMDUgMjQxLjAxQzExODcuOTMgMjM5LjAzIDExOTMuODcgMjM4LjA0IDExOTMuODcgMjMyLjEgMTE5My44NyAyMjYuMTYgMTE4MSAyMDkuMzMgMTE3NC4wNyAxOTguNDRMMTE3My4wOCAxOTcuNDUgMTE4MSAxOTEuNTEgMTE4MS45OSAxOTIuNUMxMTk0Ljg2IDIwOS4zMyAxMjAzLjc3IDIyMy4xOSAxMjAzLjc3IDIzMi4xIDEyMDMuNzcgMjQ1Ljk2IDExOTAuOSAyNDguOTMgMTE4MSAyNDkuOTIgMTE4MS45OSAyNTIuODkgMTE4My45NyAyNTQuODcgMTE4NC45NiAyNTYuODUgMTE4Ny45MyAyNjAuODEgMTE4OS45MSAyNjQuNzcgMTE4Ny45MyAyNjguNzMgMTE4My45NyAyNzYuNjUgMTEzOC40MyAyNzkuNjIgMTEzMy40OCAyNzkuNjJaIiBzdHJva2U9IiMwMDAwMDAiIHN0cm9rZS13aWR0aD0iOS45Ii8+PHBhdGggZD0iTTExODEgMTQ1Ljk3IDExNzEuMSAxNDUuOTdDMTE3Mi4wOSAxMTkuMjQgMTE1NC4yNyA2OC43NSAxMTA1Ljc2IDQ4Ljk1IDEwOTEuOSA0My4wMSAxMDYzLjE5IDMzLjExIDEwMzIuNSAzMy4xMUwxMDMyLjUgMjMuMjFDMTA2NS4xNyAyMy4yMSAxMDk0Ljg3IDMzLjExIDExMDkuNzIgMzkuMDUgMTE2My4xOCA2MS44MiAxMTgxLjk5IDExNS4yOCAxMTgxIDE0NS45N1oiIHN0cm9rZT0iIzAwMDAwMCIgc3Ryb2tlLXdpZHRoPSI5LjkiLz48cGF0aCBkPSJNMTE1NC4yNyAyMTMuMjlDMTEzMS41IDIxMy4yOSAxMTEwLjcxIDE5OC40NCAxMTAwLjgxIDE4NC41OEwxMDAyLjggMTg0LjU4IDEwMDIuOCAxNzQuNjggMTEwNS43NiAxNzQuNjggMTEwNi43NSAxNzcuNjVDMTExMy42OCAxOTAuNTIgMTEzMy40OCAyMDMuMzkgMTE1Mi4yOSAyMDMuMzkgMTE3MC4xMSAyMDMuMzkgMTE4Mi45OCAxNzMuNjkgMTE4Mi45OCAxNjQuNzhMMTE4Mi45OCAxNjAuODJDMTE4Mi45OCAxNTguODQgMTE4Mi45OCAxNTcuODUgMTE4Mi45OCAxNTQuODhMMTAxMC43MiAxNTQuODhDOTg0Ljk4IDE1NC44OCA5NzIuMTEgMTY2Ljc2IDk3Mi4xMSAxOTMuNDlMOTcyLjExIDIwOC4zNCA5NjMuMiAyMDguMzQgOTYzLjIgMTkzLjQ5Qzk2My4yIDE2MS44MSA5ODAuMDMgMTQ0Ljk4IDEwMTEuNzEgMTQ0Ljk4TDExOTUuODUgMTQ0Ljk4IDExOTUuODUgMTQ5LjkzQzExOTUuODUgMTU0Ljg4IDExOTUuODUgMTU3Ljg1IDExOTUuODUgMTYwLjgyTDExOTUuODUgMTY0Ljc4QzExOTQuODYgMTc3LjY1IDExNzkuMDIgMjEzLjI5IDExNTQuMjcgMjEzLjI5WiIgc3Ryb2tlPSIjMDAwMDAwIiBzdHJva2Utd2lkdGg9IjkuOSIvPjxwYXRoIGQ9Ik0xMzAyLjc3IDI2MC44MSAxMjAxLjc5IDE5MC41MiAxMjA3LjczIDE4Mi42IDEyOTIuODcgMjQyIDEyOTIuODcgNzMuNyAxMjAwLjggMTQwLjAzIDExOTQuODYgMTMyLjExIDEzMDIuNzcgNTQuODlaIiBzdHJva2U9IiMwMDAwMDAiIHN0cm9rZS13aWR0aD0iOS45Ii8+PC9nPjwvc3ZnPg==;" vertex="1" parent="1">
          <mxGeometry x="50" y="221" width="54.05" height="53.57" as="geometry" />
        </mxCell>
        <mxCell id="4tqr_Nl9Fvb0LUBX_hIL-30" style="edgeStyle=orthogonalEdgeStyle;rounded=0;orthogonalLoop=1;jettySize=auto;html=1;entryX=0;entryY=0.75;entryDx=0;entryDy=0;strokeColor=#FF3333;" edge="1" parent="1" target="4tqr_Nl9Fvb0LUBX_hIL-27">
          <mxGeometry relative="1" as="geometry">
            <mxPoint x="340" y="283" as="sourcePoint" />
            <Array as="points">
              <mxPoint x="330" y="283" />
              <mxPoint x="330" y="220" />
            </Array>
          </mxGeometry>
        </mxCell>
        <mxCell id="4tqr_Nl9Fvb0LUBX_hIL-31" style="edgeStyle=orthogonalEdgeStyle;rounded=0;orthogonalLoop=1;jettySize=auto;html=1;entryX=0;entryY=0.5;entryDx=0;entryDy=0;" edge="1" parent="1" target="4tqr_Nl9Fvb0LUBX_hIL-27">
          <mxGeometry relative="1" as="geometry">
            <mxPoint x="340" y="302" as="sourcePoint" />
            <Array as="points">
              <mxPoint x="320" y="302" />
              <mxPoint x="320" y="209" />
            </Array>
          </mxGeometry>
        </mxCell>
        <mxCell id="4tqr_Nl9Fvb0LUBX_hIL-25" value="" style="rounded=1;whiteSpace=wrap;html=1;shadow=0;strokeColor=#000000;fillColor=#FFFFFF;arcSize=3;" vertex="1" parent="1">
          <mxGeometry x="370" y="270" width="110" height="50" as="geometry" />
        </mxCell>
        <mxCell id="4tqr_Nl9Fvb0LUBX_hIL-41" style="edgeStyle=orthogonalEdgeStyle;rounded=0;orthogonalLoop=1;jettySize=auto;html=1;entryX=0.995;entryY=0.595;entryDx=0;entryDy=0;fontSize=9;fontColor=#FF3333;strokeColor=#000000;exitX=1;exitY=0.5;exitDx=0;exitDy=0;entryPerimeter=0;" edge="1" parent="1" source="4tqr_Nl9Fvb0LUBX_hIL-27" target="4tqr_Nl9Fvb0LUBX_hIL-25">
          <mxGeometry relative="1" as="geometry">
            <Array as="points">
              <mxPoint x="500" y="209" />
              <mxPoint x="500" y="300" />
            </Array>
          </mxGeometry>
        </mxCell>
        <mxCell id="4tqr_Nl9Fvb0LUBX_hIL-27" value="" style="shape=image;imageAspect=0;aspect=fixed;verticalLabelPosition=bottom;verticalAlign=top;shadow=0;strokeColor=#000000;fillColor=#FFFFFF;image=data:image/png,iVBORw0KGgoAAAANSUhEUgAAAgAAAAIACAYAAAD0eNT6AAAABHNCSVQICAgIfAhkiAAAAAlwSFlzAAAPCAAADwgBM/spFQAAABl0RVh0U29mdHdhcmUAd3d3Lmlua3NjYXBlLm9yZ5vuPBoAACAASURBVHic7N153G1j/f/x19s8kzlDkYhkKkQRMs9D5iKKCkmUUkqDSoNK+oWvDJWUMs9ElELmyBiZ5yHjMTuf3x9rHd2OM9z3vT9rX2vv/X4+Hvtx+j4e397Xp3Ofe6/Puta1rksRgZn1L0nzAisCK9SfhQABUwz5E+BO4Drg2vrPf0fE2G7Xa2bdITcAZv1FkoB1gU8AKwMLjDJqDHAJcCRwZkS8llOhmbWBGwCzPiFpZmAn4LPAYsnxDwC/BH4ZEQ8mZ5tZAW4AzHpcPcX/VaqL/8wND/cqcAKwT0Q81vBYZtYgNwBmPUzS5lRT9HN2eegngL0i4vguj2tmSdwAmPWgerr/Z8DOhUs5G/hMRNxfuA4zGyE3AGY9RtIHgeOAhUvXUnsG2C4izildiJkNnxsAsx4iaQPgVGCa0rWM52WqJuCU0oWY2fBMMfn/FzNrA0nrAKfQvos/VDX9QdL2pQsxs+FxA2DWAyStAZwGTFu6lkmYCjhO0idLF2Jmk+dHAGYtJ2lV4FxgxtK1DFMAm0fE6aULMbOJcwNg1mKS3gLcAsxTupYRegx4T0Q8WroQM5swPwIwa7cf03sXf4C5gKNKF2FmE+cZALOWkrQWcEHpOjq0S0QcXboIM3szNwBmLSRpBuBG2vOu/2g9BywdEXeVLsTM3siPAMza6ev0/sUfYCZg/9JFmNmbeQbArGUkTQ88CMxWupYkLwILRMQTpQsxs//xDIBZ+2xLdy7+LwJjujDOdMCnujCOmY2AZwDMWkbSFcCKDUT/G7gIuAa4GrgJeA1YHFi+/qwGLN3A2PcDC0fEqw1km9kouAEwaxFJywHXJse+AnwH+N7kLsCSBOwJHATMkFzH1hFxYnKmmY2SHwGYtUv2VPk/gRUi4tvDufuOyqHAMsDfkmvZMTnPzDrgBsCsXVZLzDoXWDEirh/pfzEi7gBWB36TWE8TjzXMbJT8CMCsJSTNCDxDTmP+FLBkRDzYYU2zUO1HsGBCTQBvj4h7k7LMrAOeATBrj2XI+53cq9OLP0BEPAPsmlDPOCskZplZB9wAmLXHe5NyzoyItKn7iDifvH393QCYtYQbALP2WC4p5/+ScoY6IinHDYBZS7gBMGuPrK1/r07KGepfwMsJOfMnZJhZAjcAZv3l/oh4JDs0Il4GbsjONbNy3ACYtcfYhIxrEjJKZJtZl7kBMGuPjHdy/5OQUSLbzLrMDYBZe2TMACyRkFEi28y6zA2AWXtkzAAsn5DRZPZrCRlmlsANgFl73JmQMZekrF37XidpeuDdCVH/TsgwswRuAMzaI+v1vSZmAZYFpkzIyT7p0MxGyQ2AWXtclZSzr6Ts3+39knKuS8oxsw65ATBrj5uB5xNyVga+mJADgKQdgU2S4jwDYNYSPg3QrEUk/Q1YJSHqJeC9EXFzh/XMT3Ua4GwJNT0SEfMm5JhZAs8AmLXL5Uk50wLHSZpjtAGSZgJ+Tc7FH+DCpBwzS+AGwKxdjiRnPwCoThe8SdLmI/0vSvow1f7/aybVAtX/NjNrCTcAZi0SEXcApydGzgOcIul3kmaf3P+zpJkkHUZ1t75QYh23RsQliXlm1iGvATBrGUkfAC5tIPo5qlcNr6n/vJrqhL/lh3xWIG/Kf6h9IuKnDeSa2Si5ATBrIUmXUa3m7wcvAfNHxBOlCzGz//EjALN2Orh0AYmO9sXfrH08A2DWQvVGPrcB7yxdS4fuB5aMiGdKF2Jmb+QZALMWioixwKfo/cNzPuOLv1k7uQEwa6mIuBj4Suk6OnB8RJxduggzmzA/AjBrOUknAR8pXccIPQYs4Wf/Zu3lGQCz9tsZuLV0ESPwLLCJL/5m7eYGwKzlIuJZYAuq9/jbbgywQUT8o3QhZjZpbgDMekBE3AJsS7ubgBeAjSLi76ULMbPJ8xoAsx4i6d3AqcBipWsZz4tU0/4XlC7EzIbHMwBmPaQ+3ncF4LTStQxxE7CyL/5mvcUNgFmPqd+r3wLYn7yTA0dVCnAIsHxE/LNgHWY2Cn4EYNbDJK0DHAEs3OWh7wd2iog/d3lcM0viGQCzHhYRfwIWBbYGrujCkA8CXweW8sXfrLd5BsCsj0haBfgCsAm5Df4/gEOBkyLilcRcMyvEDYBZH5K0KHA81YLBTtwFbBMRV3VelZm1iR8BmPWhiLgduDkh6l5f/M36kxsAMzOzAeQGwMzMbAC5ATAzMxtAbgDMzMwGkBsAMzOzAeQGwMzMbAC5ATAzMxtAbgDMzMwGkBsAMzOzAeQGwMzMbAC5ATAzMxtAbgDMzMwGkBsAMzOzAeQGwMzMbAC5ATAzMxtAbgDMzMwGkBsAMzOzATRV6QLMukGSgEWAxYDZgFmAWSfy53SAylSaapGEjLklbZuQ0wYvAf8d8nkyIp4vW5JZOYqI0jWYpZI0PfAeYNn6swywNDBzybqsld7UFNR/PgH8C7g0Iu4oV55Zc9wAWM+TNB2wHrA5sALVXf6URYuyfvIIcBlwaf25JiJeKVuSWefcAFhPqu/y1we2AjYCZipbkQ2QF4Cr+F9DcFFEvFC2JLORcwNgPUPSDMAGVBf9DYEZy1ZkBlSPDY4BDo+I/5Quxmy43ABY60maC9gP+DS+6Ft7BXA+cBhwdkSMLVyP2SS5AbDWkjQ78EXgc/jCb73lbuAI4OiIeLxwLWYT5AbAWkfSLMDewD5Ur+WZ9aqXgBOAr0TEQ6WLMRvKDYC1hqQZgT2BfYHZC5djlukp4PMR8evShZiN4wbAWkHSmsBvgXlL12LWoHOBT0XE/aULMfNWwFaUpCkkfRP4E774W/9bH7hJ0i6lCzHzDIAVI2ke4HhgzdK1mBVwAbBLRNxbuhAbTG4ArAhJqwG/B95auhazgp4FdoyI00oXYoPHjwCsq1TZH/gzvvibzQycKGn70oXY4PEMgHVNvZPfyVT79pvZ/4wFPh0RR5UuxAaHZwCsKyRNBfwRX/zNJmQK4EhJe5UuxAaHGwBrnCQBR1Ht329mEybgkPoRmVnj3ABYN3wf+HjpIsx6xHckHVS6COt/XgNgjZK0D/Dj0nUMcR9wS/15GHiGaiX20M/LxaqzJk1FdabETOP9ORuwKLAY8K76/26Dr0aEGwFrjBsAa4ykjwG/oZraLOGfVKez3UR1wb81Ip4rVIv1CElzUzUDKwBrAR+iaha67VVgtYi4rMDYNgDcAFgjJK0HnAFM3cVhA7gcOAU4JSLu6uLY1qckTQ28n6oZ2BpYoovD3wMsGxFPdXFMGxBuACydpHdS3X136wjfvwG/A06LiIe7NKYNqHoTq88AWwDTdGHIkyNiyy6MYwPGDYClk3Q2sEEXhvon8OWI+FMXxjJ7g/pRwe7AF2m+2d0tIo5oeAwbMG4ALJWkTYDTGx7mbuBrwO/C/4CtMEnzAgcCn6C5N6teBFaIiBsbyrcB5AbA0kiaDrgZWLihIZ4AvgMcFhFeqW+tImkp4P+AlRsa4mZg+Yh4oaF8GzDeB8Ay7UdzF/8/AItExCG++FsbRcS/gNWAnzY0xLuBPRvKtgHkGQBLIekdVK/bTZcc/Sqwb0Qckpxr1hhJmwPHArMmRz8BLBwRzybn2gDyDIBlOYT8i/+TwId98bdeExGnAqsAjyZHzwHsnZxpA8ozANYxSRsCZyXHPg2sFRFXJ+eadY2kxYGLyD36+mmqWYAnEzNtAHkGwDpSn/L3s+TYZ4H1fPG3XhcRt1KtC3gwMXZWqlcPzTriGQDriKStqI75zfIqsHZE/CUx06woSStSbViVtXHQGKpZgMeS8mwAeQbAOrVHct7XfPG3fhMRVwJ7JUbOSPXWjdmoeQbARk3SkkDmxiTnABt5cx/rV5J+DeyYFPc8MHdEjEnKswHjGQDrxO6JWQ8CO/rib31uH6pFfBlmADZJyrIB5AbARqXe9W+HxMj9IuKJxDyz1qn/jX8/MXLbxCwbMH4EYKMiaSPgzKS4q4EVffdvg0DS9MDtwPwJcS8D8/i4YBsNzwDYaG2amLW3L/42KOq9/A9IipuG6lhisxHzDICNmKQpqJ7Zz5MQd0ZEZDYTZq1X/w7dACyZEHdhRKydkGMDxjMANhorkXPxB/hFUo5Zz4iIseS9xreGpKzfRxsgngGwYanvWBYFlgN2BtZJiL2L6oS/Vv4jlPQWYEFgvvoz/5D/PCvwCNVMyNDPA8B9PrI1l6Rp+N/PYujPYX5gXqqNccb9/Q/9WTzQ5s1yJN0ALJUQtbfPzLCRmqp0AdZO9RfuasD6wIrAMsBMycP8sm0Xf0nLUr1atSnw3lHGvCTpYuB04MyIeCCrvkEiaU5gQ6qfxTpUm9+MJudmqp/FGcAVLfs3dzI5DcBPJX0B+MeQzzUR8WJCtvUpzwDY6yTNRrWgaCNgbfIv+EO9CiwYEQ83OMZk1WcZrEZ1kdkEeHvyEAFcQ3UBOr0+M94mQtKi/O9n8QFgyuQhHqF6e+UM4ILSF0hJS1GtBWjCK8D1VM3AucB59aMHM8ANgAGS5qPaoORTwMxdGvZvEfGhLo01QZK2BL5H9WijW84HvhwR13dxzNarL/zfA7bs4rAPAd8AjomI17o47htIuh14ZxeGuh84hup/7z1dGM9azosAB5ikd0k6iupZ/Bfo3sUf4IIujvUGklaV9A/gRLp78QdYF7hW0q8lva3LY7eOpLkl/T/gJrp78YfqiN4jgRvqfS1KOaVL4yxA9frhnZLOk7SlpKm7NLa1kGcABpCkFahWIG9GuSZw5Yj4RzcHlLQE1S5sbdk+9UXg58BBg3a2u6QZqWad9qW7jeek/BXYNyKu6uagklYCLu/mmEM8BhwKHFz6cYh1nxuAASJpTWB/YI3CpTwFzNnNaVdJ+wPfIv+ZcoYngG0j4sLShXRD3YCeQnVH2jYBHELVCHTl36ckAfeRszPgaN0N7BMRpxaswbrMjwAGgKTpJB0OXEj5iz/AxV38cp1e0u+B79DOiz/AHMC5kvYsXUjTJG0PXEI7L/4AAvYGzqkXxTaufivhsm6MNQkLAadIuqCeKbMB4Aagz9W/zFcCnyldyxD/7MYgkuYH/kZvHJgyFXCopCP78bmsKt8DjgemK13PMKwDXCFpsS6Nd0uXxpmctajWRPxE0qyli7FmuQHoY5I+SXXQTsZ7xplub3oASe8HrgLe1/RYyXYFLqzfge8LkmYCTgO+UrqWEVqMqgnI2PRqctrSAEDVjO4N3Crpg6WLsea4AehDkmapp72PojozvG0abQAkbUi1oOutTY7ToA8BV0lq6zT5sNW7KV5GexZejtRsVI8DPt7wOG1qAMaZF7iovpGwPuRFgH1G0vLACcAipWuZhNki4ukmguuNVS6j2U2MuuVaYNWIeL50IaMhaUqqDWj64aCaV4C1IuKSJsIlTUe1nXFbb8p+TrVI8NXShVietv5js1GQ9FGqi1+bL/6PNnjxn4tqh7d+uPhDtRXxr+tV4r3oJ/THxR9gauBkSQs3EV6/gndXE9lJ9gTOlzRH6UIsjxuAPlFvZPIrqi+qNru7idD67IKTqVYz95MtqXar6ymSdgE+V7qOZHMCZ0hqat+CfzeUm+XDwJWSMo4wthZwA9AHJK0C/JHeONzpmYZyDwNWbSi7tAMkbV26iOGq/z326zHP7wGOr0/HzNYLm0G9A7hYUje2LraGuQHocZKWpjrcZPrStQzTmOxASbsB/bxQScCveuHOqz6X/hRgmtK1NGhjmpmVea6BzCbMBZwnae7ShVhn3AD0sPp55HlUK5V7ReqXXL1Zy3cyM1tqeuCHpYsYhm9SXSD63ZckLZic2SsNAFTrjM6pX/G0HtULU8Y2AfWd1gX03qtu2TMAXwZmT86cmBepTpB7CLgXmIXq738+YJ4ujL+BpNUj4i9dGGvEJL0L2KVLw42l2sd+3M/iJaqfw1updhlsegZiOuBAYKfEzF5qAKDaY+MkSRtHxCuli7GRcwPQgyTNQnXn3+bV/hOT9iVX7/S3V1beBIyleqvidOD0iJjo/gX1M9HNqQ5YWplq2r4JPwDe31B2pw6i2e+Ue6h+FmcAl0zsolPfla5P9fPYkKpRa8IOkg6OiBuT8tIfj3XBulT7jTS9T4I1wI8AetNvgGW7POaDwAsJOZlfct+imbUPY4HjgEUiYtWIOHhSF3+AiLgjIn4UER+k+tmc20BdACtK6vaxuZMl6QNUF9wm3AxsEhELRcReEfHnSd1xRsRzEXFiRGxPNRvwbZq5u56C6nTJLBk1nky1m2Q3zxbYUdIBXRzPkrgB6DGSNgM27dJwTwPHAGsCCwKPJmSOTcgYd8bBThlZ47kEWC4idoyIu0cTEBE3RMQGVK9NNbHr4XcltW32ron1CU9RPVJYOiLOHE1ARDwbEd8A3gkcm1lcbUNJH0rKyvjdeC4ijqob0cWpZoweTsidnK9L6vZNiXXIDUAPqac2D+3CUE8A+wHzRcQnI+KiiEi5cCc6gPzT/Q4D1oyIGzLCIuJiqun6P2XkDbEY8NHkzFGTtC6QvWf87cBKEXF0xsmREfFIRHwC2API3s3uW8l5KSLitojYj+pR4YFUa1iaMhVwTAsbU5sENwC95ZtUd+JNGUP1etPCEfGDtm5BW2+bunFi5Fhgj4jYI3ur04h4EtiA/Pfit0rO60R2LRcD74+I25JziYjDgPXIfSTwoTa/EhcRz0fEAVQzAic1ONRywL4N5lsyNwA9QtIyNLvg7TaqL91vR8SzDY6TYS1gxsS8r9QXhkbUd7B7Uj2fzbJWG17BqjfEyWzGbqB63t/YpjgR8Wdge5IeR1F9j7b+sKOIuCcitqJ6pPdIQ8N8Q9LiDWVbMjcAPaDeC/4ImlthfQqwQkTc1FD+UBmr4zPXQPwqIhp/vz6qU7c+TnWByzAt1Qrs0lYGsu5+HwE2jojGX4er1xR8NTGyW+tyOhYRFwErANc1ED8tcHRDOyVaMv+QesOngZUayH0N+FJEfKQH7vqB1+84s+62bqH6u+2KiBhDtbf/y0mRmyXldCKzho9FxL2JeZMUET+gep02w1qSMmelGhUR9wGrkDsrNc4HgN0byLVkbgBart7w56AGoh8F1o6IHzWQ3aTMO879IiLrYjws9euEhyfFbdiCRVdZDcBZEXFhUtZIfJmcRwHTUa0t6Bn1Gp+taOYNjq/WB3RZi7kBaL8vkL/V703Ae+tV6r0ma6r17xFxRlLWSB1I9Yplp94CZL2CNmKS3k31el2nXgO+lJAzYvUbH8cnxfXMY4BxovJlqs18Mr0V2DY505K5AWgxSVMCOyTHPgNsHhEPJOcOV6drAN6XUkUzsyrDEhFPAL9Misv6+yg59qkRcUtS1mj8ICmn5M+iU58Bzk7O3Cc5z5K5AWi39YF5E/MC+PjkdrVrufkTMp4BSkw3D3VaUk7JsyCyxs76uxiVevHrHQlRGf82i6jfVNkauDIxdhlJH07Ms2RuANpt5+S8H0RE0S/bBPMlZJzd7Wf/E3A5OTsr9noD8Cr5d56jcXpCxqySZkjIKaJeE7Ap8N/E2L0TsyyZG4CWkjQnsFFi5J+BryXmdV393vvMCVFN7dM/bPXOihmzEL3eAFwREU8l5HQq622AjAa1mIh4GPhiYuSG9SmR1kJuANpre/KONL0f2C5jS9XCsqZY70zK6dQ9CRm93gDclZCRIauOnn0MME5EHEt1w5BBwOeSsiyZG4D2ypr+HwtsFRGPJeV1qpNFgFl3V6UWQI7vwYSMknecGWO35WeRVUdPzwAM8WlyTv+EHnw7YlC4AWih+lStrJO1fh8R/0jKKi3jyzXIufBmeCghY6aCWwJnzADcn5DRsYh4keoQrE71RQMQEf8BsvYImb8+vdNaxg1AO+2UlPMaLT2pbJQiIUPkbEecIev3r9RJjRnjtuVnATk/j4x/o23xC+ClpKy1knIskRuAdlo1Kec3Pf7K3/j6bZo24w76mYKnNmbMYJRcw/C6evX+WxKi2vJIo2MR8ShwQlLc2kk5lsgNQMvUB/9knab146ScTJ3c8WVN3S+QlNOpjItfxkW45NitaADIW7zXlsdLWX6WlLNaC7attvG4AWifhYGMd4mv79Lpft2U9eW6SFJOpxZOyOj1BiDj7yBD1r+JvmoAIuI64G8JUbMAKybkWCI3AO3z7qSc3yXltEZ9ml7GHvrrJ2R0pN7mOWNatNcbgA9ImjUhp1NZ/yb6qgGoZZ0Y6HUALeMGoH2WTMr5fVJO22R8wa7XgpPKVgFmT8gpecHJGHtqWtCQkXPE9JMRkfXqXJv8JSnnA0k5lsQNQPtkzADcXZ/33Y8yLjqzAGsm5HRii6ScXp8BANg8KWdUJC0HLJQQ1Y93/wA3kLM9cFse91jNDUD7ZMwA3JCQ0ZROX/u6IqUK+GpSzohJmhf4ZFJc5uEtpcb+SOH3xLP+LWT922yViAjgrwlRb68XOVtLuAFokfqXI+OL8PqEjLbKOLQFYBVJmWctjMS3gBkTch4HLkvIGZX6FdOMY3ynBL6fkDNiklYAtkyKy/q32UYZDcC0tOcVXMMNQNssRNIbAAkZbXUVeVOtB0maOilrWCS9h7y7/zNbcL5D1umSm0haIylrWOqGO2u3u+eBC5Ky2ijrrISFknIsgRuAdnlbUk7fNgD1dGTWndZ7gMOTsiZL0mxUK6qnTIpsw9HOmTX8TlI392g4EFgtKev8Pl0AOE7G0dUA8yTlWAI3AO2ScTc6BvhPQk5TMp4BZk61flLS5xPzJqh+7e8EYLGkyLbccWbOyMwLnFHvytcoSdsB+ydG9vP0P+Q1ANMn5VgCNwDtknFn+N/6LrmfXQw8k5h3sKRdEvPeQNK0wLHAuomxf2rDHWf9b+2MxMjlgFMlzZKY+QaSNgOOSYx8DTgrMa+NshqA6ZJyLIEbgHbJaAD6frvNiHgZODUxckrgl5IOzd6utF7xfzGwQ2Yu8IfkvE5k17IO8A9J6Ts2SvoqcAq5F6ILIyLjJMHWiojngBcTotwAtIgbgHbJuPj0fQNQOxB4JTlzT+BCSUtlhEnanGqKfOWMvCFuBP6YnDlqEfEX4M/JsUsAV0raUVLH31OSFpZ0CvBd8k8gPCA5r3Xqn0HG5ll+BNAibgDaJaPDzlpg1mr1eeX/10D0asA/JR0racHRBEhaRdJlVHeaTSxq2y8iSh0BPDFfIv8o3NmBXwPXSRrVboGS5pL0M+BWmtlw6KSIKLkXQ7fMSc714tmEDEviBqBdHkvIaPsMQObd14HAc4l540wB7ATcJekiSXtObnW6pOUlfVfSTVSHp2Tf9Y9zSUSc3VD2qEXEtTS3/fTSwDmS/iPp4LrBmuh3l6S5Je0q6RzgfuBz5Ny9ju9VchcSttncSTn3JOVYgrZfLAbNIDQAaSLiUUkHA99saIgpgTXqz6GSnqLa/vYhqkOJ5qE6zvatdO/Z5pe7NM5o7E+1qU5T5yy8A/hC/XlJ0sNUP4uHqTZWmo/qZ5FxxsJwHBUR/+7SWKVlNQB3J+VYgoG5WPSIjAZgBklz9PuipCF+DOxGd94vnq3+lNq29pSI+EehsScrIu6W9Atg7y4MNy3w9vpTwhiqHR0HRVYDcG9SjiXwI4AWiYiXyHlG9v6EjJ5Qr07+Uuk6uuAZ2n33P853qKbd+923IuLh0kV00XsTMh6LiOcTciyJG4D2uS0hY6WEjKakHwYSEb8BDsnObZGxwHYRcUfpQiYnIv4LbAYU36OgQSdERNYWwr1i9YQMP/9vGTcA7ZMxxdvmBqApXwTOL11EQ74UEeeULmK4IuIaYOfSdTTkKvr3f9sE1ZsyZcwA3J2QYYncALRPRgOw4qAdu1kfirMN1ete/eRXEfHj0kWMVET8geqd+37yILBZRGS8rttLViXn9WLPALSMG4D2yWgAZgXenZDTUyLiaWBj4MnStSS5FPh06SI68HXacWBRhheATSMi69yDXrJmUo4bgJZxA9Ay9QY3jydEbZ+Q0YRGZybq5+Rb0Mz+AN10M7BFve1xT6rPCdiBnKa2pJeBj0XE1aUL6bb6HIuPJcX12+xcz3MD0E4ZX5ifljSQ227WW9OuTN4Z5t12NrByRGQdwFJM/ZbG6sBvC5cyWo8Aa0TEKaULKWR7YK6EnKeAvybkWCI3AO2U0QDMQV7n3nMi4kZgRXrvS+dHwCYRkXnaYVER8VJE7ED1GmPbtjCelOuAFSListKFFLRXUs4ZvTyb1a/cALTT35Nysn55e1JEPA6sTTNnBmR7CdgxIr7Uwn3+U0TED4FNyD3KuSknAatExH2lCylF0urAMklxJyblWCI3AO10CTnT10tKWjshp2dFxCsR8Rngs+QcttSE+4HVI+K40oU0rT7HYGVy9rtowqvAN4CtvWlN2imHTwN/SsqyRG4AWqhePHV0UtzXW/ZKYJFaIuIXwLuA39CeaehnqPbPf1ebt/jNFhE3A0tRHdKTsf11ltOBpSLi2/Xv4MCStDPVGRgZzvT0fzu5AWivY6juRjq1KtUX7cCLiHsj4uNUm5qUvCN5BTgUWCQivjeId5r1zMzPgXdS7RdQ8u/gCmDViNgsIgZ+pbqkeajO2Mji6f+WcgPQUhHxENVq8AwHSXpXUlbPi4jrI2JdqvUB13VzaOAPwBIRsVe9RmGgRcQzEfE1YFHgKOC1Lg5/B9VU/0oRkbXuph/8DHhLUtYz9O8OnT3PDUC7HZmUMz3wa0kZu3n1jYi4MCLeCywPHAjc0MAwrwAXAnsCC0XEtvVeDzZERDwYEbsC8wO7AmfSzHkCtwMHAx8CFo8I350OIWk7qh01s5xZH3JmLeTjgNvtPOA+YMGErPdTvYb1vYSsTrRpPQLw+t711wAHSFqIaqX6plQXidH8jjwNnEv1TPnceodCG4aIeIRqJuAoSTNQzdJsCmzI6I6kHUv1Wu3pVK+iDfwU/8RIWg04Njn2mOQ8S+QGoMUiYqykI6nuTjN88DchoAAAIABJREFUQ9K1EXFeUl7fiYi7qZ7PHyppauCtwHz1Z/4h/3lWqk1iHhzv8wDVsacDvYgsQ7024vT6g6Q5ePPPYX5gXmAM//v7H/qzeMh3oJMnaUmqbZunTYw9JyIuSsyzZG4A2u+nwGeovug6NQ1wmqQteul0uVIi4hXg3vpjhUXEE8ATwL9K19JPJC1ANds4W2Lsa8C+iXnWAK8BaLmIGEPuL9K0wCmSNkzMNLMeVN/5/xVYIDn6l/XrntZibgB6QET8HvhbYuS4JmCjxEwz6yH1TcDlwDuSo5+h2kzJWs4NQO/Yk9xXpKYBTpb0icTM4WjdIkCzQSNpX+AMYOYG4g/qh4OsBoEbgB4REdeTv6f9NMDRks6T9LbkbDNrGUnvkHQ68EOa+f6/BzikgVxrgBuA3vJ1qkVQ2dYFbpT0mZZtG2xmCSTNJOl7wM1Ur7k25SsR0dYzN2w8bgB6SET8F/gU1Y5y2WYGDgcukrREA/lm1mWSpqsf890GfIXc1/zG92fghAbzLZkbgB4TEacA32xwiNWBmyVdLGk7SdlfGJ5hMGuYpBUkHQ48RHWw2HwND3k71bbK3v+ih3gfgN50INVpals2OMbq9ecJSb8GftngWGaWY0VJNwJLdnHMJ4GN6hlK6yGeAehBdZf9ceCfXRhuDmAf4BZytiQ2s+YsQXcv/q8CW0bEv7s4piVxA9Cj6m1SNwW6+bqN/72Y2VB7eLvf3uUv9B4WEfcCWwAvl65lBLwGwKw//DQisk4stQLcAPS4iLiU6qS0Z0vXYmYD42zgi6WLsM64AegDEXEhsBrV6XRmZk26DNguIsaWLsQ64wagT0TEdcAHgDtK12JmfeuXwBoR4RnHPuAGoI9ExJ1UTcBVpWsxs77yCrBbRHwqInppzZFNghuAPhMRjwFrUJ3v3UZeBGjWWx6huus/onQhlssNQB+KiDFUCwM/BzxXuBwz611XAu+rFxtbn3ED0KciYmxE/JxqU5C2zgaYWXv9CvhQRDxQuhBrhhuAPhcR90bE+sAOwOOl6zGz1nsA+ERE7BwRL5UuxprjBmBARMRvgXcDvytcis+fMJuwKQuP/zjwBeCdEXFs4VqsC9wADJCIeCwiPgq8FziOamVvt81cYEyzXjBToXGfBg4AFo6In0TEi4XqsC5zAzCAIuK6iNgRWAj4HtDNU7zcAJhN2IxdHu954PtUF/4DI8ILhgeMp2MHWEQ8COwv6btUpwt+Hlis4WF7tgGQNCfwPmB5qlPX/PvTDmOBfwNXA1dHxMOF6xmtbs0APEO1wO97EeHdQweYv8Bs3MmCh0s6gurxwJrAWsAqwPTJw5Wa5hw1SW8BfgFsV7oWmzxJ5wC71g1uL2nyd+NF4CzgBOBsT/MbgKqj5c3eTNK0wMpUDcGawAp03jTeGBFLdVpbt0haDzgamK90LTYi/6U6qvaE0oUMl6TfkddkjgVuAi4F/kp10ff2vfYGbgBs2CQdBuzWYcz9EbFgRj1Nk7Q8cDmeKetl60dET+yDIel8YJ0OY/4FfBm4PCKe6rwq62deBGgjkbGPwHySpkvIaVRd46/xxb/XHVU/wukFSyRkXBwR5/rib8PhBsBG4t6EjCmARRJymvZ1qn0TrLfNDxxcuojJkTQzkDEzdntChg0INwA2Evcl5SyalNOkTUsXYGk2KV3AMGTc/YMbABsBNwA2EgPRAEiaEVi8dB2WZk5JC5UuYjKyZpvcANiwuQGwkchqAJrea6BTy1F+W1bLtXzpAiZjyYSMV4B7EnJsQLgBsGGrXyN6OiHqfQkZTfLFv/+0/WeaMQNwZ0S8lpBjA8INgI3UfxIylpU0V0JOU66leo/a+sfVpQuYGElTAx9MiPL0v42IGwAbqasSMkS1sVAr1TMd/y5dh6V5MiIyGtemfBiYNSHHDYCNiBsAG6krk3LWTsppyjmlC7A055YuYDK2SMpxA2Aj4p0AbUQkLQncmBB1X0S8LSGnEZJmAm4AFi5di3XkCWDJth56I2kK4EFgnoS4lSLiioQcGxCeAbCRugXI2FN8QUkrJeQ0oj4a9ROAO+TetntbL/61D5Jz8X+EvNk5GxBuAGxEImIscE1S3KeTchoREX8BdiTnzQfrrheAvSLij6ULmYzNk3LODk/n2gi5AbDRuDwpZxtJsyVlNSIifkv1jnZPHChjAFwGLBMRh5YuZFLq6f+s5/9nJuXYAPEaABsxSStTfclm+FxE/Dwpq1GSFqHaUGYFqp0CfVBQO4ylemvj6vpzWy/cDUvaGTgmIepFYM6IGJOQZQPEDYCNmCQB9wPzJcTdRrVIyxuY2MCoT5u8HVggIe7ciNggIccGjB8B2IjVd1enJMW9C9g1KcusV+xFzsUfPP1vo+QZABsVSasDFyfFPQq8s96Ax6yvSZqdakfNrPUvC0bE/UlZNkA8A2Cj9TfgsaSsuYH9krLM2m5/8i7+1/nib6PlBsBGpX5mf2Ji5D6SlkrMM2ud+ljiPRIjT0vMsgHjRwA2apIWB26m2ts/w23A8vUmPGZ9pX7t71xgnaTIMcBCEfF4Up4NGM8A2KhFxK3k7rP+LuDIxDyzNvkWeRd/gF/44m+d8AyAdUTSWsAFybGfj4ifJWeaFSNpI+AM8mbLxgALR0TWOhwbQJ4BsI5ExIVUh+Zk+qmkTyZnmhVRb5x1PHkXf4DDffG3TrkBsAw/Sc4TcKSkHZNzzbpK0qrA+cAsibHPAz9KzLMB5QbAMhwHXJecOQVwrKTPJueadYWkNajWyMycHH1ERDyanGkDyGsALIWkD1LtDZA5zTnOb4FPR8TzDWSbpZP0eeCHwNTJ0S9QPftv8xHH1iM8A2ApIuJSqgt1Ez4GXC5pyYbyzVJImk3SqcBPyb/4A/yfL/6WxTMAlkbSvFSnsmVPeY7zGnAscEBEPNTQGGajImlD4OfAwg0N8RSwREQ83FC+DRjPAFia+otp/waHmBLYBbhD0rclzdTgWGbDImlZSRcCZ9HcxR/gs774WybPAFg6SacDm3RhqEeBbwK/jIhXuzCe2eskLQPsDexA8zdTJ0bE1g2PYQPGDYClk/QWqrcC3t6lIe8E/kC1L/pV4X/U1hBJMwDbAJ8G3t+lYR8C3hMR/+3SeDYg3ABYIyS9n+qtgCYWQk3KA8DpwKnAXzwzYJ2q17asBaxNNbOVdZLfcLwGbBARf+rimDYg3ABYY+pXoX5asISngAuBG4GbqA4uuj0iXilYk7VYva5k0fqzItXe/SVPqfS22NYYNwDWKEk/BvYpXccQrwB3UDUEDwLPAM+O93mpWHXWpKmo3lAZ+pkJmB1YBFgMmLdYdW92RETsVroI619uABomaVrgvcDbgAWH/DnuP09BtZht3Oex+s8HgIsi4s4CZaeSdBTgvf3Nhu9CYP1+eIQlaWpgHqrmatxnHqrtkR8DHgEeHvLn4xExtky1g8UNQAMkTQesB2wJbExn+4DfBpwNnAP8LSJe7rzC7pI0JXAC1d+HmU3a1cDaEfFU6UJGQ5KApaken6wNrApMN4KI14BbqV6rPBO43A1BM9wAJJE0PbAh1UVuQ6qpxWzPUR29+9OI+FsD+Y2RNA1wElVDZGYT9ndgw4h4pnQhIyVpNWBXqov+3InRj1PdAJ0JnB8RzyZmDzQ3AB2SNAWwM/Aduvv88Hzg6xFxVRfH7Eg9E/BTYM/StZi10IXAZhExpnQhw1X/Tm8B7Aus0IUhnwV+DPw4Ip7rwnh9zQ1AB+rTvn4CLFuwjNOptsa9oWANIyJpT6pGYMrStZi1xJnAVhHREwtQ6+f6n6Ja4PuOAiU8RnXTdUQvPhZtCzcAoyDpnVTncW9WupZaUB3Ju0evdMX1vum/p7lzA8x6wViqC9m3euU5t6SlgV9T9sZnnLuBbwC/7ZW/vzZxAzBC9d3rwcA0pWuZgFuALSLi1tKFDIekhYHfAKuUrsWsgMeBj0XE+aULGQ5JUwFfBg6gfd9/f6GaQXm8dCG9xA3AMNXP+n8C7FW6lsl4FtgpIk4pXchw1H+v+wLfpn1fKmZN+QewdUTcV7qQ4ZC0ONUs4/Kla5mEu6nWUFxfupBe4QZgGOr9v4+nPVP+w/EDYP+IeK10IcNRTyv+CliucClmTXqWasr6573yjr+klYBz6e4WyKM1huoG6KTShfQCNwCTIWkeqgU63Vjhmu1cYNNe2fq2ng3YkeqZ6PyFyzHLdgKwT0Q8VLqQ4aoXOp9BM681N+k7VIujfYGbBDcAkyBpAaoDbRYqXEonfhURO5cuYiTqPRX2oXre6EWC1utuBPaKiItKFzISkjYATmZkm/i0ibdSngw3ABNRb1xzCd078rNJX4+I75QuYqQkzQl8gmob4cUKl2M2UpcB3wfO6rU7UUmbAifS/dM8s/kwpUlwAzARko6gOvO7HwTw0Yj4felCRkvSqsAuwFbA9IXLMZuYoNq6+wcR8ffSxYyGpHdRbUfca9P+E/IasElEnFO6kDZyAzABknYGjildR7KXgLV69UtpHEmzAttTNQPvLVyO2Ti3AH8Afh8R/y5dzGjVj9+uoOwRyNmeBT4QETeWLqRt3ACMR9J7gUvp3edek/I4sHhEPFG6kAySlqVqBLYA3lq4HBs8/6G66J8QEf8qXUyGPj658x5gxYh4tHQhbeIGYAhJM1Et2Hl76VoadFhE7FG6iGySFqRar7FS/ef78KMCyxNUJ9RdOu4TEbeXLSmXpB2oNubqV6dGxBali2gTNwBDSNqf6vWRfvYasExE3FS6kCbVu5YtTdUMjPu8A282ZJM2FngQuHPI5zqqI2n7YuZsQuoFt3fS/2/drNrrj0EzuQGoSZoNuIvmN7t4lWqW4YH68wQwF9V77wsASwJTNFzDnyJi3YbHaKV6U6fZgLcM+Yz/f/fj4x+rfveeH/IZM+Q/P0X1+39PrxzIk0nST4C9Gx7mWqrXqu9nwt99q9P82oMrgZV67a2MprgBqEn6DrB/Q/GvAmcBpwJnRsSTk6hjHmATqufa6wJqqKaNIuLshrLNrEfUj89uB6ZtIP7fwKHAGcPZ9rg+H2RTqi3XF2qgHoDtIuKEhrJ7ihsAQNJcVNNfTbz2cjLw1dGsDK4XuX2fqhHIdhuwVK/sEmhmzWho4d/DwLeAo0az5XG9D8vuwNeAOZJru5tqMfTAzfSMr+mp5l7xZfIv/vcDH4yILUf7WlBE/DMi1gM2AP6bWh28i6rTNrMBVb/zv1Ny7LlUF9gjRnveQUS8HBGHAEtQPTbItBDQdwuhR2PgG4B65f/uybFXUr1ycllGWEScC6xI9a5xpi2T88yst3wWmDIx72Cqx4tPZ4RFxGPAWuTvy/KJ5LyeNPCPACRtRvVsPsufqX4BXkzMBF7fBOci8jbAeQ6Yq4lazazdJAm4l2oBXobvR8RXkrLeRNLR5F64F+u3VzlHauBnAKim17PcDmzV1AW17qo3pXq+lmEmmllfYGbttwJ5F/9zaG4R9Ti7Ue3BkGXg9wRwAwDrJ+U8C2w8qRX+GSLifqomIGvxnh8DmA2mzZNy7gO2j4ixSXkTFBEvAx+h2tE0Q9b//p410A2ApKXJ64B/GBG3JWVNUkRcCRyZFLdxveLWzAZL1h3wV7Oe+U9ORDwCfDspbkVJ8yVl9aSBbgCADZNyHgZ+kpQ1XN+meobfqVmBAyStIKmJ94DNrCUkTSVpaUl7knPE9jXA8Qk5I3E41f4CnRKwWUJOzxr0BmDtpJzvR8TzSVnDUh9q8f+S4vanenPhOUnXSzpW0uckrVK/JWFmPUbS9JJWlPQZSUdKuorqpuF6qs15MhzU7V316lcLf5gU94GknJ400G8BSLoDWKTDmAAWiIgHE0oaEUnLAP9seJigWtx4bf25Drg2IrL3JTCzUZI0C7As1RtCy9V/LkHuK37jexGYMyLGNDjGBEmaG3iIzm9i/xoRq3deUW8a9AbgGTo//OLqiFgho57RkPQfqkNuuu0e6mag/lxXogkyGzT1zqXjLvLj/lyE5rYNn5hzIiLrMeqISbqUzu/g74yITm8Ce9ZUpQsoRdJ05Jx8dU5CRifOBvYsMO7b68/rz9AkPcKQWQKqmYK7CtRm1hckLUB1gR96sc9auNypi1swfqcNwPwZhfSqgW0AqE6hyvCfpJzRatMFdh6q1ypff7VS0vPkvbJoNkimpJnzSbJM9nCfHhh/Wklz1TsODpxBbgDmTsopPe39UOHxJ2eG0gWYWSNKf/dljb8AMJANwCC/BZDVADyQlDNaWbsCmpmNxCN9Mn5bHql03SA3AFmzH9Ml5fTq+GY2mGYvPH7GGi6AUZ1Y2A8GuQHIen5VehHJvIXHN7PBVPq7L2sWt/RMRjGD3ADcm5RT+pfADYCZlVD6u2+epBw3AIOm3sgmY/e+pRMyenl8MxtMpXfRWzEp59GknJ4z6BsB3QIs3mHMfRHxtox6RkrS1FSrV2ctMb6ZDbRnqHYC7PprvpKmpPrue0uHUU9GROm1DMUM7AxALWMdwIKSlk3IGY018MXfzMqYBVi90Ngr0/nFH/IeBfekQW8Asn74OyXljNQnCo1rZgawT6Fx90jKuSQppycNegNwRVLObpIWTsoaFknLA1t3c0wzs/GsJ2mtbg5Yz7hukxT356ScnjToDcC5STnTAN9NyhquH9L9wz/MzMb3I0nd3FX2++R8970G/CUhp2cNdAMQEfdTnY2dYTtJ2yZlTZKkvaie/5uZlbYs8NNuDCRpb2DdpLirI+LppKyeNMhnAYxzDrBMUtYxkm6PiGuS8t5E0trAjxMj1wGeAt435PMeYOrEMcysrJeAfwHXDPm8AzgxKf+zkm6IiF8m5b2JpDWoZj6zXJiY1ZMG+jVAeP1Z+lWJkfcDa0fErYmZAEhaETiPnNWvALdFxJteg5Q0DbAUb2wKlqJ61GFm7fYi1czmtfzvYn/T+K/r1dP295G3mdgrwG4RcXRS3uskrQycCcyRFDkWWCwiSp/mWtTANwAAki6jeq0ky9PAthFxXlagpO2AY8jd+3/fiDh4mONPTTUzMK4hWL7+mFlZl1Nd5Mdd8G+OiGHtby/pB8CXkus5FNgnIl7LCJO0DfArcr/7TouIzRPzepIbAEDSR4CTkmNfo1oY+MOIGDPaEElvAb4JfC6prnFeBhYY7TnYkmYDnswtycxGKiJGvSBO0mLAbYnljHMV8KWI+MtoAyTNSfXdtzv5C55XjYi/J2f2HDcAgKQpgNupnollewT4FnB0RLw8gppmAD4LfAWYrYG6Do+I3Uf7X05sAI6hejZpNmhWBLbrNKSTBgBA0snAFp3WMRHnAgcDfx3ujICkWYFPA1+lmY3OroqIrG2Ee5obgJqkPYD/1+AQz1A9vz8D+Dvw4NBncpKmpTpcY3VgU2AtYIaGankOeGdEjPoQjMQGYPOIOC0hx6ynSNoJOLbTnIQGYFHgJppd+PsE1TP8S4CH6s9dEfGMpOmAtwMrAVsBa9PseqNtIuKPDeb3DDcAtXpBzNXkvREwOUG1l/UTwFzAnF0aF+BbEfHNTgLcAJh1pi0NQF3Lz6lmHLvpCeBV8k71G46LgTXDFz5gwPcBGKpeNPMpqtWh3SCq86yXoLsX/4eopuTMzMb5Ft1f0zMH3b34Pw/s4ov//7gBGCIirgQOK11HgwLYKSKeK12ImbVHRDwO7Fa6jobtHxF3li6iTdwAvNlXgbtLF9GQQyLiT6WLMLP2iYg/AMeVrqMhl1G9nmhDuAEYT0Q8C2wMPFu6lmTXA/uVLsLMWu2z9N8N0BNUM5/derzbM9wATEBE3AhsS/fWAzTtIarFdsN+DdHMBk9EPANsRrU9eD8YA2wYEbeXLqSN3ABMREScA3yhdB0JngTWiYi7ShdiZu0XEdcDG1BdPHvZq8BWEZF17HvfcQMwCRFxCHBA6To6MAbYoJ7RMDMbloi4HNicasfQXhTAJyIi68j3vuQGYDIi4kCqrSh77XHAY1R3/v8oXYiZ9Z6IuADYiOpsk17yCvDpiOjXBY1p3AAMQ0QcTrUmoFe64ZuAFSPistKFmFnvqpuADwC98gjxIWD1Jo8l7idTlS6gV0TEiZIeAH4DLFK6nkk4G9i+Xsxj1nWSZgeWBZYDZgJurT83DfeUOmuPiLhZ0vuBU4EPlq5nEv5O9cz/4dKF9ArPAIxAfUe9DHBE6Vom4Glg14jYyBd/K0HS3JKOBR4H/ky14+Q3gROAfwL/krRBuQpttOpTQ1cD9gVeKFzO+MYChwAf9sV/ZNwAjFBEjImI3YD1gXtL11M7E3h3RBxVuhAbTJJ2pjpWdicmfnTr4sDZks6qD4CxHhIRr0XEwcDSwF9L11M7F1gmIvYeeriaDY8bgFGKiPOARYE9gAcKlXEpsG5EbBIRDxaqwQacpN2pjnUe7rHVGwJHNleRNSki7gDWAD4CXFeojGupDvXxW04dcAPQgYh4OSIOo1oTsBdwf5eG/gvVP/5VvLWvlSTpk4zuGO0dJO2VXY91R1ROiYj3Ur0p0I23jV6lOlJ9G2D5iLioC2P2NR8HnEjSFMAqVGdabwnMmxh/LXAicGJE/Ccxd1R8HLBJ2gH4FaO/kXgFmDsi+mXXuRFp03HAGSQtTvXdtxWwVGL05cDvgD9GxKOJuQPPDUBD6mZgJ+DohLg1IuIvCTlp3AAMNknbAMcDU3YYtU1E/DGhpJ7Tbw3AUJI2o3proFOrRcQlCTk2AX4E0JD64Imbk+K8stVaQ9LmwG/p/OIP1XoA6z9Z31m+42+QGwAzGzZJGwF/IG8PkeWTcsxshNwAmNmwSFoHOAmYOjH28cQsMxsBNwBmNlmS1gBOA6ZNji71Cq3ZwHMDYGaTJGkVqs2mpm8gvlf2mDfrO24AzGyi6j3gzwFmbCD+BeCwBnLNbBjcAJjZBEl6H9XGKzM3NMQhEeFHAGaFuAEwszeRtDTwJ4a/ve9IPQR8v6FsMxsGNwBm9gaS3g1cCMze0BCPAWv51EqzstwAmNnrJC1GdZTvXA0N8V+qi3/WJllmNkpuAMwMAEnvAC4i9wyLoZ4C1omIGxrKN7MRcANgZkh6O9XFf/6GhngWWC8irmko38xGyA2A2YCTND/Vxf/tDQ0xBtggIq5oKN/MRsENgNkAkzQv1cX/HQ0N8QKwcUT8vaF8MxslNwBmA0rSXFQL/hZraIiXgM0i4uKG8s2sA24AzAaQpNmpXvV7d0NDvAx8JCL+1FC+mXXIDYDZgJE0K9UmP0s3NMSrwDYRcXZD+WaWwA2A2QCRNDPV9r7va2iI14CPRsRpDeWbWRI3AGYDQtKMVAf7rNTQEGOBnSLijw3lm1kiNwBmA0DS9FRH+q7S0BAB7BoRv20o38ySuQEw63OSpgVOBdZocJjdI+KYBvPNLJkbALM+Jmlq4CRg3QaH2Ssijmgw38wa4AbArE9Jmgo4AdiowWG+FBGHNphvZg1xA2DWhyRNCRwHbNHgMF+LiB81mG9mDXIDYNZnJE0BHANs2+AwB0bEdxvMN7OGuQEw6yOSBPwfsGODw/wwIg5oMN/MusANgFl/+X/ALg3mHxIRX24w38y6xA2AWZ+Q9BNg9waHODwi9m4w38y6yA2AWR+QdBDQ5MX5aGCPBvPNrMvcAJj1OEnfBPZrcIjjgE9FRDQ4hpl1mRsAsx4m6SvANxoc4g/AzhExtsExzKwANwBmPUrSPsD3GhziFOBjEfFag2OYWSFuAMx6kKTPAj9ucIizgG0j4tUGxzCzgtwAmPUYSbsCTW6/ez6wZUS80uAYZlaYGwCzHiLp41Qb/aihIS4CNo+IlxrKN7OWcANg1iMkbUe1xW9TF/+/AZtExAsN5ZtZi7gBMOsBkj4C/Ibmfmf/AWwYEWMayjezlnEDYNZykjYGfg9M1dAQVwPrRcSzDeWbWQu5ATBrMUnrAScCUzc0xPXAuhHxdEP5ZtZSbgDMWkrSmsCpwLQNDXETsFZE/LehfDNrsaamFM2sA5JWBc4ApmtoiAAuAHapThBuTAAPAzcAN/vtArP2cANg1jKSVgbOAWZochjg8w3mT8irkk4C9omIh7o8tpmNx48AzFpE0vLAucBMpWtpwFTAtsCtkj5TuhizQecGwKwlJM0LnAfMWrqWhs0CHC5p69KFmA0yNwBm7fELYI7SRXTRLyW9o3QRZoPKDYBZC0jaEtiidB1dNgvV5kZmVoAbALN2+FLpAgr5oKS5ShdhNojcAJgVJmkK4D2l6yho1dIFmA0iNwBm5S0KTF+6iII+WLoAs0HkBsCsvPlLF1CYTx80K8ANgFl5N5YuoLA7ShdgNojcAJgVFhGPAveXrqMgNwBmBbgBMGuHS0sXUMidwFWlizAbRG4AzNrhK8BzpYsoYB8fEGRWhhsAsxaIiLuAL5Suo8vOj4jTSxdhNqjcAJi1REQcCRxduo4uuQf4ROkizAaZGwCzFomIXYCNgQdK19KgJ4B1I+LB0oWYDbKpShdgZm8UEWdJWhL4GLAssBywON37fZ0GUEPZzwMbRsRtDeWb2TC5ATBroYh4mup0wK6StDFwKjBlA/GvAltFxBUNZJvZCPkRgJkBIGll4A80c/EH2CUizmko28xGyA2AmSFpceAsmjuT4MsR8euGss1sFNwAmA04SfMB5wOzNzTEIRHxw4ayzWyU3ACYDTBJswLnAm9raIjfA/s0lG1mHXADYDagJE0LnAYs3dAQFwAfj4hoKN/MOuAGoAGSppa0EfDVpMhfSNpB0kxJeTbgJE0BHAes3tAQ1wBbRMQrDeVbC0maTdIngR8nRfq7r0F+DTCJJAGrANsDWwFzJMZ/uP68IOkM4HjgPH+5WgcOofp32oQ7gA0iYhDPNhg49UzShsBH6z+nTYz3d1+DPAOQQNJWwL+BS4DPkHvxH2p6YBvgDOAuSTvVd3JmwyZpP2DPhuIfodrl79GG8q0lJE0paTfgXuBkYAtyL/7rcW33AAAXOklEQVRD+buvAf4L7ICklSRdCvwReGeXh58fOBa4RtKHuzy29ShJHwcOaij+WWD9iLizoXxrCUkbAv8CDgPm7vLw/u5L4gZgFCS9TdIJwOXABwqXsyzwZ0lnSlqkcC3WYpLWB45qKP5lYLOIuK6hfGsBSe+WdCHVnhFLFC7H330dcgMwQpLWBf5JNR3VJhsBV9df8mZvIGkF4ESaWfczFtghIi5qINtaon7UeSWwZulaxuPvvlFyAzACkr4CnAO8pXQtEzEbcJakrLcPrA9IWhQ4G5ixoSE+HxF/bCjbCpM0haSDqB51NvVvqFP+7hsFNwDDIGlmSScD36P9f2dTAN+VdJJfnTFJ81Dt8jdXQ0McFBE/byjbCpM0G1XzuF/pWobB330j1PaLWXGSZqFa3b9F6VpG6CPARf5FGFySZqba5W/hhoY4NiJ8x9WnJM0O/B1Yr3QtI+TvvmFyAzAJ9futp1MtNulFKwAnS5q6dCHWXfXP/BRguYaGOAv4VEPZVpikGaju/JcsXcsorQCcKmma0oW0mRuAiejCTmndsg7wq3qjIhsA9c/6V8BaDQ1xObB1RLzaUL4VVDePJwErla6lQ2sBx3m/gInzX8zENblTWrdtT97WnNZ+B1P9zJtwC7BRRLzQUL4VVDePxwL9sqJ+a8BrVCbCDcAESNqV5nZKK2VvSTuWLsKaJekLNHf63v1Uu/z9t6F8K++LVFv69pPd6+90G48bgPFIWpD/396dB9tVVXkc/y5miqkVEQgpZloURIYI2E6IgrYQZK60U2RqBETAMY0CLVCKDGoD2tCBCBocuoMNghJBGaIiQgSDEmyCDQgB0hgDhMEQktV/7IPEGPLeu2fts8+59/epevUsKnft9Z73nb3uHtMnqH70FTPboHQSkoeZvRc4K1P4ecC73P3BTPGlsGq76OdK55HJWWa2Uekk2kYFwN+6EFi7dBKZvIx0dKf0GTN7B2neP8daj2eBse5+V4bY0gLV0P9E0pn7/Wgd4N9LJ9E2KgCWUA2R98vc10vZz8wOLp2ExDGzHUgr/nPs9lgEjHP3n2eILe1xJPDW0klkNtbMxpVOok10HXDFzF4JfDlzM4uBm0l7a2dXX3NJh7RsBIwm7ToYQ55Pci84z8yudffHM7YhDTCzzUl7/dfK1MSH3f37mWJLC5jZhsAXMzezGLiF9Ox7pPqaB7wc2LD62o38z75zzWyqnn2JCoAXfZT0ZsxhBmlXwdXu/seh/rGZjQL2IS3m2ipDPq8kVfy5/+glIzNbD5gKrJ+piZPcPdflQdIex5Fv2vMu0gerq4ZzRbSZjQb2BU4ANs+Qz3qkK9vPyBC7c8zdS+dQnJmtDjwIrBsc+n7gJOAy7+EXbWYrAYcDpwDRi/ceAjbrdS93dUTovIA89nP3KwLiDBQzWwO4gXTgSQ5fc/djMsUWwMw+RNpyV4u79/yJuXofPUj8/SaPkJ5bk9x9UQ95rQIcBXwWeEVwbg8Dm7r7wuC4naM1AMn7ie/8pwDbuPvkXjp/AHd/3t0vAF4D/CQ0uzTdcGBwTGlAVRhOIV/nP4X+2wYry3Yo8Z3/NcCr3X1iL50/gLs/5+7/Rnr2/TQ0OxgFaC0AKgBecHxwvFNJJ6U9ExHM3eeRzuOOXsF/QnA8acZF5Duf/Ubg/e6+OFN8aYnqhLzjgsOeRToo6omIYO7+GOlEv0kR8ZaQ66yMThn4AsDM9iBVmVFOcfdTev3U/1Kq0YBjiN3KsrOZ7RwYTzKrrmUdnyn8DOA97r4gU3xpl72BLQLjfcHdPxVdPFajAYcBFweG3d7M3hIYr5MGvgAgLbaLMgU4LTDeshxH+pQWZe/AWJKRmR1LvmtZ7wf+0d2fzBRf2mevwFhXkebrczqKdDNrlMifv5NUAMDbg+LcC4yP/uS/tGrhykHAkCtqh6nXC2OeC2pfO1GGwcwOIu0kyeExYE93fyRTfFm2iPd+nb/D3QPaB3gAeF/uaaPq2XcA6f0aIern76yBLgCqY3FfHRRuQtSc/1CqrYSnBoV7fXVv/EhzeIZ0SExdufav9w0z2410M2WOv9engb3cfVaG2LJ8Ee/9nvazV0eebxnQPsBn3H1+UKzlqp59UaOsO1a7mQbWQBcAxFWAt7j75UGxhus/gIiH9kr0fuVxxB+9CoDlMLPtgCuAVTOEXwgc4O63ZYgtQ4t47/e62C7q2XcH8K2gWMN1AfC/AXFWoP9PP1wuFQAxGj9QpxoOi7rit9dpkIj5YhUAL8HMNiFtqVonQ3gHDnX3H2WILcNTbASAwGdf7mnPpQU/+wZ6GmDQC4DtAmI8C1wbEKcXV5CO2Kxrmx5fpwIgEzNbl3TK36hMTXzS3Sdnii3Ds2ZAjF4LgF7/5pe0APhhQJxe/DepiK0r4vfQWYNeAEQcofrjpub+l+buc4BfBIRar8fXRUwBRDwE+0p1MuVVwNaZmjjH3aM+QUnvSo4ARD37Gpn7X1q1YPWXAaFyHaPdCYNeALwyIMaNATHquCEgRq+/B40ABDOzFYHvAm/I1MRk4JOZYsvIlFwDEPHsi3j21BFxOmrE76GzBrYAMLO1gdUCQj0UEKOOhwNi9HrWtgqAeOcDYzPF/hFp3l8XgLRDkRGAauX7KgFtPxgQo3T7r6iK7oE0sAUAcUM/ER1wHY8GxFjZzHo5D1y7AAKZ2dtIN5XlcBtpxf/AX4DSIqWmAPrl2Tc7IMYKxF821BmDXABEDf1EdMB1RB0I1MtlSBEjAKMDYnRedcHPeZnC3wO8292fzhRfehPx3u+lAOh1zc/SSj/7otqP+n10ziAXACsHxenpOt1AEYfxQG+nkkUUAJtVl5IMusPJsyL5EeCd1QEq0hJmtiYxV3z3sgYg6vTN0s++qPYH9jRSPXiljogCYFU0CgCwa4aYT5DO978/Q2ypJ+oUvnlBcWQAqQCQOh4IihN5I1lXbRUcbwGwr7vPCI4rMaL+/444EU8GlAoAqePuoDhRn4a6LLIIWky6nOXGwJgSK+I9v5CY48BlQKkAkDpmEbMGQSMAcTecARxb4G4KGZmIEYB73L30PLx0mAoA6Zm7Pwf8PiCURgDgpqA4p7n714JiST4R7/mZATFkgKkAkLp+FxBDIwAwLSDGRHc/OSCO5KcCQIpTASB1RawD2GqQT+Oq/JB6oylXAkcF5SIZVSfxbRgQ6q6AGDLAVABIXREFwBrE3MzYWe7+FDCOtLBrpH4GjHP3qDMhJK+oex40AiC1qACQuiKmAADeFBSns9x9OjBhhC+7Bhjr7n/OkJLkEfFef550wqNIz1QASF1RWwEHvgAAcPcvAXsD9w7xTxcCnwL2cvder4SVMiLe6/fqXgepa2CPQJQY7v6kmT0MjKoZSgVAxd1/YGbXAccDe5EWjI0idfrTSVdQ/6e7/7pYktITM1sF2DkglOb/pTYVABLhbuoXAKPMbDN3vy8ioa6rtlieWX1hZmuk/+zPFE1M6tqJmGvINf8vtWkKQCL8JiiORgFegrs/rc6/L0S9x+8IiiMDTAWARPhJUBwVANLvIt7ji4AbAuLIgBvkAuCRgBiLgP8LiFNHxM/h1Ltb+yZiruZUASB9y8wMeGNAqFtrLvzsl2dfnWfWkiJ+H500yAXAPdS/zvbu0sOy7v4AUPeu99/XeaC4+3zglpo5ALzGzHQqoPSrXYF1A+JcW/P1/fLse5T6nfdD7j4nIp8uGtgCwN0duL1mmOkRuQSom0fEz/HjgBgABwbFEWmbg4Li1CoA+uzZV3ctRFt+jiIGtgCoXFP49VF+WPP1ET/HdQExAA4OiiPSNgcExHgC+GVAnDY8MyJMrfn6ur+HTrNUDA4mM1sZuBXYvoeXX+3uY4NT6kl1jv5P6e2I0R+7+x4BOawEzAXWrhsL2NLdI24ZFGkFM9uFmGmy77l77UKi+nu9hbQtcaT65dl3I7C7D3AnONAjANVJWuMZ+fnr84B/js+oN9UZ8OOBkc7JzQcOC8rhedIfVARNA0i/iXpP153/B/7y9/pBYMEIX9pPz75DBrnzhwEvAADc/U5gP4a/onQW8G53b9XKUXefRTpC9sFhvuR+0jGyfwhMQ9MAIsvWqgIAwN1nAvsADw/zJf327Ls/V05dMfAFAKSjV4FtgG8v758B5wLbu3vEUF44d78BeC1w6RD/dCKwnbv/NDiFqIWAO2o3gPQLMxsDbBoQalb0SZnufi2wLfCt5f0z9OzrSwO9BmBZzGxjYAzwemAL0pGb04HburRdxMxGk36GMcBWpFv7fkX6OYZb8ffS7oPA6IBQE9z9iwFxRIoyszOATweE+qq7fyQgzjL12bNvTPX1KtKzbzow3d1nl8ytbVQASCgzuxg4NCDUQkY+ryfSRmsQc+/KWHe/OiCOCKACQIKZ2duJmwoQkWQOMLpavCcSQmsAJNr1gG70E4l1iTp/iaYCQEJV22ouKZ2HSJ+5uHQC0n80BSDhqsVE96ECUyTCTe6+W+kkpP/oAS3hqrMFtA5AJMZFpROQ/qQCQHLRkKVIfY8DU0onIf1JBYDkciXwp9JJiHTcZHf/c+kkpD+pAJAs3H0BMLl0HiIdp+F/yUYFgOQ0qXQCIh023d1nlE5C+pcKAMmmenj9qnQeIh2lT/+SlQoAye2bpRMQ6aD5LP9yMpHaVABIbjNLJyDSQRe4+5Olk5D+poOAJCszM+B2YPvSuYh0xNPAZu7+WOlEpL9pBECyqo4GPql0HiIdcr46f2mCRgCkEWZ2C7BL6TxEWm4+6dP/3NKJSP/TCIA0RaMAIkM7V52/NEUjANIYM5sGvDkw5LXA1wPjiYzU/sBBQbGeBDZ193lB8USWSwWANMbM3gLcFBhyIfAP7j49MKbIsJjZlqQFrmsFhTzV3U8JiiUyJBUA0igzuw54R2DIe4Ed3X1+YEyR5TKzlYGbgTFBIR8nzf0/HhRPZEhaAyBNi14LsCXwteCYIkP5PHGdP8CX1flL0zQCII0zs6uBvYLDftDddeqgZGdmewJTAQsKORfYXAf/SNNUAEjjzGwH0h0BUQ9QgKeAHdz93sCYIn/FzNYHZgDrB4Y91N21mFUapykAaZy73wF8NTjsmsC3q7lZkXDVqZaXEtv536TOX0pRASCl/AvwQHDMMaS5WZEcPga8MzDec8CHA+OJjIgKACnC3Z8CjswQ+uNmFvmQFsHMdgK+EBz2DHf/XXBMkWHTGgApyswuAcYHh50DvM7d5wTHlQFkZmsCd5B2nES5B9jO3RcExhQZEY0ASGkfI3XYkdYH/svMVg+OKwPGzFYCJhPb+QMcpc5fSlMBIEW5+5+Aj2QI/Wbgci0KlF5Vi/4mAe8JDv0Nd78+OKbIiGkKQFrBzL4H7Jch9BRgnLsvyhBb+piZfRU4OjjsXGBrd/9jcFyREdMIgLTF0aTjUKMdCEysPs2JDIuZfYH4zh/gWHX+0hYqAKQV3P1R0nqAHA4BvpwptvQZM5sATMgQ+gJ3/3aGuCI90RSAtIqZXQnskyn8ae5+cqbY0gfM7GjiD6mCdPLlG7XwT9pEBYC0ipmtDdwKvCpTE59w93MyxZYOM7MPkE76i54umgfs5O73BccVqUVTANIq1YUo+wK5LkY528yOyBRbOsrM9gW+Tnzn78B4df7SRioApHWq09E+QHp45nCBmY3LFFs6xsz2AL4DrJgh/JnuflWGuCK1qQCQVnL37wOnZgq/AjDZzE7IFF86ohr2vwpYNUP4acBnMsQVCaE1ANJa1da9K4GxGZuZRDqV7bmMbUjLmNkKpLP9P5WpiTmk66kfyRRfpDYVANJqDSwKBPgZsL+7P5axDWkJM1sL+Bawd6YmFgB7uvu0TPFFQmgKQFptiUWB8zM28ybgNjPbLmMb0gJmtjnwC/J1/ouB96nzly5QASCt18CiQIBNgJvNLMdxxNICZrYbaTRpm4zNHO3ul2eMLxJGBYB0grtfCRybuZk1SBcIaeFWnzGzI4FrgXUzNnOyu1+YMb5IKK0BkE4xs+OArzTQ1HeAQ9392Qbakkyq63y/AhyTuanz3T13gSoSSgWAdI6ZfQI4q4GmpgPvdfdZDbQlwcxsI+AbwO6Zm/ou6X2yOHM7IqE0BSCd4+5nAyc20NQY4E4zO9HMVm6gPQlgZiuY2THATPJ3/tcBH1TnL12kEQDpLDM7GfhcQ839FjjC3W9pqD3pgZltC0wEdm2guduA3d39qQbaEgmnEQDpLHc/FTi9oea2BX5uZudX+8ilRcxsNTM7HbidZjr/acAe6vylyzQCIJ1nZmcAn26wydnAMdXOBCnMzN4GXAhs1VCTVwLj3P3PDbUnkoVGAKTz3H0C8KUGm9wIuMLMLjezUQ22K0sws5eb2STgeprr/C8GDlDnL/1ABYD0BXf/OOlc9yYXY+0PzDSzo6qz5aUhZvZe4G7gkAabPcPdD3f3RQ22KZKNpgCkr5jZPsBlwJoNN30PcCbwTV0slIeZrQgcCEwAtm+waQc+5u5NnD8h0hgVANJ3zOx1wPeBjQs0P5s0HXGhuz9doP2+Y2arAuNJIzxbNNz8QuAQd7+s4XZFslMBIH3JzNYnLdbapVAKfwLOA85z97mFcui0arfFh4ETgA0LpPAUcLC7X1OgbZHsVABI3zKz1YBJwD8VTONp0r70c9z9oYJ5dIaZrQccRzq+9+8KpfFb4EB3/59C7YtkpwJA+l51YNC/AlYwjYXAZODM6nZDWYqZbQJ8AjgMWL1gKpeSbvV7pmAOItmpAJCBYGYHA5dQtmOBtKDsNmAKMMXd7yucT1HVNsoDSIv73kTZnUnPAse6+8UFcxBpjAoAGRhm9mrS5TBjSueyhNt5sRgYiEuHzGxjXuz030DZkZkXzAIOcvcZpRMRaYoKABko1fWwnwE+C6xUOJ2l3cmLxcDdpZOJZGab82Knv3PhdJY2BTjM3Z8snYhIk1QAyEAys51IowGvKZ3LS5hJ6piuA37dtTPnzWx1YDvSbXwHAjuWzWiZngM+6e7nlk5EpAQVADKwql0Cp5O2mbX5JL/FwL2k6YI7Xvjelu2FZrYOsMMSXzsCWwMrlsxrCD8DjnT3maUTESlFBYAMPDN7C2mB4GaFUxmpP7BEQVB9zfaMf9RmtgHpFL4debGz34x2zOMPx+OkA4Uuyvl7EukCFQAigJmtSTrB74jSudS0CHiC1NHNW+r7sv7bYtJe+5cN4/s6tG/dxEh8Bzje3eeUTkSkDVQAiCzBzN4KnE27dgpIPfeR9vVPLZ2ISJu0ed5TpHHufhNplfr7gAcKpyP1PE+6oGlbdf4if0sjACIvobqE5qPAiZQ7klZ68wPgRHe/s3QiIm2lAkBkCGa2LnAScDSwcuF0ZPmmAqe4+62lExFpOxUAIsNkZlsAZ5D2tUu7XEfq+H9ROhGRrlABIDJCZrYraSvZe9A6mtJ+Qur4f146EZGuUQEg0iMz2xT4CHA4aYucNOdGUsc/rXQiIl2lAkCkJjNbA/gQcCzwqrLZ9LXHgctIh/j8unQyIl2nAkAkiJkZ8C7gOGBPunM6XttNAyYCl7v7s6WTEekXKgBEMjCzrUkjAgcDryicThfNAS4FLnb3e0onI9KPVACIZGRmKwJvJe0c2A/YoGxGrbaYtI3vIuBqd19YOB+RvqYCQKQhZrYC8EZSMbA/MLpsRq0wH7ie1PFf5e6zC+cjMjBUAIgUUK0X2BU4gFQQbFI2o8Y4MIPU4U8FbtYnfZEyVACItICZ/T2pIHhD9f21wIpFk4ozl3RQz1TgR+7+aOF8RAQVACKtVF1P/Hr+uihYr2hSw/NH4LfAb6rvdwC/cvfFRbMSkb+hAkCkI6qjiHcBtiBNGbzwtTGwasPpPAXcRerk/9Lhu/uchvMQkR6pABDpuGo9wfr8dVGwCbARsBqwCqlAWHWJ/730dwPmkYbrh/p6FPiD6+Eh0mn/D9Ofp4LTtP1LAAAAAElFTkSuQmCC;" vertex="1" parent="1">
          <mxGeometry x="403" y="187.15" width="44.28" height="44.28" as="geometry" />
        </mxCell>
        <mxCell id="4tqr_Nl9Fvb0LUBX_hIL-28" value="&lt;font style=&quot;font-size: 11px&quot;&gt;Environment&lt;/font&gt;" style="text;html=1;align=center;verticalAlign=middle;resizable=0;points=[];autosize=1;strokeColor=none;fillColor=none;" vertex="1" parent="1">
          <mxGeometry x="384" y="250" width="80" height="20" as="geometry" />
        </mxCell>
        <mxCell id="4tqr_Nl9Fvb0LUBX_hIL-34" value="" style="endArrow=none;dashed=1;html=1;rounded=0;strokeColor=#000000;" edge="1" parent="1">
          <mxGeometry width="50" height="50" relative="1" as="geometry">
            <mxPoint x="343" y="312.43" as="sourcePoint" />
            <mxPoint x="343" y="272.43" as="targetPoint" />
          </mxGeometry>
        </mxCell>
        <mxCell id="4tqr_Nl9Fvb0LUBX_hIL-35" value="" style="endArrow=classic;html=1;rounded=0;strokeColor=#000000;exitX=0;exitY=0.634;exitDx=0;exitDy=0;exitPerimeter=0;" edge="1" parent="1" source="4tqr_Nl9Fvb0LUBX_hIL-25">
          <mxGeometry width="50" height="50" relative="1" as="geometry">
            <mxPoint x="370" y="250" as="sourcePoint" />
            <mxPoint x="346" y="302" as="targetPoint" />
          </mxGeometry>
        </mxCell>
        <mxCell id="4tqr_Nl9Fvb0LUBX_hIL-36" value="" style="endArrow=classic;html=1;rounded=0;strokeColor=#FF3333;" edge="1" parent="1">
          <mxGeometry width="50" height="50" relative="1" as="geometry">
            <mxPoint x="360" y="283" as="sourcePoint" />
            <mxPoint x="346" y="283" as="targetPoint" />
            <Array as="points">
              <mxPoint x="370" y="283" />
            </Array>
          </mxGeometry>
        </mxCell>
        <mxCell id="4tqr_Nl9Fvb0LUBX_hIL-37" value="&lt;font style=&quot;font-size: 9px&quot;&gt;state,&amp;nbsp;&lt;i&gt;S&lt;sub&gt;t&lt;/sub&gt;&lt;/i&gt;&lt;/font&gt;" style="text;html=1;align=center;verticalAlign=middle;resizable=0;points=[];autosize=1;strokeColor=none;fillColor=none;" vertex="1" parent="1">
          <mxGeometry x="311" y="191.43" width="50" height="20" as="geometry" />
        </mxCell>
        <mxCell id="4tqr_Nl9Fvb0LUBX_hIL-38" value="&lt;font style=&quot;font-size: 9px&quot; color=&quot;#ff3333&quot;&gt;reward, &lt;i&gt;R&lt;sub&gt;t&lt;/sub&gt;&lt;/i&gt;&lt;/font&gt;" style="text;html=1;align=center;verticalAlign=middle;resizable=0;points=[];autosize=1;strokeColor=none;fillColor=none;" vertex="1" parent="1">
          <mxGeometry x="324" y="217" width="60" height="20" as="geometry" />
        </mxCell>
        <mxCell id="4tqr_Nl9Fvb0LUBX_hIL-43" style="edgeStyle=orthogonalEdgeStyle;rounded=0;orthogonalLoop=1;jettySize=auto;html=1;entryX=0;entryY=0.5;entryDx=0;entryDy=0;fontSize=11;fontColor=#FF3333;strokeColor=#000000;exitX=1;exitY=0.5;exitDx=0;exitDy=0;" edge="1" parent="1" source="4tqr_Nl9Fvb0LUBX_hIL-4" target="4tqr_Nl9Fvb0LUBX_hIL-7">
          <mxGeometry relative="1" as="geometry">
            <mxPoint x="550" y="280" as="sourcePoint" />
          </mxGeometry>
        </mxCell>
        <mxCell id="4tqr_Nl9Fvb0LUBX_hIL-42" value="&lt;font style=&quot;font-size: 9px&quot;&gt;action,&lt;br&gt;&lt;i&gt;&lt;sub&gt;A&lt;sub&gt;t&lt;/sub&gt;&lt;/sub&gt;&lt;/i&gt;&lt;/font&gt;" style="text;html=1;align=center;verticalAlign=middle;resizable=0;points=[];autosize=1;strokeColor=none;fillColor=none;" vertex="1" parent="1">
          <mxGeometry x="495" y="234" width="40" height="40" as="geometry" />
        </mxCell>
        <mxCell id="4tqr_Nl9Fvb0LUBX_hIL-44" value="&lt;font color=&quot;#000000&quot; style=&quot;font-size: 9px&quot;&gt;Data&lt;/font&gt;" style="shape=note;size=8;whiteSpace=wrap;html=1;shadow=0;fontSize=11;fontColor=#FF3333;strokeColor=#000000;fillColor=#FFFFFF;" vertex="1" parent="1">
          <mxGeometry x="267" y="205.5" width="31" height="37" as="geometry" />
        </mxCell>
        <mxCell id="4tqr_Nl9Fvb0LUBX_hIL-45" value="Data collection" style="text;html=1;align=center;verticalAlign=middle;resizable=0;points=[];autosize=1;strokeColor=none;fillColor=none;fontSize=9;fontColor=#000000;" vertex="1" parent="1">
          <mxGeometry x="45" y="291.93" width="70" height="20" as="geometry" />
        </mxCell>
        <mxCell id="4tqr_Nl9Fvb0LUBX_hIL-47" value="Eye tracking and" style="text;html=1;align=center;verticalAlign=middle;resizable=0;points=[];autosize=1;strokeColor=none;fillColor=none;fontSize=9;fontColor=#000000;" vertex="1" parent="1">
          <mxGeometry x="40" y="279.93" width="80" height="20" as="geometry" />
        </mxCell>
        <mxCell id="4tqr_Nl9Fvb0LUBX_hIL-48" value="" style="rounded=1;whiteSpace=wrap;html=1;arcSize=8;strokeColor=#0000FF;strokeWidth=2;dashed=1;fillColor=#f5f5f5;fontColor=#333333;" vertex="1" parent="1">
          <mxGeometry x="100" y="380" width="640" height="216" as="geometry" />
        </mxCell>
        <mxCell id="4tqr_Nl9Fvb0LUBX_hIL-50" value="" style="endArrow=none;html=1;rounded=0;fontSize=9;fontColor=#000000;strokeColor=#0000FF;strokeWidth=2;exitX=0;exitY=0.082;exitDx=0;exitDy=0;exitPerimeter=0;dashed=1;" edge="1" parent="1" source="4tqr_Nl9Fvb0LUBX_hIL-48">
          <mxGeometry width="50" height="50" relative="1" as="geometry">
            <mxPoint x="97" y="390" as="sourcePoint" />
            <mxPoint x="40" y="320" as="targetPoint" />
            <Array as="points">
              <mxPoint x="100" y="360" />
              <mxPoint x="40" y="360" />
            </Array>
          </mxGeometry>
        </mxCell>
        <mxCell id="4tqr_Nl9Fvb0LUBX_hIL-51" value="" style="endArrow=none;html=1;rounded=0;fontSize=9;fontColor=#000000;strokeColor=#0000FF;strokeWidth=2;exitX=0;exitY=0.082;exitDx=0;exitDy=0;exitPerimeter=0;dashed=1;entryX=0.998;entryY=0.948;entryDx=0;entryDy=0;entryPerimeter=0;" edge="1" parent="1" target="4tqr_Nl9Fvb0LUBX_hIL-1">
          <mxGeometry width="50" height="50" relative="1" as="geometry">
            <mxPoint x="740" y="396.4000000000001" as="sourcePoint" />
            <mxPoint x="680.0000000000001" y="320.0000000000001" as="targetPoint" />
            <Array as="points">
              <mxPoint x="740" y="360" />
              <mxPoint x="260" y="360" />
            </Array>
          </mxGeometry>
        </mxCell>
        <mxCell id="4tqr_Nl9Fvb0LUBX_hIL-53" value="&lt;font style=&quot;font-size: 11px&quot;&gt;Data collection&lt;/font&gt;" style="text;html=1;align=center;verticalAlign=middle;resizable=0;points=[];autosize=1;strokeColor=none;fillColor=none;fontSize=9;fontColor=#000000;" vertex="1" parent="1">
          <mxGeometry x="130" y="410" width="90" height="20" as="geometry" />
        </mxCell>
        <mxCell id="4tqr_Nl9Fvb0LUBX_hIL-54" value="Signal processing and filtering" style="text;html=1;align=center;verticalAlign=middle;resizable=0;points=[];autosize=1;strokeColor=none;fillColor=none;fontSize=11;fontColor=#000000;" vertex="1" parent="1">
          <mxGeometry x="265" y="410" width="160" height="20" as="geometry" />
        </mxCell>
        <mxCell id="4tqr_Nl9Fvb0LUBX_hIL-55" value="Feature extraction" style="text;html=1;align=center;verticalAlign=middle;resizable=0;points=[];autosize=1;strokeColor=none;fillColor=none;fontSize=11;fontColor=#000000;" vertex="1" parent="1">
          <mxGeometry x="470" y="410" width="100" height="20" as="geometry" />
        </mxCell>
        <mxCell id="4tqr_Nl9Fvb0LUBX_hIL-56" value="Metric analysis" style="text;html=1;align=center;verticalAlign=middle;resizable=0;points=[];autosize=1;strokeColor=none;fillColor=none;fontSize=11;fontColor=#000000;" vertex="1" parent="1">
          <mxGeometry x="620" y="410" width="90" height="20" as="geometry" />
        </mxCell>
        <mxCell id="4tqr_Nl9Fvb0LUBX_hIL-57" value="&lt;b&gt;&lt;font style=&quot;font-size: 14px&quot;&gt;Eye tracking Interface&lt;/font&gt;&lt;/b&gt;" style="text;html=1;align=center;verticalAlign=middle;resizable=0;points=[];autosize=1;strokeColor=none;fillColor=none;fontSize=11;fontColor=#000000;" vertex="1" parent="1">
          <mxGeometry x="345" y="384" width="160" height="20" as="geometry" />
        </mxCell>
        <mxCell id="4tqr_Nl9Fvb0LUBX_hIL-58" value="" style="endArrow=classic;html=1;rounded=0;fontSize=14;fontColor=#000000;strokeColor=#000000;strokeWidth=2;entryX=0.008;entryY=0.467;entryDx=0;entryDy=0;entryPerimeter=0;" edge="1" parent="1" source="4tqr_Nl9Fvb0LUBX_hIL-53" target="4tqr_Nl9Fvb0LUBX_hIL-54">
          <mxGeometry width="50" height="50" relative="1" as="geometry">
            <mxPoint x="230" y="465" as="sourcePoint" />
            <mxPoint x="280" y="415" as="targetPoint" />
          </mxGeometry>
        </mxCell>
        <mxCell id="4tqr_Nl9Fvb0LUBX_hIL-59" value="" style="endArrow=classic;html=1;rounded=0;fontSize=14;fontColor=#000000;strokeColor=#000000;strokeWidth=2;exitX=1.002;exitY=0.505;exitDx=0;exitDy=0;exitPerimeter=0;entryX=-0.001;entryY=0.493;entryDx=0;entryDy=0;entryPerimeter=0;" edge="1" parent="1" source="4tqr_Nl9Fvb0LUBX_hIL-55" target="4tqr_Nl9Fvb0LUBX_hIL-56">
          <mxGeometry width="50" height="50" relative="1" as="geometry">
            <mxPoint x="580" y="420.13462751971946" as="sourcePoint" />
            <mxPoint x="626.28" y="419.7999999999999" as="targetPoint" />
          </mxGeometry>
        </mxCell>
        <mxCell id="4tqr_Nl9Fvb0LUBX_hIL-60" value="" style="endArrow=classic;html=1;rounded=0;fontSize=14;fontColor=#000000;strokeColor=#000000;strokeWidth=2;exitX=1.003;exitY=0.503;exitDx=0;exitDy=0;exitPerimeter=0;entryX=0.004;entryY=0.495;entryDx=0;entryDy=0;entryPerimeter=0;" edge="1" parent="1" source="4tqr_Nl9Fvb0LUBX_hIL-54" target="4tqr_Nl9Fvb0LUBX_hIL-55">
          <mxGeometry width="50" height="50" relative="1" as="geometry">
            <mxPoint x="425" y="420" as="sourcePoint" />
            <mxPoint x="471" y="420" as="targetPoint" />
          </mxGeometry>
        </mxCell>
        <mxCell id="4tqr_Nl9Fvb0LUBX_hIL-62" value="" style="shape=image;imageAspect=0;aspect=fixed;verticalLabelPosition=bottom;verticalAlign=top;shadow=0;dashed=1;fontSize=14;fontColor=#000000;strokeColor=#0000FF;strokeWidth=2;fillColor=#FFFFFF;image=data:image/png,iVBORw0KGgoAAAANSUhEUgAAAgAAAAIACAMAAADDpiTIAAAAA3NCSVQICAjb4U/gAAAACXBIWXMAAAduAAAHbgHjDRasAAAAGXRFWHRTb2Z0d2FyZQB3d3cuaW5rc2NhcGUub3Jnm+48GgAAAwBQTFRF////AAAAAAAAAAAAAAAAAAAAAAAAAAAAAAAAAAAAAAAAAAAAAAAAAAAAAAAAAAAAAAAAAAAAAAAAAAAAAAAAAAAAAAAAAAAAAAAAAAAAAAAAAAAAAAAAAAAAAAAAAAAAAAAAAAAAAAAAAAAAAAAAAAAAAAAAAAAAAAAAAAAAAAAAAAAAAAAAAAAAAAAAAAAAAAAAAAAAAAAAAAAAAAAAAAAAAAAAAAAAAAAAAAAAAAAAAAAAAAAAAAAAAAAAAAAAAAAAAAAAAAAAAAAAAAAAAAAAAAAAAAAAAAAAAAAAAAAAAAAAAAAAAAAAAAAAAAAAAAAAAAAAAAAAAAAAAAAAAAAAAAAAAAAAAAAAAAAAAAAAAAAAAAAAAAAAAAAAAAAAAAAAAAAAAAAAAAAAAAAAAAAAAAAAAAAAAAAAAAAAAAAAAAAAAAAAAAAAAAAAAAAAAAAAAAAAAAAAAAAAAAAAAAAAAAAAAAAAAAAAAAAAAAAAAAAAAAAAAAAAAAAAAAAAAAAAAAAAAAAAAAAAAAAAAAAAAAAAAAAAAAAAAAAAAAAAAAAAAAAAAAAAAAAAAAAAAAAAAAAAAAAAAAAAAAAAAAAAAAAAAAAAAAAAAAAAAAAAAAAAAAAAAAAAAAAAAAAAAAAAAAAAAAAAAAAAAAAAAAAAAAAAAAAAAAAAAAAAAAAAAAAAAAAAAAAAAAAAAAAAAAAAAAAAAAAAAAAAAAAAAAAAAAAAAAAAAAAAAAAAAAAAAAAAAAAAAAAAAAAAAAAAAAAAAAAAAAAAAAAAAAAAAAAAAAAAAAAAAAAAAAAAAAAAAAAAAAAAAAAAAAAAAAAAAAAAAAAAAAAAAAAAAAAAAAAAAAAAAAAAAAAAAAAAAAAAAAAAAAAAAAAAAAAAAAAAAAAAAAAAAAAAAAAAAAAAAAAAAAAAAAAAAAAAAAAAAAAAAAAAAAAAAAAAAAAAAAAAAAAAAAAAAAAAAAAAAAAAAAAAAAAAAAAAAAAAAAAAAAAAAAAAAAAAAAAAAAAAAAAACyO34QAAAP90Uk5TAAECAwQFBgcICQoLDA0ODxAREhMUFRYXGBkaGxwdHh8gISIjJCUmJygpKissLS4vMDEyMzQ1Njc4OTo7PD0+P0BBQkNERUZHSElKS0xNTk9QUVJTVFVWV1hZWltcXV5fYGFiY2RlZmdoaWprbG1ub3BxcnN0dXZ3eHl6e3x9fn+AgYKDhIWGh4iJiouMjY6PkJGSk5SVlpeYmZqbnJ2en6ChoqOkpaanqKmqq6ytrq+wsbKztLW2t7i5uru8vb6/wMHCw8TFxsfIycrLzM3Oz9DR0tPU1dbX2Nna29zd3t/g4eLj5OXm5+jp6uvs7e7v8PHy8/T19vf4+fr7/P3+6wjZNQAAGMVJREFUeNrtnXmATlUfx88zixnMMPaxTYqQnQjhtUSWRKWE0lRCC8Lb8IriVck6qahsiSSVipRdlnqz7/tuzIyMwVhmzD7n9UyUueecu99n7vPc7+e/eebec+9zfp97n7MfQgAAAAAAAAAAAAAAAAAAAAAAAAAAAAAAAAAAAAAAAAAAAAAAAAAAAAAAAAAAAAAAAAAAAAAAAAAAAAAAAAAAAAAAAAAAAAAAAAAAAAAAAAAAAAAAAAAAAAAAAAAAAAAAAAAAAAAAAAAAAAAAAAAAAAAAAAAAAAAAAAAAAAAAAAAAAACALXgnLS9vWH3BNyQXfAcxyFfG07z8x+oL/kdywfGIAQQAEABAAAABAAQAEABAAAABAAQAEADkqwCBSqcHKF4gEAJ4qwBFpsfmxEwtJHNyr30ZV9fWkTmgyrLLmYdehgBeKUDoidwP9gUJz52Ye0B6K+EBDVNyj5gJAbxRgHdvfSLsIK6a/dcBB4SJ/34riYYQwAsFWHfrk+9Fp/a+fU4RUQEh/dYBAyGAFwpw+NYnm0WnDr99TjXBAWVuH/A+BPBCAY7c+mSLYoWuuuCAcF6QIQAEgAAQAALYVYAREMDZAiQuuc31W59cXiLg4O1z1goOWHH7gGO8syCALQXwOBAAAgAIABwrwKEABMHRAtDBCIKzBUgqiSg4WgA6A1FwtgDZ9RAGRwtANyIMzhaAdkccnC1ATEEEwtEC0NEIRH6xxBYC3IhAJPKHJ6g9WIRQ5AsRiTYRgLZAMPKBoO12iT/d7YdweJ7Z1D70Qzg8Tj8bxZ9eCENAPMwD6XYSgH6AiHiW0rG2ij/NrI6YeBL/9dRmrERQPMlkajs6Iyqeo7v94k+PFUBcPEXNZBsKcMesFGAtRY/ZMf40rSZC4xFcS6k92Y4hwh5hFLUrbyI4HqBDtm0FSK+N8FjO3ZeofdmJHwGrKbjbXs+85O+3ECGLmW+vR/7T+Lx/Z9RFiCzlNZu988c/Kh0ZEIggWUizDLsJQBZKPhmDKFlHxT+p7QQoeUHyI1AfcbKK0H3UfgKQpyUf7UWfgEX4r2AH4thAAPKj5DPsJmoR05nsXzXRDgKUTZKMDbkfsbKCwUzux5WyxxIxz0s+3I8fAQvowrQAZza3yxpBqySfjkO4TKcBOwRgmG0WiYq4nvfTrEYImMlUiGfyfpnLPquEvSr5+GAQQmYqIXuYrD9SlNhHANdGyecTEDNTK4C/MDmfVJXYSABy7w3Jj0BjRM1EPmYyPqs9sZUAZIDkHyeKImymMYjN+KHEDAGux8RlmSQAkb6kfkDczKIzOwToC2JMgKw9s/o2CHdX1/3CGzzS94MTxgUonSD5178ROXOof53J9s1BRgTIWf8is1FUjRGbc4wJQDqxzRTABMrHsS2A4US/AFfG3MW/UPjYFEMCMCWV+NKIngkVQHYIWOo/G/lpFiB1UnHxtcrNzjIiQPAByT/XYtkIw/gtYzO9F9EtQPaD8pertdyAAKR2GvoFzeZDNs/v3MZP8xvgbDWFC3ZP0S8AeV1a2uiICBpjIJvly/yMCEAT6ilcst4Z/QK4Vkr+fRELyBmiJ1sBPJSnAK+jEJik8CtASm3ULQAJl45Q2YqeYQN0ZIeAXq5CDApAU9opXDbwM90CEOkgYfoxwqibZjfYBpy2xLAANP0JpSsv0C0A+UR6xNMIpE7qJrH5/SoxQQCaFalw6eCtugUoeEja3FwNodRF5fNsdjPVKp1NwTkDFS5eLl6vAOziFQcKIZg6KHeKze1ZxCQBKB2lcPlGqXoFIL2kx8xHNLVT/ACb2Uv89QrA+TGZpHAD/XQLQKZJD8IyopopvJnN69+CiU4BtkRw1pSZKd9O67dPtwAFtkgOSmuAiGqjwGo2q/eHEb0CNCfhnBfKIvlpnJ10C0AqSlcxPxWGmGrB71s2p2PKE70CuIdmlNzFfv5zsOxdrNctAGknbcBa6kJUNTCTzeiL/JVY1QiQnTt6MGwL+58NobLlwBzdArDLGGGPYQ1woprSmOgWYNVfh4ZyWni3l5C7j8X6BXD9LD2wL+Kqlig2mzM7Ev0CPHm7iWYV+78DZWVupKt+AUgxaS0282FEVh19OO02zxH9AiT8XdYL4qwvePJu8Z0UTNEvAGkgbUi4ihXEVPEEZ1BOFDEgwOR/jg78hv13fA3xvfxoQADyEjMUoSyiq8xDaWwmTyFGBOhwx+H+89j/J4onc0caEYB8Lj12Z2HEV4kH2BHAdIHLiAA5eargLk5P79V/iVIvkWVEgOCdzFgWf0RYntoXOSOAAokRAQ5IzohmD7khHLj1hxEBSHmmR2kaQixLHc4+gMuDiCEBZkpPeZc9JkO0/fNCQwKQhsyAhiEIsgx1OfFfHUyMCTCYOedNTluRoJg52ZgA5ClpW1L2YwizOP6c9/+6gsSgAL3Zk/pyftrncsfuDTUoAHmLadHC0hEi6nHiv0FpLIWyAJ04Z3Vhx5rRTSU5B/Y0KgD7I3K+EkLNpT5nEfDfFOtNygJw25Cbci52ktMg0NKwAMFMv/bBMASb13B2mc3cP0KJcQGqcM+rHsOpDnZgDqtqWABShrnSOqwmzHI/J/5bixATBBC8ccvt5YwVHSQ9qpJxAUhdpmljLuLN1Jc4Y7Z2qHlV6haAFOV1938WYL4AnPXtsKmAhEac+O8uTiwVgARxRp3QdcXMF4DTvfkMYp6n/fcKm7H7ShCLBSB+H3EOP1rVfAHYXoH0loi6fPy3q4u/IQEIGc45/vJD5gtQgBmLcq0J4n6bxlc59b8ixBMCkOcyOYNP+psuAAnbz6xTggWlb9GEE//VqufSGBSAdODtQfuhv9kCkPJMZfASNhf6q0mGE/8l6tdZNSoAacjbcWBFEbMFINWZds5EbDR7kwevsXn6lYa99wwLQKoc4Zx08B6zBSCNmfFl5zFrlDS7pnnGjtkCkGJrOWcltjBbANKJKW/EV3F6/Ftxxv9Ea0rBBAFIwAzeGgIvmC0AiWTmGZyt5Oz4R6azGfpf4nEBCBnC2414op/JApBhzNmnKjo4/K73qJbxv1YKQDpzXkV0aYjJAnCGox0v59j4B3OGaOe8QvJHAFKH0ztI90aYLIDrK+b8w2UcGv/SnPnfadqX0zFLAFKGM3WQnu9hrgAkkJ31vL+kI+Nf8zSbl5d0LK5smgAk+GvevFKTBSAh29ler2IOjP/DnOafk3qqxeYJQMgYPUvNaJ31W4ptdtjuvK0l+nOa4LdqWVo7qJ4FApCeqdYLQMqzWxPsctiq4n5TOBm5RMtSWmEbB1shAGly3noBSAS7FO0xR7UHFObM0aUfaWn+q3CAWiMAuWuf9QKQezgbIDioX6DcTk5ZS9OEmVqx1CoBSOgS6wUg1dgXzSXHbDJWj9WfpnbTkkLLJGqdAMT1ZrblApCa7BSoZIesH/Eop/89samWFJ5Ko1YKQEi7i5YLQOqxg6DTuzsh/oM5j9dxTX1ig7KpxQKQu3ZYLgBpxNaDs/v7fPgDPuHk4B9aWsJcEyVTPq0QgATPsVwA8iCn92Gkr7f+buBk4OJgLS2pC6gnBCCkX5rVApCWnPmJ0T69mmDjWE7+TdFS/QtdQz0kAHngrNUCkHYcyeYF+G78+3I6/7MHakkhfDf1mACk1DqrBSCPcHLkp2AfDX/QLE7mpXTVVHs+TT0oAPGfYLUApBOn6XljEZ+Mf8VtnLxLeEBLEk0vUo8KQEi3axYLQNpwKsW7wn0w/q15Y6+P3K0liRfSqKcFINUPWSwAacbpFY2t73PxH8pbbW1TcQ0pBE4TrPxjqQAkdLHFApBGnGnxyY/7VvgLL+Jl3KIgDUmU3kjzRQCzxwRyqMN5Oea86Uvxr7Kfl2/jtNR4G7IVSJ8RgNzH255qQZDPxP8RztR/ek1T708kp7DsOwKQyrzxqJt9ZKyoazRv04XD1TUkEcCbxZ/V2XcEIBHHOenG+MTc0bBlvDxbHKohiVK89uMrfy/n5AsCkLK82sb1rt4f/1o8tbOGaUnifl6T7NF/ho/6hACk1B7eiOTh3h7/Xry594kPaUniOd4wzVVhxMcEIMV4DWV0nlcXBQvN5n2nbVomwwVM5SUx9c411/NdgM/Nya2QVbzEf/fi4cI1D/K+0UwtTpdaz5u1+2KeY/JdALrEnPJ64Je8xM947TYzfTi93TStj5YkHuBVjxKaEZsJQC+asz/832Nd8hYFu3hl+EO/4n2ZmIYakvAbwZk8QndHENsJQOl35rwEBvOqzDkTvHCIQP1jvGxao2XsV4X13AokM3vEFgLQy31Myben03mJb/K6GeQDuOOpxmvZL6fbZd7DMJptP7aHAJSuv9eMnGtzlZd2Qlvvavz5gfclrj2hIYnC3ApEMq/92C4C0NQRZryq657jpZ092s974t/kDO8rHNIy8/f+o9wSRD1iZwEo3WvGXiCVjnDTXl3KS8LvisrklpJCNCQxLENDldhGAtCsaBP2BSyxmZt2XHOviH+p5dyM0bLwT3n+YMw5BYjtBbhZbe9gQgMat/+EZr7hBUPGW/K6tumF1hqSeIw7LyvrddHx9hKA0gXG39X+s/lJLw2zefj93ubus7m1ggb7Z3C/emI74i0C0IvPGc/JUfykTzW0dfzL/8q96xkFNLQfHOYmsUZm02XbCUDpb8YHdfbmFoNo+qs2jv/TvJo7TXlBfQoBw7ntIBlRcj9+NhSAZs8wvPBXmyv8pBeF2DT8RRdw73e3hqE/DXZxkzgqv66+HQWgNGmQ0UaBmoKpacftuZBEK16/Dc2JVv/6LzSJv1H3HIWalT0FoPTAQwaztNxuQV1zjP36BoImcRfVOK+hTtT2JP9JekrpxHwXIFH0j+8rGcvVkBWChLfea7P4197Lvc8V6gczFJ/L/6qbIojtBRjf8aSocXhsIUP5GjBLkHCyrVaScA3ldv2kDVbfbtEjgd/08ZaK7iMbDAkr+F664H9nDY4UGCm66DL7jBSqyG+4O1xPfQo/C2q9qlYOssWYwPs2iP670ViV8FmRWhfsMk6kZxL3/maqfvn5DbzO/4pfqZsmbZNBoZEXBP/O+a6Gkeu3ThJdd2ZhG4Q/bCF/eIT6rt+a/K4Peq23ygTsMiq4+KwcUavAAiMbw1Q7Irrw8fzfebBNLPfONqhu+w0ay2/xolvuIV4mACEPChcZzZxzl4EWll+EnY//zd8KYdAUrvOZI1UPXmh9WPDMvKf+m9loXkBAVLLooPTp+od1+Ym/4taq+Rj/Ovv5RTfVL6Z7RYuyxrbScBu2mhgSsVQ8YChaf8G9xw1Rqikv51f4A95MN1J0I6RYtODtTxdrWTjCbjODusYID0x+v7jeu6gvTnVD/uw9WGuHsaJbwADRcqyxGlfHsNvUsMKTMoSHXh2tdwGo0puEiaa9XcDzj/9I/uO/tbLKBDodFpVrPtDa22W/uYGVvxMffOk/OitvgZ+KEz3cwh6Pf/b7KotutVaLvso27c0mdpwc2vR/4sMThuhcCLC/+M2SM8uTuw4FjOI//nEqB36V+ixL9IZ8TcfgZ3vODu52XHxC/PASum6lRYI4zfM9PRb/2jsFUyTVfaugYVdFX+Kbsnrux6bTwwMHyaw5n/q5rgbiijtlbmPF3fn6+CerrI48eUr0BU7pHE9r2/UBik6Q24Hq9x6B2m8mWKYgQFOiAvLv8d+krvTXSFiWzRhXkPiYAIREfJkjc965t3WsCPrUFZkU9zSy+vF/i//4pw5R9dvd8GfxMEr9HSa2XiGkwa9yZ2Z81VTz/dy9VW4s4kehVsa/zi5Bu301g+G/1MfAlAebLxHT+aDsyTsitS4CEzhZ7rUS18PCx18wUnmEv7Hw03mGplLYfY0g/35/yo8oG6d1A/lHEuXS+7WGZx//XbUNhv9IK2M3Zv9Fogq+His/o/B7jVlQfqPsD8skC0aOB77Nf/wzxwQaC3/qW0bbMb1hlbACfU/Kp7H/dU2dhf5jZXe2izf9d6CuYITygQbGwk9XVDF8b96xTJz/swoLz2dvfEVLb2Gbc9RzvwOBo/mPf9b4IGPh39LahLvzlnUCXd12KSSUteYl9d2FpVdS+d+BUMsf/6NNjIX/kDmL4nvRQpEd/6eUVsbySLU7ybuGZ1JP/A6IHv+cD5RablydVsvc39kX/InTBCCk1RrF5NKW9lRZiGt6hlr/O9Bor6DhtqXCiSEDjsnc28Whpq2B6mVLxTb+STFBeuO7J1W1ixb7QT6dzMlGfwcKRwtKm58qSHpP9FWZG7s+1sSNsbxureC636jYnPr6wq5qHpEBCttbxhvrJGx/WvD6bqdQRF0i9xXTPzZ1VosXLhZddeplZQXotR/6KU+Mq39MIZX1NXV/9RLzBWnOlS2nBL+0T7a686XJ3ZZeuVp4wee3UDUcin5YYfhIyExq0e9AL8FUl3OdZRupxslvvb7M9LWPvXW5+PozrqtyIOWXgfKTgdvFKKTwZ6SOrpaI5YLUFspVVZsukq+a/GbBUmfeu19A6Kv7qDpOTn9UZihh6GdK52/R2k/sN0hg5wWZvZ4KP7dN/jb2dbaik8KrN4x4cH6qSgfS10WJX54PKVQIac4cTeWuWqIfqC+Fw75crb9QeKOdetaa1U69fMeQEv8+RtUSN7u7YAxJyKc5CudeGaJ6vJBwvl5MR9EpVd5RUnDf81YNXvf6LWNcbRdnqnaAHpsTyS1FtzmtWKBsp+5+mguG7OdME9T9i/b9Xenaqx4mluELewaVHbGXaiBu4cs1mXJdyHSllwD9UUUFrMgngmQON+P3cnX4WulXLP0LS3c98ZFNo6qPPqTFAXrxx6ENJY3pTXYonZT6jtKyDV3iBJXJd7ntUjUnnlO65uVxZQmBAGqo/e5xTQ7QaytHtrgzLn59E5VOkV+zpsy3opFrvE0sSw5UNI6eHGD5Mha+I8BNGkw4rc0BmrZpXNd/SobFpmUpnbChjvDqLwoaKG9EsR13ZV9emaF4c39088A2Bz4lgLu3KDqWauXsd1H/uvWk1d2kdHDWdH5TTuV1otZkZtRO1eGbFQscNPv7psQT+JoAN6sFzacc0ewAzdo786Xa7if1mXjF8sMr7BPtP0ywBsGVvnnLm65G49SUVpI/rkwIBNBN5UGr0rRLQJM3TOxWMWSi4st5j3Q+cVXRcKUleQYrBradHqfmPs6N8NxsVd8UwN2y2nVWPNXDuR/n31A86Os86zi1T+IfldD9zhvqtiBJ1Q1Y1+jjKAFye4xGbc6m1pA88p8KxCOCouO8PKWFsHB1lCEexacFcFe2ei+6YI0CJ283z4XzL3CmPfEGfF0AN/f1XxhngQE5t1b04K5okv1hYQIBbCKAm3temHvKdAVWu+f1VOD9ABxsSggEsJMAbir0mnHYXAOm3Ux1DPtxxtgCBALYTwA3pZ/8aG+OeQb0ImQt8+FWb9qz3mkC5Lb4dpm8LcscAY66iHTeYvIQfwIBbC2Am9D2435PN8GAR4mk2WhFJUIggP0FcFOw9ehfbxgU4EsiKf0f8TIuKdd3jSR/UjH5S7nHHXVzzM3xXE64OenmVC6n3ZxxE5PLWTexbuLcxOdyzs2fbs7nkuDmgpvEXC66ueTmci5JN0k2KMAWQoGTSYQADgcCQAAAAQAEABAAQAAAAQAEABAAQAAAAQAEABAA+LIAJ5AHTuYEWYRMcDKLSBQywclEkdbIBCfTmgTsQC44lx0BhNRIQz44lbTcPQVQCnBwCcCN3zzkhDOZd3sRp8cTkBnOI+GOXZtKzTuPDHEW56U7tlZ4bOxU4BDGPlaBAAAAAAAAAAAA3kfjl/OZxohBvjI+v1vUxiMGEABAAAABAAQAEABAAAABAAQAEABAAAABAAQAEABAAAABAAQAEABAAAABAAQAEABAAAABAAQAEABAAAABAAQAEABAAAABAAQAEABAAAABAAQAdhMg63AkYuBQAS7+OvXFhgURAQcKkHlg4fCO5ZH3ThQgYc2UyHpByHYHCpC+Z/4bD4cjw50owLmVE56pHYi8dqAAqTvnDmlTErnsRAFifx7Xo4Y/MtiBAqRsmz2wZTFkrRMFOL30naeq+iFXHSjA9T8+e7V5EeSnAwXIOfHD6Mcru5CVDhTgym/T+zcJQSY6UIDso9+O6lIJ2edEAS5v+KhPo0LIOQcKkHXw6xGdsGuyIwVIXBv9fAN04jhRgIx9C6Lal0VGOVGAP1dN6l2nAPLIgQKk7f5iaNvSyB0nChC3/P2eNQOQMQ4U4Mb2Oa+3Ko4scaIAMT+92706+m6dyFtbZr7WIgz5AAAAAAAAAAAAAAAAAAAAAAAAAAAAAAAAAAAAAAAAAAAAAAAAAAAAAAAAAAAAAAAAAAAAAAAAAAAAAAAAAAAAAAAAAAAAAAAAAAAAAAAAAAAAAAAAAAAAAAAAAAAAAAAAAAAAAAAAAAAAAAAAAAAAAAAAAAAAAAAAAAAAAAAAAAAAAAD+D/qv0G1Ud/hYAAAAAElFTkSuQmCC;" vertex="1" parent="1">
          <mxGeometry x="630" y="224.63" width="130" height="130" as="geometry" />
        </mxCell>
        <mxCell id="4tqr_Nl9Fvb0LUBX_hIL-63" value="" style="shape=image;imageAspect=0;aspect=fixed;verticalLabelPosition=bottom;verticalAlign=top;shadow=0;dashed=1;fontSize=14;fontColor=#000000;strokeColor=#0000FF;strokeWidth=2;fillColor=#FFFFFF;image=data:image/png,iVBORw0KGgoAAAANSUhEUgAAAgAAAAIACAYAAAD0eNT6AAAABHNCSVQICAgIfAhkiAAAAAlwSFlzAAAOxAAADsQBlSsOGwAAABl0RVh0U29mdHdhcmUAd3d3Lmlua3NjYXBlLm9yZ5vuPBoAACAASURBVHic7d13uCVFmYDxd+4MAwwMMIAgSZAcREREQVQUMCCgIuYA5qxgFkHFiBgwrVlXZdVd3dV1V1cUFUHMIqICCgiIZJDMkCbU/lGnFcd779x7zqn+6px+f8/zPe4q3K6vurqrTnd1FUiSJEmSJEmSJEmSJEmSJEmSJEmSJEmSJEmSJEmSJEmSJEmSJEmSJEmSJEmSJEmSJEmSJEmSJEmSJEmSJEmSJEmSJEmSJEmSJEmSJEmSJEmS1Ko50QWQ1IoJYINerAksAFbp/W9LgFuBW4Cre7E8oIySWuQAQBovqwC79WInYHtgO2BDYO4M/8ZS4CrgXOCPwNnAr4EzyIMFSWPAAYA0+u4DHADsB9yf/Ou+hFuBXwLfB74F/LbQcSRJ0hR2AT4AXAykoPgz8H5g57KpSpLUbasDLyQ/io/q9KeK04EXAKsVy16SpI5ZHziGPDkvuqNfWVwFvBlYr0RFSJLUBQuA1wPXE9+xzzZuBt4NLBx6rUiSNKbmAM8ELie+Ix80LgeeMdzqkSRp/GwNnER8xz3sOBXYYYj1JEnSWJhDnkS3mPjOulTcBhyOnx9LkgTk1fn+j/gOuq34X/LERkmSOmsX4CLiO+W24xLyaoWSJHXOExnvR/4ri5uBxw9ci5IkjZAXA8uI74SjYzl5XoAkSWPv9cR3vLXFuweqUUmSKvcW4jvbWuPoAepVkqRqvYz4Trb2eGXftStJUoWeQX7fHd3B1h7LgKf2WceSJFVlD+B24jvXUYnbgAf0VdOSJFViI+BS4jvVUYvLgU36qG9JksLNBU4jvjMd1Ti1V4eSCvDiksp5E3BYdCFG2ObAHeRBlCRJI2EPYAnxv6JHPe4E7j/LupckKcQ84EziO89xid8Dq8zqDEhaKV8BSMP3OuDp0YUYIxsAtwA/iS6IJElT2YJub/BTKhb36lbSkExEF0AaM+8FFkQXYgwtAN4TXQhJkibzIFztr3Q8dKYnQ5KkNkwApxPfQY57nIlzlyRJFXkR8Z1jV+KFMzwnkqYxJ7oA0hhYBzgPuFt0QWboTuAK4Mbe/782ecni+WElmp1rgG2BG6ILIknqtuOJ/1U8XVwGfAR4Mnkm/WSTfyd6/9tTev/s5RWUe7o4fopzIUlSK7Yj/6KO7hAni28B+9Df1z5zgX2B/6sgj8niTnLdS5IUosYO8kcMdzvdPYAfV5DXivF/Q8xRkqQZO4D4TvCusQQ4hjKz5CeAw6nvacejC+QqSdKUVgH+QHwH2MQN5HUISntI71jR+TbxB9wnQJLUolcR3/k1cSPDfeS/Mnv2jhmddxOvLJuuJEnZ3YDrie/4EnmN/AeWTXdSewG39lHeEnE9o/MJpiRphH2S+E6viWeVTXVaz5miTBHxicK5SpI6bhdgKfEdXgK+WjjXmfgv4ushkc/JLoVzlSR12A+J7+wSeSLeRoVznYmNqGdS4A8L5ypJ6qgnEt/JNfGqwrnOxquJr48mnlA4V0lSx6wGXER8B5eA84FVy6Y7K/OBPxJfLwn4C7CgbLqSpC55E/GdWxMHFM61HwcSXy9NHF04V0lSR2wC3EJ8x5aA7xXOdRDfJr5+EvnTyHsUzlWS1AFfJL5TS+SlfncqnOsgtqeepYL/rXCukqQxtwewnPgOLQEfKJzrMHyQ+HpK5HPWxtLIkqQxNAf4BfGdWQKuBdYrm+5QLAKuIb6+EnA6/W2FLEnquGcR34k18aKyqQ7Vi4mvryYOK5yrJGnMrAlcRnwHloCzgHll0x2qucCZxNdbAq4E1iqbriRpnBxLfOfVxMML51rCw4ivtybeVThXSdKY2BK4jfiOK5HX2h9VtewTcAewTeFcJUlj4OvEd1oJuB3YunCuJd2TegZSXyucqyRpxO1DfGfVxDsK59qGdxJfj008onCukqQRNRf4LfEdVQKuYDwmr9U0mfJsRmsypSSpJS8hvpNq4pmFc23TocTXZxMvLpyrJGnEuIBNOXOAnxNfr4nRWVBJktSSDxHfOSXyErYPKJxrhN2AZcTXbyIvVyxJEjtQzyY2Xyica6QTiK/fRN5U6V6Fc5UkjYATie+UEnAzsHHhXCPdHbiR+HpOwPcL5ypJqtxBxHdGTbyxcK41OIr4em7iwMK5SpIqNR84l/iOKAEXAquVTbcKqwLnE1/fCfhTrzySpI55LfGdUBOHFM61JocQX99NvKZwrpKkymwA3EB8B5SAkwvnWqOTiK/3BNwEbFQ4V0lSRT5DfOeTgKXALoVzrdFO5Nn40fWfgE8XzlWSVIldqeeb9I8VzrVmHye+/hO5LdyvcK6SpAqcSnynk4DrgfUL51qzdYG/En8eEvAT8oqFkqQx9RTiO5smjiic6yg4gvjz0MSTC+cqSQqyOvBn4juaBPwBWKVotqNhHnAW8ecjAZcAa5RNV5IU4RjiO5km9i+b6kjZj/jz0cRbCucqSWrZpsAtxHcwCfhm4VxH0beIPy8JuBXYvHCukqQWfZn4ziUBdwDbFc51FG0N3E78+UnAlwrnKklqyZ7kbXajO5YEvK9wrqPs/cSfn0RuKw8unKskqbAJ4JfEdyoJuApYp2y6I20t4Ariz1MCziC3HUnSiHou8Z1JE88vnOs4eAHx56mJ5xTOVZJUyELgcuI7kgT8BphbNt2xMAH8ivjzlchPbNYum64kqYTjiO9Emti7cK7jZC/qmbPx7sK5SpKGbCvqmVX+lcK5jqOvEn/eEvmrjW0L5ypJGqL/Ib7zSOTvyrcom+pY2gxYTPz5S8A3CucqSRqSfYnvNJp4a+Fcx9nbiD9/TTyycK6SpAHNBX5HfIeRgEtxbflBrA5cTPx5TMA5uHeDJFXt5cR3Fk08rXCuXfB04s9jEy8rnKskqU+LqGd/+Z/i/vLDMAc4jfjzmYDrgPXLpitJ6se/EN9JJGAZcP/CuXbJfcl1Gn1eE/CRwrlKkmZpR2AJ8R1EAv61cK5d9Dniz2sClgI7F85VkjQL3yW+c0jATcBGhXPtog2BG4k/vwn4QeFcJUkz9DjiO4UmXl841y57A/Hnt4nHFs5VkrQS84HziO8QEnABsGrZdDvNcy1J+puafhU+rnCugoOJP89N+LRHkoL4XribnO8hSR33OeI7gYQzw9vmFx+S1GF+G95trvkgSR00B/gR8Tf/hKvDRXHVR0nqoJrWh3954Vw1tVcQf/6bcN8HSSrMHeLUmIc7P0pSZ7hHvO5qX+LbQRNvLZyrJHXWZsBi4m/0CfhG4Vw1c/9DfHtIwK3AFmVTlaRu+grxN/kE3AFsWzhXzdxWwO3Et4sE/EfhXCWpc/YClhN/g0/AcYVz1ey9h/h20cTehXOVpM6YAH5F/I09AVcBa5dNV31YCFxOfPtIwG+AuWXTlaRueD7xN/UmnlM4V/XvucS3jyaeXzhXSRp7C4EriL+hJ+AM8tMI1WkC+CXx7SThkyJJGtj7iL+ZN/HgwrlqcHtSz1yR9xbOVZLG1tbUM7v7y4Vz1fD8O/HtJZG/FtmucK6SNJa+RfxNPJG/7968cK4ank2BW4hvNwn4ZuFcJWns7Ef8zbuJtxTOVcN3DPHtpon9y6YqSeNjHvB74m/cCbgE13gfRasDfya+/STgD7hnhCTNyBHE37SbeHLhXFXOU4hvP00cXjhXSRp561LPPu8/wX3eR92pxLejBFwHrF84V0kaaR8n/madgGXA7oVzVXm7ks9ldHtKwMcK5ypJI2snYAnxN+oEfLpwrmrPZ4hvTwlYCuxSOFdpxny8qZqcBDw8uhDAzeTvt6+ILsgAViXnsB2wPbADeavahcCa5FXq1ur9szcBN5A/nbuFPHnuHOBc4I/AeeRv2kfVBuQcaliZ74fAPtGFkKSaHEL8L7QmXlM41xLmArsBrwe+x3AXUFoCnA68m/x55vyWchqm1xLfrpp4fOFcJWlkrAqcT/yNOQF/6pVnFEyQn5h8kfwrvq06uhH4N2BfRmdvhPnkJxrR7SsBFwKrlU1XkkbDUcTflJs4qHCuw3BP4G3AxcTX18W9styzaMbD8Rji66uJNxbOVZKqtyH5F2X0DTkB3y+c66DuCXySeiZK3jWWAV+l/rXvTyS+rhJ5nsnGhXOVpKp9gfibcSJ3qvcqnGu/tic/5l9KfD2tLJaSXw/UOhDYAbiT+HpK5LYvSZ20G/V8o/2hwrn2Y3XymvZ3EF8/s40l5Dpdc9iVMgQfIr5+Ennb4gcUzlWSqjMH+DHxN+EEXAusVzbdWdub/AledN0MGhcAjxhy3QxqEXAN8XWTgJ/h59iSOuZQ4m++TbykcK6zsSb1vBYZZnyOujZVeinxddLEMwvnKknVWAD8hfgbbwLOJu8+WINtqGcXxBLxB/I7+BrMBX5LfJ0k8oJTzaJMkjTW3kH8TbeJWh5PHwhcT3x9lI6byIs+1WAf4uujiXcUzlWSwt0TuI34G24Cvl4415l6E3lCWHR9tBXLyWs/1ODrxNdHIq/cuHXhXCUp1H8Rf7NN5Jn12xTOdSbeRnxdRMVxQ6i/QW1JPQPS/yycqySFeRjxN9km3lU415WZAxxPfD1Ex0eJnwV/LPH10EQNm2FJ0lDNBc4k/gabgCuJn3T1L8TXQy3xLwPW5aDWBC4jvh4ScBb1TEqVpKF4EfE31yYOK5zryhxJfB3UFm8YqEYH9yzi66CJF5ZNVZLasw5wNfE31gT8mtgd7A6mntUPa4rlwJMGqNdBzQF+MUm5IuJaYN2y6UpSOz5A/E216WQeVDjX6ewK3DJJuYwctwK79127g9uDer7GOL5wrpJU3PbUs/nKvxXOdTrrApdMUS7j7/EX8lK9Ub44RbnajiXAToVzlaSivk38zTQBi4F7FM51Ol+aolzGP8cJfdbxMGxCPU9pvlc4V0kq5gDib6JNHF041+k8dppyGZNH5GqBb5qmXG3HowvnKklDtwr17Gb3F/L+AxHWJ392GF0HoxZXAxv0Ud/DsBpw0QzK2EacD6xaNl1JGq5XE3/zbOKJhXOdzgnTlMuYPj4/++oemidOUaaIeFXhXCVpaDagno1tfkzcSnP3xk/+BollwH1mXevDc8okZYqIG4G7l01VkobjU8TfNJsOZLfCuU7nxCnKZcw8vjnrWh+e+wBLpyhX2/HJwrlK0sBquml+onCu03nINOUyZhcPm2XdD9MnpylXmxE9mJWklTqF+JtlIv6x6WlTlMuYfZwyu6ofqrvh6yxJWqknEX+TbCJy4tQu05TL6C92ndUZGK5XTVOutiNyQqskTWp1/HSqUcsciHGKj83qDAyXn7RK0jTeTPzNsYnIxVMWAjdNUS6j/7iZ2C2ca1rU6k2Fc5WkGatp+dSTCue6Mi8lvg4miyXAD8kDtYPJj9S37MWuwON7/9spvX82uryTxYtnfhqKqGVZ61uJXdZakv7GDVT+7hTi6+GucTVwJLObELkRcBRwTQXlv2v8YBY5lODGVpJ0F3viFqqNRdTz63kJ8F5gjQHyWRN4P/V81nknsPYA+QzD8cTXQyJ+a2tJHTcB/IL4m2ECriVvuRvpqcTXQwKuYLidw0OoZz+DJw0xr36sQ36qEl0PCfg1+RqUpNY9m/ibYBMvLJzrTNSw5e+fKPN+eAvgggry+0KB3GbrRcTXQxPPKpuqJP2zNYHLib8BJuAsYF7ZdGck+pfhZcBmBfPbjPhzfnnB/GZqAjid+HafyE9mIr+OkNRBxxJ/82vioWVTnZFNia2DO4D7Fc8S7k/8RLiNime5cg+inrkvxxbOVZL+ZkvgNuJvfAn4z8K5ztRBxNbDUeVT/JvoNR/2L5/ijPwn8e0/kQd/2xTOVZIA+G/ib3qJPAi5Z+FcZyqyU7yQdlc+nE/sfIA3lk9xRjYDFhN/HSTg64VzlST2If5m18TbC+c6G18jrh6eVT69f/K8Pss6jPhqC/nN1DuIvw6aeEThXCV12Fzgd8Tf6BJwKXkiYi3OIKYeriXvw9C2BcB1fZR3GPGrFvKbqQXAxcRfDwk4mzomw0oaQzUtc/uMwrnO1mXE1MO/tpHcFP5tmnKVjIvbSG4Wnkn89dDESwrnKqmDFlHP0rA/o6590eeQJ2JF1MVTW8hvKlEd321tJDcLc4DTiL8uEvmJ0Hpl05XUNR8m/uaWyJ9ePaBwrrO1LnH1sV0L+U1lp2nKVTpq+/Z9N2AZ8ddHAj5UOFdJHbID8d9+N/H5sqn2ZRvi6qPN2f8rWn2acpWOLVvIb7a+QPz1kcj7QOxcOFdJHfEd4m9qibwn/MaFc+3HtsTVR7Soz+C2aiO5WdoQuJH46yQB3y+cq8aAG0loZR4DPDK6ED3voo6lYFe0JLoAHbQ0ugCTuAo4LroQPfuSF6eSpL7MB84l/tdMIi92s1rZdPu2GTF1UsPAI2r7403aSK4P84HziL9eEnljqMhXRKqcTwA0nSPIj7dr8Brg9uhCTCGqI55H/g49ygLivjuv8QkA5Lkyb4guRM9WwCuiCyFp9GwA3ED8r5gEnFw410EtIq5uIjfG2XCacpWORS3kN4iTiL9uEnATdWyeJGmEfJb4m1ci/9K7d+FcBzWPuPqJfEITNfkxUf+KdzsR93pkxfhM4VwljZFdqeeb5o8VznVYbiWmftrYAngq95umXCVjcRvJDcHHiL9+Evla3r1wrpLGxKnE37QSea359QvnOixXElNH+7SR3BSiNoa6oo3khmBd4K/EX0cJ+Al1rZ6pCjgJUCt6KvCQ6EL0vJV8Ax0FNwUdN3JFvKhjR9X1bF1HPTtWPhB4cnQhJNVrdeDPxP9aScA5wCpFsx2uXxFTT4e2kdwUDp2mXCXjl20kNyTzgN8Tfz0l4BJgjbLpapT4BEB39Xpg8+hC9LyKOr5znymfALRnVJ4AQJ7E+sroQvRsCrw2uhCqhwMANTYlf2tfg2+Rlx8eJQ4A2jNKAwDIy/J+K7oQPa+jnkG+gjkAUOO91PF48E7qGYjMRlSntDDouJHHHrUBAORFte6ILgT5Nd+x0YVQHRwACOqaIPRh8vLDo8YnAO0ZxQHABcC/RBeip6aJvgrkAEATwAep4xOhq4F3RBeiTw4A2jOKAwDIX7VcGV2Ing/i/b/zbAB6NvUsEnIUeTvVURS1NW8XBwA1bIPcj5uBN0cXomdX8rWvDnMA0G0Lqec75TOBz0UXYgA+AWjPqD4BgLzE9unRheh5F7B2dCEUxwFAt72JejYKOYK8ZOmocgDQnlEeACwHDid/lx9tA+CN0YWQ1L6tyNvrRi9OkoD/KJxrGx5DTN39qY3kpnD+NOUqGQe1kVxhXyH+ukvkLxNq2fJbUkv+l/ibTyJvorNF2VRb8VBi6u/qFnKbylXTlKtk7N1GcoVtRt7UKPr6S8D/FM5VUkX2Jf6m08QxZVNtzX2Jqb/b20huClFPkHZtI7kWvJX466+JRxXOVVIF5gG/I/6Gk4BLqWPxoWHYmrh6XLWF/FY0f4DyDhpbtZBfG9x7Q1KrXkH8zaaJpxXOtU0bEFePd2shvxXdbYDyjmK+pTyN+OuwiZcXzlVSoJr2J/8pdSw+NCyrEVeXEb+ItxqgvINGxBOPUuYAPyL+ekzk7YvXL5uupCgfJf4mk8if+92/cK4R7iCmPiPeie86QHkHicg5D6Xcl3xNRF+XiXqWK5Y0RDuSt9eNvsEk8mIo4+gaYupz7zaSW8HeA5R3kIj86qGkfyX+ukzk7YvvXThXVcKFgLrjA+QJgNFuBo6OLkQhXVoMyEWAhutI6lgGey75XqEOcADQDQcDj4guRM87gSuiC1GIA4DyxnUAcBX1bNO7D/C46EKoPAcA428+cFx0IXouJO9CNq4cAJQ3rgMAyL+8z48uRM/7yRNbNcYcAIy/VwPbRBei51XkiXLjygFAeeM8ALgTeF10IXq2JO/PoTHmAGC8bQi8IboQPScz/kuORnVOCztyTKjjPXlJ3wC+G12InqOAjaMLoXIcAIy3dxO7W1xjGd34NeETgPLG+QlA41XkL3airUmes6Mx5QBgfN0XODS6ED0fB34fXYgWRP06dQAwXs4BPhldiJ5DGc81O4QDgHE1B/gQdZzf68mbnnTBzUHH7dIAIKqO2/Zm8qqd0SbIE3fHadVO9dTQQWj4ng48KLoQPbXcyNrgK4DyuvAEAOoaOO/JeO3bIY2t1YGLiV9RLAFn060dxg4jpp5/2UZyK/jlAOUdJGp5rdWGubhzpwryCcD4ORK4R3QhemqZzNQWnwCU15UnAFDX5NlNgNdHF0LS1DYDFhP/ayGRP2fqmn2JqevL20huBZcPUN5BYp82kqvMN4i/nhNwK7BF2VQl9eurxN8kEnmxn20L51qj3Ymp71vaSG4FtwxQ3kHifm0kV5ktybsgRl/XCfhK4Vwl9WEvYDnxN4hEXn+gi7Yjrs7b3OhpLnFtrYsDS8jLeUdf103sXThXSbMwAZxO/I0hAVcCa5dNt1obEVfvi1rIr7GoYB4ri7u3kF+NFhL32mXF+A15ECipAi8g/qbQxLML51qzNYir981byK+xecE8VhYLWsivVs8h/vpu4vmFc5U0A2uRt9eNviEk4Az8smQJMXW/cxvJ9excMI/poktflExmAvgF8dd5Im9fvE7ZdFVa12/W4+At1PFYNAGHk98Nd1kXVgP0E8AYy8mfBaboggAbAEdHF0Lqsq2pZ3bwlwrnOir+TEz9799Cbo39C+YxXVzURnIj4MvEX++JvH3xdoVzVUE+ARhtHwJWjS4EcBvwxuhCVKILiwFFTfLs+hOAxuvI631EWwV4f3Qh1D8HAKNrP+DR0YXoeTd5+WF1YwDgK4BYlwLvjS5EzwG0+/RJQ+QAYDTNI+/QVYNLgfdFF6IiDgDKcQDwd+8hv26qwfF0a8+PseEAYDS9HNgpuhA9ryEvEaosqpNaOKbHuisHAH93G/CG6EL0bA+8NLoQmj0HAKNnXeqZfftT8vLD+jufAJTjAOAffQX4UXQhet4C3C26EJodBwCj513kQUC05eTP/mr4JKkmDgDKcQDwz44g7xoYbR3gbdGF0Ow4ABgtOwHPjS5Ez2fJyw/rH7kOQDkOAP7Zb4DPRRei5/nALtGF0Mw5ABgtH6DdTV+mcjPw5uhCVMonAOU4AJjcUcCN0YUg7w9Qy+RkzYADgNHxBODh0YXoeRt50x/9MwcA5TgAmNzVwDuiC9HzUOCQ6EJI42RV4HziV/5KwJ+oY/GhWj2BmPNyVhvJ9ZxdMI/pwo5lavOBc4m/PyTymiBd3rRpZPgEYDS8hrzsbw2OAO6ILkTFfAJQjk8ApnYn+T5Rg3sAr4wuhDQONiG/c48e1Sfge4VzHQd7EHNubmgjuZ4bC+YxXTygjeRG3InE3ycSeaniexTOVRp7JxB/MSfyVqz3KpzrONiRmPOzjHae6E30jhWR4w4t5DfqdiA/DYi+XyTyvUtSn/Ygf28ffSEnnN07U5sSd47aeDS/VmB+m7SQ3zj4IPH3i0S+dz2ocK7SWJoD/Jz4izgB1wLrlU13bER2kJu2kF/kACdqCeJRswi4hvj7RiKvFeJcM2mWDiX+4m3ixYVzHSeRj8h3bCG/cX/FMS5eQvx9o4lDC+cqjZU1gcuIv3AT+fOyGhYfGiVRk+T2aCG3LkxyHAdzgd8Sf/9I5DVDor4c0TQcUdfpSGDj6EL0vBJYGl2IETPOnwL6CeBoWEb+ZLcGGwKvjy6ENAruSd7qM3rUnoCvFc51XEUtlPOEFnLrwkJH4+RrxN9HEnA79axloh6fANTnfcBq0YUgf0pUy37jo8YnAMPnE4D+vIbc+UZbFXh3dCH0jxwA1OVhwOOjC9HzPvLyw5o9BwDD5wCgPxeRNxGrwSHUs5+JcABQk7nUc6FeBRwXXYgR5gBg+BwA9O9dwOXRheipZUdT4QCgJi+gnr20X4c33EFE1V0b38lHfYtve+zfLcAbowvRsxPwvOhCKHMAUIdF5C12a/Br4IvRhRhx4/wEYO0WjjEZBwCDOQH4RXQhet6JC4tVwQFAHd4CrB9dCPJs3SPIS3iqf+M8APAVwGhqru0UXRBgXeDo6ELIAUANtiev2lWDLwI/ji7EGLg56LjjPACIqtNx8nPgS9GF6HkZbi4WzgFAvOOBVaILAdyKo/Jh8QnA8N0YdNxx8wbynIBo86hn0nNnOQCIdSCwf3Qhet4F/CW6EGPCAcDw+QpgOC6jni989gMOiC6EFGE+8EfiV+hK5I5/Qdl0O+XRxJzHi1rI7c9BuT2qhdy6YjXgQuLvO4m81siqZdPVVHwCEOcVwHbRheh5FfkVgIbDJwDD5xOA4bmd/KlvDbYmzweQOmMD8u5m0aPvBJwGzCmbbufcm5hzuaSF3JYE5eaEseH7IfH3n0Qe3N29cK5SNT5F/EWXyDuG7VY41y7agrhzWvJVzhqBed2jYF5dtRNxA7oV41OFc5WqcB/y9rrRF1wCPlE4165aRNw5LflLaqPAvNYpmFeXfYL4+1Ai/xi5X+FcpXCnEH+xJfJnVT52K2MueTGliPO6bcG8tgvKaTm5TjV86wLXEn8/SuQ1SHwd2SInAbbrycDe0YXoOQa4MroQY2oZcZMqS07Si5oAuJhcpxq+64B3RBeiZy/gidGFkEpYnfyZVvQoO5E/vZlfNt3Ou5yYc7tPwZz2DcrpsoI5KS/Kcxbx96WEnyS3yicA7XkteXJYDV4B3BldiDE3jp8C+gngeFoKvDK6ED2bAa+JLkRXOABoxybU893tt4ETowvRAQ4AhscBQHnfI98bavAG/OqjFQ4A2vEe8idU0ZaQF/1ReQ4AhscBQDsOB+6ILgT5dem7ogvRBQ4AytsTeGp0IXo+ApwbXYiOGMcBwMKCf3s67gTYjj8BH40uRM/TgAdHF2LcOQAoawL4IHV82nIN8PboQnRI1ABg84J/+54F//Z03AmwPW+ljq+D5pDvnfZRBVm5ZR0G3D+6ED1Hk5cfVjuiiMeSeAAAHXNJREFUBgA7F/zb9y74t6fjE4D23ET+RLgG9yXfQ6WRs5C4T8FWjDNxIZW2HU3Mub6NvLjLsK1H3kQmIqejCuSjqU0ApxN/30rkpxFRc0/Gnk8AyjmKvHRqDY7AhVTa9peg465Gfn86bM8kbtvWi4OO21XLyRMCU3RBgA2BI6MLIc3GlsT9Wloxvlo4V01ub+LO+QXkmdTDsoDYRaycDBbjq8TfvxL5y4RtCucqDc03iL9oEvlx8BZlU9UUtiD23A9zedd3B+ey2RBz0cxtRl6GOfo+loD/LpyrNBT7EH+xNPG2wrlqahPkSZdR534p8IQh5PFYYnevvB5fVUZ6O/H3sSYeWThXaSBzgd8Rf6Ek4FLqWHyoy75HbBu4DThwgPI/pvc3InP4zgDl1+AWkOdgRN/PEnA2ed8CqUovI/4iaeIZhXPVytXw62k58E5mN4FvNfJj/6gtje8ax8yi3CrjGcS3gyZeWjhXqS+LyIvtRF8gCfgZdSw+1HWPJr4tNPEX4MVM/4ngeuQb7KUVlLcJH/vGmwOcRnxbSOTti9crm2532EkMz0fITwCiJWAP4JfRBRFrkAeFw5yRP6hl5AHiH4Arev/dxsAO5HZT03oRi4ENgFujCyLuC/yKOuZjfIS8o6lUhR3I2+tGj44T8LnCuWp2vk58mxjV+Eof9a1yPk98m0jkSaklV7yUZuU7xF8Uibxk6saFc9Xs1PT+dNTiSX3Ut8rZkLwvQ3S7SMAPCucqzchjib8YmnDFrPqsTfxM+lGMxcTtPqipHUl822jiMYVzlaY1n7y9bvSFkMirv61WNl316bPEt49Ri0/0VdMqbT5wHvHtI5G3L45anlridcRfBE0cXDhX9e9e1PFJ3SiF73jrdTDx7aOJ1xXOVZrUBsSu9HbX8H1Y/U4hvp2MSnyvvypWi75LfDtJ5O2La9l0TR1Sy2PdpcTt066ZeyTxbWVUYr8+61jt2RFYQnxbSeR7sdSaXcnfU0c3/AR8tHCuGp6TiG8vtceJfdeu2vZR4ttLIt+Ldy+cqwTkxZN+RHyjT+RVsdYvm66GaBfqGTjWGMvIg2uNhnWBvxLfbhLwU1zYTi14GvGNvQlXwxo9nyO+3dQanxmgXhXjFcS3myaeWjhXddzqwJ+Jb+gJOAdYpWi2KmEd4BLi209tcRl5Pw2NlnnA74lvP4l8XbkDqoo5hvhG3sSjyqaqgh6BnwWuGPsPVKOKtC/x7aeJY8qmqq7aFLiF+AaegP8tnKvKq+UrkhriUwPWpeL9L/HtKJE3jtq8cK7qoP8gvnEn4A5g28K5qrzVyDs2Rren6Pg1sGDAulS8rYDbiW9PCfj3wrmqYx5IPY9s31M4V7VnY/K77+g2FRVXkJ+saTy8l/g21cRDCueqjpgg74Md3aATcBV5cxmNj73o5mZBtwJ7DKH+VI+FwOXEt60EnAHMLZuuuuB5xDfmJp5bOFfFeATdGgTcARwwlJpTbWq6Xz6vcK4ac45o1ZZHUc871NKd/0FDqjPVZ4J65rb4xFQD8Z2W2vQYYDHxba1ULMbOvwucM6WR56xWRbgP47lQ0OW4XnuX+NWURto3iW+8Cb9r7aLNgDOJb3vDijNwtn/XuG6KRpYrWynaasCHqOdRaj+xHPgkLs/aVccQ3wabcOVUzYhrW6smj2A01wq4CjiwQH1odLh3ikbO4cQ31ibc3UqQt3z+BLCU+Da5slgKfAxYr0hNaNQ8lfg22YS7p2pa7m+tmm0PfJv4tjlV/AC4d7HsNapOJb5tJuA68mBamtTHiG+kCViGM6Y1tX2B71DH/IDlwInAPkUz1ijblXxPi26rCfho4Vw1onYElhDfQBN5pzhpZXYBvkDMbOubgc/jL37NTC27Xy7FNqtJfJf4xpmAm4CNCueq8bIG+V3r/5K/ey7VNm8HvgE8BXfw0+xsANxA/P01AScXzlUj5vHEN8omXlc4V423BeRXBG8DfsRgTwduIb+/fSv5Eb+dvgbxOuLvr00cXDjXkeAkM5gPnAVsE10Q4AJgJ/KvOGlYNiG3722Au5OfGCzi75+Y3kL+dXYL+fO984HzyKv3ScMyn/yJdQ0r811IvtfeHl0QxTqS+NFoE48pnKskRXoM8ffZJo4snKsqtyFwI/ENMZE/oZKkcfcd4u+3iTyRdePCuapinye+ESbyzNSdy6YqSVXYAbiT+PtuIvcB6qDdqOfb1A8XzlWSavJh4u+7ibyOxf0L56rKzAFOI77xJfLqVC6bKqlLFgHXEH//TcDPcEJ8pzyD+EbXxEsL5ypJNXop8fffJp5ROFdVYgFwMfENLgFnk3cflKSumQv8jvj7cAIuBdYsm65q8HbiG1sTjyycqyTVbB/i78NNvL1wrgq2GbCY+IaWgP8unKskjYL/Jv5+nIDbgC3KpqpI/0l8I0vklf5qWHlQkqJtSe58o+/LCfhq4VwVZC/q2D41AccWzlWSRsm7ib8vN/HQsqmqbRPA6cQ3rARcCaxVNl1JGikLyXtPRN+fE3AmeYKixsQLiW9UTTy7cK6SNIqeTfz9uYkXFM5VLVkLuIL4BpWAX5OfRkiS/tEE8Avi79MJuBpYp2y6asPxxDemRJ5/8ODCuUrSKNuTeuZqvb9wripsa/KM++iGlIAvFs5VksbBl4i/XyfyhkXbFc5VBf0f8Y0oAbcC9yicqySNg02AW4i/byfgpMK5qpCHE994mnhz4VwlaZy8mfj7dhP7F85VQzYPOIv4hpOAv5D3H5AkzczqwEXE378TcD4wv2y6GqZXEd9omnhS4VwlaRw9ifj7dxOvLJyrhuRuwPXEN5gE/Bj3mZakfp1C/H08ATcCdy+bqobhE8Q3lgQsA+5XOFdJGmf3AZYSfz9P5L5FFduFehrLpwrnKkld8Cni7+fNj7rdCueqAfyQ+EaSgJvwcZEkDcMG1PNa9zR8rVulJxLfOJp4deFcJalLXk38fb2JJxTOtTXjMpJZDfgDsEVwOQD+BNyLvAKhFOluwPbk1cy2BTYH1gXWBNbo/SfkRVcW9/7zOuBi4DzgXOCPwDWtllr6Z6sAv6eOlfkuIV9Xt0YXRNnRxI8KmzigcK7SVDYmPwn7JLkTH1abvhL4KnmHtJ1ay0b6RwcSf39v4ujCuWqGNgFuJr5BJOB7hXOVVrQ98E7gQtpr5xcA76COX2Pqlm8Tf59P5CdmLu9egX8jvjEkYAn50b9U2prAS4GfE9/ufwa8hL+/TpBK2p68SU90u0/ACYVz1UrsQT1bR36gcK7SWsDrgb8S395XjL8Cx5DnGEglfYD49p7Ifc+DCueqKcwBfkF8I0jAtcB6ZdNVh60NHEv+vDS6ra8sbiS/klirSE1IsA55Ymp0W0/A6cBE2XQ1mcOIP/lNvKhwruqug8izjqPb+GzjCuBQxudLI9XlxcS38SYOK5yrVrAmcBnxJz6Rdx2cVzZdddCO1LOw1SDxA/J7W2mY5gJnEt++E/krGZ94tehdxJ/0Jh5eOFd1z6HkWcbRbXtYcRtw+FBrSIKHEd+2m3hn4VzVsyX5hhJ9whPwX4VzVbcsBP6d+HZdKr5Gfn8rDct/Ed+uE3nht20K5yrg68Sf7ATcDmxdOFd1x87kVSSj23XpOA8XE9Lw3JN6fhB+rXCunVfTI593FM5V3fEA6vy0r1Rch59PaXjeSXybbuIRhXPtrLnAb4k/wQknfWh4DiSvKR7dptuO24HHD6H+pJomhZ+Nk8KLeAnxJ7eJQwvnqm54BnkFyej2HBVLgKcPXItSvidHt+cmXlw4185ZhAs/aLwcSLc7/yaWAgcPWJfSHODHxLfnhAvDDd2HiD+pCZd+1HDsQd56N7o91xK34nWlwe0GLCO+PSfgg4Vz7YwdqGfzhy8UzlXj717kSXDRbbm2uJa8+JE0iBOIb8sJN4cbmhOJP5mJvDDLZoVz1XhbE/gD8W251jiPvBaC1K+7k/ejiG7LCfh+4VzH3kHEn8Qmjiqcq8ZfLVtX1xz/3nftStlRxLfjJg4snOvYmg+cS/wJTMDFwIKy6WrMvYD4djwq8Zw+61gCWBU4n/h2nMiLe61aNt3x9BriT14ThxTOVeNtW7r5rX+/sRhX2dRgDiG+HTfxmsK5jp0NgBuIP3EJOLlwrhp/3ya+HY9afLevmpb+7iTi23ECbgI2KpzrWPk08Sctkb9R3qVwrhpvTya+HY9quFKgBrET9ay18enCuY6NXckdb/QJS8DHC+eq8bYQuJT4djyq8RfylxNSvz5OfDtO5PUJ7lc417FwKvEnKwHXA3crnKvG2zHEt+NRjzfNttKlu1iXejba+gl5xUJNoabHpUcUzlXjbSEu+DOMuBbXBtBgjiC+HTfx5MK5jqzVgYuIP0GJvFjLKmXT1Zh7PfHteFzCWdQaxDzgLOLbcQIuAdYom+5oegvxJ6eJ/QvnqvG2GnA58e14XOJK8g8EqV/7Ed+Om3hL4VxHzqbUsznKtwrnqvH3HOLb8bjFs2ZzAqRJfIv4dpzIa4JsXjjXkfJl4k9KIm86tF3hXDX+TiG+LY9b/GA2J0CaxNbA7cS35QR8qXCuM1LDjMQ9qWd25PvxfaMGswVwIXW05xX9Gfgh8BvgAuBmcjnXJN8cdwUeRp2/TpaT6/aS4HJotL0PeHV0IciDgL2B06ILEmkC+AXxo7EEXAWsUzZddcDRxLflu8Zy8gY7e84ihz2B/+j9u9Hlv2scOYscpMksBK4gvi0n4AxyH9hZNb0rfX7hXNUNtcw2TuTH5oMsPrI7+YlBdB5NnDlALlKjpo25Orvx1ULqmSn9G2Bu2XTVARtSx6/m5cC7Gc5riDnkTxqXVZLXhkPISd02AfyK+PacyE+e1y6bbp2OI77ym9i7cK7qhqcS35YXAwcXyO2Q3t+Ozu9JBXJT9+xFHYP1RB6sd8qW1DMb8yuFc1V3RG9itZyyK409nvibpvtzaFi+Qnz/k4A7yFuGd8Y3iK/0RP4ec4uyqapDzie2Pbexbv4xQbk1cW7xDNUVm1HHU61E7hM7YR/iK7uJtxXOVd2xBrG/jn9EO58eziF/thuV5zJgQfEs1RVvI74fauKRhXMNNxf4HfEVncjbtLoms4ZlV2Lb8wPLp/g3DyB2sHPv8imqI1YHLia+P0rAOYz5HjQvJ76Sm3h64VzVLU8hri1/rYX8VhT5Gs+JgBqmpxPfHzXxssK5hllEPfsy/5Q6V2rT6HoLce35oeXT+yeRm6sc3UJ+6o455Fdo0f1SIm8hvn7ZdGN8hPjKTeR3iPcvnKu653PEtOcriVlNbAK4uo/yDiM+20J+6pb7UsdaF4ncV7airRvHjsALWzrWypwA/DK6EBo7C4OOewr5fXzblveOHWGtoONqfJ1B7htq8GJg5zYO1NYA4HjqmNxwC3BUdCE0lqI6pd8GHRfyhN4IUYMtjbc3ADdFF4I8Wf6DbRyojQHA46jn84Z3kpcfloZtzaDjXhR0XMi7HkZwAKASrgKOjS5Ezz7AY6MLMaj5wHnEv1NJ5O1PVyubrjos6vPWR7eR3BQOmKZcJSPqyYPGX2191qolky39BOCVwDaFjzFTryYvPyyNk8ivWaK2Mk1Bx9X4uxN4XXQherYEjoguRL82BG4gfhSVyNuiSiX9mJi2HbmexTOnKVfJ+HEbyanTvkt8v5XIcxI2KpVkyRH8sdSxzeEy8pMIqaRbgo67ZdBxAbYKOm4NE7U03l4JLI0uBHm+yztL/fFSA4D7AocV+tuz9Ql8Z6jybg467n2Djht57Ki6VnecA3wyuhA9hzFCa9e4qpK66DPEtfGIT2znE/eK71Mt5CeN/eq1JZ4APBV4cIG/24+3kE+gVNpFQcddRMxntvsT94ov6vNDdcv1wFujC9GzJ7lvrdrqwJ+JHy0lOrCzkqpyCHFt/eQW8lvRKX2WdRhxcPn0JADm4Q62M/ZW4iupiUcVzlW6q3sR2973L5/i3xxUMI+ZxA7lU5T+Zl/i+7Mmanki8U82AxYTX0EJ+J/CuUorWo08aziqzf+Wdp54zQfOCsiviaUUXhxFmsT/EN+vJeBWYIuyqfbnK8RXTgLuALYtnKs0mciOMQEfL58inwrML+EXPYqxFXkhuej+LQH/UTjXWXsgeXew6IpJwHGFc5WmUsOW1y8pmN/LK8jvAwXzk6bzHuLbfxN7F851xiaAXxFfIYm8mUMNiw+pmw4m/hpYAryiQG6HE/uKo4nHFMhNmomF5M3koq+BBPyGvGtguOcTXxlNPLdwrtJ01iWvPBl9HSTg0+T39YOaD3y2gnwSeQCyzhBykvr1XOKvgyaeVzjXlVoIXEF8RSTgDOI2J5EavyT+Wmjij8Dj+8xjDvnTxnMryKOJn/aZizQsE9RzjYc/8X7fJIWKiocUzlWaiVcSfy1M1nE+hbxOx8qsTl5w5GcVlHvFePkMyi+Vtif1zHl77yCJDLK04FbA2dTxSc6/A0+LLoRE3gXzUvICIrW5jdyx/4a8cuH1vf9+EXBP8tr+e5I/aazNEmAT4JrogkjAl6ljZb47gXuTn9S16pvEj34S+bvIzQvnKs3G/xF/XYxbuLaHarIpeQfQ6OsikfviVu03pIIPI44pm6o0a08i/roYt3jCrM6AVN4xxF8XTbS28u084PctJDSTuITK10ZWJ61C3rAm+voYl7iAOl+pqNs6uffN4QHJTRVPKZyr1K8XEX99jEs8f5Z1L7XlKcRfH00cXjhX1qWe/ZF/QoH9kaUhWZU8GTD6Ohn1uIThrGcglXIq8ddJAq4D1i+Z6McqSDKRF1vZvWSi0hAcQfy1MurxslnXutSuXalnAbCPlUpyJ/KnONEJJuAzpZKUhmg++d1c9PUyqnE2Lb3XlAb0GeKvl0ReLfPeJRI8qYLkEnATsFGJBKUC9qaeRUNGLR7WR31LETYAbiD+mknAycNO7pAKkmritcNOTirsy8RfN6MWJ/RV01Kc1xJ/3TTR7xLg/2Q+cH4FCSXgT9Sx8qA0GxsB1xJ//YxK/JW8oqI0SuZTz94ZFzKkFT3fWEEyTRw0jISkAAfgq4CZxHLgsX3WsRTtIOKvoSbeOGgyGwI3VpBIAr4/aDJSsOOJv45qj/f0XbtSHU4k/jpKwM3AxoMk8oUKkkjkrw92HiQRqQKrkHfmi76eao1f4Df/Gn07kDfpib6eEvD5fpPYnXq+bfxwv0lIldkUuJj4a6q2+DMD/lqRKvJh4q+pRH6l1teaOT+ooPCJPHlqvX4SkCq1DXAV8ddWLXENsP1ANSrVZRG5XUdfW4m8UuGs7F9BoZt4yWwLL42A3cnv6KKvr+hYDDxwwLqUavQS4q+vJma8W+Ac4IwKCpzIuw66C5jG1X7Us6d4RNzcqwNpHM0Dfkf8dZaAXzPDvXMeWUFhm3jETAosjbDdgauJv9bajmuBPYdQf1LN9iH+WptVf/q9CgqagK/PpLDSGNiKvMhV9DXXVlwEbDeUmpPq93Xir7kEfHdlBd2ZOhYruZ18U5S6YhPyFtfR117pOA338lC3bEnu06KvveXAvaYr6AcrKGQCjp1BpUrjZh5wDPV8fjvsm8+HcHc/ddOxxF+DibwY2aTmU8e7yCuBtWZYqdI4OoC8Hn70tTisuJr8ZZHUVWsClxF/Lf6VKRbbelwFhUvAs2Zep9LYWpf8i3mUnwYsJ+/qt8GQ60YaRYcRf00mpthr44QKCvZrYGI2NSqNuQdTz6dEs4nfAnsVqA9pVM0hL3cdfW1+fsWCzSV+1aLlwINmWaFSF6wCvIg8ez765rGyuBB4Aa7fIU1mD+In2v+VFa7PBwcXKAFf6qs6pe6YAJ4InEP89bpiXIAdvzQTXyT+ev2HH9tvDi7MrcA9+qtLqXMmyPuOfxW4jbjr9jbgK8CB+OpOmqlNiF8B9Oi7Fui7wYV5U58VKXXdOuRf3ifTzrfGt5M3Cnt+79iSZu9NxPa5JzYFmQvcFFiQi4HVB6hISdkC4OHkb45/Rn6yNuj1ubj3t95FXrffa1Ua3OrkLbCj+t0bgblzyEty/rFsrtN6NpPMSpQ0sDnkV2vbAduSVyRbCKxNXmtjzd4/dwv5R8ANvf/7QuBc4DzgL+QbhqTheg7w2cDjbwtwMHGjkAvITyAkSeqSecR+2fO4CWDH4mlO7RPkhU4kSeqSpeQ+MMqOE8RuuvNfgceWJCnSfwYee6sJ8icJEc4jP/6QJKmLLiRvBR5h4wnituY8Kei4kiTVIqov3GgCWC/o4GcEHVeSpFr8Oui460+Qvx2OcFnQcSVJqsUVQcddfQJYLejglwcdV5KkWkT1hatNAPODDr4k6LiSJNXizqDjrjoRePCFQceVJKkWUX3hHRPkHb0irB10XEmSahHVF94eOQDYPui4kiTVIqovvG0CuDro4LsEHVeSpFrsGnTcqyaI+wThwUHHlSSpFnsFHffKyAHA9uRtSiVJ6qId6W3LG+CKCeLWIQZ4SuCxJUmK9OTAY/8J4LHE7Ud8OXHrEEiSFGU++Ql8VP970ARwTvE0p7YRcFjg8SVJivBs4O6Bxz8HYAK4nrhRyKW4KJAkqTsWkvu+qH73OmBiAlgO/KxwstPZBDg28PiSJLXpOHLfF+Vn5L4fgKOIG4mkXkEeXy5XSZKqcBC5z4vsc4+8a4H2DC5MAm4A7tNXdUqSVL9dgRuJ72/3uGuhJoCrKijUlcR9EylJUinbUU8/O7Fi4T5bQcEScC3wkNnVqyRJ1dqDvOx+dP+agE9PVsADKihYE7cBLwbmzLR2JUmqzBzgJeQ+LbpfbeLRkxV0HrGLEkwWp+JywZKk0bMD8CPi+9G7xuXkvn5S762ggCvGMuCbwH4rqWxJkqLtBpwALCW+/1wxjpuu4DsQ/3nCdPFH4F/InwxuNF0ikiS1YCPgEOCjwLnE95NTxXLyJnx/M9k79m+R5wOMgtvIry1uBe4ILoskqRtWBRaQO//Vg8syU98ir0HwN5MNAB4GnNxKcSRJUhseSp5X9zdTzbL/OfCA0qWRJEnF/YIVFv+BSRYD6Hl92bJIkqSWvHGy/3KqAcCpwEnlyiJJklrwHaZ4rT/dQjv3AU4H5pYokSRJKmopsDtw5mT/43Sd+5XAIiZ5byBJkqr3QfKaBJNa2VK7C4FzgE2HWSJJklTUJcCOwC1T/QNTzQFo3Ay8iLyIgCRJql8CXsg0nT/M7P3++cAG5PcIkiSpbh/pxbRmutve6sCvgJ0GKZEkSSrq98D9gdtX9g+u7BVA4zbyWsc3DFAoSZJUzvXkvnqlnT/MfAAAeZODJ5N355MkSfVYBjyD/Np+Rmb7jf8FwE3Ao2b570mSpHIOB740m3+hn0V+fg6sAjykj39XkiQN11uB98z2X+p3lb+TgbuRJxpIkqQYH6HP/XsGWeb3RGBN4IED/A1JktSfj5Af/fdl0HX+TyLPNtxvwL8jSZJm7jjg1YP8gWFs9PMT4DLyxEA3DpIkqZw7gOcD7xv0D810IaCZ2Av4GrDhEP+mJEnK/go8ATh1GH9sNusArMxPyMsF/2iIf1OSJMEPgV0ZUucPwx0AQN596KHAEcCdQ/7bkiR1zVLyZ34PBy4d5h8e5iuAFd0b+CSwR8FjSJI0rs4g7+p3eok/PuwnAHf1O/K8gJcB1xU8jiRJ4+Q64KXk1+pFOn8oP2s/kXcR/Bh5CeEHAKsWPqYkSaPoVuB44EnAaeQ+tJiSrwAmsxF5fsALgHVaPrYkSTW6nvzK/EPAlW0dtO0BQGMh8FzgecBOQWWQJCnSWcCngX8Fbmn74FEDgLvaHTgMOBjYOLgskiSVdBnw38AXKPh+fyZqGAA05gD3Aw4CHtb7v1cLLZEkSYO5ndzRnwx8E/g1hd/tz1RNA4AVrQrsBtyX/Jpge2Bb8kqDLjksSarJMuAq4DzgD8DZwG/InX+V6+LUPACYygSwAXkgsABYA5jf+09JkkpbTO7UbwFuI3f8VwPLIwslSZIkSZIkSZIkSZIkSZIkSZIkSZIkSZIkSZIkSZIkSZIkSZIkSZIkSZIkSZIkSZIkSZIkSZIkSZIkSZIkSZIkSZIkSZIkSZIkSZIkSZIkSVLl/h9yymcr1jVdaAAAAABJRU5ErkJggg==;" vertex="1" parent="1">
          <mxGeometry x="600" y="187.15" width="32.85" height="32.85" as="geometry" />
        </mxCell>
        <mxCell id="4tqr_Nl9Fvb0LUBX_hIL-64" value="" style="shape=image;imageAspect=0;aspect=fixed;verticalLabelPosition=bottom;verticalAlign=top;shadow=0;dashed=1;fontSize=14;fontColor=#000000;strokeColor=#0000FF;strokeWidth=2;fillColor=#FFFFFF;image=data:image/png,iVBORw0KGgoAAAANSUhEUgAAAgAAAAIACAYAAAD0eNT6AAAABHNCSVQICAgIfAhkiAAAAAlwSFlzAAAOxAAADsQBlSsOGwAAABl0RVh0U29mdHdhcmUAd3d3Lmlua3NjYXBlLm9yZ5vuPBoAACAASURBVHic7d15mCZVeffx76wwzAwgiygCA4iADiiIGAOoBFBURNxNXJO4JCoKSowm0VfExC2RRXAXgltUNGpiVBSVUUACKiCgsi+CgOzDMjAzPd3vH3c/oWm6n1rOfZaq5/e5rvuSS+g6dU7Vc6rqrCAiIiIiIiIiIiIiIiIiIiIiIiIiIiIiIiIiIiIiIiIiIiIiIiIiIiIiIiIiIiIiIiIiIiIiIiIiIiIiIiIiIiIiIiIiIiIiIiIiIiIiIiIiIiIiIiIiIiIiIiIiIiIiIiIiIiIiIiIiIiIiIiIiIiIiIiIiIiIiIiIiIiIiIiIiIiIiIiIiIiIiIiIiIiIiIiIiIiIiIiIiIiIiIiIiIiIiIiIiIiIiIiIiIiIiIiIiIiIiIiIiIiIiIiIiIiIiIiIiIiIiIiIiIiIiIiIiIiIiIiIiIiIiIiIiIiIiIiIiIiIiIiIiIiIiIiIiIiIiIiIiIiIiIiIiIiIiIiIiIiIiIiIiIiIiIiIiIiIiIiIiIiIiIiIiIiIiIiIiIiIiIiIiIiIiIiIiIiIiIiIiIiIiIiIiIiIiIiIiIiIiIrHMyX0CPTMf2BrYHthu8n+XARsDG02JDSf/dy1wz7Rj3A7cDNwy+b83Tf7zlcDvgGuA8bjZEBFpTPVfx+gFoL0NgCcCe07Gk7Cbfn7kdO8DLsF+DBcDZwPnAqsipysiMqD6rwf0AlDfBsB+wLOBvYHlxL/Z61oL/BI4CzhjMu7IekYi0ieq/2TkbA+8ATgFuBuY6EiMAWcChwFbuZeKiIwC1X8ych4OHA6cT/4b2SPGsSayd2H9cyIis1H9JyNnIXAw9qa7hvw3baxYB5wGvARY4FJyItJ1qv9kJG0OvA8bZZr75kwdfwDej96KRUaV6j/VfyNpe+A44F7y34i5Yw3wBWCnoBIVka5Q/af6byTtBvwn1hSU+8YrLdYCXwQe17p0RaRkqv9U/42krYCT0Y1fJ9YBXwW2bVHOIlIe1X+q/0bSYuCddGsKSymxGmsmXNq41EWkBKr/VP+NpDnA64A/kv9G6npcD7wSLRol0hWq/1T/jaztgR+T/8bpW5wJ7NjgOohIeqr/VP+NpDnYqlVq7ooXq7Amxbk1r4mIpKH6T/XfyNoRWwc69w0yKvEjYJtaV0ZEYlP9p/pvZL0UuIv8N8WoxUrgVTWuj4jEo/pP9V9rXR7YsBD4V+CtuU9kBtcAvwWunozrsAE5t03G/dgCFPdi12BjbGetpcB6wBbYG+bW2BSeZcCulLmxxceBt2HzaEUkDdV/ZVD9l8HWwM/J/xY4AdyILa7xduCpwEYR870ZcADwDuDrwK0Z8z01fob9aEUkPtV/qv9G1t7kXbt6NdYHdAT5V42aCzwJ2+nqx9hbaK5yuR74k7jZFRl5qv8eoPpvxLwQuI/0F3cM+AHw18Am0XPZ3ubAG4GfkmfVr/uBv4ieS5HRpPpvONV/PXYo6S/qNcB7gEfFz567rYB/xN5MU5bZOuBNCfInMkpU/zWj+q8n5gAfJu1FPBN4Af2Y77kAeBnp+wzfkyJzIj2n+i+M6r8OmwN8jnQX7XvAU5LkLI+nAD8kXXkeQ7dnmojkpPrPl+q/DpkDfII0F+p0YK802SrCvthbfoqyPRH9CESaUv0Xz76o/gMKPjHs7enwyGnciI1m/YrzcRcAuwA7YGtzb4/NZd0MeBg2VWYjbO7rOmwhD7BlPG/ERvneDFwJXAL8ZvKfx5zP82CsnB/tfNzpjsXmyopIPar/VP+NrH8h7lvZOuDTwIZO57sZNvrzOKyvKcZI3dXAOcDRwPOxEa8eFgFHYiNYY5a5+sRE6lH9p/pvZP0DcS/E2cBuDue5O3ZRz8beTGOe80wxDvwCG+nqMR93Z2BF5HPW6FiR4VT/qf4bWS/GLmyMwl9N+E5OjwT+Drg40jmGxCVY5fHIgPzNxcpoTaRzXIfmyYrMRvWf6r+R9SRsbegYBX8psEfAue0L/Dd53nSbxhrgm8CBtB/jsSdweaTzux94csvzEukr1X+q/0bWo4A/EKfAv0W7vq652CCRsyOdV4r4NfBqYF6L/C/FBgfFOK/r0NrZIgOq/1T/jawNgF/iX8jjwD/R7i3wecDvIpxTrrgIW0a0qTlYP1+MZsmfYaOFRUaZ6j/VfyPtM/gX7hjw2hbnsgc2Jzb3DRsrTgee0KJcXkyc5snjW5yLSJ+o/lP9N7JeiH+h3gsc1PA8lmKLbsQagFNSjGF7WDdtFtwTm5vrfT6vbHgeIn2h+k/138jWf1vhv5/z7cA+Dc/jQGzTi9w3Zuq4Fti/YVntjH9f5Upgm4bnIdJ1qv9U/41s/TcP/zmX1wPLG5zDIuI0v3UpxrFmqA0alNtO2CAWz/M4jbJXpRTxpPqvjFD9l4n3Yhe30ezmXwac63wOXY5f02w5zO2xN2jPc3hzg/RFukz1X1mh+i+hHfBdKnIVzZq9ng/c6Zh+X+I2rDmwrh3w7RO7F9ixQfoiXaT6r8xQ/ZfID/ArtDU0G/Dydmw1ptw3W6kxhq30Vdc+WAXklf4ZjFhTmIwc1X/lhuq/yP4cv8IaB/6qZrpzgA87pt33OI76N+LB+K4Q9oqa6Yp0jeq/boTqvwg2Am7Ar6DeXTPdBcBXHdMdlfgc9VfQeodjutcBi2umK9IVqv+6FSNR/6VsbjgWOMzpWN/mgTm0w8wDvgy8zCndpm4BzgcuwzaruBTrN7oHuAPr91kLbIztjb05sDW2NOhO2I5bu+G39WVTpwAvx5oNh5mDrb/9fKd03w/8P6djjaLtsfvmCZOxFXaPDfZhb7IC2Ri2T/u92APsamyd9F9g27P+0e2s+031n+q/unpX/22L7Ubl8YZ0KfUWcZgLfN4pzbqxCts043Dg8fi9YO0EHAr8F759TnXfhOvkY2PgCqc0V2H3jNQzD3g6cAzp53T/Fvgg2uBkmG1R/RdC9V/HnYRPwaym/q5Wn3RKsyrGgZ9iS2+22XSjqQ2BV2GDiVKt3PWRmue2O34jnL/SqFRG02bAe4GbSFspzhYXA2/BWhnkAar//Kj+65gdsWYej0J5Z8003+6U3rC4H/gUzeaPetsRW8jibuLn94ia53SEU3rraDa3eZRsg133WNvHhsbtWB/10lgF0CGq/+JR/dcBX8OnQM7GmrWqHETcfatXAUcDW7YpjEgejjX/es4vnh5jwDNrnMs84H+d0vxCm8LosQXYQ+Ae4ld4HnEz8Jf0fGpTBdV/8an+K9QT8Jl3OoYNBqnyOOAuh/Rmi+8A27UqiTS2Br5BvPzfhg0wq7Ic+0IITW8teb8wSrI31sQe69rGjJ9S9u8mFtV/aan+K8zJ+BT8sTXSWh9b0jHGhb8WOKRdEWRxEPEGg11AvbWz3+2U3mfaFUGvvAFb9CVWxZYiVgJ/4V0whTsZ1X85qP4rwBb4vAXdQL3BJcc5pDVT/BewScsyyGlD4EvEKZPjaqS/EJ9RsauxaWyjaANsGleMa5grPshodAmo/stL9V9m78WnsP+8RlrPwX9E6GrgrXS/snodPhXR1BgH9quR9kud0ntf69x318b0d8OWr2AVZJ+p/iuD6r8MFuKz6tXpNdJaim2F6XmBb8f6XPtiH2xRDs8yuobqL5M5wM8d0roeWyhkVGyI30CiUuNbNFuQqEtU/5VF9V9ir8SnkJ9aI61jndKaWti9mH4xzfbAVfiW1cdrpPsUfL5ODm6f9U5ZApyJ73UqNb5KvZHtXaP6rzyq/xL6CeEZ/l6NdJ6I75SXy7C9svtqayyPXuU1BuxaI93vOqT1nYB8d8UcbCU1z0qq9PiAS8mVRfVfmVT/JbAlPlNfnlKRzhxsbqzXxbyeft/8A48ErsSv3H5cI819HdIZo6ODYRrw3FSkKzFOvX7urlD9VzbVf5EdTnhmz6iRziEO6QziNvrZ7DWbHfHtE3tBjTQ9BrS9KyTTLWyDLWTzKewt/mJsM5wrJ+P0yX93GLb2eYi96f5Uv7axkv6sfa76r3yq/yI6h/CMVu2qNBe/Oa+r6deAl7r+FL/RsRdSPVr4JQ7p/G9opmvYFPh7bPeypud3FfBR6i0WMtVGwO9bpNen+Cn9GA+g+q8bVP9FsD3hAx6uoboi+IvANKbGWwPz3GVvxK8cqxYKmYd9PYekMY5tFRrDZsAn8FlOdAyb6va4mmmf6JBmH+J1NcurVKr/ukX1n7N3EV6Q76mRjtfb7zfp/jzX6ZZjI4MvxtaMv2fyn49l5geS10Iz59Y4tyMd0nlTrVKoby621ejtDuc2PVZj88GHzXl/FfF2NbsZ2870NdhSspvSfOrdAmw/9j2B12MvNrGWm72JNDvKxTIK9V/T+sWbd/qjXv+5WkFY5sawkZrD7BuYxiCuBR4WmN+SLAROYPgApDFs96ypD6SN8JtHvH/FOW5H+MPuh41KZbiNsNG1HnkfFhfx0IVDlgJHEWfjlnOBF2FfHTEsxl4GvPY/nxpHRTrnFFYQlveS67+29YuXWOmPcv3najHhfSo/qJHOtwLTGESX1rausoRmlc+PePCP5DkN/nZYnFLjXM8ITGMNtkpeqB2ASwPPpWlcA5wK/AzbVc37+DdjX/upWrUWYF+9niut3Y7dz13T5/pvIVZn1D326fhew9D6rcoo1n/unk14Af5VRRrL8Pli6sycyhqW0O6mOn7acTy2LV2NrYE+zOsd0nluzbKZzTLsC8jjR19KnE2+/sG9sOZ7r7y8Le3pu+hz/XdCizTOwOclwKt+qzJK9V8UHyUsU2uo3nTiHwPTmMC+vEre0rKJxdjbdptyGOPBU3+2x+dL7p0V57wJ4ZXYh2qX0EM9HLjcIZ8lxfeA9QLKxMM2WFeHR35+m/jcPfS1/ltO+9/rWVhXV1ue9VuVUan/ormQsEydliCNCeDo0IwWIuTHMYjp24yGVmIT1Ku8Q9fHPqtGGjOZA3zfIY8lxQpsK9gSbINfS8Aeic89VF/rv9BdBtu+BMSo36r0vf6L5mGED244oiKNXQOPP4G94RU9jaKmts1i0+Piacd9OD590ztXnH/oXtmrgUU1ymk6j0VaSoobgUe0KIeY9sLnS+pfU594gD7Xf79xSLdpd0Cs+q1K3+u/aPYjvNAeW5HGUQ5pfMohr7l5vBkP4u4Zjv9Jh+NWrVi1h0MaT69IY7qtiDPwLleMA89qWAapHEl4/i5MfdIB+lz/3eOQ7gT1WwJi129V+lr/RfU2wjJzY400QpdSHAceHZrRzDx/HBPYfO7pdiB8LfOqFavmEN5U3HRZzM8EpldanNgw/yktIfz6jlNe68Zs+lz/3R2Y7tSoeglIUb9V6Wv9F9UXCMvMNyqO7zFw4qceGc3Iq1lsaszWRBa6m9k4tujMMN8OTOOLFcefagdgbWB6JcWlhA2uSuHNhOfzPGyluqrBcbn1uf7z6AKYGrN1B6Ss36r0rf6bldfa27sF/n3VoIb9CF/U5AuBf5/TYmzqzj7Ox51t4FFoWc2hen3xXwSmUdVkOtVfAvMD0yvFKuCltGveTOnzWPNxiN2xQWi/n/zfzUNPKpI+1391Bic2sQ+23sHUF9jU9VuVvtV/Ua1H+C5mVRf+E4HHX0V3lxj1bhYbxBizL525hPD+8n+ryNczA49/D/UWvJlD+BrcpcQabL55V3jMrZ4at2HzqEvaNKjv9d9OxGk9G3QH5KjfqvSp/ovusYRlZBxbjnGY0B22/tsjoxnEaBYbxMcq0v5e4PGr+sE2IXzk9LKKNACeHJhGKXEf8MIa+S3J3xCnLM4GHpMwH8OMQv13fGD6s8UZ5KvfqvSl/osu9E3m6orjzyP8bexwj4wmFvPhv4LqpTLfEpjGaqqb3a8JTKPOKPi3BqYxiAuwroTHYD+85xO+9nvduBl4ao28luYpxCuTW4GnpcvKrEah/ltIunvdI1YQvh9BX+q/6F5LWCa+W3H8xwUefwJ4vEdGE4rVLDYBnEm9AWQ7OaS1U0UaoYNt6uyM9SWHfHya2XfR+3PsYRTjWk1g/ZiPrJHPEj2ceOUygVWyr06Wm5mNSv0Xs07yjLr1W5W+1H9DefSlVe1eVeWqin8fevPegi1R2hWLgf/Bdv3ydhbWh1xnANllwB2B6VUNVKm69lUeXuO/abIc6EzOxn5oa2f591+dTONzWL+jl+uBV2BfmHWmiZVoZeTjLwROBl4ZOZ1hRqX+uxdbg36Fw7FiaVK/VelL/TdUCS8A11T8++0Dj38+9rZUV879rpdgu8XtG+HYZ2JNRnV/HBPArwLTrFoR6+rA41dtvAHhU8g+jM0LHuaP2OC0XbHFVkIqoN8Cb8C6Gv6DZvduaVYTf7bCHOzlK1d3QN/qv2FKfgnwfPhDf+q/oTxeALYK/PvfRz7+pTX/u8F+0xcCh2EvAosnY/nk/3ch8fa7XoKtU+89FQbs4f9smk/LuiAw3arK68rA46d4ATinwX97CfBGbLnVl2JT4S7DBvvMZhU2R/sobDrZcuCz2LKtfXBdgjTWA75JnoGBfan/6irxJcD74T/Qh/pvKI+50VULHlS5ueLfbxN4/Do/gIXYqM/9K/67ecChwC7AwYTPcx4o8eEP8Zuoqq596PEhfEvSm1r8zd3A1ydjcA7LgM2we20CG9V/Lda8X9XC0GWnEb/lDKweOglrCUjZatKH+q+pwUtArK7KJmI9/KEf9V90oStF7VJx/PMJO/4zauShi/tdpzjH0BHOP684fuia2JfXyENoGUqYXfDZw75uvC5Ntv5PH+q/tnIPDPQa8DebPtR/0V1FWCaqRjiHHn/XiuN3db/rFD+O5YHnUNXEtUPg8W+okYfQcpRwbV6w28atpF0xsOv1X6hcLwGxH/7Qj/ovutBNDaoWwbgx8PjbVhy/y/tdx/5xbBV4HrdWHH/zwOP/sUYeQstSwi0EfkSce32m+GCabAHdr/88pH4JSPHwh37Uf9GtJCwTG1Qc/67A41cNAuvyftce5zLMhoHncmfF8dcPPP5tNfIQWp7iYyE2gDZFd8At2L2VQtfrPy+pXgJSPfyhH/VfdKHrRFdtchG6znbViP0u73cd+8cxGLDWNqoGHi4KPH6deeahZSq+lgNHY3PTPbeanR6vSZSfrtd/nmK/BKR8+EM/6r/oQt/oq2YirI58/C7vdx37x7FB4DndV3H8JYHHrzOzIbRc5cF2xbrNZlono2pA20ymTrO9CL/fQ9UALC9dr/88xX4BCB1z1VQf6r/oQteprtqlKnSZ1arjd3m/66o0Qy0NPK9VFcffOPD4debKh5atmPWwXenWMXtZjWED/tp+dc4D3kz4Q29i8jxTDAbsev3nJVUXQMqXgD7Uf9HdSVgmqhYzuCbw+FVzJY8NPH6dm7RrX/4DWwaeW9UStpsFHv/2GnkILV+xh3+Tdct/TFjT8374vAS8LOAc6up6/ech9SDAVC8Bfaj/hvJYCXB14N9XDYIJXeBhs4p//0l813AH2Atb0new33UJa/u3EbrSVFUfVehArSL6wEbAscCfNfjv9wM+GpDeT4AjAv5+YE+HY1Tpev0XKmb9Npup9WtMva//PF4AQvshFlX8+7sCj1+1lOal2Prt3vbCVhcsZW3/NkKbUKuuXejXSZ17I/Qrfk7g33fdrtjeBE29kbCNmD6J7YsQos2YhKa6Xv+FyPHwH0jxEtCH+m8ojxeA0KkIVYUQmsk6m3Ucga3H7m0fylvet4ntAv++6t54RODx67wBh36hpZpOVqrX0a6emIdtldvWOuDEgL8HW345tj7Uf23kfPgPxH4J6EP9N5THC0DVYgdVqm7QawKPv2ON/2YNcBBlbXAxm7OA55BmBGjVdpZVqtbSDn0DrvMDCC2njQP/vusOCPjb0GVofxj498GbpdTQh/qvqRIe/gMxXwL6UP8NVUILQNVmF5cEHn/3mv9dibtcTRe7z3+6qu0sq8T+AVQttAHVI3GrbBv4910XshlN6Bf4tYF/vzjw7+voS/1XV0kP/4FYLwF9qP+G8ngBaLNb2lR1+uhD7Nbgvy35JSD1w38u4YOoqn4AoU1sVVupQvj9mWInu1KtR9j00qWEzQYIvddTLILTp/qvSokP/wHvl4C+1H9DebwAXB3491VfCaE/gM2BnRr89yW+BKR++IMN4ApdRrRqt6rYTWwAVwSm8dTAv+8yj+6PVPPQc+lb/Tebkh/+A54vAX2p/4byeAG4JvDvq3arupbqFZWqNO2LLOklIMfDH2xf9RD3Ar+r+G9Cv66rdtuC8BeAA/D5nXTR9oUco2TXBP59ifXfdAuB71L2w39gL+A7hLf+9KX+G6qEFoCtGD5XdRxbajREmx9ACS8BuR7+AAcH/v152Eju2WxK+DSbOm/AoVPJHkU3Kr4YnlDIMUrW1/pvqqOBpwceYyZnToa3pxO2DgX0p/6Lbn3CN8SoGmn8kcDj30f1tpuz6fN+17PZiPCV2P6tIo2nBR5/NdUbqYA9wEOvxddqpNNHXye87L4SeA6h6cfW9/pvOXF2cBzUb7Hq1zHar0PRp/pvKI8WgPuBywKPUTVQ5SeBx18feF7Lv83REpDzyx/gEMKb0M6p+Pd7Bx7/Soa/YQ/8gfA35RcRZzpVyZZg92Cog0gzGj+Xvtd/b8DhQTPN1PotVv06D3h9y7/tU/2XxFcIe5v5esXxFxP+RvaDwDz2cb/r2fyMsDysBR5Wkcb3AtP4YoP8nBiY1gTw3w3S64O/xe+eblsR45B2Cn2u/7q8WVrbrpO+1X/R/SNhmbmV6taIMwPTGCd8Xmff9rueyc5YWYXk42cVacwF7ghM4y0N8vTswLQG8aIGaXbZeljfttd9fQXtv6hC006hz/XfPYHpTo2q+s27fm3TgtrH+i+6Awm/WE+qSONIhzSOD89qtJeAEh7+YFu+hublHyvS2M0hjT9tkKcFhG+rOoHtvrVtg3S76t3439/vankuoemm0Of6726HdCeoX7951q9tllHuY/0X3YaEDxSpqiB2Djz+BHYze2yP6f0SUMrDf0tswFBofqqmNr0r8PhrqN5EZbpPOeRrAriI6ua9LtsHn614p8f92BStpkLTTaHP9Z9HF8Bszf6z8eoOaNoF0Of6L7oLCMvUj2ukcU5gGhPAMaEZneT1ElDKwx9s6kxofn5dI52zA9M4r0XediG8aW8QP6efLwHLgD/iU0YzxU00X1o4NM1U+lr/HRuYXtv6zaN+bZrXPtd/0X2csEytpXpe5KGBaUxgb3heO2SF3qQlPfwfjX2lhZZv1T7uW2KjV0PS+FjLPH7fIX+DuIh+dQcsw76YvMpnWLk1eQkITS+VvtZ/O9F+mmNo/RZSv47RbKGdUaj/onox4YX3xoo0NsWnebJq1G0TbW/Skh7+AP9FeLmupXqLyzc5pNN2etp+DmlPjdux+77r9iHul//0uIn63QGhaaXS5/rv+BZpNG32n03b7oCmD8lRqP+i2gjrmwjJ2E9rpPOtwDQGcVBYdh9kCTaPtW7ap+Pz4/ByED5lWmeq3I8C01hFWP+XZyvAIP6H8BkmOayHDfiL0edfFfdjA9uqfgeh6aTS5/pvIc1+t6fjW78todlH1o9oNutklOq/qELnT45TvTnGUwPTGMQ1+O71vhB7Ux42GGgMezNNsUtZXZsAN+BTplXrZ29HePPXdwPz+zjCV26bKdYBp9CNvQOWYPP8r8a/HJrGTcCbmf2BEXr8lPpc/+Wu32KlP2r1X1ShoxsnqJ5CAfam7HHBvhqW3RktxwafXITNob1n8p+PocytZUMXMRnE/9ZI6wMO6Rwall0gfGBTVdwIfAFbAGdvrFkwV4vPetjI76dgTcxfx3dut1fcjS25/LeT5/rwyXMPPW5Ko1D/Lcd+Pxfz4PrtWNLUb97pj2L9F82OhGfwOmze9jDPdEhnEK8LzXSHeQwqGkTVIjkLsAdjaDoeu8utj1UaXnlXlBspqf7rllGt/6I6j/BMvqxGOuc6pDOB9UWO4p7vTyW8z3IQF1Hd7P1Ch3R+GZrpKfbAL/+KcuNQ2m+E04bqv24Y9fovGo9msJ/XSOd5DukM4hY68GblaCfgZvzKr86o1NClTCeAt4ZkegaHOZyTovy4F2si3oL4VP+VT/VfRNvhs+DKU2qkFbqhwtS4ln7N657No/Ad/FVnp7L9HdJZQ/j+2TMJnb+t6E7cA7wTmE88qv/KpvovgdCpDhPAD2uk8xh8Fm8YxGXYQg19tRXwO/zKax3VW5mC/UhC0/p2QL6HmY/P/aroTpxP3O2dVf+VSfVfIi/Dp4D/rEZaRzmlNYirsCaivtke25XNs6yOrZHuU5zSemH7rA91MLDS6RxHLb6I3yjq1LESeD5xqP4rj+q/hBbi08dyZo20FgFXOqQ1NW6hsN2WAj0V3z6vQUWxuCLdOfhMWbqFOHOL30D4vNxRja8A87DRzR6rqOWIMeBv8Kf6ryyq/zLwmPM4ATy3Rlr741+R30/10pxdcCj+o93HsTKv4vUldGTbzA/xevw2Bxq1+DIP7kdfOPn/5T6vNjFOnJcA1X9lUP2XyRb4bK14DdVvWgDvd0hrpvgyaacRedmEeM2zJ9RIfxF27ULTuhf/wS/7oimAbWIceA/2ZTPdXOAjdPOlagz/7gDVf3mp/ivASfgU+PtrpDWPZuvxN4nr8d07ILaD8Fvecnr8Aluhrcr7nNI7vmUZzGY7rEktRtn0OVZSrx/yxcBdBZxvm/x5DwxU/ZeH6r9CeO3Bvpp6m61siX9fz9T4GmXPl300Nlo0Vv5vxx6gVR6Lz9fPGL7lPQ9bTCNW+fQ1vk+zLXy3w2fkc+r4Fb5TBFX/paX6r0Cn4FP4K6i3ycozibPZy9Qf40extcpL8UjsnDynBE2PddTrj5yP3yplX2tTGEO80em8RiVuBP6yTUFj3QSvxWf505Txzpb5nY3qv/hU/xXscQzfwSnGttV8nAAAIABJREFUj/OviN8XuQr4JLBDw/Lw9FjgE/i8bVZF3U0o3u2U3hiwa8PyGGZT4Fanc+t73Ib91jZoVdIPtgR4L90p+7vxXTFQ9V88qv864ov4FMpa6q2QBT5LctaJdVhz52tIs+PbRsCrCN96tEl8sOa57Ybf3vKfaVQq1WLvANiHOA/bmnfDlmU8zBJsKdMubMJ0nHPeVf/5Uf3XQdvh95Z2ObC0ZrrHOKVZN1Zh/aVvwRbTmGm0dFNzsb7ENwOn4neD1Y2Ta+ZjI+BSpzTvwXdFsg2AO5zOrU+xDhvU9C/A7q1Lt7knYdPkLnTKh3fcDWzsmF/Vf+2p/usJr3mxE9j0jjoXZQ52AVPeMFPjDmxJz49g+5w/E2sS3JoHptZsBDwMu+BPAA7E5iUfA/wAa47Ndf4nYwPnqswF/tsx3SNrpNnEaxzPrWtxPzbr4Upsz/IvAv8AHAJsFlKoTnKXz2zhvfGK6j/Vf3XjyBppds4S4A/4FdK7a6Y7B7sBc91EXY3PUG/QEfhNeZkAbqL+F05dHjtxDeJCbBfB5dj87NDjNbUr1kR9MfalcM/kPx+LfSnF5p1+aPktxq7FYfh2L5zVIi/DqP7rVvSp/ivGq/ErqHHgJQ3SfifdXKQkRxxD/ea75+O7CtlraqZb1yb4XPfBymjTK4XQ49a1HjbgaVhZj2GLlMRYNjRW+p7lNw9rKvZoJl4HPKJBPupQ/deN6FP9V5Q5WJOQV2GtAvZskP6r0Apww2KMZk2f+2ArVXmlf2qDtOs6yOG87mf2jVlCj13HejSbV/9jfF8CYqYfo/z2w+cl4KU181CX6r+yo4/1X3G2xQbZeBXaLTRrenwG8EfH9PsSdwAHNCjHXbGFMbzSv4d6i2w05dH3+rdDjh967Do+2eK4niuIxUw/Vvkd6nDsOru9NbUtqv9KjL7Wf0V6O74X70aaLeO5JXC68zl0OX6J7S1e1w74L/DypgbpN3Fa4HldyPC+wNB8V9mVdk2MY1jfeKjY6ccqv3nY2ISQY8f6IlP9V1b0uf4r0lysmdCzAK+j2bKJ87DRll6LdHQxxrEBXXXWth7YAbja+TxW4DNlaCa/Djy3wyqOH5r3KscFHPvoGsfPnX7M8ntb4LEvr3H+baj+KyNGof4r1lb4T/G4Flsdqon9gSucz6ML8Xtsyk0TT8D/zfdO4q53fV3g+T2u4vih+a/ym4BjX1Tj+LnTj1l+uwQe+7Ya59+W6r+8MSr1X9FehP+FvQ0bnNHE+tjbcIolJXPHWuytt+lUk33wX0xnHHhBw/NoKnSQTlU5hZZBlZD+4rtqHD93+jHLb2ngsdfUOP8Qqv/Sx6jVf8WLsUTrfdTbunS6HbB+v9w3aaxYQbv1pQ/Bd7TrIP6txbk0FTpFJ/cLQMjWuitrHD93+jHLL/QF4L4a5x9K9V+6WMHo1X/FW0CcdZ3HgHfQrm/lucA5Ec4pV/wSeFaLcpiLfRnEmD98BnbtYwvdm15dAHHTj1l+oV0Ad9Q4/1Cq/+LHKNd/nfAIfFfJmhrfov263s/A3hpz38AhN/6LaFcJbITv8pZT44/Ao1qcUxtXBp5r7kGAIV+IH61x/Nzpxyy/0EGAl9Q4fw+q/+KE6r8O2QObCxmjwK8gbLOTfYBvkn4jijaxFttHeu+A/O6G38YW0+Ne6u9o5uFHged7EcPXAw8tjyq70G6k9hjVrRd1xE4/VvnNI6z1YgJbiz4V1X8+ofqvw55LvGkp9wFHUG9zh9lsii01enakcwyJ87Emv5A3y/nYGuOxVgsbA54XcH5tePSxvnnI8UOPXccJLY7ruaVtzPRjld9bHY7tMY2yCdV/7UP1X0+8mbg3yv/is0DKTsB7gJ+S5814DPshvpfmU39m8ljg3Mjn/AaH82zqFQHnO4jV2HSpmYQeu46FNGvJOA3f/sWY6ccovwPwqcS9lwKuQ/VfvVD912PvIe6FuB970/NaL30DbKvLD2I/sBgjRu/Gdig7DhuVOthO0+Pcj8TWFY9Z5kc5nW9Tj8BnEM9qbHnZ6V9QocetayG2vO6wL8Qx7P6IMbgoVvqe5TcP+/L3ePjH2AyoLtV/Dw3VfxGUvPrQh4G/j5zGldje6N+gWWVcZQ6wDbY8507Y2+V22LSkJcCG2A28FGt2Wok9YFZhC0Ncjy3q8QfgGuACbFWyccdzBHgZtlXoNs7Hne4TPLA2ew7n0mzTlGF+A5yEbepyLeFz7Zv+BpcDr8UGaG07+f9dM3k+JwK/DTyf1OmH3hNLJ8/jmZPn5THuAeDnhPUjh1L9p/pv5H2MuG9lgzibvD/21PbCmu5SlG2TrTVj8egPjhUxtu7tivXIX/6zxVsi5rsu1X9xjFr912kfJt2P/rvAvklylcf+NNvWNTQ+lCZblTYlTrOkR2waMd+l24z85T9T3I1fE3Mo1X9+RrX+67zYfWLT41zgJYSNmC3FAmxVsNQjd9+XInMNpPqaahrLYma6cNuRv/xnimNiZroF1X/tqf7riTeTfueqq7EBIo+Onz132wMfwH/ziqpYh003Ks0jsf7FlGVRJ/aImenC7Un+8p8edwMPj5npllT/NaP6r4eeS7zFMobFOLZ04+sou8l2S+Bvsa1GQ9fAb1t5HhI9l+29kfRlUhV/ETXHZXsl+ct/esQeeBdC9d9wqv9GwB7EWzazToxh01H+CXgieQd4zMNWrXon1sSV46YfxLXYdpklm4uN7s5VRjPFkTEzXLijyF/+U+NX2Kj0kqn+e4DqvxH1COJsoNEmbgK+jf0gngk8LGK+NwGehk3d+S7lNGmfTb45003tjP+2niHxjbjZLdo3yV/+g7gTeEzc7LpR/af6z0WXpycsAP6V6s1acrgWuGpa3IzNd71z8n/vwr5IF035uw2w/sdHAptP/vOjsbm0yyf/v5JMYHNc/w5bXKQr9gO+TxlT8G7GKo+J3CeS2FxsU5TNcp8I9uX4Qmzzl65Q/ZdfV+u/XnkhcCv53wJHLW6h2+tav5o423y2iTZ7lHfdbuQv9wnsHnhd5LzGpPovT3S9/uuVLYDvkf+mGJX4Cf3YzvK1xNv4o0m8LXZGC/QO8pf7GN1++A+o/ksbfan/emUucDh5RsmOSqzCRknPrXlNuuDPgNvIW66/iJ7L8pxP3jJfSb9GbKv+ix99rP96Z1vgVPLfLH2LH2N9cX20I3AOecvXaw37LtiFvGX9C7oz4K+pbVH9FyP6XP/10ivJO12mL3Ed8KKGZd9Fc7E5xLlaA/41fhaL8VHylPHdWNdD6VP9PKj+84lRqf96aQnwz8B95L+Ruhb3YQ+lpY1Lvds2B/6N9C8CdxF3ClUpNsUexCnL9m7gaMobRR6b6r/2Mar1Xy9tC3ye9EtpdjHWAJ8GtmpT0D2yCPgrbOGgVPfNe5PkLK9Ui/+swxaseQvlbOyTy7ao/lP9J2yHXVz9EB4a64BT6G/faIgNgWcDHwROAy4BbgfW4nsNbqffX6lb4L94yxqs3C7F1nY4BngpHV2YJTLVf6r/BBtw9Tls8YbcN17uWAV8FltoQ9rbFJ+m1hNTn3hCXyC8fO6n3y9JKaj+U/0n2FfC+7HlLHPfiKnj98C7KHtzj67xeMCNA3unPvEEnobPwktfSH3iPab6T/WfYMtqvgibPpNzQ4nYMTaZx5cwGiOhU9sHn+t0Bf3qt94YuBKfsvnTxOc+ClT/iUzaBlvb+Vzy37AeMQ6cCRxKmfuc982F+Fy3U1KfeCRzgP/Ep0x+nfjcR5HqP5FJ22Pzhn8MrCb/zVw37gN+NHnuy9xLRYbx3OP+7YnPPYa/x688Xp743Eed6j+RSUuwpUOPA36J/wjwkFiH7WX+YeAZPHiHLUlrLn6tAOPAXyY9e18vx69J+WK0BGtOqv96qMvbAee2BHgKsAfweGxHt52x/rSY1gC/AS6YjPOxptG7Iqcr9b0Y+LrTsdYCz8c2e+mS5wLfxO/38KLJ40kZVP/1gF4AfC3EFt3YFptzux020nZTbN/zTbE55QuxQShLsa+8lVgT2yrgXuwmvxm4fjKuxZb1vB4bTLU2TXakpTnYF8nuTsdbiy1K9GWn48X2Kmw6o9fD4FfAntjXnpRL9Z+ICPZ15DmiehwbnFWyOVifv8d0v0GMAU9OmQkREZFQH8e/v/NblLlnwIbA1/DP73EpMyEiIuJhQ+LsyHYl8NSE+ajyNOAq/PN5HdqMRUREOuogfJvEp3YJnEzeuc1bYJvMxMjfOmz/BRERkc76EP4PyEHcAbwP2CRZbmww11H4b+wzNT6QLDciIiKRzAd+SryH5QS25/1HibupyS7A0ZNpxczLCrRUq4iI9MSWwA3EfXAO4jxsxsATCFs8Zy6wG7ai2vmJzv0G4JEB5ywiNWkdAJF0noC1BKTc6OdW4GfAb4HfAZcBt2PN9/dM/jdLsA17NgF2whZ0WY4NNNws4bneCTwdW0lRRCLTC0AcC7C5y3thC5hsD2yNVfzrYQtd3AHcCFyCrWS1Alticyz96UpC+wLfB9bPfB6luQ94FvayIv01H3gS9jt4PPay+Uhsaut62H1wF7Zd79XYpkQ/B36B6kYp3H7AScBttGv+vB34DLatrPTXCylrLfXcsQZbZ17666nAZ7EPnzb3yK2Tf/+01CcuMswc4M/x7yM9B1WKfXYI9rWT++GbO1Zh+wZIPx2C/9bCv8T221ALtmT1ZOB/iVtB/gQbfS3983RsHfTcD+FccSf6ouurXbFuzZj3z5n47bchUtt84L2ka8ZdDRyB3nj76Imkmx1QUvwBVd59NBebNbKGNPfRGuAfgHkpMieyMXAaeSrN72AjtqVfHkH8r6WS4ifYKoLSL0uA/yHPPfV9tGy0RLYlthd1zsrzl+Rd/lXimA98hDjL6pYS49iqiFrkp3+2wNafyHl//Rq9WEokD8fmUeeuRCewAYcbx82uZHIQtglO7nvMO36P1vbvq02wh2/ue2wCuIi0a1fICFiEzUPNfXNPjTOAhTEzLdlsCJyAbYiT+z4LjXXA8ah5tq8WAmeR/z6bGmdjawqIuPg8+W/qmeJjMTMt2e1N/nssNPZyLxUpycfJf4/NFJ+NmWkZHS8j/808LDSHur8Wkf/+Co1F7qUipXg++e+vYfHCeFmXUbAp8Efy38jD4veoebWvdiT//RUaO7iXipRgQ8ofq3IjabfJ7pyQncJGwT9R/oj7rYF35j4JieLPcp+Agz7kQR7qXcBWuU+iwiOw8xRpbBvgfvK/xdaJu7DWCumX0gaetolz3EtFctscuJv891adWIVN35YZqAVgdm+mOyNJl2LnK/3xCmzXtK57MvAXuU9CXL2J7ixItgg7X5mBlpad2XrA9XRrPuk1wKOxxVak256IrZa3UeBx/h8P3BePBrbD+kQ3wPpwB5X4PVgr0ipsR8qrgSsnY1vgqMDzWIl1BZwfeBzJby5wFbAs94k08EesRXdN7hORbjgIvyaoe4DPAQdiLxTzsf2vn41NL/TsZtg/RmFIUi+k/ZapU2Mcn1XRHoHP6oS3Y6PGpdv2x6++uh/4d+BZ2H02H6sjDwROBO51TOvAGIUh/fRZfG66n2BfUMPsiC1c4ZHep8OyLZlshD0cf4hfhefZ9+65neup2BaxGzqen6TzaXzug7OAx1SktR1+e2R8MizbMkquIPyG+yb1V+rbAJ/K/2a0znrJFmDbpL4MeD/wn8ClwBh+D9hBHO543m+LcH5jk3n/z8myeBm27fUCx/MWX/OxOsbjJbDu+hALgf9ySPOStpmW0bIJ4U2eV9B8bv7GwLWB6U4ABzTOscSyBXAwcCS2g+Qq/B+ks8VZ+KwPsRg4PeF5r8E2vDoOeDXWdytleAbh1/c6ms/NXwxcFpjuOPCwxjmWkfN0wm/ytitQ/aVD2uoGyGcJ1rz9SeBy0j00Z4szCHsJWDp5jNz5uBz4BPA8ujP6vI88mv9f3TLtlzikvU/LtGWEvJKwm+wPtJ9euR7hTWzqBkhrR2whpp8Aq8n/sJwebV8CSnn4T4/VwI+Bv6e6D1n8eDT/30z7DczmYSv7haSv6ahS6R2E3WT/EZi+x1u2ugHi2g576Ofe/7xuNH0JKPXhP1P8CnsZ2LZB/qS5Awi/VqGtk18NTP9tgen3The+FOdi64k/AXgU1q/6SGzgHMCdwH3YvP0bsL6iX9N+zmfoFru/D/z7rwNvCDzGS4AfBR5DHmxjbHGeV2OL23TJPsD3gOdgK7gNs3Tyv+1Kc+kTJ+ND2GyFLwBfxtYeED8vcTjG1wP/PrRuDVnYbRGwO/Ys2gp7Fm0+5d+vBm7BnkE3ABdgg1zXBaQ5snbB1nBegf2Qm77prcamQR2D9enPa5D2e1ukNzX+pU2Gp/BqauvCy10X7AWcjO+c5FxR1RLQpS//YXEvcBLwp0PyKvWVUid9KPAc/qlBWvOAfYFjsUGpa1qkdw9w5mS6j2+T4VGyBfBubPUx7wrhZqz5aW+qVz88PDCtrwWUwYC6AfJaH/gb4GLyP8y8Y7aXgL48/KfHhcDr6c6y3iUqofkf4JTAc3hLjTT2Bj6Fz3TH6XE19ozzWKCrNx6LNdmlGkB1GfZGtvUs5xM6CPCqwPKAcn5wo+ZhwD8CN5HmXswVZ/Dg0fRL6OfDf2rcCPwD1pUjzZTyQXJV4DnMNghwa+x3f6lDPuvEauBL2LNvZG2FLZEbYxGUOrEOm5v9Ch68KMXeDsdeFlg2pTS5jYotgaPpzg5nHjF4CRiFh//UuAv4N2wckVQrpS5aFngOEzy4S2gRVvf/EHsW5LgX12Krzpa+rbKrOdjOdfeQvzIYxErsQuyNLVEauhBQ27muU5Xy1t1nmwAfph/9+23iDEbr4T817gU+iBaHqVJKa+SrA89hHOvm2gv4DDZ4PPc9OPVefAsjsDnf1tjo9NwFPiwuI7w74iSHsvL44f2Xw3n00RKsL66kSkCRJ+7Amn8XIzPxWIbX40PkpMBzuJ90Tfxt4yd0a5fFRvYhzsCKEsNjHIBH09s4sIfDufTFXOCvse1Bc98jirLiRmwlzt5/hTWwB+GtoV5dkaH9/12JW7CZa73yGny3ve1CLHMoN49uALUCmD3w23UxdazBvoD2oOwm+zMmz/Ek2k2bKiF+jq0rID5f/x7N/8sczqNLsRp4rUO5FeFQfPYT71p4jAPw6AYY9VaATbFpPbkG+oTEZVg/9dQNcUodtDd9ZsGyyXMP3cQlR4xhew803bSmTzy+/ifwaf4P7f/vanR+5cI3MJoP/wl8xgF4bb85qq0AL6Kbzf1XYYthzaa0OftVCwztQjebcG+i/cZeXefx9e/V/B/a/9/VGMcGzHfSi+nmV5dXeIwDANtZzuNGGqVWgM2xBZly3wMh16uqGbqUl4A6+ww8kW5/CPwH1pI0Kry+/j/pdD5dfHn0inE6uInRrozWnOrZYlloQWJ7IHj8GEelFeDFdPOrv831yv0SUHeTIY+vydxxE/CCGnntA4/rNY7VXaGWOZxL1+NeYLfQgkxlY+AK8hdaCXEGD11oqA2vH2SfWwE2AE4k/zX3ijqtAJDvJaDuw7/rX//T4zOE/55L5vX1H/rBMViop4RWrhLiKjoyJmVU+2uGxUpsl7IDaDfNaHfK+FGWamdsB8ic13gM2/jjMOBAfK7Xt2vmfzFwesK8nkX97YW9vv6fgQ0G+w7plg2fLX7L8DEaXeZ1vfZsmf4ewHHArU7n0af4fMsyTWZ/+vW2HyMuZfheBLNRK8DM/oq8K/n9CngTD30797pedaekLcUeTLHz+1vqP/y9vv6nv7huig2OOi9BfmeLu/GZ6VOSXF//W2N1YhdnjKSOAxuWbTLrEbfpfw3wU+Dj2FfWGybjUGxt7+9g63znvkB1Yx22DnXdLoJSmuZKsRBbvjnHtbsbuw+H9culvF4bkbb748TJNKukeGndHZuyl2vM0aeABTXKogtSfmQMmvhPo1uDxW/GWubeh83VfwnwUuw59BHgx8B9EdO/GtuttDhvJk6GzwBeRr0KZyHWCvFZrNk9981SN+7EdiqrolYAsznwM9Jfp6uAt1PvXoQ0rQDPAq7LUBbXTaY9m1hf/7PZGPg7rIJMXRan0/1ZAilfWP+B7tXPn8FW6JtXI3+LsZeCn0Q6n7fWOIekFgF/wDeTv8I25wk5py69YR5eI09qBbAZJqmnBf0GeDn1fvxTxbxeqb/6Z4vZWgNyvazOw7b0TtEdMjWuAB7X8FxLkvJ6HeaQVuxo2kI7m/2x+sPz3G4IPCd3h+KXubXY5hyeW9mW3se0BvuqrWOUWwEOIm03z0XYtMK5AeccoxUg11f/bDG9NSD11/9M5mLNsxclLIeVDG8VKVXqD4vNKXep6Eux50/TMVrDLMCeP54fom9xPL9gF+CTqXuB50Y+1xJHmX6rwfmP6oyAV5Cu0rgOG1/S9It/Jl7X69vYVtWfdjpejDgFGwyZeyT5VIMXgVStRmuxTYW6JMf1+pZTmh4ROkurrhfgN2D5oojn2ciT8bsQZ5Luy7SkLoLnNzz3UWsFOIw0D727gHfgP8jG63rdkKAMQuMGynxBXQS8izSDBddhraJdkKtb8RCHNEOvkUcTfxN7YFNovfLw5ETnPdQJ+F+cFdgNEtL02kTOLoKbaT6KeJTGAhxF/GswDnwZ2DJSHryu16hEzJfTRwFfSZSP90bKg6dcHxMLyLM9fIwm/mHmYs+yFRHyckKiPAx1MfEu1uXY7ILFyXJjAw9TziI4puV59r0VYA7WVRO7/C8D9k2Qnz4sh5sqUryY7keaFUuPTpCXtnJ/SBzjkHadGIziDxlU3tRi7Nl1uWM+pseFyXIzRIpFWFZiD4Op26LGtj7Wd/gdrF8vVt7arvHc97EAHyLuPbUO609P9XLpdb1GITz6/utYhN1nY5HzU+pLQO6xGrs6pT9TrMO6lN9A2g/IRwBHkmaM2co0WRou5qIH02MN8CXSf7XG6iI4P/C8+toK8EHi3keXA3+SLDcPUCtAdeR4If1T4rcGvD9ZburJ/fU/cL7DOUyN1E38A3tgz6aUsxvuSZKzCt5zHOvGCtKOExgYdBHc2fK8p0aduf/DlPIj9vQ+4t43J1N/KVtvpY0F+P1k5D6PQeR8GV2KrbUeM3//L1luqpXy8eCxJkCOJn6I279fJ4roAjiWvJVGjnEC8MAsgh/SbhZBk7n/w5TyQ/ZwBPHuk7spY1/tUloBBgv4lLKg0ARlvIi+nLgzBQ5Ll5VZlfTh0HZNgByj+AdS9O/XiSK6lnYhfh9anbgd6897VNzszmjQRXBpg/NtMvd/mJJ+zCFeSrzpmL8DHpsuK0PlbgWYbQnf3IsLlfISCrai3yXEyec64EXpsjKj0j4amqwJkKuJH+zZ8iHsWZPrdzKIMWB53OzWF2MqYNvINU5gYG+sOaqqi6Dp3P9hSvtBN/VU4o0l+Qb5mvxnk6sVoGoTn5ytAblfQKfbkHiL1awC9kqXlQcp8YOhak2AXE38Azn696viY1Fz3NBCbBek3IUyPVaQZ5wADO8iaDP3f5gSf9R17Qzc1vJ8q+KfibuyV1s5WgGOaHB+MbtiZoqSvv6nmkO8Aam3Ajumy8r/KfFjYaY1AXI28UP+/v1h8SPsmVuUhVhLQAndAdMj1ziBga2xZqtBF0Hbuf/DlPjDrrIJcKXDeU+P1cBrEuajjdStAJ9ucG6fTnxupX39T/fXxPn6uxx4WMJ8lPyhMFgTIGcTP5TTvz9TjGFf/sU9/KfaFVtVraTmkkHkHCcwsDewXYTjlvzjnsk84FSH850ed2E7cJUudSvAzdTbYGs+aVdoK/Xrf7pnEGdw4PdI10JZ8kfCduRr4oey+venxxrsmbprtNxHkHJBhDYFegrwlFiZzyT3wh5NfMDpXKfG7dic7q5I3QpwQI1zekbicyr963+qJwG34F8GRyU4974vHNbWbliLV8r1bOpGjgXw3C3BNsYosUllgrzjBLx1pRXgBU7nOTWup3v7saduBajTDZCy+b8rX/9T7YL/pkzjwPMin3fJX/+pldy/P4E9Kw/Fnp29MRcb+f5T8hfwbIWec5yAF68f+uHUazJuakf891m4gTwDqjykbAWo6gZI3fzf1a/JnYEb8S2LO4EdIpzrfOy33IUPg9hK7t+fwJ6Nz6cfH6ND7UH54wS2ipb7uDy/Ki8A9nE8twXAuU7nNoibsAq5q3Yn7cDZYd0AByQ8j7HJvHfV47B7z7NMzsH3pXsf7DfscW5d/vrfivL797tatkFKvzA51xMI4flVOY4tkbqFw3n9s+N5TWDTB4tZDCNAytU0h3UDpGz+L2IVs0C74j+F1WM8wBbYb9aze6mLX/8lzt8fRNc/NF0twXZt+i35L8xM8Uvg1djI9S6IsfPcndgypm2/UPbG90t3FXlHDXtaiO06meJevoWZr+E84I+JzuFUbLfNPvgTbFMWr7JZBzy95bnMxeqpGAOvU+3QGGoucDBwGmnu5aZxJfBOhi/INbK6ME7gULoxTiBW33KbboENgascz2EN8JyG51C69bGWgGHLIY8BVw/593Vjpm4Aj+b/qxn+kjeGffmvF1BOJToY3y3Dr8J+M014NvdPjy58/S+m7MHmI9O/70XjBNpbBJxHvPw37RbwXl729Q3Lo0uWYy8CF2CtHLcDF2EPzp3xeVDP1A3g0fx/wOQ5HjN5zrdP5uGCyTx1bZZGE3+L7z1+Ys10YzT3T4/zyLMaXx2ldyOPbP++l5LXExjDmm5LW0/g30mT/zrdAs/At3KKsYpil6Rsqm8Ss3UtjJLj8S3TZw9JK2Zz/0zx5dalEsfuwBco8wOxF/P3S6MmnnreTvq8z9YtsBG+O8x9n+6Mw4gp9VK9daLJUsN9NR9bv96rTK9j5r7ivYnX3D8s3h5WPMHURSwa5DHEfvj2RTaJceyNfGq3wEmOx78G2NRsG8NTAAAPLElEQVShjPog5XS9utGF5ZdTeBi+412mdgVsin1Zxto2uyrGgAM9CqkhDRKXGakZ6AHLSLuIy2wx6BZ4Fn5N//ejfrSpSusGUPP/g+2J3bNe5XsQaZv7h8VtwPZ+RTWUun+lllEfCBJ70F+b8Oz3f6NfUfVGSd0Aav5/qEPxK99cX/yzRexBgRoALq2MalPRvxeQt1jxbcdy6pOSugHU/D+zb5D/2sQK70GB6toVN3OxCjLV4io5b6YjCshPrLgZnxUI+6iUbgA1/89uc/z3DCgpPAYFlv7RdibwEtS/31l9Xg4y56C/2DEOPLdluYyKEroB1Pw/3MHkv0axYi1WB7VRerdtV5eBl1mUfsN9GXh8g/xsS5y9yUuJuguhjLJnkf86PSt6LrvPeyGskuIWrC6q6/Gof18yKnlLyHXACdja8MOUOOjPM2ab/ywP9lzyXyu10lTzXg+jtKgzKHAh8HHKG9A4QX+2gpcG5gKHACvIfwNOjxVY39hsvuSc3q/Js7DIbKGvynoOJ/+1Ojx6Lvvh2eS/VoO4APvNex7zS0PyvoRy69lDyL94m2S2G9aXeR/5b8pBnAUsneFcvQf9Deb1pl5adLb43Ax5lpl9nPz36QnRc9kfubsCpi7dvQ3+64bMNChwMXB65nxPjTXAKWj+vszgUZQ1TuAMHvwSsD++g/5mGsSTYnORYfFuNKq8rh+Q/x79QfRc9sN87N7OcY1m27zLexDxWh48JXQpVoflvkcneKB//1EPuTIi06yPfQ2XMDVl0BKwDP839mHNt3sC52bK869pvuXwKPJccrZtXBk9l92X87dUtX3325zTG7QolvLlfyXW6qH+fWmslHECZ+A/6G9Yn93AfOCtwB0Z8tx0y+FRsxBbjjR3BTtG9aDVUZWzNe0O7LdbpzXNe0zReeT/8l+B+vfFUYnjBNrGBcAGDfKecxOSOlsOj6KdyH8fDWKnyHntmpzjaWbalKvK+sAvMpyrd6h/X6IreYOKOhGymUfJTZmjJnQK4NSm+ysDj3VQtFx2T1d/IzEGBaaK1BuviRS9nsBsEbJy10DOboErUEvAQOgUwFOnHOvUwGNpKqCZj92jqX8XTZr7h+nayqKavy/Zlb7vwNR4m2O+c3QLaNGZB4ROATx+yrFOCDyWpgI+IOXSv22a+6t4DwqMEVqfX4pU8jgB7927BlI1eX4/0vl3VegUwMOmHMuzNUHSfAzE7BI7KcH5Nw3170tnlDZOoOmgv6ZiD3q6H3hMxPPvotApgFP77T3HE4iNsYn1EZBiUGxJgwLVvy+dVcJ6AiGD/pqK1S3w3kTn3xUeUwB3nHK80BkFmgr4UEfi+xuI0dw/TO5BgZq/L70xWE8g9QY+HoP+2tgHv70FrqR6o5FR4/3A9nih0FTAB1tE+OyKQeSaAZNjUOB5aP6+9FTq1bE8B/015dUtoIF/DxWjyV5TAf2FDggsYQ2MlIMCz2Tm/U9EeiPVS0CsQX9NhXQL/HeG8+2CGIP2QgcVairgzNoMCEzd3F8lxaDA2TY/E+md2C8BsQf9tdF0tsAq0o1d6BrPKYADmgoYxzLgXpr9dktb8Cr2oEA9/GXkxHoJSDnor6km3QLvzXSOXeA5BXAgtFVBuwLO7kiqy6+E5v5hYg0K1MNfRtbz8P0x5Rr011TVJilXYl8dMrMY/fUHBR5TUwFntz6zX7MubXoVY1Dg85LmQKQQy/B/o8456K+N2boFNPBvdt5TAAc0FTCuZ/HQMiuxub9KrO2DRUbGIuCX+P6QShn019T0bgEN/Bsu1oN6IeFfd5oKONxgQGDpzf1VvAcFljhmSSSaGPtvd32u/BbAiehroErMpvrQrgW13Ay3PXaPd6G5f5hF+K9p8qWkORDJ5Ah8fzhqQhstMdft11RAqSvGoMC3J82BaLWlxPYDPuR4vHXAy7F14WU0hO6JcHnLf1fHDoF/L93xe+DPsS4lLx8BDnQ8nkgxlqFBfxIuxhTAAU0FlKY0KFCkggb9iRfPXQCn066A0oYGBYoMcRz6gUi4WFMABzQVUNqIsVLgMUlzIBLJrvhuj3sLsG3KDEgxYj+gtSugtLUMq5u86rkxYHnSHIwgDQKM76/xLedXANc4Hk+6I3SQ3bXAmiH/fs3kfxMidJCidNO1WN3kZR5Wd0pEegGIb3/n432E7q0eJj5izgAYuCIwDc0EGE17Av/sfEzvulOm0QtAfN4jWp8A/Aw4me4vKCLNhD5c6zzcQ6cCqgVgtAz29TgHewnw9Gjn48k0egGIz3Oe7MAc4DXAJXR7SVFpRi0AUorBEt6/mfzfORHSWBvhmCJJXYzv6NiZ4gJg71QZkmxi7AI4XehSw1qUqv/2weqc2PXaxakyJBLLMcT/oUxg24p+AXUL9FXsKYADmgoos9kUm9LsOatpWPxrmmyJxLOc8Iq7SdwBvAUbRSv9kerBrKmAMt184K3YLoap6rG1wGNTZE4ktuNJ98MZhLoF+iXmLoDTaVdAGUjV3D89PpYicyIpLABOI/2PaBzNFuiLmLsATndqYFraFbD7BqP7x0lfb/0QqzNFemMh1n+W4welboHuO4Gwe+CEhGl9vHUuJbcczf2DGMfqSI0hkd7aEziX9D+uCawpT4sIdVPMXQCn066Ao0l1k0gCgzm0t5LnLVuzBR4QWp6pxNwFcLou7QrYletXstSj+6fGnWgtExlR+uHl14UHSKopgANdmgrYhetXKn2IiBRATW/5dOEBkvqBvBCbhhWSZqqpgF24fiVSnSNSEL2N59GFB0iOJvkUqw566ML1K4laHUUKph9oWl14gKScAjgQOugw1VTALly/EugDQ6RD1ESXRhceIKHT8o7PkGaTaYchunD9clNdItJBemuPrwsPkJRTAAe6MhWwC9cvF7UmivSAfsjxdOEBkqM/vitTAbtw/VLTh4NID6kpz1/pDxCPEflNpgAOdGUqYOnXLzXVESI9prd7X6U/QHI9iLsyFbD065eKWglFRoh+8D5Kf4DkbIrvwlTA0q9fbPogEBlhavILU/oDJMcUwIEuTAUs/frFpN++iPzfDl53kL4iGMe2De3iV8ASyn+A5JyO14VdAUOv35IE5+gt51a9d2B1TR9a/0R6RRVDfUuAMyj/BeDUwPM7m3YPuSWTfxuSdoqpgKHX7wy68xKQe6verr7oi4yUfbAmutSVxATdaBr0evineAG4wuEcmz7kvMonxVRAj2vYhZcA/aZFpDYNDprZYuB0/PIam1e3zlnA0hrpeZbP7QH5rsvrOtYtn9Q02FdEWlO3wAM8v/xTvQDc7XiuVV+63uVzV3Duq3ley5JaAtTcLyJuRn3EsPeX/yBiO8/5fGf70o1RPr9wKoNhvK9nCS0Bo/5bFZEIRnW2QIwv/0HEdlyEc57+pRurfI5xLYmZxbimuVoC1FonItGNUr9irC//QcT2aGw1P+/zHnzpxiqfMeAxEcpjuljXNWVLgMbriEhyfR9ZHPPLfxApHBvp3M8gXvkcHaUkHirmtU3REtD336CIFKyv3QIpHv4TEc57JguI24rhHadPnnMKsfMS6yVAzf0iUow+dQvEbvafGqmkzFNInEnaQXQp8uTZHaDmfhEpVtdHIKd+UKZU+ktA6oc/judeFR4vAV3/bYnICOjqV0qOB2Rqpb4E5Hj4E3C+baLtS0CfWtdEZER0qeLK9WDMobSXgFwPfxqco1c0eQno6ou0iMj/Kb3pMucDMZdSXgJyPvwZcl4xo85LQOm/GRGR2kr9msn9IMwpd95zP/whX95newnoUquZiEgjJVVwuR+AEyEF6SRXGZTw8Ie8137qS0CpL8giIu5yL2DyTNLM86+KEqRa82AQJW2ak/v6n4Hdi1rMR0RGSs6vnlKiFKlaAkr58h/Iff1zhZr7RaQIObsFckdJYr8ElPbwh/zXP3WouV9EipRz5HOuKE2sl4ASH/6Q//qnDDX3i0jRRq1boETeLwGlPvwh//VPEWruF5FOGZVugVJ5vQSU/PCH/Nc/Zqi5X0Q6LedsgarwGDlfstDZASWN9p9NCfdAjFBzv4j0QondAoMv2z6/AED7loDSv/wHQq9fCWtJTA0194tIL+XcA31qTP2y7fsLAFhemzzkTqf8L/8Bj+uXeh2FmWIc+22ouV9Eei1nt8D0Zu1ReAEAWAgcD4wxe17GgI9N/rdd4XX9cr4EqLlfREbKfOCtwB3ke/jjcMyuWQ4cC1wM3DMZF03+f4/LeF5teV6/1C8Bd2C/ATX3i8hISjVbYLY+7VF7Aegb7+uXYkyARveLiEwRcxGhYQPa9ALQbTGuX8yXADX3i4jMIMZsgarR7HoB6LZY18/7JUCj+0VEavDqFqgzlU0vAN0W8/p5vASouV9EpIWQboG689j1AtBtsa9fyEuAmvtFRAK0mS2wgvrz2PUC0G0prt8S7J6qe0yN7hcRcbQFcDLDuwXWYXPdm8xj1wtAt6W6fusBJ1B9/52MmvtFRKJYji1WczGwCliJzWP/GLBri+PpBaDbUl+/XXng/luJ3YMXYWNWuriOgoywOblPQCSz0Ie4fkN56fqJtDQ39wmIiIhIenoBEBERGUF6ARARERlBegEQEREZQXoBEBERGUF6ARARERlBegEQEREZQXoBEBERGUF6ARARERlBegEQEREZQXoBEBERGUF6ARARERlBegEQEREZQXoBEBERGUF6ARARERERERERERERERERERERERERERERERERERERERERERERERERERERERERERERERERERERERERERERERERERERERERERERERERERERERERERERERERERERERERERERERERERERERERERERERERERERERERERERERERERERERERERERERERERERERERERERERERERERERERERERERERERERERERERERERERERERERERERERERERERERERERERERERERERERERERERERERERERERERERERERERERERERERERERERERERERERERERERERERERERERERERERERERERERERERERERERERERERERERERERERERERERERERERERERERERERERERERERERERERERERERERERERERERERERERERERERERERERERERERERERERERERERERERERERERERERGRXvr/HnHfVXMwCoYAAAAASUVORK5CYII=;" vertex="1" parent="1">
          <mxGeometry x="740" y="182.51999999999998" width="42.11" height="42.11" as="geometry" />
        </mxCell>
        <mxCell id="4tqr_Nl9Fvb0LUBX_hIL-65" value="&lt;font style=&quot;font-size: 11px&quot;&gt;Damages&lt;/font&gt;" style="text;html=1;align=center;verticalAlign=middle;resizable=0;points=[];autosize=1;strokeColor=none;fillColor=none;fontSize=14;fontColor=#000000;" vertex="1" parent="1">
          <mxGeometry x="586.43" y="217" width="60" height="20" as="geometry" />
        </mxCell>
        <mxCell id="4tqr_Nl9Fvb0LUBX_hIL-66" value="&lt;font style=&quot;font-size: 11px&quot;&gt;Decision making&lt;/font&gt;" style="text;html=1;align=center;verticalAlign=middle;resizable=0;points=[];autosize=1;strokeColor=none;fillColor=none;fontSize=14;fontColor=#000000;" vertex="1" parent="1">
          <mxGeometry x="709.9999999999999" y="220" width="100" height="20" as="geometry" />
        </mxCell>
      </root>
    </mxGraphModel>
  </diagram>
</mxfile>
